%TF.GenerationSoftware,KiCad,Pcbnew,10.0.1*%
%TF.CreationDate,2026-07-15T12:29:34+03:00*%
%TF.ProjectId,PSFB_Supply,50534642-5f53-4757-9070-6c792e6b6963,rev?*%
%TF.SameCoordinates,Original*%
%TF.FileFunction,Profile,NP*%
%FSLAX46Y46*%
G04 Gerber Fmt 4.6, Leading zero omitted, Abs format (unit mm)*
G04 Created by KiCad (PCBNEW 10.0.1) date 2026-07-15 12:29:34*
%MOMM*%
%LPD*%
G01*
G04 APERTURE LIST*
%TA.AperFunction,Profile*%
%ADD10C,0.050000*%
%TD*%
G04 APERTURE END LIST*
D10*
X18000000Y-81000000D02*
G75*
G02*
X18000000Y-72000000I0J4500000D01*
G01*
X18000000Y-81000000D02*
X23500000Y-81000000D01*
X18000000Y-137000000D02*
X22250000Y-137000000D01*
X18000000Y-146000000D02*
G75*
G02*
X18000000Y-137000000I0J4500000D01*
G01*
X22750000Y-127500000D02*
X22750000Y-136500001D01*
X22750000Y-127500000D02*
G75*
G02*
X23250000Y-127000000I500000J0D01*
G01*
X22750000Y-136500001D02*
G75*
G02*
X22250000Y-137000000I-500000J1D01*
G01*
X23250000Y-127000000D02*
X23500000Y-127000000D01*
X23500000Y-81000000D02*
G75*
G02*
X24000000Y-81500000I0J-500000D01*
G01*
X24000000Y-81500000D02*
X24000000Y-126500001D01*
X24000001Y-126500001D02*
G75*
G02*
X23500001Y-127000001I-500001J1D01*
G01*
X40520000Y-146000000D02*
X18000000Y-146000000D01*
X41020000Y-83270000D02*
X41020000Y-89770000D01*
X41020000Y-83270000D02*
G75*
G02*
X41520000Y-82770000I500000J0D01*
G01*
X41020000Y-101770000D02*
X41020000Y-108270000D01*
X41020000Y-101770000D02*
G75*
G02*
X41520000Y-101270000I500000J0D01*
G01*
X41020000Y-120270000D02*
X41020000Y-126770000D01*
X41020000Y-120270000D02*
G75*
G02*
X41520000Y-119770000I500000J0D01*
G01*
X41020000Y-138770000D02*
X41020000Y-145500000D01*
X41020000Y-138770000D02*
G75*
G02*
X41520000Y-138270000I500000J0D01*
G01*
X41020001Y-145500000D02*
G75*
G02*
X40520000Y-146000001I-500001J0D01*
G01*
X41520000Y-90270000D02*
G75*
G02*
X41020000Y-89770000I0J500000D01*
G01*
X41520000Y-90270000D02*
X56020000Y-90270000D01*
X41520000Y-108770000D02*
G75*
G02*
X41020000Y-108270000I0J500000D01*
G01*
X41520000Y-108770000D02*
X56020000Y-108770000D01*
X41520000Y-127270000D02*
G75*
G02*
X41020000Y-126770000I0J500000D01*
G01*
X41520000Y-127270000D02*
X56020000Y-127270000D01*
X49770000Y-82770000D02*
X41520000Y-82770000D01*
X49770000Y-101270000D02*
X41520000Y-101270000D01*
X49770000Y-119770000D02*
X41520000Y-119770000D01*
X49770000Y-138270000D02*
X41520000Y-138270000D01*
X50270000Y-79770000D02*
X50270000Y-82270000D01*
X50270000Y-79770000D02*
G75*
G02*
X50770000Y-79270000I500000J0D01*
G01*
X50270000Y-82270000D02*
G75*
G02*
X49770000Y-82770000I-500000J0D01*
G01*
X50270000Y-98270000D02*
X50270000Y-100770000D01*
X50270000Y-98270000D02*
G75*
G02*
X50770000Y-97770000I500000J0D01*
G01*
X50270000Y-100770000D02*
G75*
G02*
X49770000Y-101270000I-500000J0D01*
G01*
X50270000Y-116770000D02*
X50270000Y-119270000D01*
X50270000Y-116770000D02*
G75*
G02*
X50770000Y-116270000I500000J0D01*
G01*
X50270000Y-119270000D02*
G75*
G02*
X49770000Y-119770000I-500000J0D01*
G01*
X50270000Y-135270000D02*
X50270000Y-137770000D01*
X50270000Y-135270000D02*
G75*
G02*
X50770000Y-134770000I500000J0D01*
G01*
X50270000Y-137770000D02*
G75*
G02*
X49770000Y-138270000I-500000J0D01*
G01*
X50770000Y-79270000D02*
X56020000Y-79270000D01*
X50770000Y-97770000D02*
X56020000Y-97770000D01*
X50770000Y-116270000D02*
X56020000Y-116270000D01*
X50770000Y-134770000D02*
X56020000Y-134770000D01*
X56020000Y-72000000D02*
X18000000Y-72000000D01*
X56020000Y-72000000D02*
G75*
G02*
X56520000Y-72500000I0J-500000D01*
G01*
X56020000Y-90270000D02*
G75*
G02*
X56520000Y-90770000I0J-500000D01*
G01*
X56020000Y-108770000D02*
G75*
G02*
X56520000Y-109270000I0J-500000D01*
G01*
X56020000Y-127270000D02*
G75*
G02*
X56520000Y-127770000I0J-500000D01*
G01*
X56519999Y-72500001D02*
X56519999Y-78770000D01*
X56520000Y-78770000D02*
G75*
G02*
X56020000Y-79270000I-500000J0D01*
G01*
X56520000Y-97270000D02*
G75*
G02*
X56020000Y-97770000I-500000J0D01*
G01*
X56520000Y-97270000D02*
X56520000Y-90770000D01*
X56520000Y-115770000D02*
G75*
G02*
X56020000Y-116270000I-500000J0D01*
G01*
X56520000Y-115770000D02*
X56520000Y-109270000D01*
X56520000Y-134270000D02*
G75*
G02*
X56020000Y-134770000I-500000J0D01*
G01*
X56520000Y-134270000D02*
X56520000Y-127770000D01*
M02*
