%TF.GenerationSoftware,KiCad,Pcbnew,10.0.1*%
%TF.CreationDate,2026-07-15T12:29:34+03:00*%
%TF.ProjectId,PSFB_Supply,50534642-5f53-4757-9070-6c792e6b6963,rev?*%
%TF.SameCoordinates,Original*%
%TF.FileFunction,Copper,L1,Top*%
%TF.FilePolarity,Positive*%
%FSLAX46Y46*%
G04 Gerber Fmt 4.6, Leading zero omitted, Abs format (unit mm)*
G04 Created by KiCad (PCBNEW 10.0.1) date 2026-07-15 12:29:34*
%MOMM*%
%LPD*%
G01*
G04 APERTURE LIST*
%TA.AperFunction,ComponentPad*%
%ADD10O,1.700000X2.300000*%
%TD*%
%TA.AperFunction,ComponentPad*%
%ADD11R,1.700000X1.700000*%
%TD*%
%TA.AperFunction,ComponentPad*%
%ADD12C,1.700000*%
%TD*%
%TA.AperFunction,ViaPad*%
%ADD13C,0.600000*%
%TD*%
%TA.AperFunction,Profile*%
%ADD14C,0.050000*%
%TD*%
G04 APERTURE END LIST*
D10*
%TO.P,D1,1,Vin_1*%
%TO.N,Net-(D1-Vin)*%
X32270000Y-75807470D03*
%TO.P,D1,2,GND_2*%
%TO.N,GND*%
X34810000Y-75807470D03*
%TO.P,D1,5,-Vo_5*%
%TO.N,/QA01_1/-4V_OUT*%
X42430000Y-75807470D03*
%TO.P,D1,6,0V_6*%
%TO.N,/QA01_1/GND2*%
X44970000Y-75807470D03*
%TO.P,D1,7,+Vo_7*%
%TO.N,/QA01_1/+15V_OUT*%
X47510000Y-75807470D03*
%TD*%
%TO.P,D4,1,Vin_1*%
%TO.N,Net-(D4-Vin)*%
X32270000Y-131307470D03*
%TO.P,D4,2,GND_2*%
%TO.N,GND*%
X34810000Y-131307470D03*
%TO.P,D4,5,-Vo_5*%
%TO.N,/QA01_4/-4V_OUT*%
X42430000Y-131307470D03*
%TO.P,D4,6,0V_6*%
%TO.N,/QA01_4/GND2*%
X44970000Y-131307470D03*
%TO.P,D4,7,+Vo_7*%
%TO.N,/QA01_4/+15V_OUT*%
X47510000Y-131307470D03*
%TD*%
%TO.P,D3,1,Vin_1*%
%TO.N,Net-(D3-Vin)*%
X32270000Y-112807470D03*
%TO.P,D3,2,GND_2*%
%TO.N,GND*%
X34810000Y-112807470D03*
%TO.P,D3,5,-Vo_5*%
%TO.N,/QA01_3/-4V_OUT*%
X42430000Y-112807470D03*
%TO.P,D3,6,0V_6*%
%TO.N,/QA01_3/GND2*%
X44970000Y-112807470D03*
%TO.P,D3,7,+Vo_7*%
%TO.N,/QA01_3/+15V_OUT*%
X47510000Y-112807470D03*
%TD*%
%TO.P,D2,1,Vin_1*%
%TO.N,Net-(D2-Vin)*%
X32270000Y-94307470D03*
%TO.P,D2,2,GND_2*%
%TO.N,GND*%
X34810000Y-94307470D03*
%TO.P,D2,5,-Vo_5*%
%TO.N,/QA01_2/-4V_OUT*%
X42430000Y-94307470D03*
%TO.P,D2,6,0V_6*%
%TO.N,/QA01_2/GND2*%
X44970000Y-94307470D03*
%TO.P,D2,7,+Vo_7*%
%TO.N,/QA01_2/+15V_OUT*%
X47510000Y-94307470D03*
%TD*%
D11*
%TO.P,J6,1,Pin_1_1*%
%TO.N,/QA01_4/-4V_OUT*%
X54770000Y-132270000D03*
D12*
%TO.P,J6,2,Pin_2_2*%
%TO.N,/QA01_4/+15V_OUT*%
X54770000Y-129730000D03*
%TO.P,J6,3,Pin_3_3*%
%TO.N,/QA01_4/GND2*%
X52230000Y-132270000D03*
%TO.P,J6,4,Pin_4_4*%
X52230000Y-129730000D03*
%TD*%
D11*
%TO.P,J1,1,Pin_1_1*%
%TO.N,/QA01_1/-4V_OUT*%
X54770000Y-76770000D03*
D12*
%TO.P,J1,2,Pin_2_2*%
%TO.N,/QA01_1/+15V_OUT*%
X54770000Y-74230000D03*
%TO.P,J1,3,Pin_3_3*%
%TO.N,/QA01_1/GND2*%
X52230000Y-76770000D03*
%TO.P,J1,4,Pin_4_4*%
X52230000Y-74230000D03*
%TD*%
D11*
%TO.P,J3,1,Pin_1_1*%
%TO.N,GND*%
X27093600Y-129730000D03*
D12*
%TO.P,J3,2,Pin_2_2*%
X24553600Y-129730000D03*
%TO.P,J3,3,Pin_3_3*%
X27093600Y-132270000D03*
%TO.P,J3,4,Pin_4_4*%
X24553600Y-132270000D03*
%TD*%
D11*
%TO.P,J2,1,Pin_1_1*%
%TO.N,+15V*%
X27093622Y-74230000D03*
D12*
%TO.P,J2,2,Pin_2_2*%
X24553622Y-74230000D03*
%TO.P,J2,3,Pin_3_3*%
X27093622Y-76770000D03*
%TO.P,J2,4,Pin_4_4*%
X24553622Y-76770000D03*
%TD*%
D11*
%TO.P,J5,1,Pin_1_1*%
%TO.N,/QA01_3/-4V_OUT*%
X54770000Y-113770000D03*
D12*
%TO.P,J5,2,Pin_2_2*%
%TO.N,/QA01_3/+15V_OUT*%
X54770000Y-111230000D03*
%TO.P,J5,3,Pin_3_3*%
%TO.N,/QA01_3/GND2*%
X52230000Y-113770000D03*
%TO.P,J5,4,Pin_4_4*%
X52230000Y-111230000D03*
%TD*%
D11*
%TO.P,J4,1,Pin_1_1*%
%TO.N,/QA01_2/-4V_OUT*%
X54770000Y-95270000D03*
D12*
%TO.P,J4,2,Pin_2_2*%
%TO.N,/QA01_2/+15V_OUT*%
X54770000Y-92730000D03*
%TO.P,J4,3,Pin_3_3*%
%TO.N,/QA01_2/GND2*%
X52230000Y-95270000D03*
%TO.P,J4,4,Pin_4_4*%
X52230000Y-92730000D03*
%TD*%
D13*
%TO.N,+15V*%
X35082500Y-107332500D03*
X35082500Y-125832500D03*
X36020000Y-143020000D03*
X35082500Y-88957500D03*
%TD*%
%TA.AperFunction,Conductor*%
%TO.N,/QA01_1/-4V_OUT*%
G36*
X56029639Y-72252027D02*
G01*
X56046026Y-72254622D01*
X56077700Y-72259639D01*
X56114595Y-72271627D01*
X56149153Y-72289235D01*
X56151061Y-72290621D01*
X56152286Y-72290888D01*
X56180540Y-72312039D01*
X56207960Y-72339459D01*
X56230764Y-72370846D01*
X56248372Y-72405404D01*
X56260360Y-72442298D01*
X56267972Y-72490352D01*
X56269499Y-72509752D01*
X56269499Y-78760246D01*
X56267972Y-78779646D01*
X56260360Y-78827701D01*
X56248372Y-78864595D01*
X56230764Y-78899153D01*
X56207960Y-78930540D01*
X56180540Y-78957960D01*
X56149153Y-78980764D01*
X56114595Y-78998372D01*
X56077701Y-79010360D01*
X56044355Y-79015642D01*
X56029638Y-79017973D01*
X56010241Y-79019500D01*
X50696082Y-79019500D01*
X50696075Y-79019501D01*
X50551094Y-79048340D01*
X50551082Y-79048343D01*
X50414511Y-79104912D01*
X50414498Y-79104919D01*
X50291585Y-79187048D01*
X50291581Y-79187051D01*
X50187051Y-79291581D01*
X50187048Y-79291585D01*
X50104919Y-79414498D01*
X50104912Y-79414511D01*
X50048343Y-79551082D01*
X50048340Y-79551094D01*
X50019501Y-79696075D01*
X50019500Y-79696082D01*
X50019500Y-82260240D01*
X50017973Y-82279640D01*
X50010360Y-82327701D01*
X49998372Y-82364595D01*
X49980764Y-82399153D01*
X49957960Y-82430540D01*
X49930540Y-82457960D01*
X49899153Y-82480764D01*
X49864595Y-82498372D01*
X49827701Y-82510360D01*
X49794355Y-82515642D01*
X49779638Y-82517973D01*
X49760241Y-82519500D01*
X41657918Y-82519500D01*
X41638737Y-82513867D01*
X41618758Y-82513154D01*
X41605898Y-82504225D01*
X41590879Y-82499815D01*
X41577788Y-82484707D01*
X41561366Y-82473305D01*
X41547157Y-82449357D01*
X41545124Y-82447011D01*
X41543366Y-82442976D01*
X41523283Y-82394489D01*
X41514906Y-82363223D01*
X41501061Y-82258059D01*
X41500000Y-82241874D01*
X41500000Y-75416918D01*
X43819500Y-75416918D01*
X43819500Y-76198021D01*
X43847829Y-76376880D01*
X43903787Y-76549106D01*
X43903788Y-76549109D01*
X43959664Y-76658770D01*
X43970200Y-76679448D01*
X43986006Y-76710467D01*
X44092441Y-76856964D01*
X44092445Y-76856969D01*
X44220500Y-76985024D01*
X44220505Y-76985028D01*
X44348287Y-77077866D01*
X44367006Y-77091466D01*
X44472484Y-77145210D01*
X44528360Y-77173681D01*
X44528363Y-77173682D01*
X44614476Y-77201661D01*
X44700591Y-77229641D01*
X44783429Y-77242761D01*
X44879449Y-77257970D01*
X44879454Y-77257970D01*
X45060551Y-77257970D01*
X45147259Y-77244235D01*
X45239409Y-77229641D01*
X45411639Y-77173681D01*
X45572994Y-77091466D01*
X45719501Y-76985023D01*
X45847553Y-76856971D01*
X45953996Y-76710464D01*
X46036211Y-76549109D01*
X46092171Y-76376879D01*
X46106422Y-76286895D01*
X46117527Y-76216791D01*
X46147456Y-76153656D01*
X46206768Y-76116725D01*
X46276630Y-76117723D01*
X46334863Y-76156333D01*
X46362473Y-76216791D01*
X46387829Y-76376880D01*
X46443787Y-76549106D01*
X46443788Y-76549109D01*
X46499664Y-76658770D01*
X46510200Y-76679448D01*
X46526006Y-76710467D01*
X46632441Y-76856964D01*
X46632445Y-76856969D01*
X46760500Y-76985024D01*
X46760505Y-76985028D01*
X46888287Y-77077866D01*
X46907006Y-77091466D01*
X47012484Y-77145210D01*
X47068360Y-77173681D01*
X47068363Y-77173682D01*
X47154476Y-77201661D01*
X47240591Y-77229641D01*
X47323429Y-77242761D01*
X47419449Y-77257970D01*
X47419454Y-77257970D01*
X47600551Y-77257970D01*
X47687259Y-77244235D01*
X47779409Y-77229641D01*
X47951639Y-77173681D01*
X48112994Y-77091466D01*
X48259501Y-76985023D01*
X48387553Y-76856971D01*
X48493996Y-76710464D01*
X48576211Y-76549109D01*
X48632171Y-76376879D01*
X48646765Y-76284729D01*
X48660500Y-76198021D01*
X48660500Y-75416918D01*
X48641381Y-75296211D01*
X48632171Y-75238061D01*
X48589769Y-75107558D01*
X48576212Y-75065833D01*
X48576211Y-75065830D01*
X48532220Y-74979494D01*
X48493996Y-74904476D01*
X48442062Y-74832994D01*
X48387558Y-74757975D01*
X48387554Y-74757970D01*
X48259499Y-74629915D01*
X48259494Y-74629911D01*
X48112997Y-74523476D01*
X48112996Y-74523475D01*
X48112994Y-74523474D01*
X48061300Y-74497134D01*
X47951639Y-74441258D01*
X47951636Y-74441257D01*
X47779410Y-74385299D01*
X47600551Y-74356970D01*
X47600546Y-74356970D01*
X47419454Y-74356970D01*
X47419449Y-74356970D01*
X47240589Y-74385299D01*
X47068363Y-74441257D01*
X47068360Y-74441258D01*
X46907002Y-74523476D01*
X46760505Y-74629911D01*
X46760500Y-74629915D01*
X46632445Y-74757970D01*
X46632441Y-74757975D01*
X46526006Y-74904472D01*
X46443788Y-75065830D01*
X46443787Y-75065833D01*
X46387829Y-75238059D01*
X46362473Y-75398148D01*
X46332544Y-75461283D01*
X46273232Y-75498214D01*
X46203369Y-75497216D01*
X46145137Y-75458606D01*
X46117527Y-75398148D01*
X46101381Y-75296211D01*
X46092171Y-75238061D01*
X46049769Y-75107558D01*
X46036212Y-75065833D01*
X46036211Y-75065830D01*
X45992220Y-74979494D01*
X45953996Y-74904476D01*
X45902062Y-74832994D01*
X45847558Y-74757975D01*
X45847554Y-74757970D01*
X45719499Y-74629915D01*
X45719494Y-74629911D01*
X45572997Y-74523476D01*
X45572996Y-74523475D01*
X45572994Y-74523474D01*
X45521300Y-74497134D01*
X45411639Y-74441258D01*
X45411636Y-74441257D01*
X45239410Y-74385299D01*
X45060551Y-74356970D01*
X45060546Y-74356970D01*
X44879454Y-74356970D01*
X44879449Y-74356970D01*
X44700589Y-74385299D01*
X44528363Y-74441257D01*
X44528360Y-74441258D01*
X44367002Y-74523476D01*
X44220505Y-74629911D01*
X44220500Y-74629915D01*
X44092445Y-74757970D01*
X44092441Y-74757975D01*
X43986006Y-74904472D01*
X43903788Y-75065830D01*
X43903787Y-75065833D01*
X43847829Y-75238059D01*
X43819500Y-75416918D01*
X41500000Y-75416918D01*
X41500000Y-74139448D01*
X51079500Y-74139448D01*
X51079500Y-74320551D01*
X51107829Y-74499410D01*
X51163787Y-74671636D01*
X51163788Y-74671639D01*
X51246006Y-74832997D01*
X51352441Y-74979494D01*
X51352445Y-74979499D01*
X51480500Y-75107554D01*
X51480505Y-75107558D01*
X51608287Y-75200396D01*
X51627006Y-75213996D01*
X51732484Y-75267740D01*
X51788360Y-75296211D01*
X51788363Y-75296212D01*
X51874476Y-75324191D01*
X51960591Y-75352171D01*
X52033639Y-75363740D01*
X52120678Y-75377527D01*
X52183813Y-75407456D01*
X52220744Y-75466768D01*
X52219746Y-75536631D01*
X52181136Y-75594863D01*
X52120678Y-75622473D01*
X51960589Y-75647829D01*
X51788363Y-75703787D01*
X51788360Y-75703788D01*
X51627002Y-75786006D01*
X51480505Y-75892441D01*
X51480500Y-75892445D01*
X51352445Y-76020500D01*
X51352441Y-76020505D01*
X51246006Y-76167002D01*
X51163788Y-76328360D01*
X51163787Y-76328363D01*
X51107829Y-76500589D01*
X51079500Y-76679448D01*
X51079500Y-76860551D01*
X51107829Y-77039410D01*
X51163787Y-77211636D01*
X51163788Y-77211639D01*
X51246006Y-77372997D01*
X51352441Y-77519494D01*
X51352445Y-77519499D01*
X51480500Y-77647554D01*
X51480505Y-77647558D01*
X51608287Y-77740396D01*
X51627006Y-77753996D01*
X51732484Y-77807740D01*
X51788360Y-77836211D01*
X51788363Y-77836212D01*
X51874476Y-77864191D01*
X51960591Y-77892171D01*
X52043429Y-77905291D01*
X52139449Y-77920500D01*
X52139454Y-77920500D01*
X52320551Y-77920500D01*
X52407259Y-77906765D01*
X52499409Y-77892171D01*
X52671639Y-77836211D01*
X52832994Y-77753996D01*
X52979501Y-77647553D01*
X53107553Y-77519501D01*
X53213996Y-77372994D01*
X53296211Y-77211639D01*
X53352171Y-77039409D01*
X53366765Y-76947259D01*
X53380500Y-76860551D01*
X53380500Y-76679448D01*
X53359855Y-76549106D01*
X53352171Y-76500591D01*
X53296211Y-76328361D01*
X53296211Y-76328360D01*
X53267740Y-76272484D01*
X53213996Y-76167006D01*
X53177465Y-76116725D01*
X53107558Y-76020505D01*
X53107554Y-76020500D01*
X52979499Y-75892445D01*
X52979494Y-75892441D01*
X52832997Y-75786006D01*
X52832996Y-75786005D01*
X52832994Y-75786004D01*
X52781300Y-75759664D01*
X52671639Y-75703788D01*
X52671636Y-75703787D01*
X52499410Y-75647829D01*
X52339321Y-75622473D01*
X52276186Y-75592544D01*
X52239255Y-75533232D01*
X52240253Y-75463370D01*
X52278863Y-75405137D01*
X52339321Y-75377527D01*
X52409425Y-75366422D01*
X52499409Y-75352171D01*
X52671639Y-75296211D01*
X52832994Y-75213996D01*
X52979501Y-75107553D01*
X53107553Y-74979501D01*
X53213996Y-74832994D01*
X53296211Y-74671639D01*
X53352171Y-74499409D01*
X53370244Y-74385299D01*
X53377527Y-74339321D01*
X53407456Y-74276186D01*
X53466768Y-74239255D01*
X53536630Y-74240253D01*
X53594863Y-74278863D01*
X53622473Y-74339321D01*
X53647829Y-74499410D01*
X53703787Y-74671636D01*
X53703788Y-74671639D01*
X53786006Y-74832997D01*
X53892441Y-74979494D01*
X53892445Y-74979499D01*
X54020500Y-75107554D01*
X54020505Y-75107558D01*
X54148287Y-75200396D01*
X54167006Y-75213996D01*
X54272484Y-75267740D01*
X54328360Y-75296211D01*
X54328363Y-75296212D01*
X54414476Y-75324191D01*
X54500591Y-75352171D01*
X54583429Y-75365291D01*
X54679449Y-75380500D01*
X54679454Y-75380500D01*
X54860551Y-75380500D01*
X54947259Y-75366765D01*
X55039409Y-75352171D01*
X55211639Y-75296211D01*
X55372994Y-75213996D01*
X55519501Y-75107553D01*
X55647553Y-74979501D01*
X55753996Y-74832994D01*
X55836211Y-74671639D01*
X55892171Y-74499409D01*
X55914731Y-74356970D01*
X55920500Y-74320551D01*
X55920500Y-74139448D01*
X55904019Y-74035397D01*
X55892171Y-73960591D01*
X55836211Y-73788361D01*
X55836211Y-73788360D01*
X55807740Y-73732484D01*
X55753996Y-73627006D01*
X55740396Y-73608287D01*
X55647558Y-73480505D01*
X55647554Y-73480500D01*
X55519499Y-73352445D01*
X55519494Y-73352441D01*
X55372997Y-73246006D01*
X55372996Y-73246005D01*
X55372994Y-73246004D01*
X55321300Y-73219664D01*
X55211639Y-73163788D01*
X55211636Y-73163787D01*
X55039410Y-73107829D01*
X54860551Y-73079500D01*
X54860546Y-73079500D01*
X54679454Y-73079500D01*
X54679449Y-73079500D01*
X54500589Y-73107829D01*
X54328363Y-73163787D01*
X54328360Y-73163788D01*
X54167002Y-73246006D01*
X54020505Y-73352441D01*
X54020500Y-73352445D01*
X53892445Y-73480500D01*
X53892441Y-73480505D01*
X53786006Y-73627002D01*
X53703788Y-73788360D01*
X53703787Y-73788363D01*
X53647829Y-73960589D01*
X53622473Y-74120678D01*
X53592544Y-74183813D01*
X53533232Y-74220744D01*
X53463369Y-74219746D01*
X53405137Y-74181136D01*
X53377527Y-74120678D01*
X53363740Y-74033639D01*
X53352171Y-73960591D01*
X53296211Y-73788361D01*
X53296211Y-73788360D01*
X53267740Y-73732484D01*
X53213996Y-73627006D01*
X53200396Y-73608287D01*
X53107558Y-73480505D01*
X53107554Y-73480500D01*
X52979499Y-73352445D01*
X52979494Y-73352441D01*
X52832997Y-73246006D01*
X52832996Y-73246005D01*
X52832994Y-73246004D01*
X52781300Y-73219664D01*
X52671639Y-73163788D01*
X52671636Y-73163787D01*
X52499410Y-73107829D01*
X52320551Y-73079500D01*
X52320546Y-73079500D01*
X52139454Y-73079500D01*
X52139449Y-73079500D01*
X51960589Y-73107829D01*
X51788363Y-73163787D01*
X51788360Y-73163788D01*
X51627002Y-73246006D01*
X51480505Y-73352441D01*
X51480500Y-73352445D01*
X51352445Y-73480500D01*
X51352441Y-73480505D01*
X51246006Y-73627002D01*
X51163788Y-73788360D01*
X51163787Y-73788363D01*
X51107829Y-73960589D01*
X51079500Y-74139448D01*
X41500000Y-74139448D01*
X41500000Y-72508125D01*
X41501061Y-72491940D01*
X41507597Y-72442298D01*
X41514906Y-72386775D01*
X41523284Y-72355508D01*
X41535073Y-72327047D01*
X41578914Y-72272644D01*
X41645208Y-72250579D01*
X41649634Y-72250500D01*
X55975829Y-72250500D01*
X56010241Y-72250500D01*
X56029639Y-72252027D01*
G37*
%TD.AperFunction*%
%TD*%
%TA.AperFunction,Conductor*%
%TO.N,+15V*%
G36*
X37713039Y-72270185D02*
G01*
X37758794Y-72322989D01*
X37770000Y-72374500D01*
X37770000Y-145491874D01*
X37768939Y-145508060D01*
X37755093Y-145613224D01*
X37746717Y-145644486D01*
X37734929Y-145672948D01*
X37691090Y-145727353D01*
X37624797Y-145749421D01*
X37620366Y-145749500D01*
X22899634Y-145749500D01*
X22832595Y-145729815D01*
X22786840Y-145677011D01*
X22785085Y-145672983D01*
X22773282Y-145644486D01*
X22764906Y-145613223D01*
X22751061Y-145508059D01*
X22750000Y-145491874D01*
X22750000Y-137112729D01*
X22769685Y-137045690D01*
X22786320Y-137025047D01*
X22832948Y-136978419D01*
X22832951Y-136978416D01*
X22915084Y-136855496D01*
X22971658Y-136718914D01*
X23000499Y-136573919D01*
X23000499Y-136573916D01*
X23000500Y-136573909D01*
X23000500Y-132643262D01*
X23020185Y-132576223D01*
X23072989Y-132530468D01*
X23142147Y-132520524D01*
X23205703Y-132549549D01*
X23242429Y-132604942D01*
X23302043Y-132788412D01*
X23302044Y-132788414D01*
X23398551Y-132977820D01*
X23523490Y-133149786D01*
X23673813Y-133300109D01*
X23845779Y-133425048D01*
X23845781Y-133425049D01*
X23845784Y-133425051D01*
X24035188Y-133521557D01*
X24237357Y-133587246D01*
X24447313Y-133620500D01*
X24447314Y-133620500D01*
X24659886Y-133620500D01*
X24659887Y-133620500D01*
X24869843Y-133587246D01*
X25072012Y-133521557D01*
X25261416Y-133425051D01*
X25283389Y-133409086D01*
X25433386Y-133300109D01*
X25433388Y-133300106D01*
X25433392Y-133300104D01*
X25583704Y-133149792D01*
X25583706Y-133149788D01*
X25583709Y-133149786D01*
X25708648Y-132977820D01*
X25708647Y-132977820D01*
X25708651Y-132977816D01*
X25713114Y-132969054D01*
X25761088Y-132918259D01*
X25828908Y-132901463D01*
X25895044Y-132923999D01*
X25934086Y-132969056D01*
X25938551Y-132977820D01*
X26063490Y-133149786D01*
X26213813Y-133300109D01*
X26385779Y-133425048D01*
X26385781Y-133425049D01*
X26385784Y-133425051D01*
X26575188Y-133521557D01*
X26777357Y-133587246D01*
X26987313Y-133620500D01*
X26987314Y-133620500D01*
X27199886Y-133620500D01*
X27199887Y-133620500D01*
X27409843Y-133587246D01*
X27612012Y-133521557D01*
X27801416Y-133425051D01*
X27823389Y-133409086D01*
X27973386Y-133300109D01*
X27973388Y-133300106D01*
X27973392Y-133300104D01*
X28123704Y-133149792D01*
X28123706Y-133149788D01*
X28123709Y-133149786D01*
X28248648Y-132977820D01*
X28248647Y-132977820D01*
X28248651Y-132977816D01*
X28345157Y-132788412D01*
X28410846Y-132586243D01*
X28444100Y-132376287D01*
X28444100Y-132163713D01*
X28410846Y-131953757D01*
X28345157Y-131751588D01*
X28248651Y-131562184D01*
X28248649Y-131562181D01*
X28248648Y-131562179D01*
X28123709Y-131390213D01*
X28010169Y-131276673D01*
X27976684Y-131215350D01*
X27981668Y-131145658D01*
X28023540Y-131089725D01*
X28054515Y-131072810D01*
X28185931Y-131023796D01*
X28301146Y-130937546D01*
X28328367Y-130901183D01*
X30919500Y-130901183D01*
X30919500Y-131713757D01*
X30952754Y-131923713D01*
X30980145Y-132008014D01*
X31018444Y-132125884D01*
X31114951Y-132315290D01*
X31239890Y-132487256D01*
X31390213Y-132637579D01*
X31562179Y-132762518D01*
X31562181Y-132762519D01*
X31562184Y-132762521D01*
X31751588Y-132859027D01*
X31953757Y-132924716D01*
X32163713Y-132957970D01*
X32163714Y-132957970D01*
X32376286Y-132957970D01*
X32376287Y-132957970D01*
X32586243Y-132924716D01*
X32788412Y-132859027D01*
X32977816Y-132762521D01*
X33020307Y-132731650D01*
X33149786Y-132637579D01*
X33149788Y-132637576D01*
X33149792Y-132637574D01*
X33300104Y-132487262D01*
X33300106Y-132487258D01*
X33300109Y-132487256D01*
X33425048Y-132315290D01*
X33425047Y-132315290D01*
X33425051Y-132315286D01*
X33429514Y-132306524D01*
X33477488Y-132255729D01*
X33545308Y-132238933D01*
X33611444Y-132261469D01*
X33650486Y-132306526D01*
X33654951Y-132315290D01*
X33779890Y-132487256D01*
X33930213Y-132637579D01*
X34102179Y-132762518D01*
X34102181Y-132762519D01*
X34102184Y-132762521D01*
X34291588Y-132859027D01*
X34493757Y-132924716D01*
X34703713Y-132957970D01*
X34703714Y-132957970D01*
X34916286Y-132957970D01*
X34916287Y-132957970D01*
X35126243Y-132924716D01*
X35328412Y-132859027D01*
X35517816Y-132762521D01*
X35560307Y-132731650D01*
X35689786Y-132637579D01*
X35689788Y-132637576D01*
X35689792Y-132637574D01*
X35840104Y-132487262D01*
X35840106Y-132487258D01*
X35840109Y-132487256D01*
X35965048Y-132315290D01*
X35965047Y-132315290D01*
X35965051Y-132315286D01*
X36061557Y-132125882D01*
X36127246Y-131923713D01*
X36160500Y-131713757D01*
X36160500Y-130901183D01*
X36127246Y-130691227D01*
X36061557Y-130489058D01*
X35965051Y-130299654D01*
X35965049Y-130299651D01*
X35965048Y-130299649D01*
X35840109Y-130127683D01*
X35689786Y-129977360D01*
X35517820Y-129852421D01*
X35328414Y-129755914D01*
X35328413Y-129755913D01*
X35328412Y-129755913D01*
X35126243Y-129690224D01*
X35126241Y-129690223D01*
X35126240Y-129690223D01*
X34964957Y-129664678D01*
X34916287Y-129656970D01*
X34703713Y-129656970D01*
X34655042Y-129664678D01*
X34493760Y-129690223D01*
X34291585Y-129755914D01*
X34102179Y-129852421D01*
X33930213Y-129977360D01*
X33779890Y-130127683D01*
X33654949Y-130299652D01*
X33650484Y-130308416D01*
X33602509Y-130359212D01*
X33534688Y-130376006D01*
X33468553Y-130353468D01*
X33429516Y-130308416D01*
X33425050Y-130299652D01*
X33300109Y-130127683D01*
X33149786Y-129977360D01*
X32977820Y-129852421D01*
X32788414Y-129755914D01*
X32788413Y-129755913D01*
X32788412Y-129755913D01*
X32586243Y-129690224D01*
X32586241Y-129690223D01*
X32586240Y-129690223D01*
X32424957Y-129664678D01*
X32376287Y-129656970D01*
X32163713Y-129656970D01*
X32115042Y-129664678D01*
X31953760Y-129690223D01*
X31751585Y-129755914D01*
X31562179Y-129852421D01*
X31390213Y-129977360D01*
X31239890Y-130127683D01*
X31114951Y-130299649D01*
X31018444Y-130489055D01*
X30952753Y-130691230D01*
X30941845Y-130760104D01*
X30919500Y-130901183D01*
X28328367Y-130901183D01*
X28387396Y-130822331D01*
X28437691Y-130687483D01*
X28444100Y-130627873D01*
X28444099Y-128832128D01*
X28437691Y-128772517D01*
X28436410Y-128769083D01*
X28387397Y-128637671D01*
X28387393Y-128637664D01*
X28301147Y-128522455D01*
X28301144Y-128522452D01*
X28185935Y-128436206D01*
X28185928Y-128436202D01*
X28051082Y-128385908D01*
X28051083Y-128385908D01*
X27991483Y-128379501D01*
X27991481Y-128379500D01*
X27991473Y-128379500D01*
X27991464Y-128379500D01*
X26195729Y-128379500D01*
X26195723Y-128379501D01*
X26136116Y-128385908D01*
X26001271Y-128436202D01*
X26001264Y-128436206D01*
X25886055Y-128522452D01*
X25886052Y-128522455D01*
X25799806Y-128637664D01*
X25799803Y-128637669D01*
X25750789Y-128769083D01*
X25708917Y-128825016D01*
X25643453Y-128849433D01*
X25575180Y-128834581D01*
X25546926Y-128813430D01*
X25433386Y-128699890D01*
X25261420Y-128574951D01*
X25072014Y-128478444D01*
X25072013Y-128478443D01*
X25072012Y-128478443D01*
X24869843Y-128412754D01*
X24869841Y-128412753D01*
X24869840Y-128412753D01*
X24708557Y-128387208D01*
X24659887Y-128379500D01*
X24447313Y-128379500D01*
X24398642Y-128387208D01*
X24237360Y-128412753D01*
X24035185Y-128478444D01*
X23845779Y-128574951D01*
X23673813Y-128699890D01*
X23523490Y-128850213D01*
X23398551Y-129022179D01*
X23302044Y-129211585D01*
X23242431Y-129395055D01*
X23202993Y-129452731D01*
X23138635Y-129479929D01*
X23069788Y-129468014D01*
X23018313Y-129420770D01*
X23000500Y-129356737D01*
X23000500Y-127509757D01*
X23002027Y-127490359D01*
X23008392Y-127450172D01*
X23009639Y-127442298D01*
X23021627Y-127405404D01*
X23039235Y-127370846D01*
X23062036Y-127339462D01*
X23089462Y-127312036D01*
X23120844Y-127289236D01*
X23155404Y-127271626D01*
X23192297Y-127259639D01*
X23229573Y-127253735D01*
X23240361Y-127252027D01*
X23259759Y-127250500D01*
X23294171Y-127250500D01*
X23445830Y-127250500D01*
X23445842Y-127250501D01*
X23455832Y-127250501D01*
X23500001Y-127250501D01*
X23500002Y-127250501D01*
X23536960Y-127250500D01*
X23573920Y-127250500D01*
X23573924Y-127250499D01*
X23718914Y-127221659D01*
X23855496Y-127165085D01*
X23978416Y-127082952D01*
X24082952Y-126978416D01*
X24165085Y-126855496D01*
X24173610Y-126834916D01*
X24221657Y-126718918D01*
X24221659Y-126718914D01*
X24250500Y-126573919D01*
X24250501Y-126500002D01*
X24250501Y-126455832D01*
X24250501Y-126445843D01*
X24250500Y-126445829D01*
X24250500Y-112401183D01*
X30919500Y-112401183D01*
X30919500Y-113213756D01*
X30952753Y-113423709D01*
X31018444Y-113625884D01*
X31114951Y-113815290D01*
X31239890Y-113987256D01*
X31390213Y-114137579D01*
X31562179Y-114262518D01*
X31562181Y-114262519D01*
X31562184Y-114262521D01*
X31751588Y-114359027D01*
X31953757Y-114424716D01*
X32163713Y-114457970D01*
X32163714Y-114457970D01*
X32376286Y-114457970D01*
X32376287Y-114457970D01*
X32586243Y-114424716D01*
X32788412Y-114359027D01*
X32977816Y-114262521D01*
X32999789Y-114246556D01*
X33149786Y-114137579D01*
X33149788Y-114137576D01*
X33149792Y-114137574D01*
X33300104Y-113987262D01*
X33300106Y-113987258D01*
X33300109Y-113987256D01*
X33425048Y-113815290D01*
X33425047Y-113815290D01*
X33425051Y-113815286D01*
X33429514Y-113806524D01*
X33477488Y-113755729D01*
X33545308Y-113738933D01*
X33611444Y-113761469D01*
X33650486Y-113806526D01*
X33654951Y-113815290D01*
X33779890Y-113987256D01*
X33930213Y-114137579D01*
X34102179Y-114262518D01*
X34102181Y-114262519D01*
X34102184Y-114262521D01*
X34291588Y-114359027D01*
X34493757Y-114424716D01*
X34703713Y-114457970D01*
X34703714Y-114457970D01*
X34916286Y-114457970D01*
X34916287Y-114457970D01*
X35126243Y-114424716D01*
X35328412Y-114359027D01*
X35517816Y-114262521D01*
X35539789Y-114246556D01*
X35689786Y-114137579D01*
X35689788Y-114137576D01*
X35689792Y-114137574D01*
X35840104Y-113987262D01*
X35840106Y-113987258D01*
X35840109Y-113987256D01*
X35965048Y-113815290D01*
X35965047Y-113815290D01*
X35965051Y-113815286D01*
X36061557Y-113625882D01*
X36127246Y-113423713D01*
X36160500Y-113213757D01*
X36160500Y-112401183D01*
X36127246Y-112191227D01*
X36061557Y-111989058D01*
X35965051Y-111799654D01*
X35965049Y-111799651D01*
X35965048Y-111799649D01*
X35840109Y-111627683D01*
X35689786Y-111477360D01*
X35517820Y-111352421D01*
X35328414Y-111255914D01*
X35328413Y-111255913D01*
X35328412Y-111255913D01*
X35126243Y-111190224D01*
X35126241Y-111190223D01*
X35126240Y-111190223D01*
X34964957Y-111164678D01*
X34916287Y-111156970D01*
X34703713Y-111156970D01*
X34655042Y-111164678D01*
X34493760Y-111190223D01*
X34291585Y-111255914D01*
X34102179Y-111352421D01*
X33930213Y-111477360D01*
X33779890Y-111627683D01*
X33654949Y-111799652D01*
X33650484Y-111808416D01*
X33602509Y-111859212D01*
X33534688Y-111876006D01*
X33468553Y-111853468D01*
X33429516Y-111808416D01*
X33425050Y-111799652D01*
X33300109Y-111627683D01*
X33149786Y-111477360D01*
X32977820Y-111352421D01*
X32788414Y-111255914D01*
X32788413Y-111255913D01*
X32788412Y-111255913D01*
X32586243Y-111190224D01*
X32586241Y-111190223D01*
X32586240Y-111190223D01*
X32424957Y-111164678D01*
X32376287Y-111156970D01*
X32163713Y-111156970D01*
X32115042Y-111164678D01*
X31953760Y-111190223D01*
X31751585Y-111255914D01*
X31562179Y-111352421D01*
X31390213Y-111477360D01*
X31239890Y-111627683D01*
X31114951Y-111799649D01*
X31018444Y-111989055D01*
X30952753Y-112191230D01*
X30919500Y-112401183D01*
X24250500Y-112401183D01*
X24250500Y-93901183D01*
X30919500Y-93901183D01*
X30919500Y-94713756D01*
X30952753Y-94923709D01*
X31018444Y-95125884D01*
X31114951Y-95315290D01*
X31239890Y-95487256D01*
X31390213Y-95637579D01*
X31562179Y-95762518D01*
X31562181Y-95762519D01*
X31562184Y-95762521D01*
X31751588Y-95859027D01*
X31953757Y-95924716D01*
X32163713Y-95957970D01*
X32163714Y-95957970D01*
X32376286Y-95957970D01*
X32376287Y-95957970D01*
X32586243Y-95924716D01*
X32788412Y-95859027D01*
X32977816Y-95762521D01*
X32999789Y-95746556D01*
X33149786Y-95637579D01*
X33149788Y-95637576D01*
X33149792Y-95637574D01*
X33300104Y-95487262D01*
X33300106Y-95487258D01*
X33300109Y-95487256D01*
X33425048Y-95315290D01*
X33425047Y-95315290D01*
X33425051Y-95315286D01*
X33429514Y-95306524D01*
X33477488Y-95255729D01*
X33545308Y-95238933D01*
X33611444Y-95261469D01*
X33650486Y-95306526D01*
X33654951Y-95315290D01*
X33779890Y-95487256D01*
X33930213Y-95637579D01*
X34102179Y-95762518D01*
X34102181Y-95762519D01*
X34102184Y-95762521D01*
X34291588Y-95859027D01*
X34493757Y-95924716D01*
X34703713Y-95957970D01*
X34703714Y-95957970D01*
X34916286Y-95957970D01*
X34916287Y-95957970D01*
X35126243Y-95924716D01*
X35328412Y-95859027D01*
X35517816Y-95762521D01*
X35539789Y-95746556D01*
X35689786Y-95637579D01*
X35689788Y-95637576D01*
X35689792Y-95637574D01*
X35840104Y-95487262D01*
X35840106Y-95487258D01*
X35840109Y-95487256D01*
X35965048Y-95315290D01*
X35965047Y-95315290D01*
X35965051Y-95315286D01*
X36061557Y-95125882D01*
X36127246Y-94923713D01*
X36160500Y-94713757D01*
X36160500Y-93901183D01*
X36127246Y-93691227D01*
X36061557Y-93489058D01*
X35965051Y-93299654D01*
X35965049Y-93299651D01*
X35965048Y-93299649D01*
X35840109Y-93127683D01*
X35689786Y-92977360D01*
X35517820Y-92852421D01*
X35328414Y-92755914D01*
X35328413Y-92755913D01*
X35328412Y-92755913D01*
X35126243Y-92690224D01*
X35126241Y-92690223D01*
X35126240Y-92690223D01*
X34964957Y-92664678D01*
X34916287Y-92656970D01*
X34703713Y-92656970D01*
X34655042Y-92664678D01*
X34493760Y-92690223D01*
X34291585Y-92755914D01*
X34102179Y-92852421D01*
X33930213Y-92977360D01*
X33779890Y-93127683D01*
X33654949Y-93299652D01*
X33650484Y-93308416D01*
X33602509Y-93359212D01*
X33534688Y-93376006D01*
X33468553Y-93353468D01*
X33429516Y-93308416D01*
X33425050Y-93299652D01*
X33300109Y-93127683D01*
X33149786Y-92977360D01*
X32977820Y-92852421D01*
X32788414Y-92755914D01*
X32788413Y-92755913D01*
X32788412Y-92755913D01*
X32586243Y-92690224D01*
X32586241Y-92690223D01*
X32586240Y-92690223D01*
X32424957Y-92664678D01*
X32376287Y-92656970D01*
X32163713Y-92656970D01*
X32115042Y-92664678D01*
X31953760Y-92690223D01*
X31751585Y-92755914D01*
X31562179Y-92852421D01*
X31390213Y-92977360D01*
X31239890Y-93127683D01*
X31114951Y-93299649D01*
X31018444Y-93489055D01*
X30952753Y-93691230D01*
X30919500Y-93901183D01*
X24250500Y-93901183D01*
X24250500Y-81435739D01*
X24250499Y-81435729D01*
X24250499Y-81426081D01*
X24250498Y-81426077D01*
X24221659Y-81281094D01*
X24221658Y-81281087D01*
X24214047Y-81262712D01*
X24165087Y-81144511D01*
X24165080Y-81144498D01*
X24082951Y-81021585D01*
X24082948Y-81021581D01*
X23978418Y-80917051D01*
X23978414Y-80917048D01*
X23855501Y-80834919D01*
X23855488Y-80834912D01*
X23718917Y-80778343D01*
X23718905Y-80778340D01*
X23573924Y-80749501D01*
X23573917Y-80749500D01*
X23549829Y-80749500D01*
X23549828Y-80749500D01*
X22875625Y-80749500D01*
X22842932Y-80739900D01*
X22810085Y-80730764D01*
X22809470Y-80730074D01*
X22808586Y-80729815D01*
X22786296Y-80704091D01*
X22763579Y-80678620D01*
X22763220Y-80677460D01*
X22762831Y-80677011D01*
X22753152Y-80644901D01*
X22751527Y-80634643D01*
X22750000Y-80615242D01*
X22750000Y-78012396D01*
X24018330Y-78012396D01*
X24035402Y-78021094D01*
X24237493Y-78086757D01*
X24447376Y-78120000D01*
X24659868Y-78120000D01*
X24869749Y-78086757D01*
X24869752Y-78086757D01*
X25071840Y-78021094D01*
X25071842Y-78021093D01*
X25088910Y-78012396D01*
X26558330Y-78012396D01*
X26575402Y-78021094D01*
X26777493Y-78086757D01*
X26987376Y-78120000D01*
X27199868Y-78120000D01*
X27409749Y-78086757D01*
X27409752Y-78086757D01*
X27611840Y-78021094D01*
X27611842Y-78021093D01*
X27628911Y-78012395D01*
X27628912Y-78012395D01*
X27093623Y-77477106D01*
X27093622Y-77477106D01*
X26558330Y-78012396D01*
X25088910Y-78012396D01*
X25088912Y-78012395D01*
X24553623Y-77477106D01*
X24553622Y-77477106D01*
X24018330Y-78012396D01*
X22750000Y-78012396D01*
X22750000Y-76663753D01*
X23203622Y-76663753D01*
X23203622Y-76876246D01*
X23236864Y-77086127D01*
X23236864Y-77086130D01*
X23302525Y-77288213D01*
X23302530Y-77288225D01*
X23311224Y-77305289D01*
X23311225Y-77305290D01*
X23846516Y-76770000D01*
X23780690Y-76704174D01*
X24053622Y-76704174D01*
X24053622Y-76835826D01*
X24087697Y-76962993D01*
X24153523Y-77077007D01*
X24246615Y-77170099D01*
X24360629Y-77235925D01*
X24487796Y-77270000D01*
X24619448Y-77270000D01*
X24746615Y-77235925D01*
X24860629Y-77170099D01*
X24953721Y-77077007D01*
X25019547Y-76962993D01*
X25053622Y-76835826D01*
X25053622Y-76769999D01*
X25260728Y-76769999D01*
X25260728Y-76770001D01*
X25796017Y-77305290D01*
X25804225Y-77303990D01*
X25843024Y-77303990D01*
X25851226Y-77305289D01*
X26386516Y-76770000D01*
X26320690Y-76704174D01*
X26593622Y-76704174D01*
X26593622Y-76835826D01*
X26627697Y-76962993D01*
X26693523Y-77077007D01*
X26786615Y-77170099D01*
X26900629Y-77235925D01*
X27027796Y-77270000D01*
X27159448Y-77270000D01*
X27286615Y-77235925D01*
X27400629Y-77170099D01*
X27493721Y-77077007D01*
X27559547Y-76962993D01*
X27593622Y-76835826D01*
X27593622Y-76769999D01*
X27800728Y-76769999D01*
X27800728Y-76770001D01*
X28336017Y-77305290D01*
X28336017Y-77305289D01*
X28344715Y-77288220D01*
X28344716Y-77288218D01*
X28410379Y-77086130D01*
X28410379Y-77086127D01*
X28443622Y-76876246D01*
X28443622Y-76663753D01*
X28410379Y-76453872D01*
X28410379Y-76453869D01*
X28344716Y-76251781D01*
X28344716Y-76251780D01*
X28336018Y-76234708D01*
X27800728Y-76769999D01*
X27593622Y-76769999D01*
X27593622Y-76704174D01*
X27559547Y-76577007D01*
X27493721Y-76462993D01*
X27400629Y-76369901D01*
X27286615Y-76304075D01*
X27159448Y-76270000D01*
X27027796Y-76270000D01*
X26900629Y-76304075D01*
X26786615Y-76369901D01*
X26693523Y-76462993D01*
X26627697Y-76577007D01*
X26593622Y-76704174D01*
X26320690Y-76704174D01*
X25851224Y-76234708D01*
X25843021Y-76236008D01*
X25804225Y-76236008D01*
X25796018Y-76234708D01*
X25260728Y-76769999D01*
X25053622Y-76769999D01*
X25053622Y-76704174D01*
X25019547Y-76577007D01*
X24953721Y-76462993D01*
X24860629Y-76369901D01*
X24746615Y-76304075D01*
X24619448Y-76270000D01*
X24487796Y-76270000D01*
X24360629Y-76304075D01*
X24246615Y-76369901D01*
X24153523Y-76462993D01*
X24087697Y-76577007D01*
X24053622Y-76704174D01*
X23780690Y-76704174D01*
X23311225Y-76234709D01*
X23302526Y-76251783D01*
X23236864Y-76453869D01*
X23236864Y-76453872D01*
X23203622Y-76663753D01*
X22750000Y-76663753D01*
X22750000Y-75472396D01*
X24018330Y-75472396D01*
X24019630Y-75480603D01*
X24019630Y-75519399D01*
X24018330Y-75527602D01*
X24553622Y-76062894D01*
X24553623Y-76062894D01*
X25088912Y-75527603D01*
X25087613Y-75519399D01*
X25087613Y-75480603D01*
X25088912Y-75472395D01*
X24553623Y-74937106D01*
X24553622Y-74937106D01*
X24018330Y-75472396D01*
X22750000Y-75472396D01*
X22750000Y-74123753D01*
X23203622Y-74123753D01*
X23203622Y-74336246D01*
X23236864Y-74546127D01*
X23236864Y-74546130D01*
X23302525Y-74748213D01*
X23302530Y-74748225D01*
X23311224Y-74765289D01*
X23311225Y-74765290D01*
X23846516Y-74230000D01*
X23780690Y-74164174D01*
X24053622Y-74164174D01*
X24053622Y-74295826D01*
X24087697Y-74422993D01*
X24153523Y-74537007D01*
X24246615Y-74630099D01*
X24360629Y-74695925D01*
X24487796Y-74730000D01*
X24619448Y-74730000D01*
X24746615Y-74695925D01*
X24860629Y-74630099D01*
X24953721Y-74537007D01*
X25019547Y-74422993D01*
X25053622Y-74295826D01*
X25053622Y-74229999D01*
X25260728Y-74229999D01*
X25260728Y-74230000D01*
X25866011Y-74835283D01*
X25899496Y-74896606D01*
X25894512Y-74966298D01*
X25866012Y-75010645D01*
X25744127Y-75132530D01*
X25744127Y-75132531D01*
X25750023Y-75187373D01*
X25750025Y-75187380D01*
X25800267Y-75322086D01*
X25800271Y-75322093D01*
X25886431Y-75437187D01*
X25886434Y-75437190D01*
X26001528Y-75523350D01*
X26001535Y-75523354D01*
X26136242Y-75573596D01*
X26136241Y-75573596D01*
X26191090Y-75579493D01*
X26312974Y-75457609D01*
X26374297Y-75424124D01*
X26443989Y-75429108D01*
X26488337Y-75457609D01*
X27093622Y-76062894D01*
X27698906Y-75457610D01*
X27760229Y-75424125D01*
X27829921Y-75429109D01*
X27874268Y-75457610D01*
X27996151Y-75579493D01*
X28050997Y-75573598D01*
X28185708Y-75523354D01*
X28185715Y-75523350D01*
X28300809Y-75437190D01*
X28327764Y-75401183D01*
X30919500Y-75401183D01*
X30919500Y-76213757D01*
X30952754Y-76423713D01*
X31002562Y-76577007D01*
X31018444Y-76625884D01*
X31114951Y-76815290D01*
X31239890Y-76987256D01*
X31390213Y-77137579D01*
X31562179Y-77262518D01*
X31562181Y-77262519D01*
X31562184Y-77262521D01*
X31751588Y-77359027D01*
X31953757Y-77424716D01*
X32163713Y-77457970D01*
X32163714Y-77457970D01*
X32376286Y-77457970D01*
X32376287Y-77457970D01*
X32586243Y-77424716D01*
X32788412Y-77359027D01*
X32977816Y-77262521D01*
X33105025Y-77170099D01*
X33149786Y-77137579D01*
X33149788Y-77137576D01*
X33149792Y-77137574D01*
X33300104Y-76987262D01*
X33300106Y-76987258D01*
X33300109Y-76987256D01*
X33425048Y-76815290D01*
X33425047Y-76815290D01*
X33425051Y-76815286D01*
X33429514Y-76806524D01*
X33477488Y-76755729D01*
X33545308Y-76738933D01*
X33611444Y-76761469D01*
X33650486Y-76806526D01*
X33654951Y-76815290D01*
X33779890Y-76987256D01*
X33930213Y-77137579D01*
X34102179Y-77262518D01*
X34102181Y-77262519D01*
X34102184Y-77262521D01*
X34291588Y-77359027D01*
X34493757Y-77424716D01*
X34703713Y-77457970D01*
X34703714Y-77457970D01*
X34916286Y-77457970D01*
X34916287Y-77457970D01*
X35126243Y-77424716D01*
X35328412Y-77359027D01*
X35517816Y-77262521D01*
X35645025Y-77170099D01*
X35689786Y-77137579D01*
X35689788Y-77137576D01*
X35689792Y-77137574D01*
X35840104Y-76987262D01*
X35840106Y-76987258D01*
X35840109Y-76987256D01*
X35965048Y-76815290D01*
X35965047Y-76815290D01*
X35965051Y-76815286D01*
X36061557Y-76625882D01*
X36127246Y-76423713D01*
X36160500Y-76213757D01*
X36160500Y-75401183D01*
X36127246Y-75191227D01*
X36061557Y-74989058D01*
X35965051Y-74799654D01*
X35965049Y-74799651D01*
X35965048Y-74799649D01*
X35840109Y-74627683D01*
X35689786Y-74477360D01*
X35517820Y-74352421D01*
X35328414Y-74255914D01*
X35328413Y-74255913D01*
X35328412Y-74255913D01*
X35126243Y-74190224D01*
X35126241Y-74190223D01*
X35126240Y-74190223D01*
X34961771Y-74164174D01*
X34916287Y-74156970D01*
X34703713Y-74156970D01*
X34658229Y-74164174D01*
X34493760Y-74190223D01*
X34291585Y-74255914D01*
X34102179Y-74352421D01*
X33930213Y-74477360D01*
X33779890Y-74627683D01*
X33654949Y-74799652D01*
X33650484Y-74808416D01*
X33602509Y-74859212D01*
X33534688Y-74876006D01*
X33468553Y-74853468D01*
X33429516Y-74808416D01*
X33425050Y-74799652D01*
X33300109Y-74627683D01*
X33149786Y-74477360D01*
X32977820Y-74352421D01*
X32788414Y-74255914D01*
X32788413Y-74255913D01*
X32788412Y-74255913D01*
X32586243Y-74190224D01*
X32586241Y-74190223D01*
X32586240Y-74190223D01*
X32421771Y-74164174D01*
X32376287Y-74156970D01*
X32163713Y-74156970D01*
X32118229Y-74164174D01*
X31953760Y-74190223D01*
X31751585Y-74255914D01*
X31562179Y-74352421D01*
X31390213Y-74477360D01*
X31239890Y-74627683D01*
X31114951Y-74799649D01*
X31018444Y-74989055D01*
X30952753Y-75191230D01*
X30932028Y-75322086D01*
X30919500Y-75401183D01*
X28327764Y-75401183D01*
X28386973Y-75322092D01*
X28386976Y-75322086D01*
X28437218Y-75187379D01*
X28437220Y-75187372D01*
X28443621Y-75127844D01*
X28443622Y-75127827D01*
X28443622Y-74730000D01*
X27217622Y-74730000D01*
X27189865Y-74721849D01*
X27286615Y-74695925D01*
X27400629Y-74630099D01*
X27493721Y-74537007D01*
X27559547Y-74422993D01*
X27593622Y-74295826D01*
X27593622Y-74164174D01*
X27559547Y-74037007D01*
X27493721Y-73922993D01*
X27400629Y-73829901D01*
X27286615Y-73764075D01*
X27159448Y-73730000D01*
X27593622Y-73730000D01*
X28443622Y-73730000D01*
X28443622Y-73332172D01*
X28443621Y-73332155D01*
X28437220Y-73272627D01*
X28437218Y-73272620D01*
X28386976Y-73137913D01*
X28386972Y-73137906D01*
X28300812Y-73022812D01*
X28300809Y-73022809D01*
X28185715Y-72936649D01*
X28185708Y-72936645D01*
X28051001Y-72886403D01*
X28050994Y-72886401D01*
X27991466Y-72880000D01*
X27593622Y-72880000D01*
X27593622Y-73730000D01*
X27159448Y-73730000D01*
X27027796Y-73730000D01*
X26900629Y-73764075D01*
X26786615Y-73829901D01*
X26693523Y-73922993D01*
X26627697Y-74037007D01*
X26600606Y-74138107D01*
X26593622Y-74106000D01*
X26593622Y-72880000D01*
X26195777Y-72880000D01*
X26136249Y-72886401D01*
X26136242Y-72886403D01*
X26001535Y-72936645D01*
X26001528Y-72936649D01*
X25886434Y-73022809D01*
X25886431Y-73022812D01*
X25800271Y-73137906D01*
X25800267Y-73137913D01*
X25750025Y-73272619D01*
X25750023Y-73272626D01*
X25744126Y-73327469D01*
X25866011Y-73449354D01*
X25899496Y-73510677D01*
X25894512Y-73580369D01*
X25866011Y-73624716D01*
X25260728Y-74229999D01*
X25053622Y-74229999D01*
X25053622Y-74164174D01*
X25019547Y-74037007D01*
X24953721Y-73922993D01*
X24860629Y-73829901D01*
X24746615Y-73764075D01*
X24619448Y-73730000D01*
X24487796Y-73730000D01*
X24360629Y-73764075D01*
X24246615Y-73829901D01*
X24153523Y-73922993D01*
X24087697Y-74037007D01*
X24053622Y-74164174D01*
X23780690Y-74164174D01*
X23311225Y-73694709D01*
X23302526Y-73711783D01*
X23236864Y-73913869D01*
X23236864Y-73913872D01*
X23203622Y-74123753D01*
X22750000Y-74123753D01*
X22750000Y-72987603D01*
X24018331Y-72987603D01*
X24553622Y-73522894D01*
X24553623Y-73522894D01*
X25088912Y-72987603D01*
X25088911Y-72987602D01*
X25071847Y-72978908D01*
X25071835Y-72978903D01*
X24869750Y-72913242D01*
X24659868Y-72880000D01*
X24447376Y-72880000D01*
X24237494Y-72913242D01*
X24237491Y-72913242D01*
X24035405Y-72978904D01*
X24018331Y-72987603D01*
X22750000Y-72987603D01*
X22750000Y-72508125D01*
X22751061Y-72491940D01*
X22764906Y-72386776D01*
X22773284Y-72355508D01*
X22785073Y-72327047D01*
X22828914Y-72272644D01*
X22895208Y-72250579D01*
X22899634Y-72250500D01*
X37646000Y-72250500D01*
X37713039Y-72270185D01*
G37*
%TD.AperFunction*%
%TD*%
%TA.AperFunction,Conductor*%
%TO.N,/QA01_3/-4V_OUT*%
G36*
X55975853Y-109020504D02*
G01*
X56010283Y-109020500D01*
X56029651Y-109022024D01*
X56077721Y-109029634D01*
X56114621Y-109041622D01*
X56149169Y-109059224D01*
X56180558Y-109082029D01*
X56207970Y-109109441D01*
X56230775Y-109140830D01*
X56248377Y-109175378D01*
X56260366Y-109212281D01*
X56267974Y-109260338D01*
X56269499Y-109279724D01*
X56269496Y-109314147D01*
X56269499Y-109314156D01*
X56269500Y-109325992D01*
X56269500Y-115760243D01*
X56267973Y-115779641D01*
X56260360Y-115827708D01*
X56248373Y-115864603D01*
X56230769Y-115899154D01*
X56207964Y-115930542D01*
X56180542Y-115957964D01*
X56178633Y-115959350D01*
X56178001Y-115960434D01*
X56149154Y-115980769D01*
X56114603Y-115998373D01*
X56077708Y-116010360D01*
X56029642Y-116017973D01*
X56010244Y-116019500D01*
X50696082Y-116019500D01*
X50696079Y-116019501D01*
X50551090Y-116048342D01*
X50551088Y-116048343D01*
X50551086Y-116048344D01*
X50414505Y-116104919D01*
X50291586Y-116187052D01*
X50291579Y-116187057D01*
X50291579Y-116187058D01*
X50187058Y-116291579D01*
X50187057Y-116291579D01*
X50187052Y-116291585D01*
X50187052Y-116291586D01*
X50104919Y-116414505D01*
X50072959Y-116491661D01*
X50048343Y-116551088D01*
X50048342Y-116551090D01*
X50019501Y-116696079D01*
X50019500Y-116696082D01*
X50019500Y-119260243D01*
X50017973Y-119279641D01*
X50010360Y-119327708D01*
X49998373Y-119364603D01*
X49980769Y-119399154D01*
X49957964Y-119430542D01*
X49930542Y-119457964D01*
X49899154Y-119480769D01*
X49864603Y-119498373D01*
X49827708Y-119510360D01*
X49779642Y-119517973D01*
X49760244Y-119519500D01*
X41657918Y-119519500D01*
X41638737Y-119513867D01*
X41618758Y-119513154D01*
X41605898Y-119504225D01*
X41590879Y-119499815D01*
X41577788Y-119484707D01*
X41561366Y-119473305D01*
X41547157Y-119449357D01*
X41545124Y-119447011D01*
X41543366Y-119442976D01*
X41523283Y-119394489D01*
X41514906Y-119363223D01*
X41501061Y-119258059D01*
X41500000Y-119241874D01*
X41500000Y-112416918D01*
X43819500Y-112416918D01*
X43819500Y-113198021D01*
X43847829Y-113376880D01*
X43903787Y-113549106D01*
X43903788Y-113549109D01*
X43959664Y-113658770D01*
X43970200Y-113679448D01*
X43986006Y-113710467D01*
X44092441Y-113856964D01*
X44092445Y-113856969D01*
X44220500Y-113985024D01*
X44220505Y-113985028D01*
X44348287Y-114077866D01*
X44367006Y-114091466D01*
X44472484Y-114145210D01*
X44528360Y-114173681D01*
X44528363Y-114173682D01*
X44614476Y-114201661D01*
X44700591Y-114229641D01*
X44783429Y-114242761D01*
X44879449Y-114257970D01*
X44879454Y-114257970D01*
X45060551Y-114257970D01*
X45147259Y-114244235D01*
X45239409Y-114229641D01*
X45411639Y-114173681D01*
X45572994Y-114091466D01*
X45719501Y-113985023D01*
X45847553Y-113856971D01*
X45953996Y-113710464D01*
X46036211Y-113549109D01*
X46092171Y-113376879D01*
X46106422Y-113286895D01*
X46117527Y-113216791D01*
X46147456Y-113153656D01*
X46206768Y-113116725D01*
X46276630Y-113117723D01*
X46334863Y-113156333D01*
X46362473Y-113216791D01*
X46387829Y-113376880D01*
X46443787Y-113549106D01*
X46443788Y-113549109D01*
X46499664Y-113658770D01*
X46510200Y-113679448D01*
X46526006Y-113710467D01*
X46632441Y-113856964D01*
X46632445Y-113856969D01*
X46760500Y-113985024D01*
X46760505Y-113985028D01*
X46888287Y-114077866D01*
X46907006Y-114091466D01*
X47012484Y-114145210D01*
X47068360Y-114173681D01*
X47068363Y-114173682D01*
X47154476Y-114201661D01*
X47240591Y-114229641D01*
X47323429Y-114242761D01*
X47419449Y-114257970D01*
X47419454Y-114257970D01*
X47600551Y-114257970D01*
X47687259Y-114244235D01*
X47779409Y-114229641D01*
X47951639Y-114173681D01*
X48112994Y-114091466D01*
X48259501Y-113985023D01*
X48387553Y-113856971D01*
X48493996Y-113710464D01*
X48576211Y-113549109D01*
X48632171Y-113376879D01*
X48646765Y-113284729D01*
X48660500Y-113198021D01*
X48660500Y-112416918D01*
X48641381Y-112296211D01*
X48632171Y-112238061D01*
X48589769Y-112107558D01*
X48576212Y-112065833D01*
X48576211Y-112065830D01*
X48532220Y-111979494D01*
X48493996Y-111904476D01*
X48442062Y-111832994D01*
X48387558Y-111757975D01*
X48387554Y-111757970D01*
X48259499Y-111629915D01*
X48259494Y-111629911D01*
X48112997Y-111523476D01*
X48112996Y-111523475D01*
X48112994Y-111523474D01*
X48061300Y-111497134D01*
X47951639Y-111441258D01*
X47951636Y-111441257D01*
X47779410Y-111385299D01*
X47600551Y-111356970D01*
X47600546Y-111356970D01*
X47419454Y-111356970D01*
X47419449Y-111356970D01*
X47240589Y-111385299D01*
X47068363Y-111441257D01*
X47068360Y-111441258D01*
X46907002Y-111523476D01*
X46760505Y-111629911D01*
X46760500Y-111629915D01*
X46632445Y-111757970D01*
X46632441Y-111757975D01*
X46526006Y-111904472D01*
X46443788Y-112065830D01*
X46443787Y-112065833D01*
X46387829Y-112238059D01*
X46362473Y-112398148D01*
X46332544Y-112461283D01*
X46273232Y-112498214D01*
X46203369Y-112497216D01*
X46145137Y-112458606D01*
X46117527Y-112398148D01*
X46101381Y-112296211D01*
X46092171Y-112238061D01*
X46049769Y-112107558D01*
X46036212Y-112065833D01*
X46036211Y-112065830D01*
X45992220Y-111979494D01*
X45953996Y-111904476D01*
X45902062Y-111832994D01*
X45847558Y-111757975D01*
X45847554Y-111757970D01*
X45719499Y-111629915D01*
X45719494Y-111629911D01*
X45572997Y-111523476D01*
X45572996Y-111523475D01*
X45572994Y-111523474D01*
X45521300Y-111497134D01*
X45411639Y-111441258D01*
X45411636Y-111441257D01*
X45239410Y-111385299D01*
X45060551Y-111356970D01*
X45060546Y-111356970D01*
X44879454Y-111356970D01*
X44879449Y-111356970D01*
X44700589Y-111385299D01*
X44528363Y-111441257D01*
X44528360Y-111441258D01*
X44367002Y-111523476D01*
X44220505Y-111629911D01*
X44220500Y-111629915D01*
X44092445Y-111757970D01*
X44092441Y-111757975D01*
X43986006Y-111904472D01*
X43903788Y-112065830D01*
X43903787Y-112065833D01*
X43847829Y-112238059D01*
X43819500Y-112416918D01*
X41500000Y-112416918D01*
X41500000Y-111139448D01*
X51079500Y-111139448D01*
X51079500Y-111320551D01*
X51107829Y-111499410D01*
X51163787Y-111671636D01*
X51163788Y-111671639D01*
X51246006Y-111832997D01*
X51352441Y-111979494D01*
X51352445Y-111979499D01*
X51480500Y-112107554D01*
X51480505Y-112107558D01*
X51608287Y-112200396D01*
X51627006Y-112213996D01*
X51732484Y-112267740D01*
X51788360Y-112296211D01*
X51788363Y-112296212D01*
X51874476Y-112324191D01*
X51960591Y-112352171D01*
X52033639Y-112363740D01*
X52120678Y-112377527D01*
X52183813Y-112407456D01*
X52220744Y-112466768D01*
X52219746Y-112536631D01*
X52181136Y-112594863D01*
X52120678Y-112622473D01*
X51960589Y-112647829D01*
X51788363Y-112703787D01*
X51788360Y-112703788D01*
X51627002Y-112786006D01*
X51480505Y-112892441D01*
X51480500Y-112892445D01*
X51352445Y-113020500D01*
X51352441Y-113020505D01*
X51246006Y-113167002D01*
X51163788Y-113328360D01*
X51163787Y-113328363D01*
X51107829Y-113500589D01*
X51079500Y-113679448D01*
X51079500Y-113860551D01*
X51107829Y-114039410D01*
X51163787Y-114211636D01*
X51163788Y-114211639D01*
X51246006Y-114372997D01*
X51352441Y-114519494D01*
X51352445Y-114519499D01*
X51480500Y-114647554D01*
X51480505Y-114647558D01*
X51608287Y-114740396D01*
X51627006Y-114753996D01*
X51732484Y-114807740D01*
X51788360Y-114836211D01*
X51788363Y-114836212D01*
X51874476Y-114864191D01*
X51960591Y-114892171D01*
X52043429Y-114905291D01*
X52139449Y-114920500D01*
X52139454Y-114920500D01*
X52320551Y-114920500D01*
X52407259Y-114906765D01*
X52499409Y-114892171D01*
X52671639Y-114836211D01*
X52832994Y-114753996D01*
X52979501Y-114647553D01*
X53107553Y-114519501D01*
X53213996Y-114372994D01*
X53296211Y-114211639D01*
X53352171Y-114039409D01*
X53366765Y-113947259D01*
X53380500Y-113860551D01*
X53380500Y-113679448D01*
X53359855Y-113549106D01*
X53352171Y-113500591D01*
X53296211Y-113328361D01*
X53296211Y-113328360D01*
X53267740Y-113272484D01*
X53213996Y-113167006D01*
X53177465Y-113116725D01*
X53107558Y-113020505D01*
X53107554Y-113020500D01*
X52979499Y-112892445D01*
X52979494Y-112892441D01*
X52832997Y-112786006D01*
X52832996Y-112786005D01*
X52832994Y-112786004D01*
X52781300Y-112759664D01*
X52671639Y-112703788D01*
X52671636Y-112703787D01*
X52499410Y-112647829D01*
X52339321Y-112622473D01*
X52276186Y-112592544D01*
X52239255Y-112533232D01*
X52240253Y-112463370D01*
X52278863Y-112405137D01*
X52339321Y-112377527D01*
X52409425Y-112366422D01*
X52499409Y-112352171D01*
X52671639Y-112296211D01*
X52832994Y-112213996D01*
X52979501Y-112107553D01*
X53107553Y-111979501D01*
X53213996Y-111832994D01*
X53296211Y-111671639D01*
X53352171Y-111499409D01*
X53370244Y-111385299D01*
X53377527Y-111339321D01*
X53407456Y-111276186D01*
X53466768Y-111239255D01*
X53536630Y-111240253D01*
X53594863Y-111278863D01*
X53622473Y-111339321D01*
X53647829Y-111499410D01*
X53703787Y-111671636D01*
X53703788Y-111671639D01*
X53786006Y-111832997D01*
X53892441Y-111979494D01*
X53892445Y-111979499D01*
X54020500Y-112107554D01*
X54020505Y-112107558D01*
X54148287Y-112200396D01*
X54167006Y-112213996D01*
X54272484Y-112267740D01*
X54328360Y-112296211D01*
X54328363Y-112296212D01*
X54414476Y-112324191D01*
X54500591Y-112352171D01*
X54583429Y-112365291D01*
X54679449Y-112380500D01*
X54679454Y-112380500D01*
X54860551Y-112380500D01*
X54947259Y-112366765D01*
X55039409Y-112352171D01*
X55211639Y-112296211D01*
X55372994Y-112213996D01*
X55519501Y-112107553D01*
X55647553Y-111979501D01*
X55753996Y-111832994D01*
X55836211Y-111671639D01*
X55892171Y-111499409D01*
X55914731Y-111356970D01*
X55920500Y-111320551D01*
X55920500Y-111139448D01*
X55904019Y-111035397D01*
X55892171Y-110960591D01*
X55836211Y-110788361D01*
X55836211Y-110788360D01*
X55807740Y-110732484D01*
X55753996Y-110627006D01*
X55740396Y-110608287D01*
X55647558Y-110480505D01*
X55647554Y-110480500D01*
X55519499Y-110352445D01*
X55519494Y-110352441D01*
X55372997Y-110246006D01*
X55372996Y-110246005D01*
X55372994Y-110246004D01*
X55321300Y-110219664D01*
X55211639Y-110163788D01*
X55211636Y-110163787D01*
X55039410Y-110107829D01*
X54860551Y-110079500D01*
X54860546Y-110079500D01*
X54679454Y-110079500D01*
X54679449Y-110079500D01*
X54500589Y-110107829D01*
X54328363Y-110163787D01*
X54328360Y-110163788D01*
X54167002Y-110246006D01*
X54020505Y-110352441D01*
X54020500Y-110352445D01*
X53892445Y-110480500D01*
X53892441Y-110480505D01*
X53786006Y-110627002D01*
X53703788Y-110788360D01*
X53703787Y-110788363D01*
X53647829Y-110960589D01*
X53622473Y-111120678D01*
X53592544Y-111183813D01*
X53533232Y-111220744D01*
X53463369Y-111219746D01*
X53405137Y-111181136D01*
X53377527Y-111120678D01*
X53363740Y-111033639D01*
X53352171Y-110960591D01*
X53296211Y-110788361D01*
X53296211Y-110788360D01*
X53267740Y-110732484D01*
X53213996Y-110627006D01*
X53200396Y-110608287D01*
X53107558Y-110480505D01*
X53107554Y-110480500D01*
X52979499Y-110352445D01*
X52979494Y-110352441D01*
X52832997Y-110246006D01*
X52832996Y-110246005D01*
X52832994Y-110246004D01*
X52781300Y-110219664D01*
X52671639Y-110163788D01*
X52671636Y-110163787D01*
X52499410Y-110107829D01*
X52320551Y-110079500D01*
X52320546Y-110079500D01*
X52139454Y-110079500D01*
X52139449Y-110079500D01*
X51960589Y-110107829D01*
X51788363Y-110163787D01*
X51788360Y-110163788D01*
X51627002Y-110246006D01*
X51480505Y-110352441D01*
X51480500Y-110352445D01*
X51352445Y-110480500D01*
X51352441Y-110480505D01*
X51246006Y-110627002D01*
X51163788Y-110788360D01*
X51163787Y-110788363D01*
X51107829Y-110960589D01*
X51079500Y-111139448D01*
X41500000Y-111139448D01*
X41500000Y-109508125D01*
X41501061Y-109491940D01*
X41514906Y-109386776D01*
X41523284Y-109355508D01*
X41560740Y-109265081D01*
X41576923Y-109237050D01*
X41636513Y-109159392D01*
X41659392Y-109136513D01*
X41737050Y-109076923D01*
X41765082Y-109060740D01*
X41839443Y-109029939D01*
X41886895Y-109020500D01*
X55975842Y-109020500D01*
X55975853Y-109020504D01*
G37*
%TD.AperFunction*%
%TD*%
%TA.AperFunction,Conductor*%
%TO.N,/QA01_4/-4V_OUT*%
G36*
X56029639Y-127522027D02*
G01*
X56046026Y-127524622D01*
X56077700Y-127529639D01*
X56114595Y-127541627D01*
X56149153Y-127559235D01*
X56151061Y-127560621D01*
X56152286Y-127560888D01*
X56180540Y-127582039D01*
X56207960Y-127609459D01*
X56230764Y-127640846D01*
X56248372Y-127675404D01*
X56260360Y-127712297D01*
X56267973Y-127760356D01*
X56269500Y-127779757D01*
X56269500Y-134260240D01*
X56267973Y-134279640D01*
X56260360Y-134327701D01*
X56248372Y-134364595D01*
X56230764Y-134399153D01*
X56207960Y-134430540D01*
X56180540Y-134457960D01*
X56149153Y-134480764D01*
X56114595Y-134498372D01*
X56077701Y-134510360D01*
X56044355Y-134515642D01*
X56029638Y-134517973D01*
X56010241Y-134519500D01*
X50696082Y-134519500D01*
X50696075Y-134519501D01*
X50551094Y-134548340D01*
X50551082Y-134548343D01*
X50414511Y-134604912D01*
X50414498Y-134604919D01*
X50291585Y-134687048D01*
X50291581Y-134687051D01*
X50187051Y-134791581D01*
X50187048Y-134791585D01*
X50104919Y-134914498D01*
X50104912Y-134914511D01*
X50048343Y-135051082D01*
X50048340Y-135051094D01*
X50019501Y-135196075D01*
X50019500Y-135196082D01*
X50019500Y-137760240D01*
X50017973Y-137779640D01*
X50010360Y-137827701D01*
X49998372Y-137864595D01*
X49980764Y-137899153D01*
X49957960Y-137930540D01*
X49930540Y-137957960D01*
X49899153Y-137980764D01*
X49864595Y-137998372D01*
X49827701Y-138010360D01*
X49794355Y-138015642D01*
X49779638Y-138017973D01*
X49760241Y-138019500D01*
X41657918Y-138019500D01*
X41638737Y-138013867D01*
X41618758Y-138013154D01*
X41605898Y-138004225D01*
X41590879Y-137999815D01*
X41577788Y-137984707D01*
X41561366Y-137973305D01*
X41547157Y-137949357D01*
X41545124Y-137947011D01*
X41543366Y-137942976D01*
X41523283Y-137894489D01*
X41514906Y-137863223D01*
X41501061Y-137758059D01*
X41500000Y-137741874D01*
X41500000Y-130916918D01*
X43819500Y-130916918D01*
X43819500Y-131698021D01*
X43847829Y-131876880D01*
X43903787Y-132049106D01*
X43903788Y-132049109D01*
X43959664Y-132158770D01*
X43970200Y-132179448D01*
X43986006Y-132210467D01*
X44092441Y-132356964D01*
X44092445Y-132356969D01*
X44220500Y-132485024D01*
X44220505Y-132485028D01*
X44348287Y-132577866D01*
X44367006Y-132591466D01*
X44472484Y-132645210D01*
X44528360Y-132673681D01*
X44528363Y-132673682D01*
X44614476Y-132701661D01*
X44700591Y-132729641D01*
X44783429Y-132742761D01*
X44879449Y-132757970D01*
X44879454Y-132757970D01*
X45060551Y-132757970D01*
X45147259Y-132744235D01*
X45239409Y-132729641D01*
X45411639Y-132673681D01*
X45572994Y-132591466D01*
X45719501Y-132485023D01*
X45847553Y-132356971D01*
X45953996Y-132210464D01*
X46036211Y-132049109D01*
X46092171Y-131876879D01*
X46106422Y-131786895D01*
X46117527Y-131716791D01*
X46147456Y-131653656D01*
X46206768Y-131616725D01*
X46276630Y-131617723D01*
X46334863Y-131656333D01*
X46362473Y-131716791D01*
X46387829Y-131876880D01*
X46443787Y-132049106D01*
X46443788Y-132049109D01*
X46499664Y-132158770D01*
X46510200Y-132179448D01*
X46526006Y-132210467D01*
X46632441Y-132356964D01*
X46632445Y-132356969D01*
X46760500Y-132485024D01*
X46760505Y-132485028D01*
X46888287Y-132577866D01*
X46907006Y-132591466D01*
X47012484Y-132645210D01*
X47068360Y-132673681D01*
X47068363Y-132673682D01*
X47154476Y-132701661D01*
X47240591Y-132729641D01*
X47323429Y-132742761D01*
X47419449Y-132757970D01*
X47419454Y-132757970D01*
X47600551Y-132757970D01*
X47687259Y-132744235D01*
X47779409Y-132729641D01*
X47951639Y-132673681D01*
X48112994Y-132591466D01*
X48259501Y-132485023D01*
X48387553Y-132356971D01*
X48493996Y-132210464D01*
X48576211Y-132049109D01*
X48632171Y-131876879D01*
X48646765Y-131784729D01*
X48660500Y-131698021D01*
X48660500Y-130916918D01*
X48641381Y-130796211D01*
X48632171Y-130738061D01*
X48589769Y-130607558D01*
X48576212Y-130565833D01*
X48576211Y-130565830D01*
X48532220Y-130479494D01*
X48493996Y-130404476D01*
X48442062Y-130332994D01*
X48387558Y-130257975D01*
X48387554Y-130257970D01*
X48259499Y-130129915D01*
X48259494Y-130129911D01*
X48112997Y-130023476D01*
X48112996Y-130023475D01*
X48112994Y-130023474D01*
X48061300Y-129997134D01*
X47951639Y-129941258D01*
X47951636Y-129941257D01*
X47779410Y-129885299D01*
X47600551Y-129856970D01*
X47600546Y-129856970D01*
X47419454Y-129856970D01*
X47419449Y-129856970D01*
X47240589Y-129885299D01*
X47068363Y-129941257D01*
X47068360Y-129941258D01*
X46907002Y-130023476D01*
X46760505Y-130129911D01*
X46760500Y-130129915D01*
X46632445Y-130257970D01*
X46632441Y-130257975D01*
X46526006Y-130404472D01*
X46443788Y-130565830D01*
X46443787Y-130565833D01*
X46387829Y-130738059D01*
X46362473Y-130898148D01*
X46332544Y-130961283D01*
X46273232Y-130998214D01*
X46203369Y-130997216D01*
X46145137Y-130958606D01*
X46117527Y-130898148D01*
X46101381Y-130796211D01*
X46092171Y-130738061D01*
X46049769Y-130607558D01*
X46036212Y-130565833D01*
X46036211Y-130565830D01*
X45992220Y-130479494D01*
X45953996Y-130404476D01*
X45902062Y-130332994D01*
X45847558Y-130257975D01*
X45847554Y-130257970D01*
X45719499Y-130129915D01*
X45719494Y-130129911D01*
X45572997Y-130023476D01*
X45572996Y-130023475D01*
X45572994Y-130023474D01*
X45521300Y-129997134D01*
X45411639Y-129941258D01*
X45411636Y-129941257D01*
X45239410Y-129885299D01*
X45060551Y-129856970D01*
X45060546Y-129856970D01*
X44879454Y-129856970D01*
X44879449Y-129856970D01*
X44700589Y-129885299D01*
X44528363Y-129941257D01*
X44528360Y-129941258D01*
X44367002Y-130023476D01*
X44220505Y-130129911D01*
X44220500Y-130129915D01*
X44092445Y-130257970D01*
X44092441Y-130257975D01*
X43986006Y-130404472D01*
X43903788Y-130565830D01*
X43903787Y-130565833D01*
X43847829Y-130738059D01*
X43819500Y-130916918D01*
X41500000Y-130916918D01*
X41500000Y-129639448D01*
X51079500Y-129639448D01*
X51079500Y-129820551D01*
X51107829Y-129999410D01*
X51163787Y-130171636D01*
X51163788Y-130171639D01*
X51246006Y-130332997D01*
X51352441Y-130479494D01*
X51352445Y-130479499D01*
X51480500Y-130607554D01*
X51480505Y-130607558D01*
X51608287Y-130700396D01*
X51627006Y-130713996D01*
X51732484Y-130767740D01*
X51788360Y-130796211D01*
X51788363Y-130796212D01*
X51874476Y-130824191D01*
X51960591Y-130852171D01*
X52033639Y-130863740D01*
X52120678Y-130877527D01*
X52183813Y-130907456D01*
X52220744Y-130966768D01*
X52219746Y-131036631D01*
X52181136Y-131094863D01*
X52120678Y-131122473D01*
X51960589Y-131147829D01*
X51788363Y-131203787D01*
X51788360Y-131203788D01*
X51627002Y-131286006D01*
X51480505Y-131392441D01*
X51480500Y-131392445D01*
X51352445Y-131520500D01*
X51352441Y-131520505D01*
X51246006Y-131667002D01*
X51163788Y-131828360D01*
X51163787Y-131828363D01*
X51107829Y-132000589D01*
X51079500Y-132179448D01*
X51079500Y-132360551D01*
X51107829Y-132539410D01*
X51163787Y-132711636D01*
X51163788Y-132711639D01*
X51246006Y-132872997D01*
X51352441Y-133019494D01*
X51352445Y-133019499D01*
X51480500Y-133147554D01*
X51480505Y-133147558D01*
X51608287Y-133240396D01*
X51627006Y-133253996D01*
X51732484Y-133307740D01*
X51788360Y-133336211D01*
X51788363Y-133336212D01*
X51874476Y-133364191D01*
X51960591Y-133392171D01*
X52043429Y-133405291D01*
X52139449Y-133420500D01*
X52139454Y-133420500D01*
X52320551Y-133420500D01*
X52407259Y-133406765D01*
X52499409Y-133392171D01*
X52671639Y-133336211D01*
X52832994Y-133253996D01*
X52979501Y-133147553D01*
X53107553Y-133019501D01*
X53213996Y-132872994D01*
X53296211Y-132711639D01*
X53352171Y-132539409D01*
X53366765Y-132447259D01*
X53380500Y-132360551D01*
X53380500Y-132179448D01*
X53359855Y-132049106D01*
X53352171Y-132000591D01*
X53296211Y-131828361D01*
X53296211Y-131828360D01*
X53267740Y-131772484D01*
X53213996Y-131667006D01*
X53177465Y-131616725D01*
X53107558Y-131520505D01*
X53107554Y-131520500D01*
X52979499Y-131392445D01*
X52979494Y-131392441D01*
X52832997Y-131286006D01*
X52832996Y-131286005D01*
X52832994Y-131286004D01*
X52781300Y-131259664D01*
X52671639Y-131203788D01*
X52671636Y-131203787D01*
X52499410Y-131147829D01*
X52339321Y-131122473D01*
X52276186Y-131092544D01*
X52239255Y-131033232D01*
X52240253Y-130963370D01*
X52278863Y-130905137D01*
X52339321Y-130877527D01*
X52409425Y-130866422D01*
X52499409Y-130852171D01*
X52671639Y-130796211D01*
X52832994Y-130713996D01*
X52979501Y-130607553D01*
X53107553Y-130479501D01*
X53213996Y-130332994D01*
X53296211Y-130171639D01*
X53352171Y-129999409D01*
X53370244Y-129885299D01*
X53377527Y-129839321D01*
X53407456Y-129776186D01*
X53466768Y-129739255D01*
X53536630Y-129740253D01*
X53594863Y-129778863D01*
X53622473Y-129839321D01*
X53647829Y-129999410D01*
X53703787Y-130171636D01*
X53703788Y-130171639D01*
X53786006Y-130332997D01*
X53892441Y-130479494D01*
X53892445Y-130479499D01*
X54020500Y-130607554D01*
X54020505Y-130607558D01*
X54148287Y-130700396D01*
X54167006Y-130713996D01*
X54272484Y-130767740D01*
X54328360Y-130796211D01*
X54328363Y-130796212D01*
X54414476Y-130824191D01*
X54500591Y-130852171D01*
X54583429Y-130865291D01*
X54679449Y-130880500D01*
X54679454Y-130880500D01*
X54860551Y-130880500D01*
X54947259Y-130866765D01*
X55039409Y-130852171D01*
X55211639Y-130796211D01*
X55372994Y-130713996D01*
X55519501Y-130607553D01*
X55647553Y-130479501D01*
X55753996Y-130332994D01*
X55836211Y-130171639D01*
X55892171Y-129999409D01*
X55914731Y-129856970D01*
X55920500Y-129820551D01*
X55920500Y-129639448D01*
X55904019Y-129535397D01*
X55892171Y-129460591D01*
X55836211Y-129288361D01*
X55836211Y-129288360D01*
X55807740Y-129232484D01*
X55753996Y-129127006D01*
X55740396Y-129108287D01*
X55647558Y-128980505D01*
X55647554Y-128980500D01*
X55519499Y-128852445D01*
X55519494Y-128852441D01*
X55372997Y-128746006D01*
X55372996Y-128746005D01*
X55372994Y-128746004D01*
X55321300Y-128719664D01*
X55211639Y-128663788D01*
X55211636Y-128663787D01*
X55039410Y-128607829D01*
X54860551Y-128579500D01*
X54860546Y-128579500D01*
X54679454Y-128579500D01*
X54679449Y-128579500D01*
X54500589Y-128607829D01*
X54328363Y-128663787D01*
X54328360Y-128663788D01*
X54167002Y-128746006D01*
X54020505Y-128852441D01*
X54020500Y-128852445D01*
X53892445Y-128980500D01*
X53892441Y-128980505D01*
X53786006Y-129127002D01*
X53703788Y-129288360D01*
X53703787Y-129288363D01*
X53647829Y-129460589D01*
X53622473Y-129620678D01*
X53592544Y-129683813D01*
X53533232Y-129720744D01*
X53463369Y-129719746D01*
X53405137Y-129681136D01*
X53377527Y-129620678D01*
X53363740Y-129533639D01*
X53352171Y-129460591D01*
X53296211Y-129288361D01*
X53296211Y-129288360D01*
X53267740Y-129232484D01*
X53213996Y-129127006D01*
X53200396Y-129108287D01*
X53107558Y-128980505D01*
X53107554Y-128980500D01*
X52979499Y-128852445D01*
X52979494Y-128852441D01*
X52832997Y-128746006D01*
X52832996Y-128746005D01*
X52832994Y-128746004D01*
X52781300Y-128719664D01*
X52671639Y-128663788D01*
X52671636Y-128663787D01*
X52499410Y-128607829D01*
X52320551Y-128579500D01*
X52320546Y-128579500D01*
X52139454Y-128579500D01*
X52139449Y-128579500D01*
X51960589Y-128607829D01*
X51788363Y-128663787D01*
X51788360Y-128663788D01*
X51627002Y-128746006D01*
X51480505Y-128852441D01*
X51480500Y-128852445D01*
X51352445Y-128980500D01*
X51352441Y-128980505D01*
X51246006Y-129127002D01*
X51163788Y-129288360D01*
X51163787Y-129288363D01*
X51107829Y-129460589D01*
X51079500Y-129639448D01*
X41500000Y-129639448D01*
X41500000Y-128008125D01*
X41501061Y-127991940D01*
X41514906Y-127886776D01*
X41523284Y-127855508D01*
X41560740Y-127765081D01*
X41576923Y-127737050D01*
X41636513Y-127659392D01*
X41659392Y-127636513D01*
X41737050Y-127576923D01*
X41765082Y-127560740D01*
X41839443Y-127529939D01*
X41886895Y-127520500D01*
X55975829Y-127520500D01*
X56010241Y-127520500D01*
X56029639Y-127522027D01*
G37*
%TD.AperFunction*%
%TD*%
%TA.AperFunction,Conductor*%
%TO.N,/QA01_2/-4V_OUT*%
G36*
X56029639Y-90522027D02*
G01*
X56046026Y-90524622D01*
X56077700Y-90529639D01*
X56114595Y-90541627D01*
X56149153Y-90559235D01*
X56151061Y-90560621D01*
X56152286Y-90560888D01*
X56180540Y-90582039D01*
X56207960Y-90609459D01*
X56230764Y-90640846D01*
X56248372Y-90675404D01*
X56260360Y-90712297D01*
X56267973Y-90760356D01*
X56269500Y-90779757D01*
X56269500Y-97260240D01*
X56267973Y-97279640D01*
X56260360Y-97327701D01*
X56248372Y-97364595D01*
X56230764Y-97399153D01*
X56207960Y-97430540D01*
X56180540Y-97457960D01*
X56149153Y-97480764D01*
X56114595Y-97498372D01*
X56077701Y-97510360D01*
X56044355Y-97515642D01*
X56029638Y-97517973D01*
X56010241Y-97519500D01*
X50696082Y-97519500D01*
X50696075Y-97519501D01*
X50551094Y-97548340D01*
X50551082Y-97548343D01*
X50414511Y-97604912D01*
X50414498Y-97604919D01*
X50291585Y-97687048D01*
X50291581Y-97687051D01*
X50187051Y-97791581D01*
X50187048Y-97791585D01*
X50104919Y-97914498D01*
X50104912Y-97914511D01*
X50048343Y-98051082D01*
X50048340Y-98051094D01*
X50019501Y-98196075D01*
X50019500Y-98196082D01*
X50019500Y-100760240D01*
X50017973Y-100779640D01*
X50010360Y-100827701D01*
X49998372Y-100864595D01*
X49980764Y-100899153D01*
X49957960Y-100930540D01*
X49930540Y-100957960D01*
X49899153Y-100980764D01*
X49864595Y-100998372D01*
X49827701Y-101010360D01*
X49794355Y-101015642D01*
X49779638Y-101017973D01*
X49760241Y-101019500D01*
X41657918Y-101019500D01*
X41638737Y-101013867D01*
X41618758Y-101013154D01*
X41605898Y-101004225D01*
X41590879Y-100999815D01*
X41577788Y-100984707D01*
X41561366Y-100973305D01*
X41547157Y-100949357D01*
X41545124Y-100947011D01*
X41543366Y-100942976D01*
X41523283Y-100894489D01*
X41514906Y-100863223D01*
X41501061Y-100758059D01*
X41500000Y-100741874D01*
X41500000Y-93916918D01*
X43819500Y-93916918D01*
X43819500Y-94698021D01*
X43847829Y-94876880D01*
X43903787Y-95049106D01*
X43903788Y-95049109D01*
X43959664Y-95158770D01*
X43970200Y-95179448D01*
X43986006Y-95210467D01*
X44092441Y-95356964D01*
X44092445Y-95356969D01*
X44220500Y-95485024D01*
X44220505Y-95485028D01*
X44348287Y-95577866D01*
X44367006Y-95591466D01*
X44472484Y-95645210D01*
X44528360Y-95673681D01*
X44528363Y-95673682D01*
X44614476Y-95701661D01*
X44700591Y-95729641D01*
X44783429Y-95742761D01*
X44879449Y-95757970D01*
X44879454Y-95757970D01*
X45060551Y-95757970D01*
X45147259Y-95744235D01*
X45239409Y-95729641D01*
X45411639Y-95673681D01*
X45572994Y-95591466D01*
X45719501Y-95485023D01*
X45847553Y-95356971D01*
X45953996Y-95210464D01*
X46036211Y-95049109D01*
X46092171Y-94876879D01*
X46106422Y-94786895D01*
X46117527Y-94716791D01*
X46147456Y-94653656D01*
X46206768Y-94616725D01*
X46276630Y-94617723D01*
X46334863Y-94656333D01*
X46362473Y-94716791D01*
X46387829Y-94876880D01*
X46443787Y-95049106D01*
X46443788Y-95049109D01*
X46499664Y-95158770D01*
X46510200Y-95179448D01*
X46526006Y-95210467D01*
X46632441Y-95356964D01*
X46632445Y-95356969D01*
X46760500Y-95485024D01*
X46760505Y-95485028D01*
X46888287Y-95577866D01*
X46907006Y-95591466D01*
X47012484Y-95645210D01*
X47068360Y-95673681D01*
X47068363Y-95673682D01*
X47154476Y-95701661D01*
X47240591Y-95729641D01*
X47323429Y-95742761D01*
X47419449Y-95757970D01*
X47419454Y-95757970D01*
X47600551Y-95757970D01*
X47687259Y-95744235D01*
X47779409Y-95729641D01*
X47951639Y-95673681D01*
X48112994Y-95591466D01*
X48259501Y-95485023D01*
X48387553Y-95356971D01*
X48493996Y-95210464D01*
X48576211Y-95049109D01*
X48632171Y-94876879D01*
X48646765Y-94784729D01*
X48660500Y-94698021D01*
X48660500Y-93916918D01*
X48641381Y-93796211D01*
X48632171Y-93738061D01*
X48589769Y-93607558D01*
X48576212Y-93565833D01*
X48576211Y-93565830D01*
X48532220Y-93479494D01*
X48493996Y-93404476D01*
X48442062Y-93332994D01*
X48387558Y-93257975D01*
X48387554Y-93257970D01*
X48259499Y-93129915D01*
X48259494Y-93129911D01*
X48112997Y-93023476D01*
X48112996Y-93023475D01*
X48112994Y-93023474D01*
X48061300Y-92997134D01*
X47951639Y-92941258D01*
X47951636Y-92941257D01*
X47779410Y-92885299D01*
X47600551Y-92856970D01*
X47600546Y-92856970D01*
X47419454Y-92856970D01*
X47419449Y-92856970D01*
X47240589Y-92885299D01*
X47068363Y-92941257D01*
X47068360Y-92941258D01*
X46907002Y-93023476D01*
X46760505Y-93129911D01*
X46760500Y-93129915D01*
X46632445Y-93257970D01*
X46632441Y-93257975D01*
X46526006Y-93404472D01*
X46443788Y-93565830D01*
X46443787Y-93565833D01*
X46387829Y-93738059D01*
X46362473Y-93898148D01*
X46332544Y-93961283D01*
X46273232Y-93998214D01*
X46203369Y-93997216D01*
X46145137Y-93958606D01*
X46117527Y-93898148D01*
X46101381Y-93796211D01*
X46092171Y-93738061D01*
X46049769Y-93607558D01*
X46036212Y-93565833D01*
X46036211Y-93565830D01*
X45992220Y-93479494D01*
X45953996Y-93404476D01*
X45902062Y-93332994D01*
X45847558Y-93257975D01*
X45847554Y-93257970D01*
X45719499Y-93129915D01*
X45719494Y-93129911D01*
X45572997Y-93023476D01*
X45572996Y-93023475D01*
X45572994Y-93023474D01*
X45521300Y-92997134D01*
X45411639Y-92941258D01*
X45411636Y-92941257D01*
X45239410Y-92885299D01*
X45060551Y-92856970D01*
X45060546Y-92856970D01*
X44879454Y-92856970D01*
X44879449Y-92856970D01*
X44700589Y-92885299D01*
X44528363Y-92941257D01*
X44528360Y-92941258D01*
X44367002Y-93023476D01*
X44220505Y-93129911D01*
X44220500Y-93129915D01*
X44092445Y-93257970D01*
X44092441Y-93257975D01*
X43986006Y-93404472D01*
X43903788Y-93565830D01*
X43903787Y-93565833D01*
X43847829Y-93738059D01*
X43819500Y-93916918D01*
X41500000Y-93916918D01*
X41500000Y-92639448D01*
X51079500Y-92639448D01*
X51079500Y-92820551D01*
X51107829Y-92999410D01*
X51163787Y-93171636D01*
X51163788Y-93171639D01*
X51246006Y-93332997D01*
X51352441Y-93479494D01*
X51352445Y-93479499D01*
X51480500Y-93607554D01*
X51480505Y-93607558D01*
X51608287Y-93700396D01*
X51627006Y-93713996D01*
X51732484Y-93767740D01*
X51788360Y-93796211D01*
X51788363Y-93796212D01*
X51874476Y-93824191D01*
X51960591Y-93852171D01*
X52033639Y-93863740D01*
X52120678Y-93877527D01*
X52183813Y-93907456D01*
X52220744Y-93966768D01*
X52219746Y-94036631D01*
X52181136Y-94094863D01*
X52120678Y-94122473D01*
X51960589Y-94147829D01*
X51788363Y-94203787D01*
X51788360Y-94203788D01*
X51627002Y-94286006D01*
X51480505Y-94392441D01*
X51480500Y-94392445D01*
X51352445Y-94520500D01*
X51352441Y-94520505D01*
X51246006Y-94667002D01*
X51163788Y-94828360D01*
X51163787Y-94828363D01*
X51107829Y-95000589D01*
X51079500Y-95179448D01*
X51079500Y-95360551D01*
X51107829Y-95539410D01*
X51163787Y-95711636D01*
X51163788Y-95711639D01*
X51246006Y-95872997D01*
X51352441Y-96019494D01*
X51352445Y-96019499D01*
X51480500Y-96147554D01*
X51480505Y-96147558D01*
X51608287Y-96240396D01*
X51627006Y-96253996D01*
X51732484Y-96307740D01*
X51788360Y-96336211D01*
X51788363Y-96336212D01*
X51874476Y-96364191D01*
X51960591Y-96392171D01*
X52043429Y-96405291D01*
X52139449Y-96420500D01*
X52139454Y-96420500D01*
X52320551Y-96420500D01*
X52407259Y-96406765D01*
X52499409Y-96392171D01*
X52671639Y-96336211D01*
X52832994Y-96253996D01*
X52979501Y-96147553D01*
X53107553Y-96019501D01*
X53213996Y-95872994D01*
X53296211Y-95711639D01*
X53352171Y-95539409D01*
X53366765Y-95447259D01*
X53380500Y-95360551D01*
X53380500Y-95179448D01*
X53359855Y-95049106D01*
X53352171Y-95000591D01*
X53296211Y-94828361D01*
X53296211Y-94828360D01*
X53267740Y-94772484D01*
X53213996Y-94667006D01*
X53177465Y-94616725D01*
X53107558Y-94520505D01*
X53107554Y-94520500D01*
X52979499Y-94392445D01*
X52979494Y-94392441D01*
X52832997Y-94286006D01*
X52832996Y-94286005D01*
X52832994Y-94286004D01*
X52781300Y-94259664D01*
X52671639Y-94203788D01*
X52671636Y-94203787D01*
X52499410Y-94147829D01*
X52339321Y-94122473D01*
X52276186Y-94092544D01*
X52239255Y-94033232D01*
X52240253Y-93963370D01*
X52278863Y-93905137D01*
X52339321Y-93877527D01*
X52409425Y-93866422D01*
X52499409Y-93852171D01*
X52671639Y-93796211D01*
X52832994Y-93713996D01*
X52979501Y-93607553D01*
X53107553Y-93479501D01*
X53213996Y-93332994D01*
X53296211Y-93171639D01*
X53352171Y-92999409D01*
X53370244Y-92885299D01*
X53377527Y-92839321D01*
X53407456Y-92776186D01*
X53466768Y-92739255D01*
X53536630Y-92740253D01*
X53594863Y-92778863D01*
X53622473Y-92839321D01*
X53647829Y-92999410D01*
X53703787Y-93171636D01*
X53703788Y-93171639D01*
X53786006Y-93332997D01*
X53892441Y-93479494D01*
X53892445Y-93479499D01*
X54020500Y-93607554D01*
X54020505Y-93607558D01*
X54148287Y-93700396D01*
X54167006Y-93713996D01*
X54272484Y-93767740D01*
X54328360Y-93796211D01*
X54328363Y-93796212D01*
X54414476Y-93824191D01*
X54500591Y-93852171D01*
X54583429Y-93865291D01*
X54679449Y-93880500D01*
X54679454Y-93880500D01*
X54860551Y-93880500D01*
X54947259Y-93866765D01*
X55039409Y-93852171D01*
X55211639Y-93796211D01*
X55372994Y-93713996D01*
X55519501Y-93607553D01*
X55647553Y-93479501D01*
X55753996Y-93332994D01*
X55836211Y-93171639D01*
X55892171Y-92999409D01*
X55914731Y-92856970D01*
X55920500Y-92820551D01*
X55920500Y-92639448D01*
X55904019Y-92535397D01*
X55892171Y-92460591D01*
X55836211Y-92288361D01*
X55836211Y-92288360D01*
X55807740Y-92232484D01*
X55753996Y-92127006D01*
X55740396Y-92108287D01*
X55647558Y-91980505D01*
X55647554Y-91980500D01*
X55519499Y-91852445D01*
X55519494Y-91852441D01*
X55372997Y-91746006D01*
X55372996Y-91746005D01*
X55372994Y-91746004D01*
X55321300Y-91719664D01*
X55211639Y-91663788D01*
X55211636Y-91663787D01*
X55039410Y-91607829D01*
X54860551Y-91579500D01*
X54860546Y-91579500D01*
X54679454Y-91579500D01*
X54679449Y-91579500D01*
X54500589Y-91607829D01*
X54328363Y-91663787D01*
X54328360Y-91663788D01*
X54167002Y-91746006D01*
X54020505Y-91852441D01*
X54020500Y-91852445D01*
X53892445Y-91980500D01*
X53892441Y-91980505D01*
X53786006Y-92127002D01*
X53703788Y-92288360D01*
X53703787Y-92288363D01*
X53647829Y-92460589D01*
X53622473Y-92620678D01*
X53592544Y-92683813D01*
X53533232Y-92720744D01*
X53463369Y-92719746D01*
X53405137Y-92681136D01*
X53377527Y-92620678D01*
X53363740Y-92533639D01*
X53352171Y-92460591D01*
X53296211Y-92288361D01*
X53296211Y-92288360D01*
X53267740Y-92232484D01*
X53213996Y-92127006D01*
X53200396Y-92108287D01*
X53107558Y-91980505D01*
X53107554Y-91980500D01*
X52979499Y-91852445D01*
X52979494Y-91852441D01*
X52832997Y-91746006D01*
X52832996Y-91746005D01*
X52832994Y-91746004D01*
X52781300Y-91719664D01*
X52671639Y-91663788D01*
X52671636Y-91663787D01*
X52499410Y-91607829D01*
X52320551Y-91579500D01*
X52320546Y-91579500D01*
X52139454Y-91579500D01*
X52139449Y-91579500D01*
X51960589Y-91607829D01*
X51788363Y-91663787D01*
X51788360Y-91663788D01*
X51627002Y-91746006D01*
X51480505Y-91852441D01*
X51480500Y-91852445D01*
X51352445Y-91980500D01*
X51352441Y-91980505D01*
X51246006Y-92127002D01*
X51163788Y-92288360D01*
X51163787Y-92288363D01*
X51107829Y-92460589D01*
X51079500Y-92639448D01*
X41500000Y-92639448D01*
X41500000Y-91008125D01*
X41501061Y-90991940D01*
X41514906Y-90886776D01*
X41523284Y-90855508D01*
X41560740Y-90765081D01*
X41576923Y-90737050D01*
X41636513Y-90659392D01*
X41659392Y-90636513D01*
X41737050Y-90576923D01*
X41765082Y-90560740D01*
X41839443Y-90529939D01*
X41886895Y-90520500D01*
X55975829Y-90520500D01*
X56010241Y-90520500D01*
X56029639Y-90522027D01*
G37*
%TD.AperFunction*%
%TD*%
D14*
X18000000Y-81000000D02*
G75*
G02*
X18000000Y-72000000I0J4500000D01*
G01*
X18000000Y-81000000D02*
X23500000Y-81000000D01*
X18000000Y-137000000D02*
X22250000Y-137000000D01*
X18000000Y-146000000D02*
G75*
G02*
X18000000Y-137000000I0J4500000D01*
G01*
X22750000Y-127500000D02*
X22750000Y-136500001D01*
X22750000Y-127500000D02*
G75*
G02*
X23250000Y-127000000I500000J0D01*
G01*
X22750000Y-136500001D02*
G75*
G02*
X22250000Y-137000000I-500000J1D01*
G01*
X23250000Y-127000000D02*
X23500000Y-127000000D01*
X23500000Y-81000000D02*
G75*
G02*
X24000000Y-81500000I0J-500000D01*
G01*
X24000000Y-81500000D02*
X24000000Y-126500001D01*
X24000001Y-126500001D02*
G75*
G02*
X23500001Y-127000001I-500001J1D01*
G01*
X40520000Y-146000000D02*
X18000000Y-146000000D01*
X41020000Y-83270000D02*
X41020000Y-89770000D01*
X41020000Y-83270000D02*
G75*
G02*
X41520000Y-82770000I500000J0D01*
G01*
X41020000Y-101770000D02*
X41020000Y-108270000D01*
X41020000Y-101770000D02*
G75*
G02*
X41520000Y-101270000I500000J0D01*
G01*
X41020000Y-120270000D02*
X41020000Y-126770000D01*
X41020000Y-120270000D02*
G75*
G02*
X41520000Y-119770000I500000J0D01*
G01*
X41020000Y-138770000D02*
X41020000Y-145500000D01*
X41020000Y-138770000D02*
G75*
G02*
X41520000Y-138270000I500000J0D01*
G01*
X41020001Y-145500000D02*
G75*
G02*
X40520000Y-146000001I-500001J0D01*
G01*
X41520000Y-90270000D02*
G75*
G02*
X41020000Y-89770000I0J500000D01*
G01*
X41520000Y-90270000D02*
X56020000Y-90270000D01*
X41520000Y-108770000D02*
G75*
G02*
X41020000Y-108270000I0J500000D01*
G01*
X41520000Y-108770000D02*
X56020000Y-108770000D01*
X41520000Y-127270000D02*
G75*
G02*
X41020000Y-126770000I0J500000D01*
G01*
X41520000Y-127270000D02*
X56020000Y-127270000D01*
X49770000Y-82770000D02*
X41520000Y-82770000D01*
X49770000Y-101270000D02*
X41520000Y-101270000D01*
X49770000Y-119770000D02*
X41520000Y-119770000D01*
X49770000Y-138270000D02*
X41520000Y-138270000D01*
X50270000Y-79770000D02*
X50270000Y-82270000D01*
X50270000Y-79770000D02*
G75*
G02*
X50770000Y-79270000I500000J0D01*
G01*
X50270000Y-82270000D02*
G75*
G02*
X49770000Y-82770000I-500000J0D01*
G01*
X50270000Y-98270000D02*
X50270000Y-100770000D01*
X50270000Y-98270000D02*
G75*
G02*
X50770000Y-97770000I500000J0D01*
G01*
X50270000Y-100770000D02*
G75*
G02*
X49770000Y-101270000I-500000J0D01*
G01*
X50270000Y-116770000D02*
X50270000Y-119270000D01*
X50270000Y-116770000D02*
G75*
G02*
X50770000Y-116270000I500000J0D01*
G01*
X50270000Y-119270000D02*
G75*
G02*
X49770000Y-119770000I-500000J0D01*
G01*
X50270000Y-135270000D02*
X50270000Y-137770000D01*
X50270000Y-135270000D02*
G75*
G02*
X50770000Y-134770000I500000J0D01*
G01*
X50270000Y-137770000D02*
G75*
G02*
X49770000Y-138270000I-500000J0D01*
G01*
X50770000Y-79270000D02*
X56020000Y-79270000D01*
X50770000Y-97770000D02*
X56020000Y-97770000D01*
X50770000Y-116270000D02*
X56020000Y-116270000D01*
X50770000Y-134770000D02*
X56020000Y-134770000D01*
X56020000Y-72000000D02*
X18000000Y-72000000D01*
X56020000Y-72000000D02*
G75*
G02*
X56520000Y-72500000I0J-500000D01*
G01*
X56020000Y-90270000D02*
G75*
G02*
X56520000Y-90770000I0J-500000D01*
G01*
X56020000Y-108770000D02*
G75*
G02*
X56520000Y-109270000I0J-500000D01*
G01*
X56020000Y-127270000D02*
G75*
G02*
X56520000Y-127770000I0J-500000D01*
G01*
X56519999Y-72500001D02*
X56519999Y-78770000D01*
X56520000Y-78770000D02*
G75*
G02*
X56020000Y-79270000I-500000J0D01*
G01*
X56520000Y-97270000D02*
G75*
G02*
X56020000Y-97770000I-500000J0D01*
G01*
X56520000Y-97270000D02*
X56520000Y-90770000D01*
X56520000Y-115770000D02*
G75*
G02*
X56020000Y-116270000I-500000J0D01*
G01*
X56520000Y-115770000D02*
X56520000Y-109270000D01*
X56520000Y-134270000D02*
G75*
G02*
X56020000Y-134770000I-500000J0D01*
G01*
X56520000Y-134270000D02*
X56520000Y-127770000D01*
M02*
