%TF.GenerationSoftware,KiCad,Pcbnew,10.0.1*%
%TF.CreationDate,2026-07-15T12:29:34+03:00*%
%TF.ProjectId,PSFB_Supply,50534642-5f53-4757-9070-6c792e6b6963,rev?*%
%TF.SameCoordinates,Original*%
%TF.FileFunction,Copper,L2,Bot*%
%TF.FilePolarity,Positive*%
%FSLAX46Y46*%
G04 Gerber Fmt 4.6, Leading zero omitted, Abs format (unit mm)*
G04 Created by KiCad (PCBNEW 10.0.1) date 2026-07-15 12:29:34*
%MOMM*%
%LPD*%
G01*
G04 APERTURE LIST*
G04 Aperture macros list*
%AMRoundRect*
0 Rectangle with rounded corners*
0 $1 Rounding radius*
0 $2 $3 $4 $5 $6 $7 $8 $9 X,Y pos of 4 corners*
0 Add a 4 corners polygon primitive as box body*
4,1,4,$2,$3,$4,$5,$6,$7,$8,$9,$2,$3,0*
0 Add four circle primitives for the rounded corners*
1,1,$1+$1,$2,$3*
1,1,$1+$1,$4,$5*
1,1,$1+$1,$6,$7*
1,1,$1+$1,$8,$9*
0 Add four rect primitives between the rounded corners*
20,1,$1+$1,$2,$3,$4,$5,0*
20,1,$1+$1,$4,$5,$6,$7,0*
20,1,$1+$1,$6,$7,$8,$9,0*
20,1,$1+$1,$8,$9,$2,$3,0*%
G04 Aperture macros list end*
%TA.AperFunction,ComponentPad*%
%ADD10O,1.700000X2.300000*%
%TD*%
%TA.AperFunction,ComponentPad*%
%ADD11R,1.700000X1.700000*%
%TD*%
%TA.AperFunction,ComponentPad*%
%ADD12C,1.700000*%
%TD*%
%TA.AperFunction,SMDPad,CuDef*%
%ADD13RoundRect,0.250000X0.412500X0.650000X-0.412500X0.650000X-0.412500X-0.650000X0.412500X-0.650000X0*%
%TD*%
%TA.AperFunction,SMDPad,CuDef*%
%ADD14R,1.600000X5.700000*%
%TD*%
%TA.AperFunction,SMDPad,CuDef*%
%ADD15RoundRect,0.250000X-0.650000X0.412500X-0.650000X-0.412500X0.650000X-0.412500X0.650000X0.412500X0*%
%TD*%
%TA.AperFunction,SMDPad,CuDef*%
%ADD16RoundRect,0.250000X-0.412500X-0.650000X0.412500X-0.650000X0.412500X0.650000X-0.412500X0.650000X0*%
%TD*%
%TA.AperFunction,ViaPad*%
%ADD17C,0.600000*%
%TD*%
%TA.AperFunction,Conductor*%
%ADD18C,1.000000*%
%TD*%
%TA.AperFunction,Profile*%
%ADD19C,0.050000*%
%TD*%
G04 APERTURE END LIST*
D10*
%TO.P,D1,1,Vin_1*%
%TO.N,Net-(D1-Vin)*%
X32270000Y-75807470D03*
%TO.P,D1,2,GND_2*%
%TO.N,GND*%
X34810000Y-75807470D03*
%TO.P,D1,5,-Vo_5*%
%TO.N,/QA01_1/-4V_OUT*%
X42430000Y-75807470D03*
%TO.P,D1,6,0V_6*%
%TO.N,/QA01_1/GND2*%
X44970000Y-75807470D03*
%TO.P,D1,7,+Vo_7*%
%TO.N,/QA01_1/+15V_OUT*%
X47510000Y-75807470D03*
%TD*%
%TO.P,D4,1,Vin_1*%
%TO.N,Net-(D4-Vin)*%
X32270000Y-131307470D03*
%TO.P,D4,2,GND_2*%
%TO.N,GND*%
X34810000Y-131307470D03*
%TO.P,D4,5,-Vo_5*%
%TO.N,/QA01_4/-4V_OUT*%
X42430000Y-131307470D03*
%TO.P,D4,6,0V_6*%
%TO.N,/QA01_4/GND2*%
X44970000Y-131307470D03*
%TO.P,D4,7,+Vo_7*%
%TO.N,/QA01_4/+15V_OUT*%
X47510000Y-131307470D03*
%TD*%
%TO.P,D3,1,Vin_1*%
%TO.N,Net-(D3-Vin)*%
X32270000Y-112807470D03*
%TO.P,D3,2,GND_2*%
%TO.N,GND*%
X34810000Y-112807470D03*
%TO.P,D3,5,-Vo_5*%
%TO.N,/QA01_3/-4V_OUT*%
X42430000Y-112807470D03*
%TO.P,D3,6,0V_6*%
%TO.N,/QA01_3/GND2*%
X44970000Y-112807470D03*
%TO.P,D3,7,+Vo_7*%
%TO.N,/QA01_3/+15V_OUT*%
X47510000Y-112807470D03*
%TD*%
%TO.P,D2,1,Vin_1*%
%TO.N,Net-(D2-Vin)*%
X32270000Y-94307470D03*
%TO.P,D2,2,GND_2*%
%TO.N,GND*%
X34810000Y-94307470D03*
%TO.P,D2,5,-Vo_5*%
%TO.N,/QA01_2/-4V_OUT*%
X42430000Y-94307470D03*
%TO.P,D2,6,0V_6*%
%TO.N,/QA01_2/GND2*%
X44970000Y-94307470D03*
%TO.P,D2,7,+Vo_7*%
%TO.N,/QA01_2/+15V_OUT*%
X47510000Y-94307470D03*
%TD*%
D11*
%TO.P,J6,1,Pin_1_1*%
%TO.N,/QA01_4/-4V_OUT*%
X54770000Y-132270000D03*
D12*
%TO.P,J6,2,Pin_2_2*%
%TO.N,/QA01_4/+15V_OUT*%
X54770000Y-129730000D03*
%TO.P,J6,3,Pin_3_3*%
%TO.N,/QA01_4/GND2*%
X52230000Y-132270000D03*
%TO.P,J6,4,Pin_4_4*%
X52230000Y-129730000D03*
%TD*%
D11*
%TO.P,J1,1,Pin_1_1*%
%TO.N,/QA01_1/-4V_OUT*%
X54770000Y-76770000D03*
D12*
%TO.P,J1,2,Pin_2_2*%
%TO.N,/QA01_1/+15V_OUT*%
X54770000Y-74230000D03*
%TO.P,J1,3,Pin_3_3*%
%TO.N,/QA01_1/GND2*%
X52230000Y-76770000D03*
%TO.P,J1,4,Pin_4_4*%
X52230000Y-74230000D03*
%TD*%
D13*
%TO.P,C1,1*%
%TO.N,+15V*%
X35082500Y-87520000D03*
%TO.P,C1,2*%
%TO.N,GND*%
X31957500Y-87520000D03*
%TD*%
%TO.P,C4,1*%
%TO.N,/QA01_1/+15V_OUT*%
X47832500Y-73520000D03*
%TO.P,C4,2*%
%TO.N,/QA01_1/GND2*%
X44707500Y-73520000D03*
%TD*%
D14*
%TO.P,L4,1*%
%TO.N,+15V*%
X35870000Y-138270000D03*
%TO.P,L4,2*%
%TO.N,Net-(D4-Vin)*%
X31170000Y-138270000D03*
%TD*%
D13*
%TO.P,C15,1*%
%TO.N,/QA01_3/GND2*%
X45332500Y-115020000D03*
%TO.P,C15,2*%
%TO.N,/QA01_3/-4V_OUT*%
X42207500Y-115020000D03*
%TD*%
%TO.P,C6,1*%
%TO.N,+15V*%
X35082500Y-106020000D03*
%TO.P,C6,2*%
%TO.N,GND*%
X31957500Y-106020000D03*
%TD*%
D14*
%TO.P,L3,1*%
%TO.N,+15V*%
X35870000Y-119770000D03*
%TO.P,L3,2*%
%TO.N,Net-(D3-Vin)*%
X31170000Y-119770000D03*
%TD*%
D13*
%TO.P,C10,1*%
%TO.N,/QA01_2/GND2*%
X45332500Y-96520000D03*
%TO.P,C10,2*%
%TO.N,/QA01_2/-4V_OUT*%
X42207500Y-96520000D03*
%TD*%
%TO.P,C20,1*%
%TO.N,/QA01_4/GND2*%
X45332500Y-133520000D03*
%TO.P,C20,2*%
%TO.N,/QA01_4/-4V_OUT*%
X42207500Y-133520000D03*
%TD*%
D15*
%TO.P,C2,1*%
%TO.N,Net-(D1-Vin)*%
X28270000Y-81207500D03*
%TO.P,C2,2*%
%TO.N,GND*%
X28270000Y-84332500D03*
%TD*%
%TO.P,C17,1*%
%TO.N,Net-(D4-Vin)*%
X28270000Y-136707500D03*
%TO.P,C17,2*%
%TO.N,GND*%
X28270000Y-139832500D03*
%TD*%
D16*
%TO.P,C13,1*%
%TO.N,Net-(D3-Vin)*%
X31957500Y-115270000D03*
%TO.P,C13,2*%
%TO.N,GND*%
X35082500Y-115270000D03*
%TD*%
D15*
%TO.P,C12,1*%
%TO.N,Net-(D3-Vin)*%
X28270000Y-118207500D03*
%TO.P,C12,2*%
%TO.N,GND*%
X28270000Y-121332500D03*
%TD*%
D13*
%TO.P,C16,1*%
%TO.N,+15V*%
X35082500Y-143020000D03*
%TO.P,C16,2*%
%TO.N,GND*%
X31957500Y-143020000D03*
%TD*%
D15*
%TO.P,C7,1*%
%TO.N,Net-(D2-Vin)*%
X28270000Y-99707500D03*
%TO.P,C7,2*%
%TO.N,GND*%
X28270000Y-102832500D03*
%TD*%
D11*
%TO.P,J3,1,Pin_1_1*%
%TO.N,GND*%
X27093600Y-129730000D03*
D12*
%TO.P,J3,2,Pin_2_2*%
X24553600Y-129730000D03*
%TO.P,J3,3,Pin_3_3*%
X27093600Y-132270000D03*
%TO.P,J3,4,Pin_4_4*%
X24553600Y-132270000D03*
%TD*%
D11*
%TO.P,J2,1,Pin_1_1*%
%TO.N,+15V*%
X27093622Y-74230000D03*
D12*
%TO.P,J2,2,Pin_2_2*%
X24553622Y-74230000D03*
%TO.P,J2,3,Pin_3_3*%
X27093622Y-76770000D03*
%TO.P,J2,4,Pin_4_4*%
X24553622Y-76770000D03*
%TD*%
D13*
%TO.P,C19,1*%
%TO.N,/QA01_4/+15V_OUT*%
X47832500Y-129020000D03*
%TO.P,C19,2*%
%TO.N,/QA01_4/GND2*%
X44707500Y-129020000D03*
%TD*%
%TO.P,C14,1*%
%TO.N,/QA01_3/+15V_OUT*%
X47832500Y-110520000D03*
%TO.P,C14,2*%
%TO.N,/QA01_3/GND2*%
X44707500Y-110520000D03*
%TD*%
D14*
%TO.P,L1,1*%
%TO.N,+15V*%
X35870000Y-82770000D03*
%TO.P,L1,2*%
%TO.N,Net-(D1-Vin)*%
X31170000Y-82770000D03*
%TD*%
D13*
%TO.P,C5,1*%
%TO.N,/QA01_1/GND2*%
X45332500Y-78020000D03*
%TO.P,C5,2*%
%TO.N,/QA01_1/-4V_OUT*%
X42207500Y-78020000D03*
%TD*%
%TO.P,C9,1*%
%TO.N,/QA01_2/+15V_OUT*%
X47832500Y-92020000D03*
%TO.P,C9,2*%
%TO.N,/QA01_2/GND2*%
X44707500Y-92020000D03*
%TD*%
D16*
%TO.P,C3,1*%
%TO.N,Net-(D1-Vin)*%
X31957500Y-78270000D03*
%TO.P,C3,2*%
%TO.N,GND*%
X35082500Y-78270000D03*
%TD*%
%TO.P,C18,1*%
%TO.N,Net-(D4-Vin)*%
X31957500Y-133770000D03*
%TO.P,C18,2*%
%TO.N,GND*%
X35082500Y-133770000D03*
%TD*%
%TO.P,C8,1*%
%TO.N,Net-(D2-Vin)*%
X31957500Y-96770000D03*
%TO.P,C8,2*%
%TO.N,GND*%
X35082500Y-96770000D03*
%TD*%
D11*
%TO.P,J5,1,Pin_1_1*%
%TO.N,/QA01_3/-4V_OUT*%
X54770000Y-113770000D03*
D12*
%TO.P,J5,2,Pin_2_2*%
%TO.N,/QA01_3/+15V_OUT*%
X54770000Y-111230000D03*
%TO.P,J5,3,Pin_3_3*%
%TO.N,/QA01_3/GND2*%
X52230000Y-113770000D03*
%TO.P,J5,4,Pin_4_4*%
X52230000Y-111230000D03*
%TD*%
D14*
%TO.P,L2,1*%
%TO.N,+15V*%
X35870000Y-101270000D03*
%TO.P,L2,2*%
%TO.N,Net-(D2-Vin)*%
X31170000Y-101270000D03*
%TD*%
D13*
%TO.P,C11,1*%
%TO.N,+15V*%
X35082500Y-124520000D03*
%TO.P,C11,2*%
%TO.N,GND*%
X31957500Y-124520000D03*
%TD*%
D11*
%TO.P,J4,1,Pin_1_1*%
%TO.N,/QA01_2/-4V_OUT*%
X54770000Y-95270000D03*
D12*
%TO.P,J4,2,Pin_2_2*%
%TO.N,/QA01_2/+15V_OUT*%
X54770000Y-92730000D03*
%TO.P,J4,3,Pin_3_3*%
%TO.N,/QA01_2/GND2*%
X52230000Y-95270000D03*
%TO.P,J4,4,Pin_4_4*%
X52230000Y-92730000D03*
%TD*%
D17*
%TO.N,+15V*%
X35082500Y-107332500D03*
X35082500Y-125832500D03*
X36020000Y-143020000D03*
X35082500Y-88957500D03*
%TD*%
%TO.N,GND*%
D18*
X35082500Y-113079970D02*
X34810000Y-112807470D01*
X35082500Y-76079970D02*
X34810000Y-75807470D01*
X35082500Y-94579970D02*
X34810000Y-94307470D01*
X35082500Y-131579970D02*
X34810000Y-131307470D01*
%TO.N,+15V*%
X35870000Y-86732500D02*
X35082500Y-87520000D01*
X35082500Y-107332500D02*
X35082500Y-106020000D01*
X35082500Y-88957500D02*
X35082500Y-87520000D01*
X35870000Y-105232500D02*
X35082500Y-106020000D01*
X35870000Y-119770000D02*
X35870000Y-123732500D01*
X35870000Y-142232500D02*
X35082500Y-143020000D01*
X35870000Y-82770000D02*
X35870000Y-86732500D01*
X36020000Y-143020000D02*
X35082500Y-143020000D01*
X35870000Y-123732500D02*
X35082500Y-124520000D01*
X35870000Y-138270000D02*
X35870000Y-142232500D01*
X35870000Y-101270000D02*
X35870000Y-105232500D01*
X35082500Y-125832500D02*
X35082500Y-124520000D01*
%TO.N,Net-(D1-Vin)*%
X31957500Y-78270000D02*
X31957500Y-76119970D01*
X28270000Y-81207500D02*
X29607500Y-81207500D01*
X31957500Y-76119970D02*
X32270000Y-75807470D01*
X31170000Y-79057500D02*
X31957500Y-78270000D01*
X31170000Y-82770000D02*
X31170000Y-79057500D01*
X29607500Y-81207500D02*
X31170000Y-82770000D01*
%TO.N,/QA01_1/GND2*%
X44707500Y-75544970D02*
X44970000Y-75807470D01*
X45332500Y-76169970D02*
X44970000Y-75807470D01*
%TO.N,/QA01_1/-4V_OUT*%
X42430000Y-77797500D02*
X42207500Y-78020000D01*
X42430000Y-75807470D02*
X42430000Y-77797500D01*
%TO.N,Net-(D2-Vin)*%
X31170000Y-101270000D02*
X31170000Y-97557500D01*
X31170000Y-97557500D02*
X31957500Y-96770000D01*
X28270000Y-99707500D02*
X29607500Y-99707500D01*
X29607500Y-99707500D02*
X31170000Y-101270000D01*
X31957500Y-96770000D02*
X31957500Y-94619970D01*
X31957500Y-94619970D02*
X32270000Y-94307470D01*
%TO.N,/QA01_2/GND2*%
X45332500Y-94669970D02*
X44970000Y-94307470D01*
X44707500Y-94044970D02*
X44970000Y-94307470D01*
%TO.N,/QA01_2/-4V_OUT*%
X42430000Y-96297500D02*
X42207500Y-96520000D01*
X42430000Y-94307470D02*
X42430000Y-96297500D01*
%TO.N,Net-(D3-Vin)*%
X31957500Y-113119970D02*
X32270000Y-112807470D01*
X31170000Y-116057500D02*
X31957500Y-115270000D01*
X31170000Y-119770000D02*
X31170000Y-116057500D01*
X29607500Y-118207500D02*
X31170000Y-119770000D01*
X31957500Y-115270000D02*
X31957500Y-113119970D01*
X28270000Y-118207500D02*
X29607500Y-118207500D01*
%TO.N,/QA01_3/GND2*%
X44707500Y-112544970D02*
X44970000Y-112807470D01*
X45332500Y-113169970D02*
X44970000Y-112807470D01*
%TO.N,/QA01_3/-4V_OUT*%
X42430000Y-114797500D02*
X42207500Y-115020000D01*
X42430000Y-112807470D02*
X42430000Y-114797500D01*
%TO.N,Net-(D4-Vin)*%
X28270000Y-136707500D02*
X29607500Y-136707500D01*
X31170000Y-134557500D02*
X31957500Y-133770000D01*
X29607500Y-136707500D02*
X31170000Y-138270000D01*
X31170000Y-138270000D02*
X31170000Y-134557500D01*
X31957500Y-131619970D02*
X32270000Y-131307470D01*
X31957500Y-133770000D02*
X31957500Y-131619970D01*
%TO.N,/QA01_4/GND2*%
X44707500Y-131044970D02*
X44970000Y-131307470D01*
X45332500Y-131669970D02*
X44970000Y-131307470D01*
%TO.N,/QA01_4/-4V_OUT*%
X42430000Y-131307470D02*
X42430000Y-133297500D01*
X42430000Y-133297500D02*
X42207500Y-133520000D01*
%TD*%
%TA.AperFunction,Conductor*%
%TO.N,/QA01_2/GND2*%
G36*
X45508059Y-90751061D02*
G01*
X45613223Y-90764906D01*
X45644491Y-90773284D01*
X45734918Y-90810740D01*
X45762952Y-90826925D01*
X45840602Y-90886509D01*
X45863491Y-90909398D01*
X45923074Y-90987048D01*
X45939259Y-91015081D01*
X45976715Y-91105508D01*
X45985093Y-91136775D01*
X45998939Y-91241939D01*
X46000000Y-91258125D01*
X46000000Y-96000000D01*
X49292893Y-96000000D01*
X49500000Y-96000000D01*
X51250000Y-94250000D01*
X51250000Y-93258125D01*
X51251061Y-93241940D01*
X51264906Y-93136776D01*
X51264906Y-93136775D01*
X51273284Y-93105508D01*
X51310740Y-93015081D01*
X51326923Y-92987050D01*
X51386513Y-92909392D01*
X51409392Y-92886513D01*
X51487050Y-92826923D01*
X51515079Y-92810740D01*
X51605509Y-92773283D01*
X51636775Y-92764906D01*
X51741941Y-92751061D01*
X51758126Y-92750000D01*
X52741874Y-92750000D01*
X52758059Y-92751061D01*
X52863223Y-92764906D01*
X52894491Y-92773284D01*
X52984918Y-92810740D01*
X53012952Y-92826925D01*
X53090602Y-92886509D01*
X53113491Y-92909398D01*
X53173074Y-92987048D01*
X53189259Y-93015081D01*
X53226715Y-93105508D01*
X53235093Y-93136775D01*
X53248939Y-93241939D01*
X53250000Y-93258125D01*
X53250000Y-97261874D01*
X53248939Y-97278060D01*
X53235093Y-97383224D01*
X53226717Y-97414486D01*
X53214929Y-97442948D01*
X53171090Y-97497353D01*
X53104797Y-97519421D01*
X53100366Y-97519500D01*
X50696082Y-97519500D01*
X50696075Y-97519501D01*
X50551094Y-97548340D01*
X50551082Y-97548343D01*
X50414511Y-97604912D01*
X50414498Y-97604919D01*
X50291585Y-97687048D01*
X50291581Y-97687051D01*
X50187051Y-97791581D01*
X50187048Y-97791585D01*
X50104919Y-97914498D01*
X50104914Y-97914507D01*
X50101208Y-97923456D01*
X50057365Y-97977858D01*
X49991071Y-97999921D01*
X49986648Y-98000000D01*
X44508126Y-98000000D01*
X44491941Y-97998939D01*
X44478917Y-97997224D01*
X44386775Y-97985093D01*
X44355508Y-97976715D01*
X44265081Y-97939259D01*
X44237048Y-97923074D01*
X44159398Y-97863491D01*
X44136508Y-97840601D01*
X44076925Y-97762951D01*
X44060740Y-97734918D01*
X44023284Y-97644491D01*
X44014906Y-97613223D01*
X44001061Y-97508059D01*
X44000000Y-97491874D01*
X44000000Y-91258125D01*
X44001061Y-91241940D01*
X44014906Y-91136776D01*
X44014906Y-91136775D01*
X44023284Y-91105508D01*
X44060740Y-91015081D01*
X44076923Y-90987050D01*
X44136513Y-90909392D01*
X44159392Y-90886513D01*
X44237050Y-90826923D01*
X44265079Y-90810740D01*
X44355509Y-90773283D01*
X44386775Y-90764906D01*
X44491941Y-90751061D01*
X44508126Y-90750000D01*
X45491874Y-90750000D01*
X45508059Y-90751061D01*
G37*
%TD.AperFunction*%
%TD*%
%TA.AperFunction,Conductor*%
%TO.N,/QA01_3/GND2*%
G36*
X45508059Y-109251061D02*
G01*
X45613223Y-109264906D01*
X45644491Y-109273284D01*
X45734918Y-109310740D01*
X45762952Y-109326925D01*
X45840602Y-109386509D01*
X45863491Y-109409398D01*
X45923074Y-109487048D01*
X45939259Y-109515081D01*
X45976715Y-109605508D01*
X45985093Y-109636775D01*
X45998939Y-109741939D01*
X46000000Y-109758125D01*
X46000000Y-114500000D01*
X49292893Y-114500000D01*
X49500000Y-114500000D01*
X51250000Y-112750000D01*
X51250000Y-111758125D01*
X51251061Y-111741940D01*
X51264906Y-111636776D01*
X51264906Y-111636775D01*
X51273284Y-111605508D01*
X51310740Y-111515081D01*
X51326923Y-111487050D01*
X51386513Y-111409392D01*
X51409392Y-111386513D01*
X51487050Y-111326923D01*
X51515079Y-111310740D01*
X51605509Y-111273283D01*
X51636775Y-111264906D01*
X51741941Y-111251061D01*
X51758126Y-111250000D01*
X52741874Y-111250000D01*
X52758059Y-111251061D01*
X52863223Y-111264906D01*
X52894491Y-111273284D01*
X52984918Y-111310740D01*
X53012952Y-111326925D01*
X53090602Y-111386509D01*
X53113491Y-111409398D01*
X53173074Y-111487048D01*
X53189259Y-111515081D01*
X53226715Y-111605508D01*
X53235093Y-111636775D01*
X53248939Y-111741939D01*
X53250000Y-111758125D01*
X53250000Y-115761874D01*
X53248939Y-115778060D01*
X53235093Y-115883224D01*
X53226717Y-115914486D01*
X53214929Y-115942948D01*
X53171090Y-115997353D01*
X53104797Y-116019421D01*
X53100366Y-116019500D01*
X50696082Y-116019500D01*
X50696079Y-116019501D01*
X50551090Y-116048342D01*
X50551088Y-116048343D01*
X50511087Y-116064912D01*
X50414505Y-116104919D01*
X50291586Y-116187052D01*
X50291579Y-116187057D01*
X50291579Y-116187058D01*
X50187058Y-116291579D01*
X50187057Y-116291579D01*
X50104918Y-116414507D01*
X50101213Y-116423453D01*
X50057372Y-116477856D01*
X49991078Y-116499921D01*
X49986652Y-116500000D01*
X44508126Y-116500000D01*
X44491941Y-116498939D01*
X44478917Y-116497224D01*
X44386775Y-116485093D01*
X44355508Y-116476715D01*
X44265081Y-116439259D01*
X44237048Y-116423074D01*
X44159398Y-116363491D01*
X44136508Y-116340601D01*
X44076925Y-116262951D01*
X44060740Y-116234918D01*
X44023284Y-116144491D01*
X44014906Y-116113223D01*
X44001061Y-116008059D01*
X44000000Y-115991874D01*
X44000000Y-109758125D01*
X44001061Y-109741940D01*
X44014906Y-109636776D01*
X44014906Y-109636775D01*
X44023284Y-109605508D01*
X44060740Y-109515081D01*
X44076923Y-109487050D01*
X44136513Y-109409392D01*
X44159392Y-109386513D01*
X44237050Y-109326923D01*
X44265079Y-109310740D01*
X44355509Y-109273283D01*
X44386775Y-109264906D01*
X44491941Y-109251061D01*
X44508126Y-109250000D01*
X45491874Y-109250000D01*
X45508059Y-109251061D01*
G37*
%TD.AperFunction*%
%TD*%
%TA.AperFunction,Conductor*%
%TO.N,/QA01_3/+15V_OUT*%
G36*
X55965052Y-109020504D02*
G01*
X55975850Y-109020502D01*
X55975853Y-109020504D01*
X56005416Y-109020500D01*
X56015136Y-109020881D01*
X56024802Y-109021642D01*
X56034455Y-109022784D01*
X56042761Y-109024099D01*
X56068085Y-109028109D01*
X56087008Y-109032651D01*
X56105338Y-109038606D01*
X56123313Y-109046050D01*
X56140472Y-109054793D01*
X56157064Y-109064960D01*
X56172664Y-109076294D01*
X56187460Y-109088931D01*
X56201067Y-109102538D01*
X56213704Y-109117334D01*
X56225038Y-109132934D01*
X56235207Y-109149529D01*
X56243947Y-109166684D01*
X56251392Y-109184660D01*
X56257348Y-109202993D01*
X56261891Y-109221917D01*
X56267213Y-109255532D01*
X56268356Y-109265200D01*
X56269116Y-109274864D01*
X56269498Y-109284595D01*
X56269495Y-109324039D01*
X56269499Y-109324097D01*
X56269500Y-109325935D01*
X56269500Y-112324251D01*
X56269499Y-112324257D01*
X56269500Y-112324260D01*
X56264475Y-112359195D01*
X56260070Y-112374193D01*
X56222303Y-112432958D01*
X56212011Y-112441877D01*
X56178255Y-112462729D01*
X56151995Y-112473606D01*
X56136633Y-112478821D01*
X56121072Y-112482990D01*
X56105169Y-112486153D01*
X56037976Y-112495000D01*
X56019398Y-112497446D01*
X56018060Y-112497622D01*
X56012063Y-112498411D01*
X56004015Y-112499204D01*
X56003484Y-112499238D01*
X55995919Y-112499734D01*
X55987819Y-112500000D01*
X53679500Y-112500000D01*
X53612461Y-112480315D01*
X53566706Y-112427511D01*
X53555500Y-112376000D01*
X53555500Y-111758137D01*
X53555500Y-111758125D01*
X53554846Y-111738142D01*
X53553785Y-111721956D01*
X53551825Y-111702061D01*
X53537979Y-111596897D01*
X53530183Y-111557705D01*
X53521805Y-111526438D01*
X53508960Y-111488598D01*
X53471504Y-111398171D01*
X53471500Y-111398163D01*
X53453842Y-111362356D01*
X53453831Y-111362335D01*
X53453829Y-111362330D01*
X53437644Y-111334297D01*
X53415443Y-111301071D01*
X53406121Y-111288923D01*
X53399718Y-111272544D01*
X53389188Y-111259037D01*
X53384198Y-111232850D01*
X53381013Y-111224703D01*
X53380500Y-111219078D01*
X53380500Y-111139448D01*
X53364019Y-111035397D01*
X53352171Y-110960591D01*
X53296211Y-110788361D01*
X53296211Y-110788360D01*
X53267740Y-110732484D01*
X53213996Y-110627006D01*
X53213995Y-110627004D01*
X53200397Y-110608289D01*
X53200395Y-110608285D01*
X53107570Y-110480522D01*
X53107558Y-110480505D01*
X53107554Y-110480500D01*
X53107551Y-110480497D01*
X53107548Y-110480493D01*
X52979507Y-110352452D01*
X52979498Y-110352444D01*
X52979474Y-110352426D01*
X52843605Y-110253712D01*
X52843591Y-110253703D01*
X52832997Y-110246006D01*
X52832996Y-110246005D01*
X52832994Y-110246004D01*
X52826871Y-110242884D01*
X52781301Y-110219664D01*
X52781300Y-110219664D01*
X52671639Y-110163788D01*
X52671636Y-110163787D01*
X52671633Y-110163786D01*
X52671631Y-110163785D01*
X52671612Y-110163778D01*
X52499412Y-110107829D01*
X52499413Y-110107829D01*
X52365265Y-110086582D01*
X52320551Y-110079500D01*
X52320550Y-110079500D01*
X52139450Y-110079500D01*
X52139449Y-110079500D01*
X52103677Y-110085165D01*
X51960585Y-110107829D01*
X51788386Y-110163778D01*
X51788363Y-110163786D01*
X51788359Y-110163788D01*
X51627005Y-110246004D01*
X51627002Y-110246005D01*
X51627002Y-110246006D01*
X51578169Y-110281484D01*
X51480499Y-110352445D01*
X51480491Y-110352452D01*
X51352452Y-110480491D01*
X51352445Y-110480499D01*
X51246004Y-110627005D01*
X51163788Y-110788359D01*
X51163786Y-110788363D01*
X51163778Y-110788386D01*
X51107829Y-110960585D01*
X51079500Y-111139448D01*
X51079500Y-111271373D01*
X51062888Y-111333372D01*
X51046159Y-111362346D01*
X51028498Y-111398163D01*
X51028489Y-111398183D01*
X50991042Y-111488589D01*
X50991041Y-111488591D01*
X50978193Y-111526439D01*
X50978189Y-111526450D01*
X50969814Y-111557708D01*
X50962019Y-111596902D01*
X50948173Y-111702073D01*
X50946216Y-111721935D01*
X50945154Y-111738137D01*
X50944500Y-111758137D01*
X50944500Y-112374915D01*
X50924815Y-112441954D01*
X50872011Y-112487709D01*
X50802853Y-112497653D01*
X50793224Y-112495558D01*
X50789337Y-112495000D01*
X50789334Y-112495000D01*
X50750000Y-112495000D01*
X50749999Y-112495000D01*
X49293926Y-113951073D01*
X49265675Y-113972222D01*
X49242587Y-113984830D01*
X49183157Y-114000000D01*
X47262179Y-114000000D01*
X47254077Y-113999734D01*
X47245982Y-113999203D01*
X47237924Y-113998410D01*
X47233559Y-113997835D01*
X47228478Y-113997166D01*
X47228476Y-113997165D01*
X47228473Y-113997166D01*
X47144835Y-113986154D01*
X47128922Y-113982988D01*
X47113351Y-113978815D01*
X47097998Y-113973603D01*
X47022589Y-113942368D01*
X47008041Y-113935194D01*
X46994086Y-113927137D01*
X46980600Y-113918126D01*
X46915844Y-113868437D01*
X46903649Y-113857742D01*
X46892256Y-113846349D01*
X46881561Y-113834154D01*
X46831872Y-113769398D01*
X46822861Y-113755912D01*
X46814804Y-113741957D01*
X46807630Y-113727410D01*
X46776394Y-113652000D01*
X46771181Y-113636643D01*
X46767007Y-113621065D01*
X46763846Y-113605173D01*
X46751589Y-113512074D01*
X46750796Y-113504030D01*
X46750264Y-113495905D01*
X46750000Y-113487820D01*
X46750000Y-109512178D01*
X46750264Y-109504094D01*
X46750797Y-109495965D01*
X46751590Y-109487920D01*
X46763846Y-109394822D01*
X46767006Y-109378936D01*
X46771183Y-109363348D01*
X46776390Y-109348007D01*
X46807633Y-109272581D01*
X46814801Y-109258046D01*
X46822864Y-109244079D01*
X46831856Y-109230620D01*
X46881578Y-109165822D01*
X46892251Y-109153653D01*
X46903653Y-109142251D01*
X46915822Y-109131578D01*
X46980620Y-109081856D01*
X46994066Y-109072872D01*
X47008068Y-109064788D01*
X47022575Y-109057635D01*
X47078167Y-109034609D01*
X47101413Y-109027557D01*
X47124921Y-109022881D01*
X47149107Y-109020500D01*
X55964996Y-109020500D01*
X55965052Y-109020504D01*
G37*
%TD.AperFunction*%
%TD*%
%TA.AperFunction,Conductor*%
%TO.N,/QA01_1/GND2*%
G36*
X45511857Y-72251561D02*
G01*
X45613223Y-72264906D01*
X45644491Y-72273284D01*
X45734918Y-72310740D01*
X45762952Y-72326925D01*
X45840602Y-72386509D01*
X45863491Y-72409398D01*
X45923074Y-72487048D01*
X45939259Y-72515081D01*
X45976715Y-72605508D01*
X45985093Y-72636775D01*
X45998939Y-72741939D01*
X46000000Y-72758125D01*
X46000000Y-77500000D01*
X49292893Y-77500000D01*
X49500000Y-77500000D01*
X51250000Y-75750000D01*
X51250000Y-74758125D01*
X51251061Y-74741940D01*
X51264906Y-74636776D01*
X51264906Y-74636775D01*
X51273284Y-74605508D01*
X51310740Y-74515081D01*
X51326923Y-74487050D01*
X51386513Y-74409392D01*
X51409392Y-74386513D01*
X51487050Y-74326923D01*
X51515079Y-74310740D01*
X51605509Y-74273283D01*
X51636775Y-74264906D01*
X51741941Y-74251061D01*
X51758126Y-74250000D01*
X52741874Y-74250000D01*
X52758059Y-74251061D01*
X52863223Y-74264906D01*
X52894491Y-74273284D01*
X52984918Y-74310740D01*
X53012952Y-74326925D01*
X53090602Y-74386509D01*
X53113491Y-74409398D01*
X53173074Y-74487048D01*
X53189259Y-74515081D01*
X53226715Y-74605508D01*
X53235093Y-74636775D01*
X53248939Y-74741939D01*
X53250000Y-74758125D01*
X53250000Y-78761874D01*
X53248939Y-78778060D01*
X53235093Y-78883224D01*
X53226717Y-78914486D01*
X53214929Y-78942948D01*
X53171090Y-78997353D01*
X53104797Y-79019421D01*
X53100366Y-79019500D01*
X50696082Y-79019500D01*
X50696075Y-79019501D01*
X50551094Y-79048340D01*
X50551082Y-79048343D01*
X50414511Y-79104912D01*
X50414498Y-79104919D01*
X50291585Y-79187048D01*
X50291581Y-79187051D01*
X50187051Y-79291581D01*
X50187048Y-79291585D01*
X50104919Y-79414498D01*
X50104914Y-79414507D01*
X50101208Y-79423456D01*
X50057365Y-79477858D01*
X49991071Y-79499921D01*
X49986648Y-79500000D01*
X44508126Y-79500000D01*
X44491941Y-79498939D01*
X44478917Y-79497224D01*
X44386775Y-79485093D01*
X44355508Y-79476715D01*
X44265081Y-79439259D01*
X44237048Y-79423074D01*
X44159398Y-79363491D01*
X44136508Y-79340601D01*
X44076925Y-79262951D01*
X44060740Y-79234918D01*
X44023284Y-79144491D01*
X44014906Y-79113223D01*
X44001061Y-79008059D01*
X44000000Y-78991874D01*
X44000000Y-72758125D01*
X44001061Y-72741940D01*
X44014906Y-72636776D01*
X44014906Y-72636775D01*
X44023284Y-72605508D01*
X44060740Y-72515081D01*
X44076923Y-72487050D01*
X44136513Y-72409392D01*
X44159392Y-72386513D01*
X44237050Y-72326923D01*
X44265079Y-72310740D01*
X44355509Y-72273283D01*
X44386775Y-72264906D01*
X44488143Y-72251561D01*
X44504328Y-72250500D01*
X45495672Y-72250500D01*
X45511857Y-72251561D01*
G37*
%TD.AperFunction*%
%TD*%
%TA.AperFunction,Conductor*%
%TO.N,GND*%
G36*
X37713039Y-72270185D02*
G01*
X37758794Y-72322989D01*
X37770000Y-72374500D01*
X37770000Y-145491874D01*
X37768939Y-145508060D01*
X37755093Y-145613224D01*
X37746717Y-145644486D01*
X37734929Y-145672948D01*
X37691090Y-145727353D01*
X37624797Y-145749421D01*
X37620366Y-145749500D01*
X22899634Y-145749500D01*
X22832595Y-145729815D01*
X22786840Y-145677011D01*
X22785085Y-145672983D01*
X22773282Y-145644486D01*
X22764906Y-145613223D01*
X22751061Y-145508059D01*
X22750000Y-145491874D01*
X22750000Y-143719986D01*
X30795001Y-143719986D01*
X30805494Y-143822697D01*
X30860641Y-143989119D01*
X30860643Y-143989124D01*
X30952684Y-144138345D01*
X31076654Y-144262315D01*
X31225875Y-144354356D01*
X31225880Y-144354358D01*
X31392302Y-144409505D01*
X31457499Y-144416166D01*
X31457500Y-144416165D01*
X32457500Y-144416165D01*
X32522697Y-144409505D01*
X32689119Y-144354358D01*
X32689124Y-144354356D01*
X32838345Y-144262315D01*
X32962315Y-144138345D01*
X33054356Y-143989124D01*
X33054358Y-143989119D01*
X33109505Y-143822697D01*
X33109506Y-143822690D01*
X33119999Y-143719986D01*
X33120000Y-143719973D01*
X33120000Y-143520000D01*
X32457500Y-143520000D01*
X32457500Y-144416165D01*
X31457500Y-144416165D01*
X31457500Y-143520000D01*
X30795001Y-143520000D01*
X30795001Y-143719986D01*
X22750000Y-143719986D01*
X22750000Y-140332500D01*
X26873834Y-140332500D01*
X26880494Y-140397697D01*
X26935641Y-140564119D01*
X26935643Y-140564124D01*
X27027684Y-140713345D01*
X27151654Y-140837315D01*
X27300875Y-140929356D01*
X27300880Y-140929358D01*
X27467302Y-140984505D01*
X27467309Y-140984506D01*
X27570019Y-140994999D01*
X27769999Y-140994999D01*
X27770000Y-140994998D01*
X27770000Y-140332500D01*
X26873834Y-140332500D01*
X22750000Y-140332500D01*
X22750000Y-139332499D01*
X26873833Y-139332499D01*
X26873834Y-139332500D01*
X27770000Y-139332500D01*
X27770000Y-138670000D01*
X27570029Y-138670000D01*
X27570012Y-138670001D01*
X27467302Y-138680494D01*
X27300880Y-138735641D01*
X27300875Y-138735643D01*
X27151654Y-138827684D01*
X27027684Y-138951654D01*
X26935643Y-139100875D01*
X26935641Y-139100880D01*
X26880494Y-139267302D01*
X26880493Y-139267309D01*
X26873833Y-139332499D01*
X22750000Y-139332499D01*
X22750000Y-137112729D01*
X22769685Y-137045690D01*
X22786320Y-137025047D01*
X22832948Y-136978419D01*
X22832951Y-136978416D01*
X22915084Y-136855496D01*
X22971658Y-136718914D01*
X23000499Y-136573919D01*
X23000499Y-136573916D01*
X23000500Y-136573909D01*
X23000500Y-136244983D01*
X26869500Y-136244983D01*
X26869500Y-137170001D01*
X26869501Y-137170019D01*
X26880000Y-137272796D01*
X26880001Y-137272799D01*
X26935185Y-137439331D01*
X26935186Y-137439334D01*
X27027288Y-137588656D01*
X27151344Y-137712712D01*
X27300666Y-137804814D01*
X27467203Y-137859999D01*
X27569991Y-137870500D01*
X28970008Y-137870499D01*
X29072797Y-137859999D01*
X29204711Y-137816286D01*
X29274534Y-137813885D01*
X29331391Y-137846311D01*
X29833182Y-138348103D01*
X29866666Y-138409424D01*
X29869500Y-138435782D01*
X29869500Y-139132600D01*
X29849815Y-139199639D01*
X29797011Y-139245394D01*
X29727853Y-139255338D01*
X29664297Y-139226313D01*
X29627794Y-139171604D01*
X29604358Y-139100880D01*
X29604356Y-139100875D01*
X29512315Y-138951654D01*
X29388345Y-138827684D01*
X29239124Y-138735643D01*
X29239119Y-138735641D01*
X29072697Y-138680494D01*
X29072690Y-138680493D01*
X28969986Y-138670000D01*
X28770000Y-138670000D01*
X28770000Y-140994999D01*
X28969972Y-140994999D01*
X28969986Y-140994998D01*
X29072697Y-140984505D01*
X29239119Y-140929358D01*
X29239124Y-140929356D01*
X29388345Y-140837315D01*
X29512315Y-140713345D01*
X29604356Y-140564124D01*
X29604359Y-140564117D01*
X29627794Y-140493394D01*
X29667566Y-140435949D01*
X29732081Y-140409125D01*
X29800857Y-140421439D01*
X29852058Y-140468982D01*
X29869500Y-140532397D01*
X29869500Y-141167870D01*
X29869501Y-141167876D01*
X29875908Y-141227483D01*
X29926202Y-141362328D01*
X29926206Y-141362335D01*
X30012452Y-141477544D01*
X30012455Y-141477547D01*
X30127664Y-141563793D01*
X30127671Y-141563797D01*
X30262517Y-141614091D01*
X30262516Y-141614091D01*
X30269444Y-141614835D01*
X30322127Y-141620500D01*
X30934479Y-141620499D01*
X31001516Y-141640183D01*
X31047271Y-141692987D01*
X31057215Y-141762146D01*
X31028190Y-141825702D01*
X31022159Y-141832180D01*
X30952682Y-141901657D01*
X30860643Y-142050875D01*
X30860641Y-142050880D01*
X30805494Y-142217302D01*
X30805493Y-142217309D01*
X30795000Y-142320013D01*
X30795000Y-142520000D01*
X33119999Y-142520000D01*
X33119999Y-142320024D01*
X33119998Y-142320016D01*
X33119995Y-142319983D01*
X33919500Y-142319983D01*
X33919500Y-143720001D01*
X33919501Y-143720018D01*
X33930000Y-143822796D01*
X33930001Y-143822799D01*
X33957780Y-143906628D01*
X33985186Y-143989334D01*
X34077288Y-144138656D01*
X34201344Y-144262712D01*
X34350666Y-144354814D01*
X34517203Y-144409999D01*
X34619991Y-144420500D01*
X35545008Y-144420499D01*
X35545016Y-144420498D01*
X35545019Y-144420498D01*
X35601302Y-144414748D01*
X35647797Y-144409999D01*
X35814334Y-144354814D01*
X35963656Y-144262712D01*
X36087712Y-144138656D01*
X36138110Y-144056945D01*
X36190057Y-144010221D01*
X36219449Y-144000427D01*
X36311835Y-143982051D01*
X36493914Y-143906632D01*
X36657782Y-143797139D01*
X36797139Y-143657782D01*
X36906632Y-143493914D01*
X36982051Y-143311835D01*
X37020500Y-143118541D01*
X37020500Y-142921459D01*
X37020500Y-142921456D01*
X36982052Y-142728170D01*
X36982051Y-142728169D01*
X36982051Y-142728165D01*
X36906632Y-142546086D01*
X36874359Y-142497786D01*
X36853483Y-142431113D01*
X36855845Y-142404713D01*
X36870500Y-142331041D01*
X36870500Y-141657180D01*
X36890185Y-141590141D01*
X36920187Y-141557914D01*
X37027546Y-141477546D01*
X37113796Y-141362331D01*
X37164091Y-141227483D01*
X37170500Y-141167873D01*
X37170499Y-135372128D01*
X37164091Y-135312517D01*
X37164089Y-135312512D01*
X37113797Y-135177671D01*
X37113793Y-135177664D01*
X37027547Y-135062455D01*
X37027544Y-135062452D01*
X36912335Y-134976206D01*
X36912328Y-134976202D01*
X36777482Y-134925908D01*
X36777483Y-134925908D01*
X36717883Y-134919501D01*
X36717881Y-134919500D01*
X36717873Y-134919500D01*
X36717865Y-134919500D01*
X36289887Y-134919500D01*
X36222848Y-134899815D01*
X36177093Y-134847011D01*
X36167149Y-134777853D01*
X36177504Y-134743096D01*
X36179358Y-134739118D01*
X36234505Y-134572697D01*
X36234506Y-134572690D01*
X36244999Y-134469986D01*
X36245000Y-134469973D01*
X36245000Y-134270000D01*
X33920001Y-134270000D01*
X33920001Y-134469986D01*
X33930494Y-134572697D01*
X33985641Y-134739119D01*
X33985643Y-134739124D01*
X34077684Y-134888345D01*
X34201654Y-135012315D01*
X34350875Y-135104356D01*
X34350880Y-135104358D01*
X34498109Y-135153145D01*
X34555554Y-135192918D01*
X34582377Y-135257433D01*
X34576474Y-135304677D01*
X34577693Y-135304965D01*
X34575908Y-135312516D01*
X34569501Y-135372116D01*
X34569501Y-135372123D01*
X34569500Y-135372135D01*
X34569500Y-141167870D01*
X34569501Y-141167876D01*
X34575908Y-141227483D01*
X34626202Y-141362328D01*
X34626203Y-141362329D01*
X34626204Y-141362331D01*
X34673297Y-141425239D01*
X34697714Y-141490703D01*
X34682863Y-141558976D01*
X34633458Y-141608382D01*
X34586633Y-141622908D01*
X34517202Y-141630001D01*
X34517200Y-141630001D01*
X34350668Y-141685185D01*
X34350663Y-141685187D01*
X34201342Y-141777289D01*
X34077289Y-141901342D01*
X33985187Y-142050663D01*
X33985185Y-142050668D01*
X33985115Y-142050880D01*
X33930001Y-142217203D01*
X33930001Y-142217204D01*
X33930000Y-142217204D01*
X33919500Y-142319983D01*
X33119995Y-142319983D01*
X33109505Y-142217302D01*
X33054358Y-142050880D01*
X33054356Y-142050875D01*
X32962315Y-141901654D01*
X32838345Y-141777684D01*
X32689124Y-141685643D01*
X32689119Y-141685641D01*
X32522697Y-141630494D01*
X32522690Y-141630493D01*
X32453016Y-141623375D01*
X32388324Y-141596979D01*
X32348173Y-141539798D01*
X32345310Y-141469987D01*
X32366350Y-141425709D01*
X32413796Y-141362331D01*
X32464091Y-141227483D01*
X32470500Y-141167873D01*
X32470499Y-135372128D01*
X32464091Y-135312517D01*
X32464090Y-135312515D01*
X32464090Y-135312512D01*
X32462308Y-135304969D01*
X32464167Y-135304529D01*
X32459899Y-135244980D01*
X32493375Y-135183652D01*
X32542064Y-135153614D01*
X32689334Y-135104814D01*
X32838656Y-135012712D01*
X32962712Y-134888656D01*
X33054814Y-134739334D01*
X33109999Y-134572797D01*
X33120500Y-134470009D01*
X33120499Y-133069992D01*
X33109999Y-132967203D01*
X33058196Y-132810874D01*
X33055795Y-132741050D01*
X33091526Y-132681008D01*
X33103007Y-132671564D01*
X33149792Y-132637574D01*
X33300104Y-132487262D01*
X33300106Y-132487258D01*
X33300109Y-132487256D01*
X33389658Y-132364000D01*
X33425051Y-132315286D01*
X33429793Y-132305978D01*
X33477763Y-132255181D01*
X33545583Y-132238381D01*
X33611719Y-132260915D01*
X33650763Y-132305970D01*
X33655377Y-132315025D01*
X33780272Y-132486929D01*
X33780276Y-132486934D01*
X33930537Y-132637195D01*
X33946009Y-132648435D01*
X33988677Y-132703763D01*
X33994659Y-132773376D01*
X33987866Y-132794007D01*
X33987914Y-132794023D01*
X33930494Y-132967302D01*
X33930493Y-132967309D01*
X33920000Y-133070013D01*
X33920000Y-133270000D01*
X34582500Y-133270000D01*
X34582500Y-133087470D01*
X34434000Y-133087470D01*
X34366961Y-133067785D01*
X34321206Y-133014981D01*
X34310000Y-132963470D01*
X34310000Y-132240000D01*
X35310000Y-132240000D01*
X35458500Y-132240000D01*
X35525539Y-132259685D01*
X35571294Y-132312489D01*
X35582500Y-132364000D01*
X35582500Y-133270000D01*
X36244999Y-133270000D01*
X36244999Y-133070028D01*
X36244998Y-133070013D01*
X36234505Y-132967302D01*
X36179358Y-132800880D01*
X36179356Y-132800875D01*
X36087315Y-132651654D01*
X35963344Y-132527683D01*
X35959407Y-132524570D01*
X35919030Y-132467548D01*
X35915892Y-132397749D01*
X35936002Y-132354416D01*
X35964621Y-132315026D01*
X36061095Y-132125687D01*
X36126757Y-131923600D01*
X36126757Y-131923597D01*
X36145151Y-131807470D01*
X35310000Y-131807470D01*
X35310000Y-132240000D01*
X34310000Y-132240000D01*
X34310000Y-131373296D01*
X34344075Y-131500463D01*
X34409901Y-131614477D01*
X34502993Y-131707569D01*
X34617007Y-131773395D01*
X34744174Y-131807470D01*
X34875826Y-131807470D01*
X35002993Y-131773395D01*
X35117007Y-131707569D01*
X35210099Y-131614477D01*
X35275925Y-131500463D01*
X35310000Y-131373296D01*
X35310000Y-131241644D01*
X35275925Y-131114477D01*
X35210099Y-131000463D01*
X35117007Y-130907371D01*
X35002993Y-130841545D01*
X34875826Y-130807470D01*
X35310000Y-130807470D01*
X36145151Y-130807470D01*
X36126757Y-130691342D01*
X36126757Y-130691339D01*
X36061095Y-130489252D01*
X35964620Y-130299912D01*
X35839727Y-130128010D01*
X35839723Y-130128005D01*
X35689464Y-129977746D01*
X35689459Y-129977742D01*
X35517557Y-129852849D01*
X35328216Y-129756374D01*
X35310000Y-129750454D01*
X35310000Y-130807470D01*
X34875826Y-130807470D01*
X34744174Y-130807470D01*
X34617007Y-130841545D01*
X34502993Y-130907371D01*
X34409901Y-131000463D01*
X34344075Y-131114477D01*
X34310000Y-131241644D01*
X34310000Y-129750455D01*
X34309999Y-129750454D01*
X34291783Y-129756374D01*
X34102442Y-129852849D01*
X33930540Y-129977742D01*
X33930535Y-129977746D01*
X33780276Y-130128005D01*
X33780272Y-130128010D01*
X33655378Y-130299913D01*
X33650762Y-130308972D01*
X33602784Y-130359765D01*
X33534963Y-130376557D01*
X33468829Y-130354016D01*
X33429794Y-130308963D01*
X33425051Y-130299654D01*
X33425049Y-130299651D01*
X33425048Y-130299649D01*
X33300109Y-130127683D01*
X33149786Y-129977360D01*
X32977820Y-129852421D01*
X32788414Y-129755914D01*
X32788413Y-129755913D01*
X32788412Y-129755913D01*
X32586243Y-129690224D01*
X32586241Y-129690223D01*
X32586240Y-129690223D01*
X32421771Y-129664174D01*
X32376287Y-129656970D01*
X32163713Y-129656970D01*
X32118229Y-129664174D01*
X31953760Y-129690223D01*
X31751585Y-129755914D01*
X31562179Y-129852421D01*
X31390213Y-129977360D01*
X31239890Y-130127683D01*
X31114951Y-130299649D01*
X31018444Y-130489055D01*
X30952753Y-130691230D01*
X30934343Y-130807470D01*
X30919500Y-130901183D01*
X30919500Y-131713757D01*
X30923024Y-131736008D01*
X30952752Y-131923704D01*
X30953573Y-131927122D01*
X30957000Y-131956074D01*
X30957000Y-132608538D01*
X30938539Y-132673634D01*
X30860189Y-132800659D01*
X30860185Y-132800668D01*
X30832349Y-132884670D01*
X30805001Y-132967203D01*
X30805001Y-132967204D01*
X30805000Y-132967204D01*
X30794500Y-133069983D01*
X30794500Y-133466717D01*
X30774815Y-133533756D01*
X30758181Y-133554398D01*
X30532221Y-133780358D01*
X30532218Y-133780361D01*
X30462538Y-133850040D01*
X30392859Y-133919719D01*
X30283371Y-134083579D01*
X30283364Y-134083592D01*
X30207950Y-134265660D01*
X30207947Y-134265670D01*
X30169500Y-134458956D01*
X30169500Y-134882819D01*
X30149815Y-134949858D01*
X30119812Y-134982085D01*
X30012452Y-135062455D01*
X29926206Y-135177664D01*
X29926202Y-135177671D01*
X29875908Y-135312517D01*
X29869501Y-135372116D01*
X29869501Y-135372123D01*
X29869500Y-135372135D01*
X29869500Y-135588419D01*
X29849815Y-135655458D01*
X29797011Y-135701213D01*
X29727853Y-135711157D01*
X29721312Y-135710037D01*
X29706042Y-135707000D01*
X29706041Y-135707000D01*
X29431461Y-135707000D01*
X29366366Y-135688539D01*
X29239334Y-135610186D01*
X29072797Y-135555001D01*
X29072795Y-135555000D01*
X28970010Y-135544500D01*
X27569998Y-135544500D01*
X27569981Y-135544501D01*
X27467203Y-135555000D01*
X27467200Y-135555001D01*
X27300668Y-135610185D01*
X27300663Y-135610187D01*
X27151342Y-135702289D01*
X27027289Y-135826342D01*
X26935187Y-135975663D01*
X26935186Y-135975666D01*
X26880001Y-136142203D01*
X26880001Y-136142204D01*
X26880000Y-136142204D01*
X26869500Y-136244983D01*
X23000500Y-136244983D01*
X23000500Y-133512396D01*
X24018308Y-133512396D01*
X24035380Y-133521094D01*
X24237471Y-133586757D01*
X24447354Y-133620000D01*
X24659846Y-133620000D01*
X24869727Y-133586757D01*
X24869730Y-133586757D01*
X25071818Y-133521094D01*
X25071820Y-133521093D01*
X25088888Y-133512396D01*
X26558308Y-133512396D01*
X26575380Y-133521094D01*
X26777471Y-133586757D01*
X26987354Y-133620000D01*
X27199846Y-133620000D01*
X27409727Y-133586757D01*
X27409730Y-133586757D01*
X27611818Y-133521094D01*
X27611820Y-133521093D01*
X27628889Y-133512395D01*
X27628890Y-133512395D01*
X27093601Y-132977106D01*
X27093600Y-132977106D01*
X26558308Y-133512396D01*
X25088888Y-133512396D01*
X25088890Y-133512395D01*
X24553601Y-132977106D01*
X24553600Y-132977106D01*
X24018308Y-133512396D01*
X23000500Y-133512396D01*
X23000500Y-132641647D01*
X23020185Y-132574608D01*
X23072989Y-132528853D01*
X23142147Y-132518909D01*
X23205703Y-132547934D01*
X23242431Y-132603329D01*
X23302503Y-132788213D01*
X23302508Y-132788225D01*
X23311202Y-132805289D01*
X23311203Y-132805290D01*
X23846494Y-132270000D01*
X23780668Y-132204174D01*
X24053600Y-132204174D01*
X24053600Y-132335826D01*
X24087675Y-132462993D01*
X24153501Y-132577007D01*
X24246593Y-132670099D01*
X24360607Y-132735925D01*
X24487774Y-132770000D01*
X24619426Y-132770000D01*
X24746593Y-132735925D01*
X24860607Y-132670099D01*
X24953699Y-132577007D01*
X25019525Y-132462993D01*
X25053600Y-132335826D01*
X25053600Y-132269999D01*
X25260706Y-132269999D01*
X25260706Y-132270001D01*
X25795995Y-132805290D01*
X25804203Y-132803990D01*
X25843002Y-132803990D01*
X25851204Y-132805289D01*
X26386494Y-132270000D01*
X26320668Y-132204174D01*
X26593600Y-132204174D01*
X26593600Y-132335826D01*
X26627675Y-132462993D01*
X26693501Y-132577007D01*
X26786593Y-132670099D01*
X26900607Y-132735925D01*
X27027774Y-132770000D01*
X27159426Y-132770000D01*
X27286593Y-132735925D01*
X27400607Y-132670099D01*
X27493699Y-132577007D01*
X27559525Y-132462993D01*
X27593600Y-132335826D01*
X27593600Y-132269999D01*
X27800706Y-132269999D01*
X27800706Y-132270001D01*
X28335995Y-132805290D01*
X28335995Y-132805289D01*
X28344693Y-132788220D01*
X28344694Y-132788218D01*
X28410357Y-132586130D01*
X28410357Y-132586127D01*
X28443600Y-132376246D01*
X28443600Y-132163753D01*
X28410357Y-131953872D01*
X28410357Y-131953869D01*
X28344694Y-131751781D01*
X28344694Y-131751780D01*
X28335996Y-131734708D01*
X27800706Y-132269999D01*
X27593600Y-132269999D01*
X27593600Y-132204174D01*
X27559525Y-132077007D01*
X27493699Y-131962993D01*
X27400607Y-131869901D01*
X27286593Y-131804075D01*
X27159426Y-131770000D01*
X27027774Y-131770000D01*
X26900607Y-131804075D01*
X26786593Y-131869901D01*
X26693501Y-131962993D01*
X26627675Y-132077007D01*
X26593600Y-132204174D01*
X26320668Y-132204174D01*
X25851202Y-131734708D01*
X25842999Y-131736008D01*
X25804203Y-131736008D01*
X25795996Y-131734708D01*
X25260706Y-132269999D01*
X25053600Y-132269999D01*
X25053600Y-132204174D01*
X25019525Y-132077007D01*
X24953699Y-131962993D01*
X24860607Y-131869901D01*
X24746593Y-131804075D01*
X24619426Y-131770000D01*
X24487774Y-131770000D01*
X24360607Y-131804075D01*
X24246593Y-131869901D01*
X24153501Y-131962993D01*
X24087675Y-132077007D01*
X24053600Y-132204174D01*
X23780668Y-132204174D01*
X23311203Y-131734709D01*
X23302504Y-131751783D01*
X23242431Y-131936670D01*
X23202993Y-131994346D01*
X23138635Y-132021544D01*
X23069788Y-132009629D01*
X23018313Y-131962385D01*
X23000500Y-131898352D01*
X23000500Y-130972396D01*
X24018308Y-130972396D01*
X24019608Y-130980603D01*
X24019608Y-130982960D01*
X24020113Y-130984109D01*
X24019608Y-131019399D01*
X24018308Y-131027602D01*
X24553600Y-131562894D01*
X24553601Y-131562894D01*
X25088890Y-131027603D01*
X25087591Y-131019399D01*
X25087591Y-130980603D01*
X25088890Y-130972395D01*
X24553601Y-130437106D01*
X24553600Y-130437106D01*
X24018308Y-130972396D01*
X23000500Y-130972396D01*
X23000500Y-130101647D01*
X23020185Y-130034608D01*
X23072989Y-129988853D01*
X23142147Y-129978909D01*
X23205703Y-130007934D01*
X23242431Y-130063329D01*
X23302503Y-130248213D01*
X23302508Y-130248225D01*
X23311202Y-130265289D01*
X23311203Y-130265290D01*
X23846494Y-129730000D01*
X23780668Y-129664174D01*
X24053600Y-129664174D01*
X24053600Y-129795826D01*
X24087675Y-129922993D01*
X24153501Y-130037007D01*
X24246593Y-130130099D01*
X24360607Y-130195925D01*
X24487774Y-130230000D01*
X24619426Y-130230000D01*
X24746593Y-130195925D01*
X24860607Y-130130099D01*
X24953699Y-130037007D01*
X25019525Y-129922993D01*
X25053600Y-129795826D01*
X25053600Y-129729999D01*
X25260706Y-129729999D01*
X25260706Y-129730000D01*
X25865989Y-130335283D01*
X25899474Y-130396606D01*
X25894490Y-130466298D01*
X25865990Y-130510645D01*
X25744105Y-130632530D01*
X25744105Y-130632531D01*
X25750001Y-130687373D01*
X25750003Y-130687380D01*
X25800245Y-130822086D01*
X25800249Y-130822093D01*
X25886409Y-130937187D01*
X25886412Y-130937190D01*
X26001506Y-131023350D01*
X26001513Y-131023354D01*
X26136220Y-131073596D01*
X26136219Y-131073596D01*
X26191068Y-131079493D01*
X26312952Y-130957609D01*
X26374275Y-130924124D01*
X26443967Y-130929108D01*
X26488315Y-130957609D01*
X27093600Y-131562894D01*
X27698884Y-130957610D01*
X27760207Y-130924125D01*
X27829899Y-130929109D01*
X27874246Y-130957610D01*
X27996129Y-131079493D01*
X28050975Y-131073598D01*
X28185686Y-131023354D01*
X28185693Y-131023350D01*
X28300787Y-130937190D01*
X28300790Y-130937187D01*
X28386950Y-130822093D01*
X28386954Y-130822086D01*
X28437196Y-130687379D01*
X28437198Y-130687372D01*
X28443599Y-130627844D01*
X28443600Y-130627827D01*
X28443600Y-130230000D01*
X27217600Y-130230000D01*
X27189843Y-130221849D01*
X27286593Y-130195925D01*
X27400607Y-130130099D01*
X27493699Y-130037007D01*
X27559525Y-129922993D01*
X27593600Y-129795826D01*
X27593600Y-129664174D01*
X27559525Y-129537007D01*
X27493699Y-129422993D01*
X27400607Y-129329901D01*
X27286593Y-129264075D01*
X27159426Y-129230000D01*
X27593600Y-129230000D01*
X28443600Y-129230000D01*
X28443600Y-128832172D01*
X28443599Y-128832155D01*
X28437198Y-128772627D01*
X28437196Y-128772620D01*
X28386954Y-128637913D01*
X28386950Y-128637906D01*
X28300790Y-128522812D01*
X28300787Y-128522809D01*
X28185693Y-128436649D01*
X28185686Y-128436645D01*
X28050979Y-128386403D01*
X28050972Y-128386401D01*
X27991444Y-128380000D01*
X27593600Y-128380000D01*
X27593600Y-129230000D01*
X27159426Y-129230000D01*
X27027774Y-129230000D01*
X26900607Y-129264075D01*
X26786593Y-129329901D01*
X26693501Y-129422993D01*
X26627675Y-129537007D01*
X26600584Y-129638107D01*
X26593600Y-129606000D01*
X26593600Y-128380000D01*
X26195755Y-128380000D01*
X26136227Y-128386401D01*
X26136220Y-128386403D01*
X26001513Y-128436645D01*
X26001506Y-128436649D01*
X25886412Y-128522809D01*
X25886409Y-128522812D01*
X25800249Y-128637906D01*
X25800245Y-128637913D01*
X25750003Y-128772619D01*
X25750001Y-128772626D01*
X25744104Y-128827469D01*
X25865989Y-128949354D01*
X25899474Y-129010677D01*
X25894490Y-129080369D01*
X25865989Y-129124716D01*
X25260706Y-129729999D01*
X25053600Y-129729999D01*
X25053600Y-129664174D01*
X25019525Y-129537007D01*
X24953699Y-129422993D01*
X24860607Y-129329901D01*
X24746593Y-129264075D01*
X24619426Y-129230000D01*
X24487774Y-129230000D01*
X24360607Y-129264075D01*
X24246593Y-129329901D01*
X24153501Y-129422993D01*
X24087675Y-129537007D01*
X24053600Y-129664174D01*
X23780668Y-129664174D01*
X23311203Y-129194709D01*
X23302504Y-129211783D01*
X23242431Y-129396670D01*
X23202993Y-129454346D01*
X23138635Y-129481544D01*
X23069788Y-129469629D01*
X23018313Y-129422385D01*
X23000500Y-129358352D01*
X23000500Y-128487603D01*
X24018309Y-128487603D01*
X24553600Y-129022894D01*
X24553601Y-129022894D01*
X25088890Y-128487603D01*
X25088889Y-128487602D01*
X25071825Y-128478908D01*
X25071813Y-128478903D01*
X24869728Y-128413242D01*
X24659846Y-128380000D01*
X24447354Y-128380000D01*
X24237472Y-128413242D01*
X24237469Y-128413242D01*
X24035383Y-128478904D01*
X24018309Y-128487603D01*
X23000500Y-128487603D01*
X23000500Y-127509757D01*
X23002027Y-127490359D01*
X23008392Y-127450172D01*
X23009639Y-127442298D01*
X23021627Y-127405404D01*
X23039235Y-127370846D01*
X23062036Y-127339462D01*
X23089462Y-127312036D01*
X23120844Y-127289236D01*
X23155404Y-127271626D01*
X23192297Y-127259639D01*
X23229573Y-127253735D01*
X23240361Y-127252027D01*
X23259759Y-127250500D01*
X23294171Y-127250500D01*
X23445830Y-127250500D01*
X23445842Y-127250501D01*
X23455832Y-127250501D01*
X23500001Y-127250501D01*
X23500002Y-127250501D01*
X23536960Y-127250500D01*
X23573920Y-127250500D01*
X23573924Y-127250499D01*
X23718914Y-127221659D01*
X23855496Y-127165085D01*
X23978416Y-127082952D01*
X24082952Y-126978416D01*
X24165085Y-126855496D01*
X24173610Y-126834916D01*
X24221567Y-126719135D01*
X24221659Y-126718914D01*
X24250500Y-126573919D01*
X24250501Y-126500002D01*
X24250501Y-126455832D01*
X24250501Y-126445843D01*
X24250500Y-126445829D01*
X24250500Y-125219986D01*
X30795001Y-125219986D01*
X30805494Y-125322697D01*
X30860641Y-125489119D01*
X30860643Y-125489124D01*
X30952684Y-125638345D01*
X31076654Y-125762315D01*
X31225875Y-125854356D01*
X31225880Y-125854358D01*
X31392302Y-125909505D01*
X31457499Y-125916166D01*
X31457500Y-125916165D01*
X32457500Y-125916165D01*
X32522697Y-125909505D01*
X32689119Y-125854358D01*
X32689124Y-125854356D01*
X32838345Y-125762315D01*
X32962315Y-125638345D01*
X33054356Y-125489124D01*
X33054358Y-125489119D01*
X33109505Y-125322697D01*
X33109506Y-125322690D01*
X33119999Y-125219986D01*
X33120000Y-125219973D01*
X33120000Y-125020000D01*
X32457500Y-125020000D01*
X32457500Y-125916165D01*
X31457500Y-125916165D01*
X31457500Y-125020000D01*
X30795001Y-125020000D01*
X30795001Y-125219986D01*
X24250500Y-125219986D01*
X24250500Y-121832500D01*
X26873834Y-121832500D01*
X26880494Y-121897697D01*
X26935641Y-122064119D01*
X26935643Y-122064124D01*
X27027684Y-122213345D01*
X27151654Y-122337315D01*
X27300875Y-122429356D01*
X27300880Y-122429358D01*
X27467302Y-122484505D01*
X27467309Y-122484506D01*
X27570019Y-122494999D01*
X27769999Y-122494999D01*
X27770000Y-122494998D01*
X27770000Y-121832500D01*
X26873834Y-121832500D01*
X24250500Y-121832500D01*
X24250500Y-120832499D01*
X26873833Y-120832499D01*
X26873834Y-120832500D01*
X27770000Y-120832500D01*
X27770000Y-120170000D01*
X27570029Y-120170000D01*
X27570012Y-120170001D01*
X27467302Y-120180494D01*
X27300880Y-120235641D01*
X27300875Y-120235643D01*
X27151654Y-120327684D01*
X27027684Y-120451654D01*
X26935643Y-120600875D01*
X26935641Y-120600880D01*
X26880494Y-120767302D01*
X26880493Y-120767309D01*
X26873833Y-120832499D01*
X24250500Y-120832499D01*
X24250500Y-117744983D01*
X26869500Y-117744983D01*
X26869500Y-118670001D01*
X26869501Y-118670019D01*
X26880000Y-118772796D01*
X26880001Y-118772799D01*
X26935185Y-118939331D01*
X26935186Y-118939334D01*
X27027288Y-119088656D01*
X27151344Y-119212712D01*
X27300666Y-119304814D01*
X27467203Y-119359999D01*
X27569991Y-119370500D01*
X28970008Y-119370499D01*
X29072797Y-119359999D01*
X29204711Y-119316286D01*
X29274534Y-119313885D01*
X29331391Y-119346311D01*
X29833182Y-119848103D01*
X29866666Y-119909424D01*
X29869500Y-119935782D01*
X29869500Y-120632600D01*
X29849815Y-120699639D01*
X29797011Y-120745394D01*
X29727853Y-120755338D01*
X29664297Y-120726313D01*
X29627794Y-120671604D01*
X29604358Y-120600880D01*
X29604356Y-120600875D01*
X29512315Y-120451654D01*
X29388345Y-120327684D01*
X29239124Y-120235643D01*
X29239119Y-120235641D01*
X29072697Y-120180494D01*
X29072690Y-120180493D01*
X28969986Y-120170000D01*
X28770000Y-120170000D01*
X28770000Y-122494999D01*
X28969972Y-122494999D01*
X28969986Y-122494998D01*
X29072697Y-122484505D01*
X29239119Y-122429358D01*
X29239124Y-122429356D01*
X29388345Y-122337315D01*
X29512315Y-122213345D01*
X29604356Y-122064124D01*
X29604359Y-122064117D01*
X29627794Y-121993394D01*
X29667566Y-121935949D01*
X29732081Y-121909125D01*
X29800857Y-121921439D01*
X29852058Y-121968982D01*
X29869500Y-122032397D01*
X29869500Y-122667870D01*
X29869501Y-122667876D01*
X29875908Y-122727483D01*
X29926202Y-122862328D01*
X29926206Y-122862335D01*
X30012452Y-122977544D01*
X30012455Y-122977547D01*
X30127664Y-123063793D01*
X30127671Y-123063797D01*
X30262517Y-123114091D01*
X30262516Y-123114091D01*
X30269444Y-123114835D01*
X30322127Y-123120500D01*
X30934479Y-123120499D01*
X31001516Y-123140183D01*
X31047271Y-123192987D01*
X31057215Y-123262146D01*
X31028190Y-123325702D01*
X31022159Y-123332180D01*
X30952682Y-123401657D01*
X30860643Y-123550875D01*
X30860641Y-123550880D01*
X30805494Y-123717302D01*
X30805493Y-123717309D01*
X30795000Y-123820013D01*
X30795000Y-124020000D01*
X33119999Y-124020000D01*
X33119999Y-123820024D01*
X33119998Y-123820016D01*
X33119995Y-123819983D01*
X33919500Y-123819983D01*
X33919500Y-125220001D01*
X33919501Y-125220018D01*
X33930000Y-125322796D01*
X33930001Y-125322799D01*
X33985115Y-125489119D01*
X33985186Y-125489334D01*
X34063539Y-125616366D01*
X34082000Y-125681461D01*
X34082000Y-125931041D01*
X34082000Y-125931043D01*
X34081999Y-125931043D01*
X34120447Y-126124329D01*
X34120450Y-126124339D01*
X34195864Y-126306407D01*
X34195871Y-126306420D01*
X34305360Y-126470281D01*
X34305363Y-126470285D01*
X34444714Y-126609636D01*
X34444718Y-126609639D01*
X34608579Y-126719128D01*
X34608592Y-126719135D01*
X34790660Y-126794549D01*
X34790665Y-126794551D01*
X34790669Y-126794551D01*
X34790670Y-126794552D01*
X34983956Y-126833000D01*
X34983959Y-126833000D01*
X35181043Y-126833000D01*
X35311082Y-126807132D01*
X35374335Y-126794551D01*
X35556414Y-126719132D01*
X35720282Y-126609639D01*
X35859639Y-126470282D01*
X35969132Y-126306414D01*
X36044551Y-126124335D01*
X36083000Y-125931041D01*
X36083000Y-125681461D01*
X36101460Y-125616366D01*
X36179814Y-125489334D01*
X36234999Y-125322797D01*
X36245500Y-125220009D01*
X36245499Y-124823280D01*
X36265183Y-124756242D01*
X36281813Y-124735605D01*
X36507778Y-124509641D01*
X36507782Y-124509639D01*
X36647139Y-124370282D01*
X36756632Y-124206414D01*
X36832051Y-124024335D01*
X36870500Y-123831041D01*
X36870500Y-123157180D01*
X36890185Y-123090141D01*
X36920187Y-123057914D01*
X37027546Y-122977546D01*
X37113796Y-122862331D01*
X37164091Y-122727483D01*
X37170500Y-122667873D01*
X37170499Y-116872128D01*
X37164091Y-116812517D01*
X37164089Y-116812512D01*
X37113797Y-116677671D01*
X37113793Y-116677664D01*
X37027547Y-116562455D01*
X37027544Y-116562452D01*
X36912335Y-116476206D01*
X36912328Y-116476202D01*
X36777482Y-116425908D01*
X36777483Y-116425908D01*
X36717883Y-116419501D01*
X36717881Y-116419500D01*
X36717873Y-116419500D01*
X36717865Y-116419500D01*
X36289887Y-116419500D01*
X36222848Y-116399815D01*
X36177093Y-116347011D01*
X36167149Y-116277853D01*
X36177504Y-116243096D01*
X36179358Y-116239118D01*
X36234505Y-116072697D01*
X36234506Y-116072690D01*
X36244999Y-115969986D01*
X36245000Y-115969973D01*
X36245000Y-115770000D01*
X33920001Y-115770000D01*
X33920001Y-115969986D01*
X33930494Y-116072697D01*
X33985641Y-116239119D01*
X33985643Y-116239124D01*
X34077684Y-116388345D01*
X34201654Y-116512315D01*
X34350875Y-116604356D01*
X34350880Y-116604358D01*
X34498109Y-116653145D01*
X34555554Y-116692918D01*
X34582377Y-116757433D01*
X34576474Y-116804677D01*
X34577693Y-116804965D01*
X34575908Y-116812516D01*
X34569501Y-116872116D01*
X34569501Y-116872123D01*
X34569500Y-116872135D01*
X34569500Y-122667870D01*
X34569501Y-122667876D01*
X34575908Y-122727483D01*
X34626202Y-122862328D01*
X34626203Y-122862329D01*
X34626204Y-122862331D01*
X34673297Y-122925239D01*
X34697714Y-122990703D01*
X34682863Y-123058976D01*
X34633458Y-123108382D01*
X34586633Y-123122908D01*
X34517202Y-123130001D01*
X34517200Y-123130001D01*
X34350668Y-123185185D01*
X34350663Y-123185187D01*
X34201342Y-123277289D01*
X34077289Y-123401342D01*
X33985187Y-123550663D01*
X33985185Y-123550668D01*
X33985115Y-123550880D01*
X33930001Y-123717203D01*
X33930001Y-123717204D01*
X33930000Y-123717204D01*
X33919500Y-123819983D01*
X33119995Y-123819983D01*
X33109505Y-123717302D01*
X33054358Y-123550880D01*
X33054356Y-123550875D01*
X32962315Y-123401654D01*
X32838345Y-123277684D01*
X32689124Y-123185643D01*
X32689119Y-123185641D01*
X32522697Y-123130494D01*
X32522690Y-123130493D01*
X32453016Y-123123375D01*
X32388324Y-123096979D01*
X32348173Y-123039798D01*
X32345310Y-122969987D01*
X32366350Y-122925709D01*
X32413796Y-122862331D01*
X32464091Y-122727483D01*
X32470500Y-122667873D01*
X32470499Y-116872128D01*
X32464091Y-116812517D01*
X32464090Y-116812515D01*
X32464090Y-116812512D01*
X32462308Y-116804969D01*
X32464167Y-116804529D01*
X32459899Y-116744980D01*
X32493375Y-116683652D01*
X32542064Y-116653614D01*
X32689334Y-116604814D01*
X32838656Y-116512712D01*
X32962712Y-116388656D01*
X33054814Y-116239334D01*
X33109999Y-116072797D01*
X33120500Y-115970009D01*
X33120499Y-114569992D01*
X33109999Y-114467203D01*
X33058196Y-114310874D01*
X33055795Y-114241050D01*
X33091526Y-114181008D01*
X33103007Y-114171564D01*
X33149792Y-114137574D01*
X33300104Y-113987262D01*
X33300106Y-113987258D01*
X33300109Y-113987256D01*
X33389658Y-113864000D01*
X33425051Y-113815286D01*
X33429793Y-113805978D01*
X33477763Y-113755181D01*
X33545583Y-113738381D01*
X33611719Y-113760915D01*
X33650763Y-113805970D01*
X33655377Y-113815025D01*
X33780272Y-113986929D01*
X33780276Y-113986934D01*
X33930537Y-114137195D01*
X33946009Y-114148435D01*
X33988677Y-114203763D01*
X33994659Y-114273376D01*
X33987866Y-114294007D01*
X33987914Y-114294023D01*
X33930494Y-114467302D01*
X33930493Y-114467309D01*
X33920000Y-114570013D01*
X33920000Y-114770000D01*
X34582500Y-114770000D01*
X34582500Y-114587470D01*
X34434000Y-114587470D01*
X34366961Y-114567785D01*
X34321206Y-114514981D01*
X34310000Y-114463470D01*
X34310000Y-113740000D01*
X35310000Y-113740000D01*
X35458500Y-113740000D01*
X35525539Y-113759685D01*
X35571294Y-113812489D01*
X35582500Y-113864000D01*
X35582500Y-114770000D01*
X36244999Y-114770000D01*
X36244999Y-114570028D01*
X36244998Y-114570013D01*
X36234505Y-114467302D01*
X36179358Y-114300880D01*
X36179356Y-114300875D01*
X36087315Y-114151654D01*
X35963344Y-114027683D01*
X35959407Y-114024570D01*
X35919030Y-113967548D01*
X35915892Y-113897749D01*
X35936002Y-113854416D01*
X35964621Y-113815026D01*
X36061095Y-113625687D01*
X36126757Y-113423600D01*
X36126757Y-113423597D01*
X36145151Y-113307470D01*
X35310000Y-113307470D01*
X35310000Y-113740000D01*
X34310000Y-113740000D01*
X34310000Y-112873296D01*
X34344075Y-113000463D01*
X34409901Y-113114477D01*
X34502993Y-113207569D01*
X34617007Y-113273395D01*
X34744174Y-113307470D01*
X34875826Y-113307470D01*
X35002993Y-113273395D01*
X35117007Y-113207569D01*
X35210099Y-113114477D01*
X35275925Y-113000463D01*
X35310000Y-112873296D01*
X35310000Y-112741644D01*
X35275925Y-112614477D01*
X35210099Y-112500463D01*
X35117007Y-112407371D01*
X35002993Y-112341545D01*
X34875826Y-112307470D01*
X35310000Y-112307470D01*
X36145151Y-112307470D01*
X36126757Y-112191342D01*
X36126757Y-112191339D01*
X36061095Y-111989252D01*
X35964620Y-111799912D01*
X35839727Y-111628010D01*
X35839723Y-111628005D01*
X35689464Y-111477746D01*
X35689459Y-111477742D01*
X35517557Y-111352849D01*
X35328216Y-111256374D01*
X35310000Y-111250454D01*
X35310000Y-112307470D01*
X34875826Y-112307470D01*
X34744174Y-112307470D01*
X34617007Y-112341545D01*
X34502993Y-112407371D01*
X34409901Y-112500463D01*
X34344075Y-112614477D01*
X34310000Y-112741644D01*
X34310000Y-111250455D01*
X34309999Y-111250454D01*
X34291783Y-111256374D01*
X34102442Y-111352849D01*
X33930540Y-111477742D01*
X33930535Y-111477746D01*
X33780276Y-111628005D01*
X33780272Y-111628010D01*
X33655378Y-111799913D01*
X33650762Y-111808972D01*
X33602784Y-111859765D01*
X33534963Y-111876557D01*
X33468829Y-111854016D01*
X33429794Y-111808963D01*
X33425051Y-111799654D01*
X33425049Y-111799651D01*
X33425048Y-111799649D01*
X33300109Y-111627683D01*
X33149786Y-111477360D01*
X32977820Y-111352421D01*
X32788414Y-111255914D01*
X32788413Y-111255913D01*
X32788412Y-111255913D01*
X32586243Y-111190224D01*
X32586241Y-111190223D01*
X32586240Y-111190223D01*
X32424957Y-111164678D01*
X32376287Y-111156970D01*
X32163713Y-111156970D01*
X32115042Y-111164678D01*
X31953760Y-111190223D01*
X31751585Y-111255914D01*
X31562179Y-111352421D01*
X31390213Y-111477360D01*
X31239890Y-111627683D01*
X31114951Y-111799649D01*
X31018444Y-111989055D01*
X30952753Y-112191230D01*
X30919500Y-112401183D01*
X30919500Y-113213756D01*
X30952752Y-113423704D01*
X30953573Y-113427122D01*
X30957000Y-113456074D01*
X30957000Y-114108538D01*
X30938539Y-114173634D01*
X30860189Y-114300659D01*
X30860185Y-114300668D01*
X30832349Y-114384670D01*
X30805001Y-114467203D01*
X30805001Y-114467204D01*
X30805000Y-114467204D01*
X30794500Y-114569983D01*
X30794500Y-114966717D01*
X30774815Y-115033756D01*
X30758181Y-115054398D01*
X30532221Y-115280358D01*
X30532218Y-115280361D01*
X30462538Y-115350040D01*
X30392859Y-115419719D01*
X30283371Y-115583579D01*
X30283364Y-115583592D01*
X30207950Y-115765660D01*
X30207947Y-115765670D01*
X30169500Y-115958956D01*
X30169500Y-116382819D01*
X30149815Y-116449858D01*
X30119812Y-116482085D01*
X30012452Y-116562455D01*
X29926206Y-116677664D01*
X29926202Y-116677671D01*
X29875908Y-116812517D01*
X29869501Y-116872116D01*
X29869501Y-116872123D01*
X29869500Y-116872135D01*
X29869500Y-117088419D01*
X29849815Y-117155458D01*
X29797011Y-117201213D01*
X29727853Y-117211157D01*
X29721312Y-117210037D01*
X29706042Y-117207000D01*
X29706041Y-117207000D01*
X29431461Y-117207000D01*
X29366366Y-117188539D01*
X29239334Y-117110186D01*
X29072797Y-117055001D01*
X29072795Y-117055000D01*
X28970010Y-117044500D01*
X27569998Y-117044500D01*
X27569981Y-117044501D01*
X27467203Y-117055000D01*
X27467200Y-117055001D01*
X27300668Y-117110185D01*
X27300663Y-117110187D01*
X27151342Y-117202289D01*
X27027289Y-117326342D01*
X26935187Y-117475663D01*
X26935186Y-117475666D01*
X26880001Y-117642203D01*
X26880001Y-117642204D01*
X26880000Y-117642204D01*
X26869500Y-117744983D01*
X24250500Y-117744983D01*
X24250500Y-106719986D01*
X30795001Y-106719986D01*
X30805494Y-106822697D01*
X30860641Y-106989119D01*
X30860643Y-106989124D01*
X30952684Y-107138345D01*
X31076654Y-107262315D01*
X31225875Y-107354356D01*
X31225880Y-107354358D01*
X31392302Y-107409505D01*
X31457499Y-107416166D01*
X31457500Y-107416165D01*
X32457500Y-107416165D01*
X32522697Y-107409505D01*
X32689119Y-107354358D01*
X32689124Y-107354356D01*
X32838345Y-107262315D01*
X32962315Y-107138345D01*
X33054356Y-106989124D01*
X33054358Y-106989119D01*
X33109505Y-106822697D01*
X33109506Y-106822690D01*
X33119999Y-106719986D01*
X33120000Y-106719973D01*
X33120000Y-106520000D01*
X32457500Y-106520000D01*
X32457500Y-107416165D01*
X31457500Y-107416165D01*
X31457500Y-106520000D01*
X30795001Y-106520000D01*
X30795001Y-106719986D01*
X24250500Y-106719986D01*
X24250500Y-103332500D01*
X26873834Y-103332500D01*
X26880494Y-103397697D01*
X26935641Y-103564119D01*
X26935643Y-103564124D01*
X27027684Y-103713345D01*
X27151654Y-103837315D01*
X27300875Y-103929356D01*
X27300880Y-103929358D01*
X27467302Y-103984505D01*
X27467309Y-103984506D01*
X27570019Y-103994999D01*
X27769999Y-103994999D01*
X27770000Y-103994998D01*
X27770000Y-103332500D01*
X26873834Y-103332500D01*
X24250500Y-103332500D01*
X24250500Y-102332499D01*
X26873833Y-102332499D01*
X26873834Y-102332500D01*
X27770000Y-102332500D01*
X27770000Y-101670000D01*
X27570029Y-101670000D01*
X27570012Y-101670001D01*
X27467302Y-101680494D01*
X27300880Y-101735641D01*
X27300875Y-101735643D01*
X27151654Y-101827684D01*
X27027684Y-101951654D01*
X26935643Y-102100875D01*
X26935641Y-102100880D01*
X26880494Y-102267302D01*
X26880493Y-102267309D01*
X26873833Y-102332499D01*
X24250500Y-102332499D01*
X24250500Y-99244983D01*
X26869500Y-99244983D01*
X26869500Y-100170001D01*
X26869501Y-100170019D01*
X26880000Y-100272796D01*
X26880001Y-100272799D01*
X26935185Y-100439331D01*
X26935186Y-100439334D01*
X27027288Y-100588656D01*
X27151344Y-100712712D01*
X27300666Y-100804814D01*
X27467203Y-100859999D01*
X27569991Y-100870500D01*
X28970008Y-100870499D01*
X29072797Y-100859999D01*
X29204711Y-100816286D01*
X29274534Y-100813885D01*
X29331391Y-100846311D01*
X29833182Y-101348103D01*
X29866666Y-101409424D01*
X29869500Y-101435782D01*
X29869500Y-102132600D01*
X29849815Y-102199639D01*
X29797011Y-102245394D01*
X29727853Y-102255338D01*
X29664297Y-102226313D01*
X29627794Y-102171604D01*
X29604358Y-102100880D01*
X29604356Y-102100875D01*
X29512315Y-101951654D01*
X29388345Y-101827684D01*
X29239124Y-101735643D01*
X29239119Y-101735641D01*
X29072697Y-101680494D01*
X29072690Y-101680493D01*
X28969986Y-101670000D01*
X28770000Y-101670000D01*
X28770000Y-103994999D01*
X28969972Y-103994999D01*
X28969986Y-103994998D01*
X29072697Y-103984505D01*
X29239119Y-103929358D01*
X29239124Y-103929356D01*
X29388345Y-103837315D01*
X29512315Y-103713345D01*
X29604356Y-103564124D01*
X29604359Y-103564117D01*
X29627794Y-103493394D01*
X29667566Y-103435949D01*
X29732081Y-103409125D01*
X29800857Y-103421439D01*
X29852058Y-103468982D01*
X29869500Y-103532397D01*
X29869500Y-104167870D01*
X29869501Y-104167876D01*
X29875908Y-104227483D01*
X29926202Y-104362328D01*
X29926206Y-104362335D01*
X30012452Y-104477544D01*
X30012455Y-104477547D01*
X30127664Y-104563793D01*
X30127671Y-104563797D01*
X30262517Y-104614091D01*
X30262516Y-104614091D01*
X30269444Y-104614835D01*
X30322127Y-104620500D01*
X30934479Y-104620499D01*
X31001516Y-104640183D01*
X31047271Y-104692987D01*
X31057215Y-104762146D01*
X31028190Y-104825702D01*
X31022159Y-104832180D01*
X30952682Y-104901657D01*
X30860643Y-105050875D01*
X30860641Y-105050880D01*
X30805494Y-105217302D01*
X30805493Y-105217309D01*
X30795000Y-105320013D01*
X30795000Y-105520000D01*
X33119999Y-105520000D01*
X33119999Y-105320024D01*
X33119998Y-105320016D01*
X33119995Y-105319983D01*
X33919500Y-105319983D01*
X33919500Y-106720001D01*
X33919501Y-106720018D01*
X33930000Y-106822796D01*
X33930001Y-106822799D01*
X33985115Y-106989119D01*
X33985186Y-106989334D01*
X34063539Y-107116366D01*
X34082000Y-107181461D01*
X34082000Y-107431041D01*
X34082000Y-107431043D01*
X34081999Y-107431043D01*
X34120447Y-107624329D01*
X34120450Y-107624339D01*
X34195864Y-107806407D01*
X34195871Y-107806420D01*
X34305360Y-107970281D01*
X34305363Y-107970285D01*
X34444714Y-108109636D01*
X34444718Y-108109639D01*
X34608579Y-108219128D01*
X34608592Y-108219135D01*
X34790660Y-108294549D01*
X34790665Y-108294551D01*
X34790669Y-108294551D01*
X34790670Y-108294552D01*
X34983956Y-108333000D01*
X34983959Y-108333000D01*
X35181043Y-108333000D01*
X35311082Y-108307132D01*
X35374335Y-108294551D01*
X35556414Y-108219132D01*
X35720282Y-108109639D01*
X35859639Y-107970282D01*
X35969132Y-107806414D01*
X36044551Y-107624335D01*
X36083000Y-107431041D01*
X36083000Y-107181461D01*
X36101460Y-107116366D01*
X36179814Y-106989334D01*
X36234999Y-106822797D01*
X36245500Y-106720009D01*
X36245499Y-106323280D01*
X36265183Y-106256242D01*
X36281813Y-106235605D01*
X36507778Y-106009641D01*
X36507782Y-106009639D01*
X36647139Y-105870282D01*
X36756632Y-105706414D01*
X36832051Y-105524335D01*
X36870500Y-105331041D01*
X36870500Y-104657180D01*
X36890185Y-104590141D01*
X36920187Y-104557914D01*
X37027546Y-104477546D01*
X37113796Y-104362331D01*
X37164091Y-104227483D01*
X37170500Y-104167873D01*
X37170499Y-98372128D01*
X37164091Y-98312517D01*
X37164089Y-98312512D01*
X37113797Y-98177671D01*
X37113793Y-98177664D01*
X37027547Y-98062455D01*
X37027544Y-98062452D01*
X36912335Y-97976206D01*
X36912328Y-97976202D01*
X36777482Y-97925908D01*
X36777483Y-97925908D01*
X36717883Y-97919501D01*
X36717881Y-97919500D01*
X36717873Y-97919500D01*
X36717865Y-97919500D01*
X36289887Y-97919500D01*
X36222848Y-97899815D01*
X36177093Y-97847011D01*
X36167149Y-97777853D01*
X36177504Y-97743096D01*
X36179358Y-97739118D01*
X36234505Y-97572697D01*
X36234506Y-97572690D01*
X36244999Y-97469986D01*
X36245000Y-97469973D01*
X36245000Y-97270000D01*
X33920001Y-97270000D01*
X33920001Y-97469986D01*
X33930494Y-97572697D01*
X33985641Y-97739119D01*
X33985643Y-97739124D01*
X34077684Y-97888345D01*
X34201654Y-98012315D01*
X34350875Y-98104356D01*
X34350880Y-98104358D01*
X34498109Y-98153145D01*
X34555554Y-98192918D01*
X34582377Y-98257433D01*
X34576474Y-98304677D01*
X34577693Y-98304965D01*
X34575908Y-98312516D01*
X34569501Y-98372116D01*
X34569501Y-98372123D01*
X34569500Y-98372135D01*
X34569500Y-104167870D01*
X34569501Y-104167876D01*
X34575908Y-104227483D01*
X34626202Y-104362328D01*
X34626203Y-104362329D01*
X34626204Y-104362331D01*
X34673297Y-104425239D01*
X34697714Y-104490703D01*
X34682863Y-104558976D01*
X34633458Y-104608382D01*
X34586633Y-104622908D01*
X34517202Y-104630001D01*
X34517200Y-104630001D01*
X34350668Y-104685185D01*
X34350663Y-104685187D01*
X34201342Y-104777289D01*
X34077289Y-104901342D01*
X33985187Y-105050663D01*
X33985185Y-105050668D01*
X33985115Y-105050880D01*
X33930001Y-105217203D01*
X33930001Y-105217204D01*
X33930000Y-105217204D01*
X33919500Y-105319983D01*
X33119995Y-105319983D01*
X33109505Y-105217302D01*
X33054358Y-105050880D01*
X33054356Y-105050875D01*
X32962315Y-104901654D01*
X32838345Y-104777684D01*
X32689124Y-104685643D01*
X32689119Y-104685641D01*
X32522697Y-104630494D01*
X32522690Y-104630493D01*
X32453016Y-104623375D01*
X32388324Y-104596979D01*
X32348173Y-104539798D01*
X32345310Y-104469987D01*
X32366350Y-104425709D01*
X32413796Y-104362331D01*
X32464091Y-104227483D01*
X32470500Y-104167873D01*
X32470499Y-98372128D01*
X32464091Y-98312517D01*
X32464090Y-98312515D01*
X32464090Y-98312512D01*
X32462308Y-98304969D01*
X32464167Y-98304529D01*
X32459899Y-98244980D01*
X32493375Y-98183652D01*
X32542064Y-98153614D01*
X32689334Y-98104814D01*
X32838656Y-98012712D01*
X32962712Y-97888656D01*
X33054814Y-97739334D01*
X33109999Y-97572797D01*
X33120500Y-97470009D01*
X33120499Y-96069992D01*
X33109999Y-95967203D01*
X33058196Y-95810874D01*
X33055795Y-95741050D01*
X33091526Y-95681008D01*
X33103007Y-95671564D01*
X33149792Y-95637574D01*
X33300104Y-95487262D01*
X33300106Y-95487258D01*
X33300109Y-95487256D01*
X33389658Y-95364000D01*
X33425051Y-95315286D01*
X33429793Y-95305978D01*
X33477763Y-95255181D01*
X33545583Y-95238381D01*
X33611719Y-95260915D01*
X33650763Y-95305970D01*
X33655377Y-95315025D01*
X33780272Y-95486929D01*
X33780276Y-95486934D01*
X33930537Y-95637195D01*
X33946009Y-95648435D01*
X33988677Y-95703763D01*
X33994659Y-95773376D01*
X33987866Y-95794007D01*
X33987914Y-95794023D01*
X33930494Y-95967302D01*
X33930493Y-95967309D01*
X33920000Y-96070013D01*
X33920000Y-96270000D01*
X34582500Y-96270000D01*
X34582500Y-96087470D01*
X34434000Y-96087470D01*
X34366961Y-96067785D01*
X34321206Y-96014981D01*
X34310000Y-95963470D01*
X34310000Y-95240000D01*
X35310000Y-95240000D01*
X35458500Y-95240000D01*
X35525539Y-95259685D01*
X35571294Y-95312489D01*
X35582500Y-95364000D01*
X35582500Y-96270000D01*
X36244999Y-96270000D01*
X36244999Y-96070028D01*
X36244998Y-96070013D01*
X36234505Y-95967302D01*
X36179358Y-95800880D01*
X36179356Y-95800875D01*
X36087315Y-95651654D01*
X35963344Y-95527683D01*
X35959407Y-95524570D01*
X35919030Y-95467548D01*
X35915892Y-95397749D01*
X35936002Y-95354416D01*
X35964621Y-95315026D01*
X36061095Y-95125687D01*
X36126757Y-94923600D01*
X36126757Y-94923597D01*
X36145151Y-94807470D01*
X35310000Y-94807470D01*
X35310000Y-95240000D01*
X34310000Y-95240000D01*
X34310000Y-94373296D01*
X34344075Y-94500463D01*
X34409901Y-94614477D01*
X34502993Y-94707569D01*
X34617007Y-94773395D01*
X34744174Y-94807470D01*
X34875826Y-94807470D01*
X35002993Y-94773395D01*
X35117007Y-94707569D01*
X35210099Y-94614477D01*
X35275925Y-94500463D01*
X35310000Y-94373296D01*
X35310000Y-94241644D01*
X35275925Y-94114477D01*
X35210099Y-94000463D01*
X35117007Y-93907371D01*
X35002993Y-93841545D01*
X34875826Y-93807470D01*
X35310000Y-93807470D01*
X36145151Y-93807470D01*
X36126757Y-93691342D01*
X36126757Y-93691339D01*
X36061095Y-93489252D01*
X35964620Y-93299912D01*
X35839727Y-93128010D01*
X35839723Y-93128005D01*
X35689464Y-92977746D01*
X35689459Y-92977742D01*
X35517557Y-92852849D01*
X35328216Y-92756374D01*
X35310000Y-92750454D01*
X35310000Y-93807470D01*
X34875826Y-93807470D01*
X34744174Y-93807470D01*
X34617007Y-93841545D01*
X34502993Y-93907371D01*
X34409901Y-94000463D01*
X34344075Y-94114477D01*
X34310000Y-94241644D01*
X34310000Y-92750455D01*
X34309999Y-92750454D01*
X34291783Y-92756374D01*
X34102442Y-92852849D01*
X33930540Y-92977742D01*
X33930535Y-92977746D01*
X33780276Y-93128005D01*
X33780272Y-93128010D01*
X33655378Y-93299913D01*
X33650762Y-93308972D01*
X33602784Y-93359765D01*
X33534963Y-93376557D01*
X33468829Y-93354016D01*
X33429794Y-93308963D01*
X33425051Y-93299654D01*
X33425049Y-93299651D01*
X33425048Y-93299649D01*
X33300109Y-93127683D01*
X33149786Y-92977360D01*
X32977820Y-92852421D01*
X32788414Y-92755914D01*
X32788413Y-92755913D01*
X32788412Y-92755913D01*
X32586243Y-92690224D01*
X32586241Y-92690223D01*
X32586240Y-92690223D01*
X32424957Y-92664678D01*
X32376287Y-92656970D01*
X32163713Y-92656970D01*
X32115042Y-92664678D01*
X31953760Y-92690223D01*
X31751585Y-92755914D01*
X31562179Y-92852421D01*
X31390213Y-92977360D01*
X31239890Y-93127683D01*
X31114951Y-93299649D01*
X31018444Y-93489055D01*
X30952753Y-93691230D01*
X30919500Y-93901183D01*
X30919500Y-94713756D01*
X30952752Y-94923704D01*
X30953573Y-94927122D01*
X30957000Y-94956074D01*
X30957000Y-95608538D01*
X30938539Y-95673634D01*
X30860189Y-95800659D01*
X30860185Y-95800668D01*
X30832349Y-95884670D01*
X30805001Y-95967203D01*
X30805001Y-95967204D01*
X30805000Y-95967204D01*
X30794500Y-96069983D01*
X30794500Y-96466717D01*
X30774815Y-96533756D01*
X30758181Y-96554398D01*
X30532221Y-96780358D01*
X30532218Y-96780361D01*
X30462538Y-96850040D01*
X30392859Y-96919719D01*
X30283371Y-97083579D01*
X30283364Y-97083592D01*
X30207950Y-97265660D01*
X30207947Y-97265670D01*
X30169500Y-97458956D01*
X30169500Y-97882819D01*
X30149815Y-97949858D01*
X30119812Y-97982085D01*
X30012452Y-98062455D01*
X29926206Y-98177664D01*
X29926202Y-98177671D01*
X29875908Y-98312517D01*
X29869501Y-98372116D01*
X29869501Y-98372123D01*
X29869500Y-98372135D01*
X29869500Y-98588419D01*
X29849815Y-98655458D01*
X29797011Y-98701213D01*
X29727853Y-98711157D01*
X29721312Y-98710037D01*
X29706042Y-98707000D01*
X29706041Y-98707000D01*
X29431461Y-98707000D01*
X29366366Y-98688539D01*
X29239334Y-98610186D01*
X29072797Y-98555001D01*
X29072795Y-98555000D01*
X28970010Y-98544500D01*
X27569998Y-98544500D01*
X27569981Y-98544501D01*
X27467203Y-98555000D01*
X27467200Y-98555001D01*
X27300668Y-98610185D01*
X27300663Y-98610187D01*
X27151342Y-98702289D01*
X27027289Y-98826342D01*
X26935187Y-98975663D01*
X26935186Y-98975666D01*
X26880001Y-99142203D01*
X26880001Y-99142204D01*
X26880000Y-99142204D01*
X26869500Y-99244983D01*
X24250500Y-99244983D01*
X24250500Y-88219986D01*
X30795001Y-88219986D01*
X30805494Y-88322697D01*
X30860641Y-88489119D01*
X30860643Y-88489124D01*
X30952684Y-88638345D01*
X31076654Y-88762315D01*
X31225875Y-88854356D01*
X31225880Y-88854358D01*
X31392302Y-88909505D01*
X31457499Y-88916166D01*
X31457500Y-88916165D01*
X32457500Y-88916165D01*
X32522697Y-88909505D01*
X32689119Y-88854358D01*
X32689124Y-88854356D01*
X32838345Y-88762315D01*
X32962315Y-88638345D01*
X33054356Y-88489124D01*
X33054358Y-88489119D01*
X33109505Y-88322697D01*
X33109506Y-88322690D01*
X33119999Y-88219986D01*
X33120000Y-88219973D01*
X33120000Y-88020000D01*
X32457500Y-88020000D01*
X32457500Y-88916165D01*
X31457500Y-88916165D01*
X31457500Y-88020000D01*
X30795001Y-88020000D01*
X30795001Y-88219986D01*
X24250500Y-88219986D01*
X24250500Y-84832500D01*
X26873834Y-84832500D01*
X26880494Y-84897697D01*
X26935641Y-85064119D01*
X26935643Y-85064124D01*
X27027684Y-85213345D01*
X27151654Y-85337315D01*
X27300875Y-85429356D01*
X27300880Y-85429358D01*
X27467302Y-85484505D01*
X27467309Y-85484506D01*
X27570019Y-85494999D01*
X27769999Y-85494999D01*
X27770000Y-85494998D01*
X27770000Y-84832500D01*
X26873834Y-84832500D01*
X24250500Y-84832500D01*
X24250500Y-83832499D01*
X26873833Y-83832499D01*
X26873834Y-83832500D01*
X27770000Y-83832500D01*
X27770000Y-83170000D01*
X27570029Y-83170000D01*
X27570012Y-83170001D01*
X27467302Y-83180494D01*
X27300880Y-83235641D01*
X27300875Y-83235643D01*
X27151654Y-83327684D01*
X27027684Y-83451654D01*
X26935643Y-83600875D01*
X26935641Y-83600880D01*
X26880494Y-83767302D01*
X26880493Y-83767309D01*
X26873833Y-83832499D01*
X24250500Y-83832499D01*
X24250500Y-81435739D01*
X24250499Y-81435729D01*
X24250499Y-81426081D01*
X24250498Y-81426077D01*
X24221659Y-81281094D01*
X24221658Y-81281087D01*
X24214047Y-81262712D01*
X24165087Y-81144511D01*
X24165080Y-81144498D01*
X24082951Y-81021585D01*
X24082948Y-81021581D01*
X23978418Y-80917051D01*
X23978414Y-80917048D01*
X23870492Y-80844936D01*
X23855501Y-80834919D01*
X23855488Y-80834912D01*
X23718917Y-80778343D01*
X23718905Y-80778340D01*
X23573924Y-80749501D01*
X23573917Y-80749500D01*
X23549829Y-80749500D01*
X23549828Y-80749500D01*
X22875625Y-80749500D01*
X22860242Y-80744983D01*
X26869500Y-80744983D01*
X26869500Y-81670001D01*
X26869501Y-81670019D01*
X26880000Y-81772796D01*
X26880001Y-81772799D01*
X26935185Y-81939331D01*
X26935186Y-81939334D01*
X27027288Y-82088656D01*
X27151344Y-82212712D01*
X27300666Y-82304814D01*
X27467203Y-82359999D01*
X27569991Y-82370500D01*
X28970008Y-82370499D01*
X29072797Y-82359999D01*
X29204711Y-82316286D01*
X29274534Y-82313885D01*
X29331391Y-82346311D01*
X29833182Y-82848103D01*
X29866666Y-82909424D01*
X29869500Y-82935782D01*
X29869500Y-83632600D01*
X29849815Y-83699639D01*
X29797011Y-83745394D01*
X29727853Y-83755338D01*
X29664297Y-83726313D01*
X29627794Y-83671604D01*
X29604358Y-83600880D01*
X29604356Y-83600875D01*
X29512315Y-83451654D01*
X29388345Y-83327684D01*
X29239124Y-83235643D01*
X29239119Y-83235641D01*
X29072697Y-83180494D01*
X29072690Y-83180493D01*
X28969986Y-83170000D01*
X28770000Y-83170000D01*
X28770000Y-85494999D01*
X28969972Y-85494999D01*
X28969986Y-85494998D01*
X29072697Y-85484505D01*
X29239119Y-85429358D01*
X29239124Y-85429356D01*
X29388345Y-85337315D01*
X29512315Y-85213345D01*
X29604356Y-85064124D01*
X29604359Y-85064117D01*
X29627794Y-84993394D01*
X29667566Y-84935949D01*
X29732081Y-84909125D01*
X29800857Y-84921439D01*
X29852058Y-84968982D01*
X29869500Y-85032397D01*
X29869500Y-85667870D01*
X29869501Y-85667876D01*
X29875908Y-85727483D01*
X29926202Y-85862328D01*
X29926206Y-85862335D01*
X30012452Y-85977544D01*
X30012455Y-85977547D01*
X30127664Y-86063793D01*
X30127671Y-86063797D01*
X30262517Y-86114091D01*
X30262516Y-86114091D01*
X30269444Y-86114835D01*
X30322127Y-86120500D01*
X30934479Y-86120499D01*
X31001516Y-86140183D01*
X31047271Y-86192987D01*
X31057215Y-86262146D01*
X31028190Y-86325702D01*
X31022159Y-86332180D01*
X30952682Y-86401657D01*
X30860643Y-86550875D01*
X30860641Y-86550880D01*
X30805494Y-86717302D01*
X30805493Y-86717309D01*
X30795000Y-86820013D01*
X30795000Y-87020000D01*
X33119999Y-87020000D01*
X33119999Y-86820024D01*
X33119998Y-86820016D01*
X33119995Y-86819983D01*
X33919500Y-86819983D01*
X33919500Y-88220001D01*
X33919501Y-88220018D01*
X33930000Y-88322796D01*
X33930001Y-88322799D01*
X33985115Y-88489119D01*
X33985186Y-88489334D01*
X34063539Y-88616366D01*
X34082000Y-88681461D01*
X34082000Y-89056041D01*
X34082000Y-89056043D01*
X34081999Y-89056043D01*
X34120447Y-89249329D01*
X34120450Y-89249339D01*
X34195864Y-89431407D01*
X34195871Y-89431420D01*
X34305360Y-89595281D01*
X34305363Y-89595285D01*
X34444714Y-89734636D01*
X34444718Y-89734639D01*
X34608579Y-89844128D01*
X34608592Y-89844135D01*
X34790660Y-89919549D01*
X34790665Y-89919551D01*
X34790669Y-89919551D01*
X34790670Y-89919552D01*
X34983956Y-89958000D01*
X34983959Y-89958000D01*
X35181043Y-89958000D01*
X35311082Y-89932132D01*
X35374335Y-89919551D01*
X35556414Y-89844132D01*
X35720282Y-89734639D01*
X35859639Y-89595282D01*
X35969132Y-89431414D01*
X36044551Y-89249335D01*
X36083000Y-89056041D01*
X36083000Y-88681461D01*
X36101460Y-88616366D01*
X36179814Y-88489334D01*
X36234999Y-88322797D01*
X36245500Y-88220009D01*
X36245499Y-87823280D01*
X36265183Y-87756242D01*
X36281813Y-87735605D01*
X36507778Y-87509641D01*
X36507782Y-87509639D01*
X36647139Y-87370282D01*
X36756632Y-87206414D01*
X36832051Y-87024335D01*
X36870500Y-86831041D01*
X36870500Y-86157180D01*
X36890185Y-86090141D01*
X36920187Y-86057914D01*
X37027546Y-85977546D01*
X37113796Y-85862331D01*
X37164091Y-85727483D01*
X37170500Y-85667873D01*
X37170499Y-79872128D01*
X37164091Y-79812517D01*
X37164089Y-79812512D01*
X37113797Y-79677671D01*
X37113793Y-79677664D01*
X37027547Y-79562455D01*
X37027544Y-79562452D01*
X36912335Y-79476206D01*
X36912328Y-79476202D01*
X36777482Y-79425908D01*
X36777483Y-79425908D01*
X36717883Y-79419501D01*
X36717881Y-79419500D01*
X36717873Y-79419500D01*
X36717865Y-79419500D01*
X36289887Y-79419500D01*
X36222848Y-79399815D01*
X36177093Y-79347011D01*
X36167149Y-79277853D01*
X36177504Y-79243096D01*
X36179358Y-79239118D01*
X36234505Y-79072697D01*
X36234506Y-79072690D01*
X36244999Y-78969986D01*
X36245000Y-78969973D01*
X36245000Y-78770000D01*
X33920001Y-78770000D01*
X33920001Y-78969986D01*
X33930494Y-79072697D01*
X33985641Y-79239119D01*
X33985643Y-79239124D01*
X34077684Y-79388345D01*
X34201654Y-79512315D01*
X34350875Y-79604356D01*
X34350880Y-79604358D01*
X34498109Y-79653145D01*
X34555554Y-79692918D01*
X34582377Y-79757433D01*
X34576474Y-79804677D01*
X34577693Y-79804965D01*
X34575908Y-79812516D01*
X34569501Y-79872116D01*
X34569501Y-79872123D01*
X34569500Y-79872135D01*
X34569500Y-85667870D01*
X34569501Y-85667876D01*
X34575908Y-85727483D01*
X34626202Y-85862328D01*
X34626203Y-85862329D01*
X34626204Y-85862331D01*
X34673297Y-85925239D01*
X34697714Y-85990703D01*
X34682863Y-86058976D01*
X34633458Y-86108382D01*
X34586633Y-86122908D01*
X34517202Y-86130001D01*
X34517200Y-86130001D01*
X34350668Y-86185185D01*
X34350663Y-86185187D01*
X34201342Y-86277289D01*
X34077289Y-86401342D01*
X33985187Y-86550663D01*
X33985185Y-86550668D01*
X33985115Y-86550880D01*
X33930001Y-86717203D01*
X33930001Y-86717204D01*
X33930000Y-86717204D01*
X33919500Y-86819983D01*
X33119995Y-86819983D01*
X33109505Y-86717302D01*
X33054358Y-86550880D01*
X33054356Y-86550875D01*
X32962315Y-86401654D01*
X32838345Y-86277684D01*
X32689124Y-86185643D01*
X32689119Y-86185641D01*
X32522697Y-86130494D01*
X32522690Y-86130493D01*
X32453016Y-86123375D01*
X32388324Y-86096979D01*
X32348173Y-86039798D01*
X32345310Y-85969987D01*
X32366350Y-85925709D01*
X32413796Y-85862331D01*
X32464091Y-85727483D01*
X32470500Y-85667873D01*
X32470499Y-79872128D01*
X32464091Y-79812517D01*
X32464090Y-79812515D01*
X32464090Y-79812512D01*
X32462308Y-79804969D01*
X32464167Y-79804529D01*
X32459899Y-79744980D01*
X32493375Y-79683652D01*
X32542064Y-79653614D01*
X32689334Y-79604814D01*
X32838656Y-79512712D01*
X32962712Y-79388656D01*
X33054814Y-79239334D01*
X33109999Y-79072797D01*
X33120500Y-78970009D01*
X33120499Y-77569992D01*
X33109999Y-77467203D01*
X33058196Y-77310874D01*
X33055795Y-77241050D01*
X33091526Y-77181008D01*
X33103007Y-77171564D01*
X33149792Y-77137574D01*
X33300104Y-76987262D01*
X33300106Y-76987258D01*
X33300109Y-76987256D01*
X33389658Y-76864000D01*
X33425051Y-76815286D01*
X33429793Y-76805978D01*
X33477763Y-76755181D01*
X33545583Y-76738381D01*
X33611719Y-76760915D01*
X33650763Y-76805970D01*
X33655377Y-76815025D01*
X33780272Y-76986929D01*
X33780276Y-76986934D01*
X33930537Y-77137195D01*
X33946009Y-77148435D01*
X33988677Y-77203763D01*
X33994659Y-77273376D01*
X33987866Y-77294007D01*
X33987914Y-77294023D01*
X33930494Y-77467302D01*
X33930493Y-77467309D01*
X33920000Y-77570013D01*
X33920000Y-77770000D01*
X34582500Y-77770000D01*
X34582500Y-77587470D01*
X34434000Y-77587470D01*
X34366961Y-77567785D01*
X34321206Y-77514981D01*
X34310000Y-77463470D01*
X34310000Y-76740000D01*
X35310000Y-76740000D01*
X35458500Y-76740000D01*
X35525539Y-76759685D01*
X35571294Y-76812489D01*
X35582500Y-76864000D01*
X35582500Y-77770000D01*
X36244999Y-77770000D01*
X36244999Y-77570028D01*
X36244998Y-77570013D01*
X36234505Y-77467302D01*
X36179358Y-77300880D01*
X36179356Y-77300875D01*
X36087315Y-77151654D01*
X35963344Y-77027683D01*
X35959407Y-77024570D01*
X35919030Y-76967548D01*
X35915892Y-76897749D01*
X35936002Y-76854416D01*
X35964621Y-76815026D01*
X36061095Y-76625687D01*
X36126757Y-76423600D01*
X36126757Y-76423597D01*
X36145151Y-76307470D01*
X35310000Y-76307470D01*
X35310000Y-76740000D01*
X34310000Y-76740000D01*
X34310000Y-75873296D01*
X34344075Y-76000463D01*
X34409901Y-76114477D01*
X34502993Y-76207569D01*
X34617007Y-76273395D01*
X34744174Y-76307470D01*
X34875826Y-76307470D01*
X35002993Y-76273395D01*
X35117007Y-76207569D01*
X35210099Y-76114477D01*
X35275925Y-76000463D01*
X35310000Y-75873296D01*
X35310000Y-75741644D01*
X35275925Y-75614477D01*
X35210099Y-75500463D01*
X35117007Y-75407371D01*
X35002993Y-75341545D01*
X34875826Y-75307470D01*
X35310000Y-75307470D01*
X36145151Y-75307470D01*
X36126757Y-75191342D01*
X36126757Y-75191339D01*
X36061095Y-74989252D01*
X35964620Y-74799912D01*
X35839727Y-74628010D01*
X35839723Y-74628005D01*
X35689464Y-74477746D01*
X35689459Y-74477742D01*
X35517557Y-74352849D01*
X35328216Y-74256374D01*
X35310000Y-74250454D01*
X35310000Y-75307470D01*
X34875826Y-75307470D01*
X34744174Y-75307470D01*
X34617007Y-75341545D01*
X34502993Y-75407371D01*
X34409901Y-75500463D01*
X34344075Y-75614477D01*
X34310000Y-75741644D01*
X34310000Y-74250455D01*
X34309999Y-74250454D01*
X34291783Y-74256374D01*
X34102442Y-74352849D01*
X33930540Y-74477742D01*
X33930535Y-74477746D01*
X33780276Y-74628005D01*
X33780272Y-74628010D01*
X33655378Y-74799913D01*
X33650762Y-74808972D01*
X33602784Y-74859765D01*
X33534963Y-74876557D01*
X33468829Y-74854016D01*
X33429794Y-74808963D01*
X33425051Y-74799654D01*
X33425049Y-74799651D01*
X33425048Y-74799649D01*
X33300109Y-74627683D01*
X33149786Y-74477360D01*
X32977820Y-74352421D01*
X32788414Y-74255914D01*
X32788413Y-74255913D01*
X32788412Y-74255913D01*
X32586243Y-74190224D01*
X32586241Y-74190223D01*
X32586240Y-74190223D01*
X32424957Y-74164678D01*
X32376287Y-74156970D01*
X32163713Y-74156970D01*
X32115042Y-74164678D01*
X31953760Y-74190223D01*
X31751585Y-74255914D01*
X31562179Y-74352421D01*
X31390213Y-74477360D01*
X31239890Y-74627683D01*
X31114951Y-74799649D01*
X31018444Y-74989055D01*
X30952753Y-75191230D01*
X30919500Y-75401183D01*
X30919500Y-76213756D01*
X30952752Y-76423704D01*
X30953573Y-76427122D01*
X30957000Y-76456074D01*
X30957000Y-77108538D01*
X30938539Y-77173634D01*
X30860189Y-77300659D01*
X30860185Y-77300668D01*
X30832349Y-77384670D01*
X30805001Y-77467203D01*
X30805001Y-77467204D01*
X30805000Y-77467204D01*
X30794500Y-77569983D01*
X30794500Y-77966717D01*
X30774815Y-78033756D01*
X30758181Y-78054398D01*
X30532221Y-78280358D01*
X30532218Y-78280361D01*
X30462538Y-78350040D01*
X30392859Y-78419719D01*
X30283371Y-78583579D01*
X30283364Y-78583592D01*
X30207950Y-78765660D01*
X30207947Y-78765670D01*
X30169500Y-78958956D01*
X30169500Y-79382819D01*
X30149815Y-79449858D01*
X30119812Y-79482085D01*
X30012452Y-79562455D01*
X29926206Y-79677664D01*
X29926202Y-79677671D01*
X29875908Y-79812517D01*
X29869501Y-79872116D01*
X29869501Y-79872123D01*
X29869500Y-79872135D01*
X29869500Y-80088419D01*
X29849815Y-80155458D01*
X29797011Y-80201213D01*
X29727853Y-80211157D01*
X29721312Y-80210037D01*
X29706042Y-80207000D01*
X29706041Y-80207000D01*
X29431461Y-80207000D01*
X29366366Y-80188539D01*
X29239334Y-80110186D01*
X29072797Y-80055001D01*
X29072795Y-80055000D01*
X28970010Y-80044500D01*
X27569998Y-80044500D01*
X27569981Y-80044501D01*
X27467203Y-80055000D01*
X27467200Y-80055001D01*
X27300668Y-80110185D01*
X27300663Y-80110187D01*
X27151342Y-80202289D01*
X27027289Y-80326342D01*
X26935187Y-80475663D01*
X26935186Y-80475666D01*
X26880001Y-80642203D01*
X26880001Y-80642204D01*
X26880000Y-80642204D01*
X26869500Y-80744983D01*
X22860242Y-80744983D01*
X22842932Y-80739900D01*
X22810085Y-80730764D01*
X22809470Y-80730074D01*
X22808586Y-80729815D01*
X22786296Y-80704091D01*
X22763579Y-80678620D01*
X22763220Y-80677460D01*
X22762831Y-80677011D01*
X22753152Y-80644901D01*
X22751527Y-80634643D01*
X22750000Y-80615242D01*
X22750000Y-74123713D01*
X23203122Y-74123713D01*
X23203122Y-74336287D01*
X23236376Y-74546243D01*
X23262942Y-74628005D01*
X23302066Y-74748414D01*
X23398573Y-74937820D01*
X23523512Y-75109786D01*
X23673835Y-75260109D01*
X23845804Y-75385050D01*
X23854568Y-75389516D01*
X23905364Y-75437491D01*
X23922158Y-75505312D01*
X23899620Y-75571447D01*
X23854568Y-75610484D01*
X23845804Y-75614949D01*
X23673835Y-75739890D01*
X23523512Y-75890213D01*
X23398573Y-76062179D01*
X23302066Y-76251585D01*
X23236375Y-76453760D01*
X23236009Y-76456074D01*
X23203122Y-76663713D01*
X23203122Y-76876287D01*
X23236376Y-77086243D01*
X23297179Y-77273376D01*
X23302066Y-77288414D01*
X23398573Y-77477820D01*
X23523512Y-77649786D01*
X23673835Y-77800109D01*
X23845801Y-77925048D01*
X23845803Y-77925049D01*
X23845806Y-77925051D01*
X24035210Y-78021557D01*
X24237379Y-78087246D01*
X24447335Y-78120500D01*
X24447336Y-78120500D01*
X24659908Y-78120500D01*
X24659909Y-78120500D01*
X24869865Y-78087246D01*
X25072034Y-78021557D01*
X25261438Y-77925051D01*
X25283411Y-77909086D01*
X25433408Y-77800109D01*
X25433410Y-77800106D01*
X25433414Y-77800104D01*
X25583726Y-77649792D01*
X25583728Y-77649788D01*
X25583731Y-77649786D01*
X25708670Y-77477820D01*
X25708669Y-77477820D01*
X25708673Y-77477816D01*
X25713136Y-77469054D01*
X25761110Y-77418259D01*
X25828930Y-77401463D01*
X25895066Y-77423999D01*
X25934108Y-77469056D01*
X25938573Y-77477820D01*
X26063512Y-77649786D01*
X26213835Y-77800109D01*
X26385801Y-77925048D01*
X26385803Y-77925049D01*
X26385806Y-77925051D01*
X26575210Y-78021557D01*
X26777379Y-78087246D01*
X26987335Y-78120500D01*
X26987336Y-78120500D01*
X27199908Y-78120500D01*
X27199909Y-78120500D01*
X27409865Y-78087246D01*
X27612034Y-78021557D01*
X27801438Y-77925051D01*
X27823411Y-77909086D01*
X27973408Y-77800109D01*
X27973410Y-77800106D01*
X27973414Y-77800104D01*
X28123726Y-77649792D01*
X28123728Y-77649788D01*
X28123731Y-77649786D01*
X28248670Y-77477820D01*
X28248669Y-77477820D01*
X28248673Y-77477816D01*
X28345179Y-77288412D01*
X28410868Y-77086243D01*
X28444122Y-76876287D01*
X28444122Y-76663713D01*
X28410868Y-76453757D01*
X28345179Y-76251588D01*
X28248673Y-76062184D01*
X28248671Y-76062181D01*
X28248670Y-76062179D01*
X28123731Y-75890213D01*
X28010191Y-75776673D01*
X27976706Y-75715350D01*
X27981690Y-75645658D01*
X28023562Y-75589725D01*
X28054537Y-75572810D01*
X28185953Y-75523796D01*
X28301168Y-75437546D01*
X28387418Y-75322331D01*
X28437713Y-75187483D01*
X28444122Y-75127873D01*
X28444121Y-73332128D01*
X28437713Y-73272517D01*
X28436432Y-73269083D01*
X28387419Y-73137671D01*
X28387415Y-73137664D01*
X28301169Y-73022455D01*
X28301166Y-73022452D01*
X28185957Y-72936206D01*
X28185950Y-72936202D01*
X28051104Y-72885908D01*
X28051105Y-72885908D01*
X27991505Y-72879501D01*
X27991503Y-72879500D01*
X27991495Y-72879500D01*
X27991486Y-72879500D01*
X26195751Y-72879500D01*
X26195745Y-72879501D01*
X26136138Y-72885908D01*
X26001293Y-72936202D01*
X26001286Y-72936206D01*
X25886077Y-73022452D01*
X25886074Y-73022455D01*
X25799828Y-73137664D01*
X25799825Y-73137669D01*
X25750811Y-73269083D01*
X25708939Y-73325016D01*
X25643475Y-73349433D01*
X25575202Y-73334581D01*
X25546948Y-73313430D01*
X25433408Y-73199890D01*
X25261442Y-73074951D01*
X25072036Y-72978444D01*
X25072035Y-72978443D01*
X25072034Y-72978443D01*
X24869865Y-72912754D01*
X24869863Y-72912753D01*
X24869862Y-72912753D01*
X24708579Y-72887208D01*
X24659909Y-72879500D01*
X24447335Y-72879500D01*
X24398664Y-72887208D01*
X24237382Y-72912753D01*
X24035207Y-72978444D01*
X23845801Y-73074951D01*
X23673835Y-73199890D01*
X23523512Y-73350213D01*
X23398573Y-73522179D01*
X23302066Y-73711585D01*
X23236375Y-73913760D01*
X23203122Y-74123713D01*
X22750000Y-74123713D01*
X22750000Y-72508125D01*
X22751061Y-72491940D01*
X22764906Y-72386776D01*
X22773284Y-72355508D01*
X22785073Y-72327047D01*
X22828914Y-72272644D01*
X22895208Y-72250579D01*
X22899634Y-72250500D01*
X37646000Y-72250500D01*
X37713039Y-72270185D01*
G37*
%TD.AperFunction*%
%TD*%
%TA.AperFunction,Conductor*%
%TO.N,/QA01_4/GND2*%
G36*
X45508059Y-127751061D02*
G01*
X45613223Y-127764906D01*
X45644491Y-127773284D01*
X45734918Y-127810740D01*
X45762952Y-127826925D01*
X45840602Y-127886509D01*
X45863491Y-127909398D01*
X45923074Y-127987048D01*
X45939259Y-128015081D01*
X45976715Y-128105508D01*
X45985093Y-128136775D01*
X45998939Y-128241939D01*
X46000000Y-128258125D01*
X46000000Y-133000000D01*
X49292893Y-133000000D01*
X49500000Y-133000000D01*
X51250000Y-131250000D01*
X51250000Y-130258125D01*
X51251061Y-130241940D01*
X51264906Y-130136776D01*
X51264906Y-130136775D01*
X51273284Y-130105508D01*
X51310740Y-130015081D01*
X51326923Y-129987050D01*
X51386513Y-129909392D01*
X51409392Y-129886513D01*
X51487050Y-129826923D01*
X51515079Y-129810740D01*
X51605509Y-129773283D01*
X51636775Y-129764906D01*
X51741941Y-129751061D01*
X51758126Y-129750000D01*
X52741874Y-129750000D01*
X52758059Y-129751061D01*
X52863223Y-129764906D01*
X52894491Y-129773284D01*
X52984918Y-129810740D01*
X53012952Y-129826925D01*
X53090602Y-129886509D01*
X53113491Y-129909398D01*
X53173074Y-129987048D01*
X53189259Y-130015081D01*
X53226715Y-130105508D01*
X53235093Y-130136775D01*
X53248939Y-130241939D01*
X53250000Y-130258125D01*
X53250000Y-134261874D01*
X53248939Y-134278060D01*
X53235093Y-134383224D01*
X53226717Y-134414486D01*
X53214929Y-134442948D01*
X53171090Y-134497353D01*
X53104797Y-134519421D01*
X53100366Y-134519500D01*
X50696082Y-134519500D01*
X50696075Y-134519501D01*
X50551094Y-134548340D01*
X50551082Y-134548343D01*
X50414511Y-134604912D01*
X50414498Y-134604919D01*
X50291585Y-134687048D01*
X50291581Y-134687051D01*
X50187051Y-134791581D01*
X50187048Y-134791585D01*
X50104919Y-134914498D01*
X50104914Y-134914507D01*
X50101208Y-134923456D01*
X50057365Y-134977858D01*
X49991071Y-134999921D01*
X49986648Y-135000000D01*
X44508126Y-135000000D01*
X44491941Y-134998939D01*
X44478917Y-134997224D01*
X44386775Y-134985093D01*
X44355508Y-134976715D01*
X44265081Y-134939259D01*
X44237048Y-134923074D01*
X44159398Y-134863491D01*
X44136508Y-134840601D01*
X44076925Y-134762951D01*
X44060740Y-134734918D01*
X44023284Y-134644491D01*
X44014906Y-134613223D01*
X44001061Y-134508059D01*
X44000000Y-134491874D01*
X44000000Y-128258125D01*
X44001061Y-128241940D01*
X44014906Y-128136776D01*
X44014906Y-128136775D01*
X44023284Y-128105508D01*
X44060740Y-128015081D01*
X44076923Y-127987050D01*
X44136513Y-127909392D01*
X44159392Y-127886513D01*
X44237050Y-127826923D01*
X44265079Y-127810740D01*
X44355509Y-127773283D01*
X44386775Y-127764906D01*
X44491941Y-127751061D01*
X44508126Y-127750000D01*
X45491874Y-127750000D01*
X45508059Y-127751061D01*
G37*
%TD.AperFunction*%
%TD*%
%TA.AperFunction,Conductor*%
%TO.N,/QA01_4/+15V_OUT*%
G36*
X56015093Y-127520881D02*
G01*
X56024788Y-127521645D01*
X56034450Y-127522788D01*
X56046026Y-127524622D01*
X56068069Y-127528113D01*
X56086973Y-127532652D01*
X56105320Y-127538613D01*
X56123284Y-127546054D01*
X56140466Y-127554809D01*
X56152593Y-127561880D01*
X56158363Y-127565698D01*
X56158858Y-127566285D01*
X56161468Y-127568181D01*
X56161454Y-127568199D01*
X56164246Y-127569842D01*
X56173442Y-127576726D01*
X56186813Y-127588312D01*
X56201059Y-127602558D01*
X56213690Y-127617346D01*
X56225032Y-127632956D01*
X56235195Y-127649543D01*
X56243943Y-127666713D01*
X56251386Y-127684682D01*
X56257342Y-127703010D01*
X56261886Y-127721932D01*
X56267210Y-127755540D01*
X56268355Y-127765209D01*
X56269118Y-127774901D01*
X56269500Y-127784633D01*
X56269500Y-130824247D01*
X56266065Y-130853233D01*
X56265344Y-130856231D01*
X56263867Y-130861261D01*
X56263820Y-130862569D01*
X56262220Y-130869226D01*
X56247078Y-130895576D01*
X56237795Y-130914980D01*
X56239098Y-130915885D01*
X56238738Y-130916403D01*
X56236097Y-130918529D01*
X56233918Y-130923086D01*
X56229537Y-130927965D01*
X56228831Y-130927331D01*
X56227409Y-130929807D01*
X56212517Y-130937523D01*
X56184365Y-130960199D01*
X56151994Y-130973607D01*
X56136633Y-130978821D01*
X56121072Y-130982990D01*
X56105169Y-130986153D01*
X56037976Y-130995000D01*
X56019398Y-130997446D01*
X56018060Y-130997622D01*
X56012063Y-130998411D01*
X56004015Y-130999204D01*
X56003484Y-130999238D01*
X55995919Y-130999734D01*
X55987819Y-131000000D01*
X53679500Y-131000000D01*
X53612461Y-130980315D01*
X53566706Y-130927511D01*
X53555500Y-130876000D01*
X53555500Y-130258137D01*
X53555500Y-130258125D01*
X53554846Y-130238142D01*
X53553785Y-130221956D01*
X53551825Y-130202061D01*
X53537979Y-130096897D01*
X53530183Y-130057705D01*
X53521805Y-130026438D01*
X53508960Y-129988598D01*
X53471504Y-129898171D01*
X53471500Y-129898163D01*
X53453842Y-129862356D01*
X53453831Y-129862335D01*
X53453829Y-129862330D01*
X53437644Y-129834297D01*
X53415443Y-129801071D01*
X53406121Y-129788923D01*
X53399718Y-129772544D01*
X53389188Y-129759037D01*
X53384198Y-129732850D01*
X53381013Y-129724703D01*
X53380500Y-129719078D01*
X53380500Y-129639448D01*
X53364019Y-129535397D01*
X53352171Y-129460591D01*
X53296211Y-129288361D01*
X53296211Y-129288360D01*
X53267740Y-129232484D01*
X53213996Y-129127006D01*
X53213995Y-129127004D01*
X53200397Y-129108289D01*
X53200395Y-129108285D01*
X53107570Y-128980522D01*
X53107558Y-128980505D01*
X53107554Y-128980500D01*
X53107551Y-128980497D01*
X53107548Y-128980493D01*
X52979507Y-128852452D01*
X52979498Y-128852444D01*
X52979474Y-128852426D01*
X52843605Y-128753712D01*
X52843591Y-128753703D01*
X52832997Y-128746006D01*
X52832996Y-128746005D01*
X52832994Y-128746004D01*
X52826871Y-128742884D01*
X52781301Y-128719664D01*
X52781300Y-128719664D01*
X52671639Y-128663788D01*
X52671636Y-128663787D01*
X52671633Y-128663786D01*
X52671631Y-128663785D01*
X52671612Y-128663778D01*
X52499412Y-128607829D01*
X52499413Y-128607829D01*
X52365265Y-128586582D01*
X52320551Y-128579500D01*
X52320550Y-128579500D01*
X52139450Y-128579500D01*
X52139449Y-128579500D01*
X52103677Y-128585165D01*
X51960585Y-128607829D01*
X51788386Y-128663778D01*
X51788363Y-128663786D01*
X51788359Y-128663788D01*
X51627005Y-128746004D01*
X51627002Y-128746005D01*
X51627002Y-128746006D01*
X51578169Y-128781484D01*
X51480499Y-128852445D01*
X51480491Y-128852452D01*
X51352452Y-128980491D01*
X51352445Y-128980499D01*
X51246004Y-129127005D01*
X51163788Y-129288359D01*
X51163786Y-129288363D01*
X51163778Y-129288386D01*
X51107829Y-129460585D01*
X51079500Y-129639448D01*
X51079500Y-129771373D01*
X51062888Y-129833372D01*
X51046159Y-129862346D01*
X51028498Y-129898163D01*
X51028489Y-129898183D01*
X50991042Y-129988589D01*
X50991041Y-129988591D01*
X50978193Y-130026439D01*
X50978189Y-130026450D01*
X50969814Y-130057708D01*
X50962019Y-130096902D01*
X50948173Y-130202073D01*
X50946216Y-130221935D01*
X50945154Y-130238137D01*
X50944500Y-130258137D01*
X50944500Y-130874915D01*
X50924815Y-130941954D01*
X50872011Y-130987709D01*
X50802853Y-130997653D01*
X50793224Y-130995558D01*
X50789337Y-130995000D01*
X50789334Y-130995000D01*
X50750000Y-130995000D01*
X50749999Y-130995000D01*
X49293926Y-132451073D01*
X49265675Y-132472222D01*
X49242587Y-132484830D01*
X49183157Y-132500000D01*
X47262179Y-132500000D01*
X47254077Y-132499734D01*
X47245982Y-132499203D01*
X47237924Y-132498410D01*
X47233559Y-132497835D01*
X47228478Y-132497166D01*
X47228476Y-132497165D01*
X47228473Y-132497166D01*
X47144835Y-132486154D01*
X47128922Y-132482988D01*
X47113351Y-132478815D01*
X47097998Y-132473603D01*
X47022589Y-132442368D01*
X47008041Y-132435194D01*
X46994086Y-132427137D01*
X46980600Y-132418126D01*
X46915844Y-132368437D01*
X46903649Y-132357742D01*
X46892256Y-132346349D01*
X46881561Y-132334154D01*
X46831872Y-132269398D01*
X46822861Y-132255912D01*
X46814804Y-132241957D01*
X46807630Y-132227410D01*
X46776394Y-132152000D01*
X46771181Y-132136643D01*
X46767007Y-132121065D01*
X46763846Y-132105173D01*
X46751589Y-132012074D01*
X46750796Y-132004030D01*
X46750264Y-131995905D01*
X46750000Y-131987820D01*
X46750000Y-128012178D01*
X46750264Y-128004094D01*
X46750797Y-127995965D01*
X46751590Y-127987920D01*
X46763846Y-127894822D01*
X46767006Y-127878936D01*
X46771183Y-127863348D01*
X46776390Y-127848007D01*
X46807633Y-127772581D01*
X46814801Y-127758046D01*
X46816248Y-127755540D01*
X46822864Y-127744079D01*
X46831856Y-127730620D01*
X46881578Y-127665822D01*
X46892251Y-127653653D01*
X46903653Y-127642251D01*
X46915822Y-127631578D01*
X46980620Y-127581856D01*
X46994066Y-127572872D01*
X47008068Y-127564788D01*
X47022575Y-127557635D01*
X47078167Y-127534609D01*
X47101413Y-127527557D01*
X47124921Y-127522881D01*
X47149107Y-127520500D01*
X56005363Y-127520500D01*
X56015093Y-127520881D01*
G37*
%TD.AperFunction*%
%TD*%
%TA.AperFunction,Conductor*%
%TO.N,/QA01_1/+15V_OUT*%
G36*
X56015093Y-72250881D02*
G01*
X56024788Y-72251645D01*
X56034450Y-72252788D01*
X56046026Y-72254622D01*
X56068069Y-72258113D01*
X56086973Y-72262652D01*
X56105320Y-72268613D01*
X56123284Y-72276054D01*
X56140466Y-72284809D01*
X56152593Y-72291880D01*
X56158363Y-72295698D01*
X56158858Y-72296285D01*
X56161468Y-72298181D01*
X56161454Y-72298199D01*
X56164246Y-72299842D01*
X56173442Y-72306726D01*
X56186813Y-72318312D01*
X56201059Y-72332558D01*
X56213690Y-72347346D01*
X56225032Y-72362956D01*
X56235195Y-72379543D01*
X56243941Y-72396709D01*
X56251384Y-72414677D01*
X56257343Y-72433014D01*
X56261887Y-72451937D01*
X56267209Y-72485534D01*
X56268354Y-72495204D01*
X56269117Y-72504897D01*
X56269499Y-72514628D01*
X56269499Y-75324248D01*
X56266064Y-75353234D01*
X56265343Y-75356232D01*
X56263866Y-75361262D01*
X56263819Y-75362570D01*
X56262219Y-75369227D01*
X56247079Y-75395574D01*
X56237726Y-75415125D01*
X56239006Y-75416017D01*
X56238645Y-75416535D01*
X56236055Y-75418618D01*
X56233918Y-75423086D01*
X56229538Y-75427964D01*
X56228831Y-75427329D01*
X56227408Y-75429808D01*
X56212617Y-75437471D01*
X56184364Y-75460199D01*
X56151998Y-75473605D01*
X56136639Y-75478818D01*
X56121072Y-75482989D01*
X56105167Y-75486153D01*
X56037976Y-75495000D01*
X56019398Y-75497446D01*
X56018060Y-75497622D01*
X56012063Y-75498411D01*
X56004015Y-75499204D01*
X56003484Y-75499238D01*
X55995919Y-75499734D01*
X55987819Y-75500000D01*
X53679500Y-75500000D01*
X53612461Y-75480315D01*
X53566706Y-75427511D01*
X53555500Y-75376000D01*
X53555500Y-74758137D01*
X53555500Y-74758125D01*
X53554846Y-74738142D01*
X53553785Y-74721956D01*
X53551825Y-74702061D01*
X53537979Y-74596897D01*
X53530183Y-74557705D01*
X53521805Y-74526438D01*
X53508960Y-74488598D01*
X53471504Y-74398171D01*
X53471500Y-74398163D01*
X53453842Y-74362356D01*
X53453831Y-74362335D01*
X53453829Y-74362330D01*
X53437644Y-74334297D01*
X53415443Y-74301071D01*
X53406121Y-74288923D01*
X53399718Y-74272544D01*
X53389188Y-74259037D01*
X53384198Y-74232850D01*
X53381013Y-74224703D01*
X53380500Y-74219078D01*
X53380500Y-74139448D01*
X53364019Y-74035397D01*
X53352171Y-73960591D01*
X53296211Y-73788361D01*
X53296211Y-73788360D01*
X53267740Y-73732484D01*
X53213996Y-73627006D01*
X53213995Y-73627004D01*
X53200397Y-73608289D01*
X53200395Y-73608285D01*
X53107570Y-73480522D01*
X53107558Y-73480505D01*
X53107554Y-73480500D01*
X53107551Y-73480497D01*
X53107548Y-73480493D01*
X52979507Y-73352452D01*
X52979498Y-73352444D01*
X52979474Y-73352426D01*
X52843605Y-73253712D01*
X52843591Y-73253703D01*
X52832997Y-73246006D01*
X52832996Y-73246005D01*
X52832994Y-73246004D01*
X52826871Y-73242884D01*
X52781301Y-73219664D01*
X52781300Y-73219664D01*
X52671639Y-73163788D01*
X52671636Y-73163787D01*
X52671633Y-73163786D01*
X52671631Y-73163785D01*
X52671612Y-73163778D01*
X52499412Y-73107829D01*
X52499413Y-73107829D01*
X52365265Y-73086582D01*
X52320551Y-73079500D01*
X52320550Y-73079500D01*
X52139450Y-73079500D01*
X52139449Y-73079500D01*
X52103677Y-73085165D01*
X51960585Y-73107829D01*
X51788386Y-73163778D01*
X51788363Y-73163786D01*
X51788359Y-73163788D01*
X51627005Y-73246004D01*
X51627002Y-73246005D01*
X51627002Y-73246006D01*
X51578169Y-73281484D01*
X51480499Y-73352445D01*
X51480491Y-73352452D01*
X51352452Y-73480491D01*
X51352445Y-73480499D01*
X51246004Y-73627005D01*
X51163788Y-73788359D01*
X51163786Y-73788363D01*
X51163778Y-73788386D01*
X51107829Y-73960585D01*
X51079500Y-74139448D01*
X51079500Y-74271373D01*
X51062888Y-74333372D01*
X51046159Y-74362346D01*
X51028498Y-74398163D01*
X51028489Y-74398183D01*
X50991042Y-74488589D01*
X50991041Y-74488591D01*
X50978193Y-74526439D01*
X50978189Y-74526450D01*
X50969814Y-74557708D01*
X50962019Y-74596902D01*
X50948173Y-74702073D01*
X50946216Y-74721935D01*
X50945154Y-74738137D01*
X50944500Y-74758137D01*
X50944500Y-75374915D01*
X50924815Y-75441954D01*
X50872011Y-75487709D01*
X50802853Y-75497653D01*
X50793224Y-75495558D01*
X50789337Y-75495000D01*
X50789334Y-75495000D01*
X50750000Y-75495000D01*
X50749999Y-75495000D01*
X49293926Y-76951073D01*
X49265675Y-76972222D01*
X49242587Y-76984830D01*
X49183157Y-77000000D01*
X47262179Y-77000000D01*
X47254077Y-76999734D01*
X47245982Y-76999203D01*
X47237924Y-76998410D01*
X47233559Y-76997835D01*
X47228478Y-76997166D01*
X47228476Y-76997165D01*
X47228473Y-76997166D01*
X47144835Y-76986154D01*
X47128922Y-76982988D01*
X47113351Y-76978815D01*
X47097998Y-76973603D01*
X47022589Y-76942368D01*
X47008041Y-76935194D01*
X46994086Y-76927137D01*
X46980600Y-76918126D01*
X46915844Y-76868437D01*
X46903649Y-76857742D01*
X46892256Y-76846349D01*
X46881561Y-76834154D01*
X46831872Y-76769398D01*
X46822861Y-76755912D01*
X46814804Y-76741957D01*
X46807630Y-76727410D01*
X46776394Y-76652000D01*
X46771181Y-76636643D01*
X46767007Y-76621065D01*
X46763846Y-76605173D01*
X46751589Y-76512074D01*
X46750796Y-76504030D01*
X46750264Y-76495905D01*
X46750000Y-76487820D01*
X46750000Y-72512178D01*
X46750264Y-72504097D01*
X46750797Y-72495965D01*
X46751590Y-72487920D01*
X46757597Y-72442296D01*
X46758819Y-72433014D01*
X46763846Y-72394820D01*
X46767010Y-72378922D01*
X46771183Y-72363351D01*
X46776394Y-72347999D01*
X46778251Y-72343515D01*
X46796256Y-72313169D01*
X46806068Y-72300993D01*
X46820708Y-72290828D01*
X46822090Y-72289114D01*
X46824178Y-72288418D01*
X46863454Y-72261147D01*
X46876385Y-72256843D01*
X46915539Y-72250500D01*
X56005363Y-72250500D01*
X56015093Y-72250881D01*
G37*
%TD.AperFunction*%
%TD*%
%TA.AperFunction,Conductor*%
%TO.N,/QA01_2/+15V_OUT*%
G36*
X56015093Y-90520881D02*
G01*
X56024788Y-90521645D01*
X56034450Y-90522788D01*
X56046026Y-90524622D01*
X56068069Y-90528113D01*
X56086973Y-90532652D01*
X56105320Y-90538613D01*
X56123284Y-90546054D01*
X56140466Y-90554809D01*
X56152593Y-90561880D01*
X56158363Y-90565698D01*
X56158858Y-90566285D01*
X56161468Y-90568181D01*
X56161454Y-90568199D01*
X56164246Y-90569842D01*
X56173442Y-90576726D01*
X56186813Y-90588312D01*
X56201059Y-90602558D01*
X56213690Y-90617346D01*
X56225032Y-90632956D01*
X56235195Y-90649543D01*
X56243943Y-90666713D01*
X56251386Y-90684682D01*
X56257342Y-90703010D01*
X56261886Y-90721932D01*
X56267210Y-90755540D01*
X56268355Y-90765209D01*
X56269118Y-90774901D01*
X56269500Y-90784633D01*
X56269500Y-93824247D01*
X56266065Y-93853233D01*
X56265344Y-93856231D01*
X56263867Y-93861261D01*
X56263820Y-93862569D01*
X56262220Y-93869226D01*
X56247078Y-93895576D01*
X56237795Y-93914980D01*
X56239098Y-93915885D01*
X56238738Y-93916403D01*
X56236097Y-93918529D01*
X56233918Y-93923086D01*
X56229537Y-93927965D01*
X56228831Y-93927331D01*
X56227409Y-93929807D01*
X56212517Y-93937523D01*
X56184365Y-93960199D01*
X56151994Y-93973607D01*
X56136633Y-93978821D01*
X56121072Y-93982990D01*
X56105169Y-93986153D01*
X56037976Y-93995000D01*
X56019398Y-93997446D01*
X56018060Y-93997622D01*
X56012063Y-93998411D01*
X56004015Y-93999204D01*
X56003484Y-93999238D01*
X55995919Y-93999734D01*
X55987819Y-94000000D01*
X53679500Y-94000000D01*
X53612461Y-93980315D01*
X53566706Y-93927511D01*
X53555500Y-93876000D01*
X53555500Y-93258137D01*
X53555500Y-93258125D01*
X53554846Y-93238142D01*
X53553785Y-93221956D01*
X53551825Y-93202061D01*
X53537979Y-93096897D01*
X53530183Y-93057705D01*
X53521805Y-93026438D01*
X53508960Y-92988598D01*
X53471504Y-92898171D01*
X53471500Y-92898163D01*
X53453842Y-92862356D01*
X53453831Y-92862335D01*
X53453829Y-92862330D01*
X53437644Y-92834297D01*
X53415443Y-92801071D01*
X53406121Y-92788923D01*
X53399718Y-92772544D01*
X53389188Y-92759037D01*
X53384198Y-92732850D01*
X53381013Y-92724703D01*
X53380500Y-92719078D01*
X53380500Y-92639448D01*
X53364019Y-92535397D01*
X53352171Y-92460591D01*
X53296211Y-92288361D01*
X53296211Y-92288360D01*
X53267740Y-92232484D01*
X53213996Y-92127006D01*
X53213995Y-92127004D01*
X53200397Y-92108289D01*
X53200395Y-92108285D01*
X53107570Y-91980522D01*
X53107558Y-91980505D01*
X53107554Y-91980500D01*
X53107551Y-91980497D01*
X53107548Y-91980493D01*
X52979507Y-91852452D01*
X52979498Y-91852444D01*
X52979474Y-91852426D01*
X52843605Y-91753712D01*
X52843591Y-91753703D01*
X52832997Y-91746006D01*
X52832996Y-91746005D01*
X52832994Y-91746004D01*
X52826871Y-91742884D01*
X52781301Y-91719664D01*
X52781300Y-91719664D01*
X52671639Y-91663788D01*
X52671636Y-91663787D01*
X52671633Y-91663786D01*
X52671631Y-91663785D01*
X52671612Y-91663778D01*
X52499412Y-91607829D01*
X52499413Y-91607829D01*
X52365265Y-91586582D01*
X52320551Y-91579500D01*
X52320550Y-91579500D01*
X52139450Y-91579500D01*
X52139449Y-91579500D01*
X52103677Y-91585165D01*
X51960585Y-91607829D01*
X51788386Y-91663778D01*
X51788363Y-91663786D01*
X51788359Y-91663788D01*
X51627005Y-91746004D01*
X51627002Y-91746005D01*
X51627002Y-91746006D01*
X51578169Y-91781484D01*
X51480499Y-91852445D01*
X51480491Y-91852452D01*
X51352452Y-91980491D01*
X51352445Y-91980499D01*
X51246004Y-92127005D01*
X51163788Y-92288359D01*
X51163786Y-92288363D01*
X51163778Y-92288386D01*
X51107829Y-92460585D01*
X51079500Y-92639448D01*
X51079500Y-92771373D01*
X51062888Y-92833372D01*
X51046159Y-92862346D01*
X51028498Y-92898163D01*
X51028489Y-92898183D01*
X50991042Y-92988589D01*
X50991041Y-92988591D01*
X50978193Y-93026439D01*
X50978189Y-93026450D01*
X50969814Y-93057708D01*
X50962019Y-93096902D01*
X50948173Y-93202073D01*
X50946216Y-93221935D01*
X50945154Y-93238137D01*
X50944500Y-93258137D01*
X50944500Y-93874915D01*
X50924815Y-93941954D01*
X50872011Y-93987709D01*
X50802853Y-93997653D01*
X50793224Y-93995558D01*
X50789337Y-93995000D01*
X50789334Y-93995000D01*
X50750000Y-93995000D01*
X50749999Y-93995000D01*
X49293926Y-95451073D01*
X49265675Y-95472222D01*
X49242587Y-95484830D01*
X49183157Y-95500000D01*
X47262179Y-95500000D01*
X47254077Y-95499734D01*
X47245982Y-95499203D01*
X47237924Y-95498410D01*
X47233559Y-95497835D01*
X47228478Y-95497166D01*
X47228476Y-95497165D01*
X47228473Y-95497166D01*
X47144835Y-95486154D01*
X47128922Y-95482988D01*
X47113351Y-95478815D01*
X47097998Y-95473603D01*
X47022589Y-95442368D01*
X47008041Y-95435194D01*
X46994086Y-95427137D01*
X46980600Y-95418126D01*
X46915844Y-95368437D01*
X46903649Y-95357742D01*
X46892256Y-95346349D01*
X46881561Y-95334154D01*
X46831872Y-95269398D01*
X46822861Y-95255912D01*
X46814804Y-95241957D01*
X46807630Y-95227410D01*
X46776394Y-95152000D01*
X46771181Y-95136643D01*
X46767007Y-95121065D01*
X46763846Y-95105173D01*
X46751589Y-95012074D01*
X46750796Y-95004030D01*
X46750264Y-94995905D01*
X46750000Y-94987820D01*
X46750000Y-91012178D01*
X46750264Y-91004094D01*
X46750797Y-90995965D01*
X46751590Y-90987920D01*
X46763846Y-90894822D01*
X46767006Y-90878936D01*
X46771183Y-90863348D01*
X46776390Y-90848007D01*
X46807633Y-90772581D01*
X46814801Y-90758046D01*
X46816248Y-90755540D01*
X46822864Y-90744079D01*
X46831856Y-90730620D01*
X46881578Y-90665822D01*
X46892251Y-90653653D01*
X46903653Y-90642251D01*
X46915822Y-90631578D01*
X46980620Y-90581856D01*
X46994066Y-90572872D01*
X47008068Y-90564788D01*
X47022575Y-90557635D01*
X47078167Y-90534609D01*
X47101413Y-90527557D01*
X47124921Y-90522881D01*
X47149107Y-90520500D01*
X56005363Y-90520500D01*
X56015093Y-90520881D01*
G37*
%TD.AperFunction*%
%TD*%
D19*
X18000000Y-81000000D02*
G75*
G02*
X18000000Y-72000000I0J4500000D01*
G01*
X18000000Y-81000000D02*
X23500000Y-81000000D01*
X18000000Y-137000000D02*
X22250000Y-137000000D01*
X18000000Y-146000000D02*
G75*
G02*
X18000000Y-137000000I0J4500000D01*
G01*
X22750000Y-127500000D02*
X22750000Y-136500001D01*
X22750000Y-127500000D02*
G75*
G02*
X23250000Y-127000000I500000J0D01*
G01*
X22750000Y-136500001D02*
G75*
G02*
X22250000Y-137000000I-500000J1D01*
G01*
X23250000Y-127000000D02*
X23500000Y-127000000D01*
X23500000Y-81000000D02*
G75*
G02*
X24000000Y-81500000I0J-500000D01*
G01*
X24000000Y-81500000D02*
X24000000Y-126500001D01*
X24000001Y-126500001D02*
G75*
G02*
X23500001Y-127000001I-500001J1D01*
G01*
X40520000Y-146000000D02*
X18000000Y-146000000D01*
X41020000Y-83270000D02*
X41020000Y-89770000D01*
X41020000Y-83270000D02*
G75*
G02*
X41520000Y-82770000I500000J0D01*
G01*
X41020000Y-101770000D02*
X41020000Y-108270000D01*
X41020000Y-101770000D02*
G75*
G02*
X41520000Y-101270000I500000J0D01*
G01*
X41020000Y-120270000D02*
X41020000Y-126770000D01*
X41020000Y-120270000D02*
G75*
G02*
X41520000Y-119770000I500000J0D01*
G01*
X41020000Y-138770000D02*
X41020000Y-145500000D01*
X41020000Y-138770000D02*
G75*
G02*
X41520000Y-138270000I500000J0D01*
G01*
X41020001Y-145500000D02*
G75*
G02*
X40520000Y-146000001I-500001J0D01*
G01*
X41520000Y-90270000D02*
G75*
G02*
X41020000Y-89770000I0J500000D01*
G01*
X41520000Y-90270000D02*
X56020000Y-90270000D01*
X41520000Y-108770000D02*
G75*
G02*
X41020000Y-108270000I0J500000D01*
G01*
X41520000Y-108770000D02*
X56020000Y-108770000D01*
X41520000Y-127270000D02*
G75*
G02*
X41020000Y-126770000I0J500000D01*
G01*
X41520000Y-127270000D02*
X56020000Y-127270000D01*
X49770000Y-82770000D02*
X41520000Y-82770000D01*
X49770000Y-101270000D02*
X41520000Y-101270000D01*
X49770000Y-119770000D02*
X41520000Y-119770000D01*
X49770000Y-138270000D02*
X41520000Y-138270000D01*
X50270000Y-79770000D02*
X50270000Y-82270000D01*
X50270000Y-79770000D02*
G75*
G02*
X50770000Y-79270000I500000J0D01*
G01*
X50270000Y-82270000D02*
G75*
G02*
X49770000Y-82770000I-500000J0D01*
G01*
X50270000Y-98270000D02*
X50270000Y-100770000D01*
X50270000Y-98270000D02*
G75*
G02*
X50770000Y-97770000I500000J0D01*
G01*
X50270000Y-100770000D02*
G75*
G02*
X49770000Y-101270000I-500000J0D01*
G01*
X50270000Y-116770000D02*
X50270000Y-119270000D01*
X50270000Y-116770000D02*
G75*
G02*
X50770000Y-116270000I500000J0D01*
G01*
X50270000Y-119270000D02*
G75*
G02*
X49770000Y-119770000I-500000J0D01*
G01*
X50270000Y-135270000D02*
X50270000Y-137770000D01*
X50270000Y-135270000D02*
G75*
G02*
X50770000Y-134770000I500000J0D01*
G01*
X50270000Y-137770000D02*
G75*
G02*
X49770000Y-138270000I-500000J0D01*
G01*
X50770000Y-79270000D02*
X56020000Y-79270000D01*
X50770000Y-97770000D02*
X56020000Y-97770000D01*
X50770000Y-116270000D02*
X56020000Y-116270000D01*
X50770000Y-134770000D02*
X56020000Y-134770000D01*
X56020000Y-72000000D02*
X18000000Y-72000000D01*
X56020000Y-72000000D02*
G75*
G02*
X56520000Y-72500000I0J-500000D01*
G01*
X56020000Y-90270000D02*
G75*
G02*
X56520000Y-90770000I0J-500000D01*
G01*
X56020000Y-108770000D02*
G75*
G02*
X56520000Y-109270000I0J-500000D01*
G01*
X56020000Y-127270000D02*
G75*
G02*
X56520000Y-127770000I0J-500000D01*
G01*
X56519999Y-72500001D02*
X56519999Y-78770000D01*
X56520000Y-78770000D02*
G75*
G02*
X56020000Y-79270000I-500000J0D01*
G01*
X56520000Y-97270000D02*
G75*
G02*
X56020000Y-97770000I-500000J0D01*
G01*
X56520000Y-97270000D02*
X56520000Y-90770000D01*
X56520000Y-115770000D02*
G75*
G02*
X56020000Y-116270000I-500000J0D01*
G01*
X56520000Y-115770000D02*
X56520000Y-109270000D01*
X56520000Y-134270000D02*
G75*
G02*
X56020000Y-134770000I-500000J0D01*
G01*
X56520000Y-134270000D02*
X56520000Y-127770000D01*
M02*
