M48
; DRILL file KiCad 10.0.1 date 2026-07-15T12:29:37
; FORMAT={-:-/ absolute / metric / decimal}
; #@! TF.CreationDate,2026-07-15T12:29:37+03:00
; #@! TF.GenerationSoftware,Kicad,Pcbnew,10.0.1
; #@! TF.FileFunction,Plated,1,2,PTH
FMAT,2
METRIC
; #@! TA.AperFunction,Plated,PTH,ViaDrill
T1C0.300
; #@! TA.AperFunction,Plated,PTH,ComponentDrill
T2C1.000
%
G90
G05
T1
X35.082Y-88.957
X35.082Y-107.332
X35.082Y-125.832
X36.02Y-143.02
T2
X24.554Y-129.73
X24.554Y-132.27
X24.554Y-74.23
X24.554Y-76.77
X27.094Y-129.73
X27.094Y-132.27
X27.094Y-74.23
X27.094Y-76.77
X32.27Y-75.807
X32.27Y-94.307
X32.27Y-112.807
X32.27Y-131.307
X34.81Y-75.807
X34.81Y-94.307
X34.81Y-112.807
X34.81Y-131.307
X42.43Y-75.807
X42.43Y-94.307
X42.43Y-112.807
X42.43Y-131.307
X44.97Y-75.807
X44.97Y-94.307
X44.97Y-112.807
X44.97Y-131.307
X47.51Y-75.807
X47.51Y-94.307
X47.51Y-112.807
X47.51Y-131.307
X52.23Y-74.23
X52.23Y-76.77
X52.23Y-92.73
X52.23Y-95.27
X52.23Y-111.23
X52.23Y-113.77
X52.23Y-129.73
X52.23Y-132.27
X54.77Y-74.23
X54.77Y-76.77
X54.77Y-92.73
X54.77Y-95.27
X54.77Y-111.23
X54.77Y-113.77
X54.77Y-129.73
X54.77Y-132.27
M30
