%TF.GenerationSoftware,KiCad,Pcbnew,10.0.1*%
%TF.CreationDate,2026-06-08T18:18:14+03:00*%
%TF.ProjectId,PSFB_PrimarySide,50534642-5f50-4726-996d-617279536964,rev?*%
%TF.SameCoordinates,Original*%
%TF.FileFunction,Soldermask,Bot*%
%TF.FilePolarity,Negative*%
%FSLAX46Y46*%
G04 Gerber Fmt 4.6, Leading zero omitted, Abs format (unit mm)*
G04 Created by KiCad (PCBNEW 10.0.1) date 2026-06-08 18:18:14*
%MOMM*%
%LPD*%
G01*
G04 APERTURE LIST*
G04 Aperture macros list*
%AMRoundRect*
0 Rectangle with rounded corners*
0 $1 Rounding radius*
0 $2 $3 $4 $5 $6 $7 $8 $9 X,Y pos of 4 corners*
0 Add a 4 corners polygon primitive as box body*
4,1,4,$2,$3,$4,$5,$6,$7,$8,$9,$2,$3,0*
0 Add four circle primitives for the rounded corners*
1,1,$1+$1,$2,$3*
1,1,$1+$1,$4,$5*
1,1,$1+$1,$6,$7*
1,1,$1+$1,$8,$9*
0 Add four rect primitives between the rounded corners*
20,1,$1+$1,$2,$3,$4,$5,0*
20,1,$1+$1,$4,$5,$6,$7,0*
20,1,$1+$1,$6,$7,$8,$9,0*
20,1,$1+$1,$8,$9,$2,$3,0*%
G04 Aperture macros list end*
%ADD10R,1.700000X1.700000*%
%ADD11C,1.700000*%
%ADD12C,6.000000*%
%ADD13R,4.500000X1.905000*%
%ADD14O,4.500000X1.905000*%
%ADD15C,4.300000*%
%ADD16O,2.500000X1.800000*%
%ADD17C,2.400000*%
%ADD18C,8.000000*%
%ADD19RoundRect,0.250000X0.475000X-0.337500X0.475000X0.337500X-0.475000X0.337500X-0.475000X-0.337500X0*%
%ADD20RoundRect,0.250000X-0.475000X0.337500X-0.475000X-0.337500X0.475000X-0.337500X0.475000X0.337500X0*%
%ADD21RoundRect,0.250000X0.337500X0.475000X-0.337500X0.475000X-0.337500X-0.475000X0.337500X-0.475000X0*%
%ADD22RoundRect,0.250000X-0.450000X0.350000X-0.450000X-0.350000X0.450000X-0.350000X0.450000X0.350000X0*%
%ADD23RoundRect,0.225000X0.375000X-0.225000X0.375000X0.225000X-0.375000X0.225000X-0.375000X-0.225000X0*%
%ADD24RoundRect,0.250000X0.450000X-0.350000X0.450000X0.350000X-0.450000X0.350000X-0.450000X-0.350000X0*%
%ADD25RoundRect,0.250000X-0.350000X-0.450000X0.350000X-0.450000X0.350000X0.450000X-0.350000X0.450000X0*%
%ADD26RoundRect,0.250000X0.412500X1.100000X-0.412500X1.100000X-0.412500X-1.100000X0.412500X-1.100000X0*%
%ADD27RoundRect,0.250000X-0.412500X-0.650000X0.412500X-0.650000X0.412500X0.650000X-0.412500X0.650000X0*%
%ADD28RoundRect,0.250000X-0.412500X-1.100000X0.412500X-1.100000X0.412500X1.100000X-0.412500X1.100000X0*%
%ADD29RoundRect,0.250000X-0.545000X-0.445000X0.545000X-0.445000X0.545000X0.445000X-0.545000X0.445000X0*%
%ADD30RoundRect,0.250000X-0.337500X-0.475000X0.337500X-0.475000X0.337500X0.475000X-0.337500X0.475000X0*%
%ADD31RoundRect,0.375000X0.375000X-0.625000X0.375000X0.625000X-0.375000X0.625000X-0.375000X-0.625000X0*%
%ADD32RoundRect,0.500000X1.400000X-0.500000X1.400000X0.500000X-1.400000X0.500000X-1.400000X-0.500000X0*%
G04 APERTURE END LIST*
D10*
%TO.C,J5*%
X54770000Y-76770000D03*
D11*
X54770000Y-74230000D03*
X52230000Y-76770000D03*
X52230000Y-74230000D03*
%TD*%
D12*
%TO.C,Q2*%
X99720000Y-99250000D03*
D13*
X79860000Y-94170000D03*
D14*
X79860000Y-99250000D03*
X79860000Y-101790000D03*
X79860000Y-104330000D03*
%TD*%
D15*
%TO.C,H3*%
X135000000Y-76500000D03*
%TD*%
D16*
%TO.C,D2*%
X17125000Y-84960000D03*
X17125000Y-87500000D03*
X17125000Y-90040000D03*
%TD*%
D12*
%TO.C,Q4*%
X99720000Y-136250000D03*
D13*
X79860000Y-131170000D03*
D14*
X79860000Y-136250000D03*
X79860000Y-138790000D03*
X79860000Y-141330000D03*
%TD*%
D10*
%TO.C,J9*%
X27093622Y-74230000D03*
D11*
X24553622Y-74230000D03*
X27093622Y-76770000D03*
X24553622Y-76770000D03*
%TD*%
D17*
%TO.C,C6*%
X110500000Y-76250000D03*
X110500000Y-103750000D03*
%TD*%
D10*
%TO.C,J7*%
X54770000Y-113770000D03*
D11*
X54770000Y-111230000D03*
X52230000Y-113770000D03*
X52230000Y-111230000D03*
%TD*%
D15*
%TO.C,H4*%
X135000000Y-141500000D03*
%TD*%
D18*
%TO.C,J1*%
X123250000Y-88750000D03*
%TD*%
%TO.C,J4*%
X134750000Y-115750000D03*
%TD*%
%TO.C,J3*%
X134750000Y-101250000D03*
%TD*%
D15*
%TO.C,H2*%
X18000000Y-141500000D03*
%TD*%
D12*
%TO.C,Q1*%
X99720000Y-80750000D03*
D13*
X79860000Y-75670000D03*
D14*
X79860000Y-80750000D03*
X79860000Y-83290000D03*
X79860000Y-85830000D03*
%TD*%
D12*
%TO.C,Q3*%
X99720000Y-117750000D03*
D13*
X79860000Y-112670000D03*
D14*
X79860000Y-117750000D03*
X79860000Y-120290000D03*
X79860000Y-122830000D03*
%TD*%
D18*
%TO.C,J2*%
X134750000Y-131500000D03*
%TD*%
D10*
%TO.C,J6*%
X54770000Y-95270000D03*
D11*
X54770000Y-92730000D03*
X52230000Y-95270000D03*
X52230000Y-92730000D03*
%TD*%
D10*
%TO.C,J8*%
X54770000Y-132270000D03*
D11*
X54770000Y-129730000D03*
X52230000Y-132270000D03*
X52230000Y-129730000D03*
%TD*%
D15*
%TO.C,H1*%
X18000000Y-76500000D03*
%TD*%
D10*
%TO.C,J12*%
X27093622Y-129730000D03*
D11*
X24553622Y-129730000D03*
X27093622Y-132270000D03*
X24553622Y-132270000D03*
%TD*%
D17*
%TO.C,C8*%
X110500000Y-113250000D03*
X110500000Y-140750000D03*
%TD*%
D19*
%TO.C,C25*%
X55000000Y-124787500D03*
X55000000Y-122712500D03*
%TD*%
%TO.C,C15*%
X58000000Y-106287500D03*
X58000000Y-104212500D03*
%TD*%
D20*
%TO.C,C2*%
X52750000Y-85712500D03*
X52750000Y-87787500D03*
%TD*%
D19*
%TO.C,C47*%
X40000000Y-125037500D03*
X40000000Y-122962500D03*
%TD*%
D21*
%TO.C,C43*%
X52537500Y-137000000D03*
X50462500Y-137000000D03*
%TD*%
D20*
%TO.C,C4*%
X50500000Y-104212500D03*
X50500000Y-106287500D03*
%TD*%
D22*
%TO.C,R31*%
X76000000Y-139250000D03*
X76000000Y-141250000D03*
%TD*%
D20*
%TO.C,C31*%
X50500000Y-141212500D03*
X50500000Y-143287500D03*
%TD*%
D23*
%TO.C,D8*%
X70500000Y-88150000D03*
X70500000Y-84850000D03*
%TD*%
D20*
%TO.C,C1*%
X50500000Y-85712500D03*
X50500000Y-87787500D03*
%TD*%
D22*
%TO.C,R24*%
X76000000Y-120750000D03*
X76000000Y-122750000D03*
%TD*%
D20*
%TO.C,C44*%
X39750000Y-106962500D03*
X39750000Y-109037500D03*
%TD*%
D24*
%TO.C,R34*%
X45750000Y-124750000D03*
X45750000Y-122750000D03*
%TD*%
D25*
%TO.C,R38*%
X17000000Y-124250000D03*
X19000000Y-124250000D03*
%TD*%
D26*
%TO.C,C36*%
X73312500Y-134250000D03*
X70187500Y-134250000D03*
%TD*%
D19*
%TO.C,C5*%
X58000000Y-87787500D03*
X58000000Y-85712500D03*
%TD*%
D20*
%TO.C,C22*%
X50500000Y-122712500D03*
X50500000Y-124787500D03*
%TD*%
D23*
%TO.C,D16*%
X70500000Y-125150000D03*
X70500000Y-121850000D03*
%TD*%
D21*
%TO.C,C40*%
X52537500Y-81500000D03*
X50462500Y-81500000D03*
%TD*%
D26*
%TO.C,C18*%
X73312500Y-97250000D03*
X70187500Y-97250000D03*
%TD*%
D27*
%TO.C,C50*%
X17187500Y-82500000D03*
X20312500Y-82500000D03*
%TD*%
D28*
%TO.C,C35*%
X70187500Y-137750000D03*
X73312500Y-137750000D03*
%TD*%
D29*
%TO.C,C49*%
X17060000Y-92500000D03*
X19940000Y-92500000D03*
%TD*%
D24*
%TO.C,R32*%
X45750000Y-106250000D03*
X45750000Y-104250000D03*
%TD*%
%TO.C,R36*%
X45750000Y-143250000D03*
X45750000Y-141250000D03*
%TD*%
D20*
%TO.C,C13*%
X52750000Y-104212500D03*
X52750000Y-106287500D03*
%TD*%
D23*
%TO.C,D12*%
X70500000Y-106650000D03*
X70500000Y-103350000D03*
%TD*%
D19*
%TO.C,C34*%
X55000000Y-143287500D03*
X55000000Y-141212500D03*
%TD*%
D21*
%TO.C,C42*%
X52537500Y-118500000D03*
X50462500Y-118500000D03*
%TD*%
D24*
%TO.C,R33*%
X48000000Y-106250000D03*
X48000000Y-104250000D03*
%TD*%
D19*
%TO.C,C45*%
X40000000Y-88037500D03*
X40000000Y-85962500D03*
%TD*%
D25*
%TO.C,R6*%
X17000000Y-121250000D03*
X19000000Y-121250000D03*
%TD*%
D28*
%TO.C,C17*%
X70187500Y-100750000D03*
X73312500Y-100750000D03*
%TD*%
D26*
%TO.C,C27*%
X73312500Y-115750000D03*
X70187500Y-115750000D03*
%TD*%
D20*
%TO.C,C32*%
X52750000Y-141212500D03*
X52750000Y-143287500D03*
%TD*%
D19*
%TO.C,C46*%
X40000000Y-95037500D03*
X40000000Y-92962500D03*
%TD*%
%TO.C,C48*%
X40000000Y-132037500D03*
X40000000Y-129962500D03*
%TD*%
%TO.C,C16*%
X55000000Y-106287500D03*
X55000000Y-104212500D03*
%TD*%
D24*
%TO.C,R37*%
X48000000Y-143250000D03*
X48000000Y-141250000D03*
%TD*%
D19*
%TO.C,C7*%
X55000000Y-87787500D03*
X55000000Y-85712500D03*
%TD*%
D22*
%TO.C,R17*%
X76000000Y-102250000D03*
X76000000Y-104250000D03*
%TD*%
D28*
%TO.C,C9*%
X70187500Y-82250000D03*
X73312500Y-82250000D03*
%TD*%
D23*
%TO.C,D20*%
X70500000Y-143650000D03*
X70500000Y-140350000D03*
%TD*%
D21*
%TO.C,C41*%
X52537500Y-100000000D03*
X50462500Y-100000000D03*
%TD*%
D19*
%TO.C,C33*%
X58000000Y-143287500D03*
X58000000Y-141212500D03*
%TD*%
D26*
%TO.C,C10*%
X73312500Y-78750000D03*
X70187500Y-78750000D03*
%TD*%
D28*
%TO.C,C26*%
X70187500Y-119250000D03*
X73312500Y-119250000D03*
%TD*%
D30*
%TO.C,C53*%
X17462500Y-94750000D03*
X19537500Y-94750000D03*
%TD*%
D24*
%TO.C,R5*%
X48000000Y-87750000D03*
X48000000Y-85750000D03*
%TD*%
D29*
%TO.C,C3*%
X25060000Y-97500000D03*
X27940000Y-97500000D03*
%TD*%
D20*
%TO.C,C23*%
X52750000Y-122712500D03*
X52750000Y-124787500D03*
%TD*%
D24*
%TO.C,R35*%
X48000000Y-124750000D03*
X48000000Y-122750000D03*
%TD*%
D31*
%TO.C,U5*%
X27300000Y-94900000D03*
X25000000Y-94900000D03*
D32*
X25000000Y-88600000D03*
D31*
X22700000Y-94900000D03*
%TD*%
D22*
%TO.C,R8*%
X76000000Y-83750000D03*
X76000000Y-85750000D03*
%TD*%
D24*
%TO.C,R4*%
X45750000Y-87750000D03*
X45750000Y-85750000D03*
%TD*%
D19*
%TO.C,C24*%
X58000000Y-124787500D03*
X58000000Y-122712500D03*
%TD*%
M02*
