%TF.GenerationSoftware,KiCad,Pcbnew,10.0.1*%
%TF.CreationDate,2026-06-08T18:18:14+03:00*%
%TF.ProjectId,PSFB_PrimarySide,50534642-5f50-4726-996d-617279536964,rev?*%
%TF.SameCoordinates,Original*%
%TF.FileFunction,Legend,Top*%
%TF.FilePolarity,Positive*%
%FSLAX46Y46*%
G04 Gerber Fmt 4.6, Leading zero omitted, Abs format (unit mm)*
G04 Created by KiCad (PCBNEW 10.0.1) date 2026-06-08 18:18:14*
%MOMM*%
%LPD*%
G01*
G04 APERTURE LIST*
%ADD10C,0.300000*%
%ADD11C,1.500000*%
%ADD12C,0.150000*%
%ADD13C,0.250000*%
%ADD14C,0.102000*%
%ADD15C,0.120000*%
%ADD16C,0.177800*%
G04 APERTURE END LIST*
D10*
X13500000Y-141500000D02*
G75*
G02*
X18000000Y-146000000I4500000J0D01*
G01*
X18000000Y-72000000D02*
G75*
G02*
X13500000Y-76500000I0J-4500000D01*
G01*
D11*
X20500000Y-74000000D02*
X15500000Y-79000000D01*
X20500000Y-79000000D02*
X15500000Y-74000000D01*
X20500000Y-139000000D02*
X15500000Y-144000000D01*
X20500000Y-144000000D02*
X15500000Y-139000000D01*
D10*
X121000000Y-97000000D02*
X121000000Y-120000000D01*
X121000000Y-97007359D02*
X134750000Y-97007359D01*
X121000000Y-127250000D02*
X121000000Y-135750000D01*
X123000000Y-84500000D02*
X136500000Y-84500000D01*
X123250000Y-93000000D02*
G75*
G02*
X123250000Y-84500000I0J4250000D01*
G01*
X123250000Y-93000000D02*
X136500000Y-93000000D01*
X134750000Y-97007359D02*
G75*
G02*
X138992641Y-101250000I0J-4242641D01*
G01*
X134750000Y-119992641D02*
X121000000Y-119992641D01*
X134750000Y-127250000D02*
X121000000Y-127250000D01*
X134750000Y-127250000D02*
G75*
G02*
X134750000Y-135750000I0J-4250000D01*
G01*
X134750000Y-135750000D02*
X121000000Y-135750000D01*
X135000000Y-146000000D02*
G75*
G02*
X139500000Y-141500000I0J4500000D01*
G01*
X136500000Y-93000000D02*
X136500000Y-84500000D01*
D11*
X137500000Y-74000000D02*
X132500000Y-79000000D01*
X137500000Y-79000000D02*
X132500000Y-74000000D01*
X137500000Y-139000000D02*
X132500000Y-144000000D01*
X137500000Y-144000000D02*
X132500000Y-139000000D01*
D10*
X138992641Y-101250000D02*
X138992641Y-115750000D01*
X138992641Y-115750000D02*
G75*
G02*
X134750000Y-119992641I-4242641J0D01*
G01*
X139506939Y-76500000D02*
G75*
G02*
X135000000Y-71993061I-4506939J0D01*
G01*
D12*
X16238095Y-119323866D02*
X17000000Y-119323866D01*
X16619047Y-119704819D02*
X16619047Y-118942914D01*
X17999999Y-119704819D02*
X17428571Y-119704819D01*
X17714285Y-119704819D02*
X17714285Y-118704819D01*
X17714285Y-118704819D02*
X17619047Y-118847676D01*
X17619047Y-118847676D02*
X17523809Y-118942914D01*
X17523809Y-118942914D02*
X17428571Y-118990533D01*
X18904761Y-118704819D02*
X18428571Y-118704819D01*
X18428571Y-118704819D02*
X18380952Y-119181009D01*
X18380952Y-119181009D02*
X18428571Y-119133390D01*
X18428571Y-119133390D02*
X18523809Y-119085771D01*
X18523809Y-119085771D02*
X18761904Y-119085771D01*
X18761904Y-119085771D02*
X18857142Y-119133390D01*
X18857142Y-119133390D02*
X18904761Y-119181009D01*
X18904761Y-119181009D02*
X18952380Y-119276247D01*
X18952380Y-119276247D02*
X18952380Y-119514342D01*
X18952380Y-119514342D02*
X18904761Y-119609580D01*
X18904761Y-119609580D02*
X18857142Y-119657200D01*
X18857142Y-119657200D02*
X18761904Y-119704819D01*
X18761904Y-119704819D02*
X18523809Y-119704819D01*
X18523809Y-119704819D02*
X18428571Y-119657200D01*
X18428571Y-119657200D02*
X18380952Y-119609580D01*
X19238095Y-118704819D02*
X19571428Y-119704819D01*
X19571428Y-119704819D02*
X19904761Y-118704819D01*
X16000000Y-126573866D02*
X16761905Y-126573866D01*
X16380952Y-126954819D02*
X16380952Y-126192914D01*
X17142857Y-125954819D02*
X17761904Y-125954819D01*
X17761904Y-125954819D02*
X17428571Y-126335771D01*
X17428571Y-126335771D02*
X17571428Y-126335771D01*
X17571428Y-126335771D02*
X17666666Y-126383390D01*
X17666666Y-126383390D02*
X17714285Y-126431009D01*
X17714285Y-126431009D02*
X17761904Y-126526247D01*
X17761904Y-126526247D02*
X17761904Y-126764342D01*
X17761904Y-126764342D02*
X17714285Y-126859580D01*
X17714285Y-126859580D02*
X17666666Y-126907200D01*
X17666666Y-126907200D02*
X17571428Y-126954819D01*
X17571428Y-126954819D02*
X17285714Y-126954819D01*
X17285714Y-126954819D02*
X17190476Y-126907200D01*
X17190476Y-126907200D02*
X17142857Y-126859580D01*
X18190476Y-126859580D02*
X18238095Y-126907200D01*
X18238095Y-126907200D02*
X18190476Y-126954819D01*
X18190476Y-126954819D02*
X18142857Y-126907200D01*
X18142857Y-126907200D02*
X18190476Y-126859580D01*
X18190476Y-126859580D02*
X18190476Y-126954819D01*
X18571428Y-125954819D02*
X19190475Y-125954819D01*
X19190475Y-125954819D02*
X18857142Y-126335771D01*
X18857142Y-126335771D02*
X18999999Y-126335771D01*
X18999999Y-126335771D02*
X19095237Y-126383390D01*
X19095237Y-126383390D02*
X19142856Y-126431009D01*
X19142856Y-126431009D02*
X19190475Y-126526247D01*
X19190475Y-126526247D02*
X19190475Y-126764342D01*
X19190475Y-126764342D02*
X19142856Y-126859580D01*
X19142856Y-126859580D02*
X19095237Y-126907200D01*
X19095237Y-126907200D02*
X18999999Y-126954819D01*
X18999999Y-126954819D02*
X18714285Y-126954819D01*
X18714285Y-126954819D02*
X18619047Y-126907200D01*
X18619047Y-126907200D02*
X18571428Y-126859580D01*
X19476190Y-125954819D02*
X19809523Y-126954819D01*
X19809523Y-126954819D02*
X20142856Y-125954819D01*
X74380952Y-79204819D02*
X74571428Y-79204819D01*
X74571428Y-79204819D02*
X74666666Y-79252438D01*
X74666666Y-79252438D02*
X74761904Y-79347676D01*
X74761904Y-79347676D02*
X74809523Y-79538152D01*
X74809523Y-79538152D02*
X74809523Y-79871485D01*
X74809523Y-79871485D02*
X74761904Y-80061961D01*
X74761904Y-80061961D02*
X74666666Y-80157200D01*
X74666666Y-80157200D02*
X74571428Y-80204819D01*
X74571428Y-80204819D02*
X74380952Y-80204819D01*
X74380952Y-80204819D02*
X74285714Y-80157200D01*
X74285714Y-80157200D02*
X74190476Y-80061961D01*
X74190476Y-80061961D02*
X74142857Y-79871485D01*
X74142857Y-79871485D02*
X74142857Y-79538152D01*
X74142857Y-79538152D02*
X74190476Y-79347676D01*
X74190476Y-79347676D02*
X74285714Y-79252438D01*
X74285714Y-79252438D02*
X74380952Y-79204819D01*
X75238095Y-80204819D02*
X75238095Y-79204819D01*
X75238095Y-79204819D02*
X75809523Y-80204819D01*
X75809523Y-80204819D02*
X75809523Y-79204819D01*
X74297619Y-77454819D02*
X74488095Y-77454819D01*
X74488095Y-77454819D02*
X74583333Y-77502438D01*
X74583333Y-77502438D02*
X74678571Y-77597676D01*
X74678571Y-77597676D02*
X74726190Y-77788152D01*
X74726190Y-77788152D02*
X74726190Y-78121485D01*
X74726190Y-78121485D02*
X74678571Y-78311961D01*
X74678571Y-78311961D02*
X74583333Y-78407200D01*
X74583333Y-78407200D02*
X74488095Y-78454819D01*
X74488095Y-78454819D02*
X74297619Y-78454819D01*
X74297619Y-78454819D02*
X74202381Y-78407200D01*
X74202381Y-78407200D02*
X74107143Y-78311961D01*
X74107143Y-78311961D02*
X74059524Y-78121485D01*
X74059524Y-78121485D02*
X74059524Y-77788152D01*
X74059524Y-77788152D02*
X74107143Y-77597676D01*
X74107143Y-77597676D02*
X74202381Y-77502438D01*
X74202381Y-77502438D02*
X74297619Y-77454819D01*
X75488095Y-77931009D02*
X75154762Y-77931009D01*
X75154762Y-78454819D02*
X75154762Y-77454819D01*
X75154762Y-77454819D02*
X75630952Y-77454819D01*
X76345238Y-77931009D02*
X76011905Y-77931009D01*
X76011905Y-78454819D02*
X76011905Y-77454819D01*
X76011905Y-77454819D02*
X76488095Y-77454819D01*
X74630952Y-97704819D02*
X74821428Y-97704819D01*
X74821428Y-97704819D02*
X74916666Y-97752438D01*
X74916666Y-97752438D02*
X75011904Y-97847676D01*
X75011904Y-97847676D02*
X75059523Y-98038152D01*
X75059523Y-98038152D02*
X75059523Y-98371485D01*
X75059523Y-98371485D02*
X75011904Y-98561961D01*
X75011904Y-98561961D02*
X74916666Y-98657200D01*
X74916666Y-98657200D02*
X74821428Y-98704819D01*
X74821428Y-98704819D02*
X74630952Y-98704819D01*
X74630952Y-98704819D02*
X74535714Y-98657200D01*
X74535714Y-98657200D02*
X74440476Y-98561961D01*
X74440476Y-98561961D02*
X74392857Y-98371485D01*
X74392857Y-98371485D02*
X74392857Y-98038152D01*
X74392857Y-98038152D02*
X74440476Y-97847676D01*
X74440476Y-97847676D02*
X74535714Y-97752438D01*
X74535714Y-97752438D02*
X74630952Y-97704819D01*
X75488095Y-98704819D02*
X75488095Y-97704819D01*
X75488095Y-97704819D02*
X76059523Y-98704819D01*
X76059523Y-98704819D02*
X76059523Y-97704819D01*
X74630952Y-116204819D02*
X74821428Y-116204819D01*
X74821428Y-116204819D02*
X74916666Y-116252438D01*
X74916666Y-116252438D02*
X75011904Y-116347676D01*
X75011904Y-116347676D02*
X75059523Y-116538152D01*
X75059523Y-116538152D02*
X75059523Y-116871485D01*
X75059523Y-116871485D02*
X75011904Y-117061961D01*
X75011904Y-117061961D02*
X74916666Y-117157200D01*
X74916666Y-117157200D02*
X74821428Y-117204819D01*
X74821428Y-117204819D02*
X74630952Y-117204819D01*
X74630952Y-117204819D02*
X74535714Y-117157200D01*
X74535714Y-117157200D02*
X74440476Y-117061961D01*
X74440476Y-117061961D02*
X74392857Y-116871485D01*
X74392857Y-116871485D02*
X74392857Y-116538152D01*
X74392857Y-116538152D02*
X74440476Y-116347676D01*
X74440476Y-116347676D02*
X74535714Y-116252438D01*
X74535714Y-116252438D02*
X74630952Y-116204819D01*
X75488095Y-117204819D02*
X75488095Y-116204819D01*
X75488095Y-116204819D02*
X76059523Y-117204819D01*
X76059523Y-117204819D02*
X76059523Y-116204819D01*
X74630952Y-134704819D02*
X74821428Y-134704819D01*
X74821428Y-134704819D02*
X74916666Y-134752438D01*
X74916666Y-134752438D02*
X75011904Y-134847676D01*
X75011904Y-134847676D02*
X75059523Y-135038152D01*
X75059523Y-135038152D02*
X75059523Y-135371485D01*
X75059523Y-135371485D02*
X75011904Y-135561961D01*
X75011904Y-135561961D02*
X74916666Y-135657200D01*
X74916666Y-135657200D02*
X74821428Y-135704819D01*
X74821428Y-135704819D02*
X74630952Y-135704819D01*
X74630952Y-135704819D02*
X74535714Y-135657200D01*
X74535714Y-135657200D02*
X74440476Y-135561961D01*
X74440476Y-135561961D02*
X74392857Y-135371485D01*
X74392857Y-135371485D02*
X74392857Y-135038152D01*
X74392857Y-135038152D02*
X74440476Y-134847676D01*
X74440476Y-134847676D02*
X74535714Y-134752438D01*
X74535714Y-134752438D02*
X74630952Y-134704819D01*
X75488095Y-135704819D02*
X75488095Y-134704819D01*
X75488095Y-134704819D02*
X76059523Y-135704819D01*
X76059523Y-135704819D02*
X76059523Y-134704819D01*
X74547619Y-95954819D02*
X74738095Y-95954819D01*
X74738095Y-95954819D02*
X74833333Y-96002438D01*
X74833333Y-96002438D02*
X74928571Y-96097676D01*
X74928571Y-96097676D02*
X74976190Y-96288152D01*
X74976190Y-96288152D02*
X74976190Y-96621485D01*
X74976190Y-96621485D02*
X74928571Y-96811961D01*
X74928571Y-96811961D02*
X74833333Y-96907200D01*
X74833333Y-96907200D02*
X74738095Y-96954819D01*
X74738095Y-96954819D02*
X74547619Y-96954819D01*
X74547619Y-96954819D02*
X74452381Y-96907200D01*
X74452381Y-96907200D02*
X74357143Y-96811961D01*
X74357143Y-96811961D02*
X74309524Y-96621485D01*
X74309524Y-96621485D02*
X74309524Y-96288152D01*
X74309524Y-96288152D02*
X74357143Y-96097676D01*
X74357143Y-96097676D02*
X74452381Y-96002438D01*
X74452381Y-96002438D02*
X74547619Y-95954819D01*
X75738095Y-96431009D02*
X75404762Y-96431009D01*
X75404762Y-96954819D02*
X75404762Y-95954819D01*
X75404762Y-95954819D02*
X75880952Y-95954819D01*
X76595238Y-96431009D02*
X76261905Y-96431009D01*
X76261905Y-96954819D02*
X76261905Y-95954819D01*
X76261905Y-95954819D02*
X76738095Y-95954819D01*
X74547619Y-114454819D02*
X74738095Y-114454819D01*
X74738095Y-114454819D02*
X74833333Y-114502438D01*
X74833333Y-114502438D02*
X74928571Y-114597676D01*
X74928571Y-114597676D02*
X74976190Y-114788152D01*
X74976190Y-114788152D02*
X74976190Y-115121485D01*
X74976190Y-115121485D02*
X74928571Y-115311961D01*
X74928571Y-115311961D02*
X74833333Y-115407200D01*
X74833333Y-115407200D02*
X74738095Y-115454819D01*
X74738095Y-115454819D02*
X74547619Y-115454819D01*
X74547619Y-115454819D02*
X74452381Y-115407200D01*
X74452381Y-115407200D02*
X74357143Y-115311961D01*
X74357143Y-115311961D02*
X74309524Y-115121485D01*
X74309524Y-115121485D02*
X74309524Y-114788152D01*
X74309524Y-114788152D02*
X74357143Y-114597676D01*
X74357143Y-114597676D02*
X74452381Y-114502438D01*
X74452381Y-114502438D02*
X74547619Y-114454819D01*
X75738095Y-114931009D02*
X75404762Y-114931009D01*
X75404762Y-115454819D02*
X75404762Y-114454819D01*
X75404762Y-114454819D02*
X75880952Y-114454819D01*
X76595238Y-114931009D02*
X76261905Y-114931009D01*
X76261905Y-115454819D02*
X76261905Y-114454819D01*
X76261905Y-114454819D02*
X76738095Y-114454819D01*
X74547619Y-132954819D02*
X74738095Y-132954819D01*
X74738095Y-132954819D02*
X74833333Y-133002438D01*
X74833333Y-133002438D02*
X74928571Y-133097676D01*
X74928571Y-133097676D02*
X74976190Y-133288152D01*
X74976190Y-133288152D02*
X74976190Y-133621485D01*
X74976190Y-133621485D02*
X74928571Y-133811961D01*
X74928571Y-133811961D02*
X74833333Y-133907200D01*
X74833333Y-133907200D02*
X74738095Y-133954819D01*
X74738095Y-133954819D02*
X74547619Y-133954819D01*
X74547619Y-133954819D02*
X74452381Y-133907200D01*
X74452381Y-133907200D02*
X74357143Y-133811961D01*
X74357143Y-133811961D02*
X74309524Y-133621485D01*
X74309524Y-133621485D02*
X74309524Y-133288152D01*
X74309524Y-133288152D02*
X74357143Y-133097676D01*
X74357143Y-133097676D02*
X74452381Y-133002438D01*
X74452381Y-133002438D02*
X74547619Y-132954819D01*
X75738095Y-133431009D02*
X75404762Y-133431009D01*
X75404762Y-133954819D02*
X75404762Y-132954819D01*
X75404762Y-132954819D02*
X75880952Y-132954819D01*
X76595238Y-133431009D02*
X76261905Y-133431009D01*
X76261905Y-133954819D02*
X76261905Y-132954819D01*
X76261905Y-132954819D02*
X76738095Y-132954819D01*
X45681009Y-80829887D02*
X45681009Y-81163220D01*
X46204819Y-81163220D02*
X45204819Y-81163220D01*
X45204819Y-81163220D02*
X45204819Y-80687030D01*
X46204819Y-79829887D02*
X46204819Y-80306077D01*
X46204819Y-80306077D02*
X45204819Y-80306077D01*
X45204819Y-79639410D02*
X45204819Y-79067982D01*
X46204819Y-79353696D02*
X45204819Y-79353696D01*
X45681009Y-99329887D02*
X45681009Y-99663220D01*
X46204819Y-99663220D02*
X45204819Y-99663220D01*
X45204819Y-99663220D02*
X45204819Y-99187030D01*
X46204819Y-98329887D02*
X46204819Y-98806077D01*
X46204819Y-98806077D02*
X45204819Y-98806077D01*
X45204819Y-98139410D02*
X45204819Y-97567982D01*
X46204819Y-97853696D02*
X45204819Y-97853696D01*
X45681009Y-117579887D02*
X45681009Y-117913220D01*
X46204819Y-117913220D02*
X45204819Y-117913220D01*
X45204819Y-117913220D02*
X45204819Y-117437030D01*
X46204819Y-116579887D02*
X46204819Y-117056077D01*
X46204819Y-117056077D02*
X45204819Y-117056077D01*
X45204819Y-116389410D02*
X45204819Y-115817982D01*
X46204819Y-116103696D02*
X45204819Y-116103696D01*
X45681009Y-136079887D02*
X45681009Y-136413220D01*
X46204819Y-136413220D02*
X45204819Y-136413220D01*
X45204819Y-136413220D02*
X45204819Y-135937030D01*
X46204819Y-135079887D02*
X46204819Y-135556077D01*
X46204819Y-135556077D02*
X45204819Y-135556077D01*
X45204819Y-134889410D02*
X45204819Y-134317982D01*
X46204819Y-134603696D02*
X45204819Y-134603696D01*
X48454819Y-80591792D02*
X47978628Y-80925125D01*
X48454819Y-81163220D02*
X47454819Y-81163220D01*
X47454819Y-81163220D02*
X47454819Y-80782268D01*
X47454819Y-80782268D02*
X47502438Y-80687030D01*
X47502438Y-80687030D02*
X47550057Y-80639411D01*
X47550057Y-80639411D02*
X47645295Y-80591792D01*
X47645295Y-80591792D02*
X47788152Y-80591792D01*
X47788152Y-80591792D02*
X47883390Y-80639411D01*
X47883390Y-80639411D02*
X47931009Y-80687030D01*
X47931009Y-80687030D02*
X47978628Y-80782268D01*
X47978628Y-80782268D02*
X47978628Y-81163220D01*
X48454819Y-80163220D02*
X47454819Y-80163220D01*
X47454819Y-80163220D02*
X47454819Y-79925125D01*
X47454819Y-79925125D02*
X47502438Y-79782268D01*
X47502438Y-79782268D02*
X47597676Y-79687030D01*
X47597676Y-79687030D02*
X47692914Y-79639411D01*
X47692914Y-79639411D02*
X47883390Y-79591792D01*
X47883390Y-79591792D02*
X48026247Y-79591792D01*
X48026247Y-79591792D02*
X48216723Y-79639411D01*
X48216723Y-79639411D02*
X48311961Y-79687030D01*
X48311961Y-79687030D02*
X48407200Y-79782268D01*
X48407200Y-79782268D02*
X48454819Y-79925125D01*
X48454819Y-79925125D02*
X48454819Y-80163220D01*
X47978628Y-78972744D02*
X48454819Y-78972744D01*
X47454819Y-79306077D02*
X47978628Y-78972744D01*
X47978628Y-78972744D02*
X47454819Y-78639411D01*
X48454819Y-99091792D02*
X47978628Y-99425125D01*
X48454819Y-99663220D02*
X47454819Y-99663220D01*
X47454819Y-99663220D02*
X47454819Y-99282268D01*
X47454819Y-99282268D02*
X47502438Y-99187030D01*
X47502438Y-99187030D02*
X47550057Y-99139411D01*
X47550057Y-99139411D02*
X47645295Y-99091792D01*
X47645295Y-99091792D02*
X47788152Y-99091792D01*
X47788152Y-99091792D02*
X47883390Y-99139411D01*
X47883390Y-99139411D02*
X47931009Y-99187030D01*
X47931009Y-99187030D02*
X47978628Y-99282268D01*
X47978628Y-99282268D02*
X47978628Y-99663220D01*
X48454819Y-98663220D02*
X47454819Y-98663220D01*
X47454819Y-98663220D02*
X47454819Y-98425125D01*
X47454819Y-98425125D02*
X47502438Y-98282268D01*
X47502438Y-98282268D02*
X47597676Y-98187030D01*
X47597676Y-98187030D02*
X47692914Y-98139411D01*
X47692914Y-98139411D02*
X47883390Y-98091792D01*
X47883390Y-98091792D02*
X48026247Y-98091792D01*
X48026247Y-98091792D02*
X48216723Y-98139411D01*
X48216723Y-98139411D02*
X48311961Y-98187030D01*
X48311961Y-98187030D02*
X48407200Y-98282268D01*
X48407200Y-98282268D02*
X48454819Y-98425125D01*
X48454819Y-98425125D02*
X48454819Y-98663220D01*
X47978628Y-97472744D02*
X48454819Y-97472744D01*
X47454819Y-97806077D02*
X47978628Y-97472744D01*
X47978628Y-97472744D02*
X47454819Y-97139411D01*
X48454819Y-117341792D02*
X47978628Y-117675125D01*
X48454819Y-117913220D02*
X47454819Y-117913220D01*
X47454819Y-117913220D02*
X47454819Y-117532268D01*
X47454819Y-117532268D02*
X47502438Y-117437030D01*
X47502438Y-117437030D02*
X47550057Y-117389411D01*
X47550057Y-117389411D02*
X47645295Y-117341792D01*
X47645295Y-117341792D02*
X47788152Y-117341792D01*
X47788152Y-117341792D02*
X47883390Y-117389411D01*
X47883390Y-117389411D02*
X47931009Y-117437030D01*
X47931009Y-117437030D02*
X47978628Y-117532268D01*
X47978628Y-117532268D02*
X47978628Y-117913220D01*
X48454819Y-116913220D02*
X47454819Y-116913220D01*
X47454819Y-116913220D02*
X47454819Y-116675125D01*
X47454819Y-116675125D02*
X47502438Y-116532268D01*
X47502438Y-116532268D02*
X47597676Y-116437030D01*
X47597676Y-116437030D02*
X47692914Y-116389411D01*
X47692914Y-116389411D02*
X47883390Y-116341792D01*
X47883390Y-116341792D02*
X48026247Y-116341792D01*
X48026247Y-116341792D02*
X48216723Y-116389411D01*
X48216723Y-116389411D02*
X48311961Y-116437030D01*
X48311961Y-116437030D02*
X48407200Y-116532268D01*
X48407200Y-116532268D02*
X48454819Y-116675125D01*
X48454819Y-116675125D02*
X48454819Y-116913220D01*
X47978628Y-115722744D02*
X48454819Y-115722744D01*
X47454819Y-116056077D02*
X47978628Y-115722744D01*
X47978628Y-115722744D02*
X47454819Y-115389411D01*
X48454819Y-135841792D02*
X47978628Y-136175125D01*
X48454819Y-136413220D02*
X47454819Y-136413220D01*
X47454819Y-136413220D02*
X47454819Y-136032268D01*
X47454819Y-136032268D02*
X47502438Y-135937030D01*
X47502438Y-135937030D02*
X47550057Y-135889411D01*
X47550057Y-135889411D02*
X47645295Y-135841792D01*
X47645295Y-135841792D02*
X47788152Y-135841792D01*
X47788152Y-135841792D02*
X47883390Y-135889411D01*
X47883390Y-135889411D02*
X47931009Y-135937030D01*
X47931009Y-135937030D02*
X47978628Y-136032268D01*
X47978628Y-136032268D02*
X47978628Y-136413220D01*
X48454819Y-135413220D02*
X47454819Y-135413220D01*
X47454819Y-135413220D02*
X47454819Y-135175125D01*
X47454819Y-135175125D02*
X47502438Y-135032268D01*
X47502438Y-135032268D02*
X47597676Y-134937030D01*
X47597676Y-134937030D02*
X47692914Y-134889411D01*
X47692914Y-134889411D02*
X47883390Y-134841792D01*
X47883390Y-134841792D02*
X48026247Y-134841792D01*
X48026247Y-134841792D02*
X48216723Y-134889411D01*
X48216723Y-134889411D02*
X48311961Y-134937030D01*
X48311961Y-134937030D02*
X48407200Y-135032268D01*
X48407200Y-135032268D02*
X48454819Y-135175125D01*
X48454819Y-135175125D02*
X48454819Y-135413220D01*
X47978628Y-134222744D02*
X48454819Y-134222744D01*
X47454819Y-134556077D02*
X47978628Y-134222744D01*
X47978628Y-134222744D02*
X47454819Y-133889411D01*
D13*
X26142857Y-140973470D02*
X26142857Y-139473470D01*
X26142857Y-139473470D02*
X26714286Y-139473470D01*
X26714286Y-139473470D02*
X26857143Y-139544899D01*
X26857143Y-139544899D02*
X26928572Y-139616327D01*
X26928572Y-139616327D02*
X27000000Y-139759184D01*
X27000000Y-139759184D02*
X27000000Y-139973470D01*
X27000000Y-139973470D02*
X26928572Y-140116327D01*
X26928572Y-140116327D02*
X26857143Y-140187756D01*
X26857143Y-140187756D02*
X26714286Y-140259184D01*
X26714286Y-140259184D02*
X26142857Y-140259184D01*
X27571429Y-140902042D02*
X27785715Y-140973470D01*
X27785715Y-140973470D02*
X28142857Y-140973470D01*
X28142857Y-140973470D02*
X28285715Y-140902042D01*
X28285715Y-140902042D02*
X28357143Y-140830613D01*
X28357143Y-140830613D02*
X28428572Y-140687756D01*
X28428572Y-140687756D02*
X28428572Y-140544899D01*
X28428572Y-140544899D02*
X28357143Y-140402042D01*
X28357143Y-140402042D02*
X28285715Y-140330613D01*
X28285715Y-140330613D02*
X28142857Y-140259184D01*
X28142857Y-140259184D02*
X27857143Y-140187756D01*
X27857143Y-140187756D02*
X27714286Y-140116327D01*
X27714286Y-140116327D02*
X27642857Y-140044899D01*
X27642857Y-140044899D02*
X27571429Y-139902042D01*
X27571429Y-139902042D02*
X27571429Y-139759184D01*
X27571429Y-139759184D02*
X27642857Y-139616327D01*
X27642857Y-139616327D02*
X27714286Y-139544899D01*
X27714286Y-139544899D02*
X27857143Y-139473470D01*
X27857143Y-139473470D02*
X28214286Y-139473470D01*
X28214286Y-139473470D02*
X28428572Y-139544899D01*
X29571428Y-140187756D02*
X29071428Y-140187756D01*
X29071428Y-140973470D02*
X29071428Y-139473470D01*
X29071428Y-139473470D02*
X29785714Y-139473470D01*
X30857142Y-140187756D02*
X31071428Y-140259184D01*
X31071428Y-140259184D02*
X31142857Y-140330613D01*
X31142857Y-140330613D02*
X31214285Y-140473470D01*
X31214285Y-140473470D02*
X31214285Y-140687756D01*
X31214285Y-140687756D02*
X31142857Y-140830613D01*
X31142857Y-140830613D02*
X31071428Y-140902042D01*
X31071428Y-140902042D02*
X30928571Y-140973470D01*
X30928571Y-140973470D02*
X30357142Y-140973470D01*
X30357142Y-140973470D02*
X30357142Y-139473470D01*
X30357142Y-139473470D02*
X30857142Y-139473470D01*
X30857142Y-139473470D02*
X31000000Y-139544899D01*
X31000000Y-139544899D02*
X31071428Y-139616327D01*
X31071428Y-139616327D02*
X31142857Y-139759184D01*
X31142857Y-139759184D02*
X31142857Y-139902042D01*
X31142857Y-139902042D02*
X31071428Y-140044899D01*
X31071428Y-140044899D02*
X31000000Y-140116327D01*
X31000000Y-140116327D02*
X30857142Y-140187756D01*
X30857142Y-140187756D02*
X30357142Y-140187756D01*
X32999999Y-140973470D02*
X32999999Y-139473470D01*
X32999999Y-139473470D02*
X33571428Y-139473470D01*
X33571428Y-139473470D02*
X33714285Y-139544899D01*
X33714285Y-139544899D02*
X33785714Y-139616327D01*
X33785714Y-139616327D02*
X33857142Y-139759184D01*
X33857142Y-139759184D02*
X33857142Y-139973470D01*
X33857142Y-139973470D02*
X33785714Y-140116327D01*
X33785714Y-140116327D02*
X33714285Y-140187756D01*
X33714285Y-140187756D02*
X33571428Y-140259184D01*
X33571428Y-140259184D02*
X32999999Y-140259184D01*
X34499999Y-140973470D02*
X34499999Y-139973470D01*
X34499999Y-140259184D02*
X34571428Y-140116327D01*
X34571428Y-140116327D02*
X34642857Y-140044899D01*
X34642857Y-140044899D02*
X34785714Y-139973470D01*
X34785714Y-139973470D02*
X34928571Y-139973470D01*
X35428570Y-140973470D02*
X35428570Y-139973470D01*
X35428570Y-139473470D02*
X35357142Y-139544899D01*
X35357142Y-139544899D02*
X35428570Y-139616327D01*
X35428570Y-139616327D02*
X35499999Y-139544899D01*
X35499999Y-139544899D02*
X35428570Y-139473470D01*
X35428570Y-139473470D02*
X35428570Y-139616327D01*
X36142856Y-140973470D02*
X36142856Y-139973470D01*
X36142856Y-140116327D02*
X36214285Y-140044899D01*
X36214285Y-140044899D02*
X36357142Y-139973470D01*
X36357142Y-139973470D02*
X36571428Y-139973470D01*
X36571428Y-139973470D02*
X36714285Y-140044899D01*
X36714285Y-140044899D02*
X36785714Y-140187756D01*
X36785714Y-140187756D02*
X36785714Y-140973470D01*
X36785714Y-140187756D02*
X36857142Y-140044899D01*
X36857142Y-140044899D02*
X36999999Y-139973470D01*
X36999999Y-139973470D02*
X37214285Y-139973470D01*
X37214285Y-139973470D02*
X37357142Y-140044899D01*
X37357142Y-140044899D02*
X37428571Y-140187756D01*
X37428571Y-140187756D02*
X37428571Y-140973470D01*
X38785714Y-140973470D02*
X38785714Y-140187756D01*
X38785714Y-140187756D02*
X38714285Y-140044899D01*
X38714285Y-140044899D02*
X38571428Y-139973470D01*
X38571428Y-139973470D02*
X38285714Y-139973470D01*
X38285714Y-139973470D02*
X38142856Y-140044899D01*
X38785714Y-140902042D02*
X38642856Y-140973470D01*
X38642856Y-140973470D02*
X38285714Y-140973470D01*
X38285714Y-140973470D02*
X38142856Y-140902042D01*
X38142856Y-140902042D02*
X38071428Y-140759184D01*
X38071428Y-140759184D02*
X38071428Y-140616327D01*
X38071428Y-140616327D02*
X38142856Y-140473470D01*
X38142856Y-140473470D02*
X38285714Y-140402042D01*
X38285714Y-140402042D02*
X38642856Y-140402042D01*
X38642856Y-140402042D02*
X38785714Y-140330613D01*
X39499999Y-140973470D02*
X39499999Y-139973470D01*
X39499999Y-140259184D02*
X39571428Y-140116327D01*
X39571428Y-140116327D02*
X39642857Y-140044899D01*
X39642857Y-140044899D02*
X39785714Y-139973470D01*
X39785714Y-139973470D02*
X39928571Y-139973470D01*
X40285713Y-139973470D02*
X40642856Y-140973470D01*
X40999999Y-139973470D02*
X40642856Y-140973470D01*
X40642856Y-140973470D02*
X40499999Y-141330613D01*
X40499999Y-141330613D02*
X40428570Y-141402042D01*
X40428570Y-141402042D02*
X40285713Y-141473470D01*
X28250001Y-143316958D02*
X28464287Y-143388386D01*
X28464287Y-143388386D02*
X28821429Y-143388386D01*
X28821429Y-143388386D02*
X28964287Y-143316958D01*
X28964287Y-143316958D02*
X29035715Y-143245529D01*
X29035715Y-143245529D02*
X29107144Y-143102672D01*
X29107144Y-143102672D02*
X29107144Y-142959815D01*
X29107144Y-142959815D02*
X29035715Y-142816958D01*
X29035715Y-142816958D02*
X28964287Y-142745529D01*
X28964287Y-142745529D02*
X28821429Y-142674100D01*
X28821429Y-142674100D02*
X28535715Y-142602672D01*
X28535715Y-142602672D02*
X28392858Y-142531243D01*
X28392858Y-142531243D02*
X28321429Y-142459815D01*
X28321429Y-142459815D02*
X28250001Y-142316958D01*
X28250001Y-142316958D02*
X28250001Y-142174100D01*
X28250001Y-142174100D02*
X28321429Y-142031243D01*
X28321429Y-142031243D02*
X28392858Y-141959815D01*
X28392858Y-141959815D02*
X28535715Y-141888386D01*
X28535715Y-141888386D02*
X28892858Y-141888386D01*
X28892858Y-141888386D02*
X29107144Y-141959815D01*
X29607143Y-142388386D02*
X29964286Y-143388386D01*
X30321429Y-142388386D02*
X29964286Y-143388386D01*
X29964286Y-143388386D02*
X29821429Y-143745529D01*
X29821429Y-143745529D02*
X29750000Y-143816958D01*
X29750000Y-143816958D02*
X29607143Y-143888386D01*
X31535715Y-143388386D02*
X31535715Y-141888386D01*
X31535715Y-143316958D02*
X31392857Y-143388386D01*
X31392857Y-143388386D02*
X31107143Y-143388386D01*
X31107143Y-143388386D02*
X30964286Y-143316958D01*
X30964286Y-143316958D02*
X30892857Y-143245529D01*
X30892857Y-143245529D02*
X30821429Y-143102672D01*
X30821429Y-143102672D02*
X30821429Y-142674100D01*
X30821429Y-142674100D02*
X30892857Y-142531243D01*
X30892857Y-142531243D02*
X30964286Y-142459815D01*
X30964286Y-142459815D02*
X31107143Y-142388386D01*
X31107143Y-142388386D02*
X31392857Y-142388386D01*
X31392857Y-142388386D02*
X31535715Y-142459815D01*
X32821429Y-143316958D02*
X32678572Y-143388386D01*
X32678572Y-143388386D02*
X32392858Y-143388386D01*
X32392858Y-143388386D02*
X32250000Y-143316958D01*
X32250000Y-143316958D02*
X32178572Y-143174100D01*
X32178572Y-143174100D02*
X32178572Y-142602672D01*
X32178572Y-142602672D02*
X32250000Y-142459815D01*
X32250000Y-142459815D02*
X32392858Y-142388386D01*
X32392858Y-142388386D02*
X32678572Y-142388386D01*
X32678572Y-142388386D02*
X32821429Y-142459815D01*
X32821429Y-142459815D02*
X32892858Y-142602672D01*
X32892858Y-142602672D02*
X32892858Y-142745529D01*
X32892858Y-142745529D02*
X32178572Y-142888386D01*
X34535714Y-142388386D02*
X34892857Y-143388386D01*
X34892857Y-143388386D02*
X35250000Y-142388386D01*
X36607143Y-143388386D02*
X35750000Y-143388386D01*
X36178571Y-143388386D02*
X36178571Y-141888386D01*
X36178571Y-141888386D02*
X36035714Y-142102672D01*
X36035714Y-142102672D02*
X35892857Y-142245529D01*
X35892857Y-142245529D02*
X35750000Y-142316958D01*
X37249999Y-143245529D02*
X37321428Y-143316958D01*
X37321428Y-143316958D02*
X37249999Y-143388386D01*
X37249999Y-143388386D02*
X37178571Y-143316958D01*
X37178571Y-143316958D02*
X37249999Y-143245529D01*
X37249999Y-143245529D02*
X37249999Y-143388386D01*
X38250000Y-141888386D02*
X38392857Y-141888386D01*
X38392857Y-141888386D02*
X38535714Y-141959815D01*
X38535714Y-141959815D02*
X38607143Y-142031243D01*
X38607143Y-142031243D02*
X38678571Y-142174100D01*
X38678571Y-142174100D02*
X38750000Y-142459815D01*
X38750000Y-142459815D02*
X38750000Y-142816958D01*
X38750000Y-142816958D02*
X38678571Y-143102672D01*
X38678571Y-143102672D02*
X38607143Y-143245529D01*
X38607143Y-143245529D02*
X38535714Y-143316958D01*
X38535714Y-143316958D02*
X38392857Y-143388386D01*
X38392857Y-143388386D02*
X38250000Y-143388386D01*
X38250000Y-143388386D02*
X38107143Y-143316958D01*
X38107143Y-143316958D02*
X38035714Y-143245529D01*
X38035714Y-143245529D02*
X37964285Y-143102672D01*
X37964285Y-143102672D02*
X37892857Y-142816958D01*
X37892857Y-142816958D02*
X37892857Y-142459815D01*
X37892857Y-142459815D02*
X37964285Y-142174100D01*
X37964285Y-142174100D02*
X38035714Y-142031243D01*
X38035714Y-142031243D02*
X38107143Y-141959815D01*
X38107143Y-141959815D02*
X38250000Y-141888386D01*
D10*
X122797618Y-100159638D02*
X123178571Y-100159638D01*
X123178571Y-100159638D02*
X123369047Y-100254876D01*
X123369047Y-100254876D02*
X123559523Y-100445352D01*
X123559523Y-100445352D02*
X123654761Y-100826304D01*
X123654761Y-100826304D02*
X123654761Y-101492971D01*
X123654761Y-101492971D02*
X123559523Y-101873923D01*
X123559523Y-101873923D02*
X123369047Y-102064400D01*
X123369047Y-102064400D02*
X123178571Y-102159638D01*
X123178571Y-102159638D02*
X122797618Y-102159638D01*
X122797618Y-102159638D02*
X122607142Y-102064400D01*
X122607142Y-102064400D02*
X122416666Y-101873923D01*
X122416666Y-101873923D02*
X122321428Y-101492971D01*
X122321428Y-101492971D02*
X122321428Y-100826304D01*
X122321428Y-100826304D02*
X122416666Y-100445352D01*
X122416666Y-100445352D02*
X122607142Y-100254876D01*
X122607142Y-100254876D02*
X122797618Y-100159638D01*
X124511904Y-100159638D02*
X124511904Y-101778685D01*
X124511904Y-101778685D02*
X124607142Y-101969161D01*
X124607142Y-101969161D02*
X124702380Y-102064400D01*
X124702380Y-102064400D02*
X124892856Y-102159638D01*
X124892856Y-102159638D02*
X125273809Y-102159638D01*
X125273809Y-102159638D02*
X125464285Y-102064400D01*
X125464285Y-102064400D02*
X125559523Y-101969161D01*
X125559523Y-101969161D02*
X125654761Y-101778685D01*
X125654761Y-101778685D02*
X125654761Y-100159638D01*
X126321428Y-100159638D02*
X127464285Y-100159638D01*
X126892856Y-102159638D02*
X126892856Y-100159638D01*
X129178571Y-102159638D02*
X128035714Y-102159638D01*
X128607142Y-102159638D02*
X128607142Y-100159638D01*
X128607142Y-100159638D02*
X128416666Y-100445352D01*
X128416666Y-100445352D02*
X128226190Y-100635828D01*
X128226190Y-100635828D02*
X128035714Y-100731066D01*
X123047618Y-114659638D02*
X123428571Y-114659638D01*
X123428571Y-114659638D02*
X123619047Y-114754876D01*
X123619047Y-114754876D02*
X123809523Y-114945352D01*
X123809523Y-114945352D02*
X123904761Y-115326304D01*
X123904761Y-115326304D02*
X123904761Y-115992971D01*
X123904761Y-115992971D02*
X123809523Y-116373923D01*
X123809523Y-116373923D02*
X123619047Y-116564400D01*
X123619047Y-116564400D02*
X123428571Y-116659638D01*
X123428571Y-116659638D02*
X123047618Y-116659638D01*
X123047618Y-116659638D02*
X122857142Y-116564400D01*
X122857142Y-116564400D02*
X122666666Y-116373923D01*
X122666666Y-116373923D02*
X122571428Y-115992971D01*
X122571428Y-115992971D02*
X122571428Y-115326304D01*
X122571428Y-115326304D02*
X122666666Y-114945352D01*
X122666666Y-114945352D02*
X122857142Y-114754876D01*
X122857142Y-114754876D02*
X123047618Y-114659638D01*
X124761904Y-114659638D02*
X124761904Y-116278685D01*
X124761904Y-116278685D02*
X124857142Y-116469161D01*
X124857142Y-116469161D02*
X124952380Y-116564400D01*
X124952380Y-116564400D02*
X125142856Y-116659638D01*
X125142856Y-116659638D02*
X125523809Y-116659638D01*
X125523809Y-116659638D02*
X125714285Y-116564400D01*
X125714285Y-116564400D02*
X125809523Y-116469161D01*
X125809523Y-116469161D02*
X125904761Y-116278685D01*
X125904761Y-116278685D02*
X125904761Y-114659638D01*
X126571428Y-114659638D02*
X127714285Y-114659638D01*
X127142856Y-116659638D02*
X127142856Y-114659638D01*
X128285714Y-114850114D02*
X128380952Y-114754876D01*
X128380952Y-114754876D02*
X128571428Y-114659638D01*
X128571428Y-114659638D02*
X129047619Y-114659638D01*
X129047619Y-114659638D02*
X129238095Y-114754876D01*
X129238095Y-114754876D02*
X129333333Y-114850114D01*
X129333333Y-114850114D02*
X129428571Y-115040590D01*
X129428571Y-115040590D02*
X129428571Y-115231066D01*
X129428571Y-115231066D02*
X129333333Y-115516780D01*
X129333333Y-115516780D02*
X128190476Y-116659638D01*
X128190476Y-116659638D02*
X129428571Y-116659638D01*
X122095238Y-130409638D02*
X122761904Y-132409638D01*
X122761904Y-132409638D02*
X123428571Y-130409638D01*
X124095238Y-132409638D02*
X124095238Y-130409638D01*
X124095238Y-130409638D02*
X124571428Y-130409638D01*
X124571428Y-130409638D02*
X124857143Y-130504876D01*
X124857143Y-130504876D02*
X125047619Y-130695352D01*
X125047619Y-130695352D02*
X125142857Y-130885828D01*
X125142857Y-130885828D02*
X125238095Y-131266780D01*
X125238095Y-131266780D02*
X125238095Y-131552495D01*
X125238095Y-131552495D02*
X125142857Y-131933447D01*
X125142857Y-131933447D02*
X125047619Y-132123923D01*
X125047619Y-132123923D02*
X124857143Y-132314400D01*
X124857143Y-132314400D02*
X124571428Y-132409638D01*
X124571428Y-132409638D02*
X124095238Y-132409638D01*
X127238095Y-132219161D02*
X127142857Y-132314400D01*
X127142857Y-132314400D02*
X126857143Y-132409638D01*
X126857143Y-132409638D02*
X126666667Y-132409638D01*
X126666667Y-132409638D02*
X126380952Y-132314400D01*
X126380952Y-132314400D02*
X126190476Y-132123923D01*
X126190476Y-132123923D02*
X126095238Y-131933447D01*
X126095238Y-131933447D02*
X126000000Y-131552495D01*
X126000000Y-131552495D02*
X126000000Y-131266780D01*
X126000000Y-131266780D02*
X126095238Y-130885828D01*
X126095238Y-130885828D02*
X126190476Y-130695352D01*
X126190476Y-130695352D02*
X126380952Y-130504876D01*
X126380952Y-130504876D02*
X126666667Y-130409638D01*
X126666667Y-130409638D02*
X126857143Y-130409638D01*
X126857143Y-130409638D02*
X127142857Y-130504876D01*
X127142857Y-130504876D02*
X127238095Y-130600114D01*
X128095238Y-131647733D02*
X129619048Y-131647733D01*
X128095238Y-87659638D02*
X128761904Y-89659638D01*
X128761904Y-89659638D02*
X129428571Y-87659638D01*
X130095238Y-89659638D02*
X130095238Y-87659638D01*
X130095238Y-87659638D02*
X130571428Y-87659638D01*
X130571428Y-87659638D02*
X130857143Y-87754876D01*
X130857143Y-87754876D02*
X131047619Y-87945352D01*
X131047619Y-87945352D02*
X131142857Y-88135828D01*
X131142857Y-88135828D02*
X131238095Y-88516780D01*
X131238095Y-88516780D02*
X131238095Y-88802495D01*
X131238095Y-88802495D02*
X131142857Y-89183447D01*
X131142857Y-89183447D02*
X131047619Y-89373923D01*
X131047619Y-89373923D02*
X130857143Y-89564400D01*
X130857143Y-89564400D02*
X130571428Y-89659638D01*
X130571428Y-89659638D02*
X130095238Y-89659638D01*
X133238095Y-89469161D02*
X133142857Y-89564400D01*
X133142857Y-89564400D02*
X132857143Y-89659638D01*
X132857143Y-89659638D02*
X132666667Y-89659638D01*
X132666667Y-89659638D02*
X132380952Y-89564400D01*
X132380952Y-89564400D02*
X132190476Y-89373923D01*
X132190476Y-89373923D02*
X132095238Y-89183447D01*
X132095238Y-89183447D02*
X132000000Y-88802495D01*
X132000000Y-88802495D02*
X132000000Y-88516780D01*
X132000000Y-88516780D02*
X132095238Y-88135828D01*
X132095238Y-88135828D02*
X132190476Y-87945352D01*
X132190476Y-87945352D02*
X132380952Y-87754876D01*
X132380952Y-87754876D02*
X132666667Y-87659638D01*
X132666667Y-87659638D02*
X132857143Y-87659638D01*
X132857143Y-87659638D02*
X133142857Y-87754876D01*
X133142857Y-87754876D02*
X133238095Y-87850114D01*
X134095238Y-88897733D02*
X135619048Y-88897733D01*
X134857143Y-89659638D02*
X134857143Y-88135828D01*
D12*
X49166666Y-74954819D02*
X49166666Y-75669104D01*
X49166666Y-75669104D02*
X49119047Y-75811961D01*
X49119047Y-75811961D02*
X49023809Y-75907200D01*
X49023809Y-75907200D02*
X48880952Y-75954819D01*
X48880952Y-75954819D02*
X48785714Y-75954819D01*
X50119047Y-74954819D02*
X49642857Y-74954819D01*
X49642857Y-74954819D02*
X49595238Y-75431009D01*
X49595238Y-75431009D02*
X49642857Y-75383390D01*
X49642857Y-75383390D02*
X49738095Y-75335771D01*
X49738095Y-75335771D02*
X49976190Y-75335771D01*
X49976190Y-75335771D02*
X50071428Y-75383390D01*
X50071428Y-75383390D02*
X50119047Y-75431009D01*
X50119047Y-75431009D02*
X50166666Y-75526247D01*
X50166666Y-75526247D02*
X50166666Y-75764342D01*
X50166666Y-75764342D02*
X50119047Y-75859580D01*
X50119047Y-75859580D02*
X50071428Y-75907200D01*
X50071428Y-75907200D02*
X49976190Y-75954819D01*
X49976190Y-75954819D02*
X49738095Y-75954819D01*
X49738095Y-75954819D02*
X49642857Y-75907200D01*
X49642857Y-75907200D02*
X49595238Y-75859580D01*
X69607142Y-127609580D02*
X69559523Y-127657200D01*
X69559523Y-127657200D02*
X69416666Y-127704819D01*
X69416666Y-127704819D02*
X69321428Y-127704819D01*
X69321428Y-127704819D02*
X69178571Y-127657200D01*
X69178571Y-127657200D02*
X69083333Y-127561961D01*
X69083333Y-127561961D02*
X69035714Y-127466723D01*
X69035714Y-127466723D02*
X68988095Y-127276247D01*
X68988095Y-127276247D02*
X68988095Y-127133390D01*
X68988095Y-127133390D02*
X69035714Y-126942914D01*
X69035714Y-126942914D02*
X69083333Y-126847676D01*
X69083333Y-126847676D02*
X69178571Y-126752438D01*
X69178571Y-126752438D02*
X69321428Y-126704819D01*
X69321428Y-126704819D02*
X69416666Y-126704819D01*
X69416666Y-126704819D02*
X69559523Y-126752438D01*
X69559523Y-126752438D02*
X69607142Y-126800057D01*
X69988095Y-126800057D02*
X70035714Y-126752438D01*
X70035714Y-126752438D02*
X70130952Y-126704819D01*
X70130952Y-126704819D02*
X70369047Y-126704819D01*
X70369047Y-126704819D02*
X70464285Y-126752438D01*
X70464285Y-126752438D02*
X70511904Y-126800057D01*
X70511904Y-126800057D02*
X70559523Y-126895295D01*
X70559523Y-126895295D02*
X70559523Y-126990533D01*
X70559523Y-126990533D02*
X70511904Y-127133390D01*
X70511904Y-127133390D02*
X69940476Y-127704819D01*
X69940476Y-127704819D02*
X70559523Y-127704819D01*
X71130952Y-127133390D02*
X71035714Y-127085771D01*
X71035714Y-127085771D02*
X70988095Y-127038152D01*
X70988095Y-127038152D02*
X70940476Y-126942914D01*
X70940476Y-126942914D02*
X70940476Y-126895295D01*
X70940476Y-126895295D02*
X70988095Y-126800057D01*
X70988095Y-126800057D02*
X71035714Y-126752438D01*
X71035714Y-126752438D02*
X71130952Y-126704819D01*
X71130952Y-126704819D02*
X71321428Y-126704819D01*
X71321428Y-126704819D02*
X71416666Y-126752438D01*
X71416666Y-126752438D02*
X71464285Y-126800057D01*
X71464285Y-126800057D02*
X71511904Y-126895295D01*
X71511904Y-126895295D02*
X71511904Y-126942914D01*
X71511904Y-126942914D02*
X71464285Y-127038152D01*
X71464285Y-127038152D02*
X71416666Y-127085771D01*
X71416666Y-127085771D02*
X71321428Y-127133390D01*
X71321428Y-127133390D02*
X71130952Y-127133390D01*
X71130952Y-127133390D02*
X71035714Y-127181009D01*
X71035714Y-127181009D02*
X70988095Y-127228628D01*
X70988095Y-127228628D02*
X70940476Y-127323866D01*
X70940476Y-127323866D02*
X70940476Y-127514342D01*
X70940476Y-127514342D02*
X70988095Y-127609580D01*
X70988095Y-127609580D02*
X71035714Y-127657200D01*
X71035714Y-127657200D02*
X71130952Y-127704819D01*
X71130952Y-127704819D02*
X71321428Y-127704819D01*
X71321428Y-127704819D02*
X71416666Y-127657200D01*
X71416666Y-127657200D02*
X71464285Y-127609580D01*
X71464285Y-127609580D02*
X71511904Y-127514342D01*
X71511904Y-127514342D02*
X71511904Y-127323866D01*
X71511904Y-127323866D02*
X71464285Y-127228628D01*
X71464285Y-127228628D02*
X71416666Y-127181009D01*
X71416666Y-127181009D02*
X71321428Y-127133390D01*
X34357142Y-90204819D02*
X34023809Y-89728628D01*
X33785714Y-90204819D02*
X33785714Y-89204819D01*
X33785714Y-89204819D02*
X34166666Y-89204819D01*
X34166666Y-89204819D02*
X34261904Y-89252438D01*
X34261904Y-89252438D02*
X34309523Y-89300057D01*
X34309523Y-89300057D02*
X34357142Y-89395295D01*
X34357142Y-89395295D02*
X34357142Y-89538152D01*
X34357142Y-89538152D02*
X34309523Y-89633390D01*
X34309523Y-89633390D02*
X34261904Y-89681009D01*
X34261904Y-89681009D02*
X34166666Y-89728628D01*
X34166666Y-89728628D02*
X33785714Y-89728628D01*
X34690476Y-89204819D02*
X35309523Y-89204819D01*
X35309523Y-89204819D02*
X34976190Y-89585771D01*
X34976190Y-89585771D02*
X35119047Y-89585771D01*
X35119047Y-89585771D02*
X35214285Y-89633390D01*
X35214285Y-89633390D02*
X35261904Y-89681009D01*
X35261904Y-89681009D02*
X35309523Y-89776247D01*
X35309523Y-89776247D02*
X35309523Y-90014342D01*
X35309523Y-90014342D02*
X35261904Y-90109580D01*
X35261904Y-90109580D02*
X35214285Y-90157200D01*
X35214285Y-90157200D02*
X35119047Y-90204819D01*
X35119047Y-90204819D02*
X34833333Y-90204819D01*
X34833333Y-90204819D02*
X34738095Y-90157200D01*
X34738095Y-90157200D02*
X34690476Y-90109580D01*
X35785714Y-90204819D02*
X35976190Y-90204819D01*
X35976190Y-90204819D02*
X36071428Y-90157200D01*
X36071428Y-90157200D02*
X36119047Y-90109580D01*
X36119047Y-90109580D02*
X36214285Y-89966723D01*
X36214285Y-89966723D02*
X36261904Y-89776247D01*
X36261904Y-89776247D02*
X36261904Y-89395295D01*
X36261904Y-89395295D02*
X36214285Y-89300057D01*
X36214285Y-89300057D02*
X36166666Y-89252438D01*
X36166666Y-89252438D02*
X36071428Y-89204819D01*
X36071428Y-89204819D02*
X35880952Y-89204819D01*
X35880952Y-89204819D02*
X35785714Y-89252438D01*
X35785714Y-89252438D02*
X35738095Y-89300057D01*
X35738095Y-89300057D02*
X35690476Y-89395295D01*
X35690476Y-89395295D02*
X35690476Y-89633390D01*
X35690476Y-89633390D02*
X35738095Y-89728628D01*
X35738095Y-89728628D02*
X35785714Y-89776247D01*
X35785714Y-89776247D02*
X35880952Y-89823866D01*
X35880952Y-89823866D02*
X36071428Y-89823866D01*
X36071428Y-89823866D02*
X36166666Y-89776247D01*
X36166666Y-89776247D02*
X36214285Y-89728628D01*
X36214285Y-89728628D02*
X36261904Y-89633390D01*
X99654761Y-95550057D02*
X99559523Y-95502438D01*
X99559523Y-95502438D02*
X99464285Y-95407200D01*
X99464285Y-95407200D02*
X99321428Y-95264342D01*
X99321428Y-95264342D02*
X99226190Y-95216723D01*
X99226190Y-95216723D02*
X99130952Y-95216723D01*
X99178571Y-95454819D02*
X99083333Y-95407200D01*
X99083333Y-95407200D02*
X98988095Y-95311961D01*
X98988095Y-95311961D02*
X98940476Y-95121485D01*
X98940476Y-95121485D02*
X98940476Y-94788152D01*
X98940476Y-94788152D02*
X98988095Y-94597676D01*
X98988095Y-94597676D02*
X99083333Y-94502438D01*
X99083333Y-94502438D02*
X99178571Y-94454819D01*
X99178571Y-94454819D02*
X99369047Y-94454819D01*
X99369047Y-94454819D02*
X99464285Y-94502438D01*
X99464285Y-94502438D02*
X99559523Y-94597676D01*
X99559523Y-94597676D02*
X99607142Y-94788152D01*
X99607142Y-94788152D02*
X99607142Y-95121485D01*
X99607142Y-95121485D02*
X99559523Y-95311961D01*
X99559523Y-95311961D02*
X99464285Y-95407200D01*
X99464285Y-95407200D02*
X99369047Y-95454819D01*
X99369047Y-95454819D02*
X99178571Y-95454819D01*
X99988095Y-94550057D02*
X100035714Y-94502438D01*
X100035714Y-94502438D02*
X100130952Y-94454819D01*
X100130952Y-94454819D02*
X100369047Y-94454819D01*
X100369047Y-94454819D02*
X100464285Y-94502438D01*
X100464285Y-94502438D02*
X100511904Y-94550057D01*
X100511904Y-94550057D02*
X100559523Y-94645295D01*
X100559523Y-94645295D02*
X100559523Y-94740533D01*
X100559523Y-94740533D02*
X100511904Y-94883390D01*
X100511904Y-94883390D02*
X99940476Y-95454819D01*
X99940476Y-95454819D02*
X100559523Y-95454819D01*
X83107142Y-124859580D02*
X83059523Y-124907200D01*
X83059523Y-124907200D02*
X82916666Y-124954819D01*
X82916666Y-124954819D02*
X82821428Y-124954819D01*
X82821428Y-124954819D02*
X82678571Y-124907200D01*
X82678571Y-124907200D02*
X82583333Y-124811961D01*
X82583333Y-124811961D02*
X82535714Y-124716723D01*
X82535714Y-124716723D02*
X82488095Y-124526247D01*
X82488095Y-124526247D02*
X82488095Y-124383390D01*
X82488095Y-124383390D02*
X82535714Y-124192914D01*
X82535714Y-124192914D02*
X82583333Y-124097676D01*
X82583333Y-124097676D02*
X82678571Y-124002438D01*
X82678571Y-124002438D02*
X82821428Y-123954819D01*
X82821428Y-123954819D02*
X82916666Y-123954819D01*
X82916666Y-123954819D02*
X83059523Y-124002438D01*
X83059523Y-124002438D02*
X83107142Y-124050057D01*
X83488095Y-124050057D02*
X83535714Y-124002438D01*
X83535714Y-124002438D02*
X83630952Y-123954819D01*
X83630952Y-123954819D02*
X83869047Y-123954819D01*
X83869047Y-123954819D02*
X83964285Y-124002438D01*
X83964285Y-124002438D02*
X84011904Y-124050057D01*
X84011904Y-124050057D02*
X84059523Y-124145295D01*
X84059523Y-124145295D02*
X84059523Y-124240533D01*
X84059523Y-124240533D02*
X84011904Y-124383390D01*
X84011904Y-124383390D02*
X83440476Y-124954819D01*
X83440476Y-124954819D02*
X84059523Y-124954819D01*
X84535714Y-124954819D02*
X84726190Y-124954819D01*
X84726190Y-124954819D02*
X84821428Y-124907200D01*
X84821428Y-124907200D02*
X84869047Y-124859580D01*
X84869047Y-124859580D02*
X84964285Y-124716723D01*
X84964285Y-124716723D02*
X85011904Y-124526247D01*
X85011904Y-124526247D02*
X85011904Y-124145295D01*
X85011904Y-124145295D02*
X84964285Y-124050057D01*
X84964285Y-124050057D02*
X84916666Y-124002438D01*
X84916666Y-124002438D02*
X84821428Y-123954819D01*
X84821428Y-123954819D02*
X84630952Y-123954819D01*
X84630952Y-123954819D02*
X84535714Y-124002438D01*
X84535714Y-124002438D02*
X84488095Y-124050057D01*
X84488095Y-124050057D02*
X84440476Y-124145295D01*
X84440476Y-124145295D02*
X84440476Y-124383390D01*
X84440476Y-124383390D02*
X84488095Y-124478628D01*
X84488095Y-124478628D02*
X84535714Y-124526247D01*
X84535714Y-124526247D02*
X84630952Y-124573866D01*
X84630952Y-124573866D02*
X84821428Y-124573866D01*
X84821428Y-124573866D02*
X84916666Y-124526247D01*
X84916666Y-124526247D02*
X84964285Y-124478628D01*
X84964285Y-124478628D02*
X85011904Y-124383390D01*
X55454819Y-102392857D02*
X54978628Y-102726190D01*
X55454819Y-102964285D02*
X54454819Y-102964285D01*
X54454819Y-102964285D02*
X54454819Y-102583333D01*
X54454819Y-102583333D02*
X54502438Y-102488095D01*
X54502438Y-102488095D02*
X54550057Y-102440476D01*
X54550057Y-102440476D02*
X54645295Y-102392857D01*
X54645295Y-102392857D02*
X54788152Y-102392857D01*
X54788152Y-102392857D02*
X54883390Y-102440476D01*
X54883390Y-102440476D02*
X54931009Y-102488095D01*
X54931009Y-102488095D02*
X54978628Y-102583333D01*
X54978628Y-102583333D02*
X54978628Y-102964285D01*
X55454819Y-101440476D02*
X55454819Y-102011904D01*
X55454819Y-101726190D02*
X54454819Y-101726190D01*
X54454819Y-101726190D02*
X54597676Y-101821428D01*
X54597676Y-101821428D02*
X54692914Y-101916666D01*
X54692914Y-101916666D02*
X54740533Y-102011904D01*
X54550057Y-101059523D02*
X54502438Y-101011904D01*
X54502438Y-101011904D02*
X54454819Y-100916666D01*
X54454819Y-100916666D02*
X54454819Y-100678571D01*
X54454819Y-100678571D02*
X54502438Y-100583333D01*
X54502438Y-100583333D02*
X54550057Y-100535714D01*
X54550057Y-100535714D02*
X54645295Y-100488095D01*
X54645295Y-100488095D02*
X54740533Y-100488095D01*
X54740533Y-100488095D02*
X54883390Y-100535714D01*
X54883390Y-100535714D02*
X55454819Y-101107142D01*
X55454819Y-101107142D02*
X55454819Y-100488095D01*
X48454819Y-102964285D02*
X47454819Y-102964285D01*
X47454819Y-102964285D02*
X47454819Y-102726190D01*
X47454819Y-102726190D02*
X47502438Y-102583333D01*
X47502438Y-102583333D02*
X47597676Y-102488095D01*
X47597676Y-102488095D02*
X47692914Y-102440476D01*
X47692914Y-102440476D02*
X47883390Y-102392857D01*
X47883390Y-102392857D02*
X48026247Y-102392857D01*
X48026247Y-102392857D02*
X48216723Y-102440476D01*
X48216723Y-102440476D02*
X48311961Y-102488095D01*
X48311961Y-102488095D02*
X48407200Y-102583333D01*
X48407200Y-102583333D02*
X48454819Y-102726190D01*
X48454819Y-102726190D02*
X48454819Y-102964285D01*
X47550057Y-102011904D02*
X47502438Y-101964285D01*
X47502438Y-101964285D02*
X47454819Y-101869047D01*
X47454819Y-101869047D02*
X47454819Y-101630952D01*
X47454819Y-101630952D02*
X47502438Y-101535714D01*
X47502438Y-101535714D02*
X47550057Y-101488095D01*
X47550057Y-101488095D02*
X47645295Y-101440476D01*
X47645295Y-101440476D02*
X47740533Y-101440476D01*
X47740533Y-101440476D02*
X47883390Y-101488095D01*
X47883390Y-101488095D02*
X48454819Y-102059523D01*
X48454819Y-102059523D02*
X48454819Y-101440476D01*
X47454819Y-101107142D02*
X47454819Y-100488095D01*
X47454819Y-100488095D02*
X47835771Y-100821428D01*
X47835771Y-100821428D02*
X47835771Y-100678571D01*
X47835771Y-100678571D02*
X47883390Y-100583333D01*
X47883390Y-100583333D02*
X47931009Y-100535714D01*
X47931009Y-100535714D02*
X48026247Y-100488095D01*
X48026247Y-100488095D02*
X48264342Y-100488095D01*
X48264342Y-100488095D02*
X48359580Y-100535714D01*
X48359580Y-100535714D02*
X48407200Y-100583333D01*
X48407200Y-100583333D02*
X48454819Y-100678571D01*
X48454819Y-100678571D02*
X48454819Y-100964285D01*
X48454819Y-100964285D02*
X48407200Y-101059523D01*
X48407200Y-101059523D02*
X48359580Y-101107142D01*
X71107142Y-78454819D02*
X70773809Y-77978628D01*
X70535714Y-78454819D02*
X70535714Y-77454819D01*
X70535714Y-77454819D02*
X70916666Y-77454819D01*
X70916666Y-77454819D02*
X71011904Y-77502438D01*
X71011904Y-77502438D02*
X71059523Y-77550057D01*
X71059523Y-77550057D02*
X71107142Y-77645295D01*
X71107142Y-77645295D02*
X71107142Y-77788152D01*
X71107142Y-77788152D02*
X71059523Y-77883390D01*
X71059523Y-77883390D02*
X71011904Y-77931009D01*
X71011904Y-77931009D02*
X70916666Y-77978628D01*
X70916666Y-77978628D02*
X70535714Y-77978628D01*
X72059523Y-78454819D02*
X71488095Y-78454819D01*
X71773809Y-78454819D02*
X71773809Y-77454819D01*
X71773809Y-77454819D02*
X71678571Y-77597676D01*
X71678571Y-77597676D02*
X71583333Y-77692914D01*
X71583333Y-77692914D02*
X71488095Y-77740533D01*
X73011904Y-78454819D02*
X72440476Y-78454819D01*
X72726190Y-78454819D02*
X72726190Y-77454819D01*
X72726190Y-77454819D02*
X72630952Y-77597676D01*
X72630952Y-77597676D02*
X72535714Y-77692914D01*
X72535714Y-77692914D02*
X72440476Y-77740533D01*
X71107142Y-115454819D02*
X70773809Y-114978628D01*
X70535714Y-115454819D02*
X70535714Y-114454819D01*
X70535714Y-114454819D02*
X70916666Y-114454819D01*
X70916666Y-114454819D02*
X71011904Y-114502438D01*
X71011904Y-114502438D02*
X71059523Y-114550057D01*
X71059523Y-114550057D02*
X71107142Y-114645295D01*
X71107142Y-114645295D02*
X71107142Y-114788152D01*
X71107142Y-114788152D02*
X71059523Y-114883390D01*
X71059523Y-114883390D02*
X71011904Y-114931009D01*
X71011904Y-114931009D02*
X70916666Y-114978628D01*
X70916666Y-114978628D02*
X70535714Y-114978628D01*
X71488095Y-114550057D02*
X71535714Y-114502438D01*
X71535714Y-114502438D02*
X71630952Y-114454819D01*
X71630952Y-114454819D02*
X71869047Y-114454819D01*
X71869047Y-114454819D02*
X71964285Y-114502438D01*
X71964285Y-114502438D02*
X72011904Y-114550057D01*
X72011904Y-114550057D02*
X72059523Y-114645295D01*
X72059523Y-114645295D02*
X72059523Y-114740533D01*
X72059523Y-114740533D02*
X72011904Y-114883390D01*
X72011904Y-114883390D02*
X71440476Y-115454819D01*
X71440476Y-115454819D02*
X72059523Y-115454819D01*
X72440476Y-114550057D02*
X72488095Y-114502438D01*
X72488095Y-114502438D02*
X72583333Y-114454819D01*
X72583333Y-114454819D02*
X72821428Y-114454819D01*
X72821428Y-114454819D02*
X72916666Y-114502438D01*
X72916666Y-114502438D02*
X72964285Y-114550057D01*
X72964285Y-114550057D02*
X73011904Y-114645295D01*
X73011904Y-114645295D02*
X73011904Y-114740533D01*
X73011904Y-114740533D02*
X72964285Y-114883390D01*
X72964285Y-114883390D02*
X72392857Y-115454819D01*
X72392857Y-115454819D02*
X73011904Y-115454819D01*
X83107142Y-87859580D02*
X83059523Y-87907200D01*
X83059523Y-87907200D02*
X82916666Y-87954819D01*
X82916666Y-87954819D02*
X82821428Y-87954819D01*
X82821428Y-87954819D02*
X82678571Y-87907200D01*
X82678571Y-87907200D02*
X82583333Y-87811961D01*
X82583333Y-87811961D02*
X82535714Y-87716723D01*
X82535714Y-87716723D02*
X82488095Y-87526247D01*
X82488095Y-87526247D02*
X82488095Y-87383390D01*
X82488095Y-87383390D02*
X82535714Y-87192914D01*
X82535714Y-87192914D02*
X82583333Y-87097676D01*
X82583333Y-87097676D02*
X82678571Y-87002438D01*
X82678571Y-87002438D02*
X82821428Y-86954819D01*
X82821428Y-86954819D02*
X82916666Y-86954819D01*
X82916666Y-86954819D02*
X83059523Y-87002438D01*
X83059523Y-87002438D02*
X83107142Y-87050057D01*
X84059523Y-87954819D02*
X83488095Y-87954819D01*
X83773809Y-87954819D02*
X83773809Y-86954819D01*
X83773809Y-86954819D02*
X83678571Y-87097676D01*
X83678571Y-87097676D02*
X83583333Y-87192914D01*
X83583333Y-87192914D02*
X83488095Y-87240533D01*
X85011904Y-87954819D02*
X84440476Y-87954819D01*
X84726190Y-87954819D02*
X84726190Y-86954819D01*
X84726190Y-86954819D02*
X84630952Y-87097676D01*
X84630952Y-87097676D02*
X84535714Y-87192914D01*
X84535714Y-87192914D02*
X84440476Y-87240533D01*
X52738095Y-98704819D02*
X52738095Y-99514342D01*
X52738095Y-99514342D02*
X52785714Y-99609580D01*
X52785714Y-99609580D02*
X52833333Y-99657200D01*
X52833333Y-99657200D02*
X52928571Y-99704819D01*
X52928571Y-99704819D02*
X53119047Y-99704819D01*
X53119047Y-99704819D02*
X53214285Y-99657200D01*
X53214285Y-99657200D02*
X53261904Y-99609580D01*
X53261904Y-99609580D02*
X53309523Y-99514342D01*
X53309523Y-99514342D02*
X53309523Y-98704819D01*
X53738095Y-98800057D02*
X53785714Y-98752438D01*
X53785714Y-98752438D02*
X53880952Y-98704819D01*
X53880952Y-98704819D02*
X54119047Y-98704819D01*
X54119047Y-98704819D02*
X54214285Y-98752438D01*
X54214285Y-98752438D02*
X54261904Y-98800057D01*
X54261904Y-98800057D02*
X54309523Y-98895295D01*
X54309523Y-98895295D02*
X54309523Y-98990533D01*
X54309523Y-98990533D02*
X54261904Y-99133390D01*
X54261904Y-99133390D02*
X53690476Y-99704819D01*
X53690476Y-99704819D02*
X54309523Y-99704819D01*
X72857142Y-146204819D02*
X72523809Y-145728628D01*
X72285714Y-146204819D02*
X72285714Y-145204819D01*
X72285714Y-145204819D02*
X72666666Y-145204819D01*
X72666666Y-145204819D02*
X72761904Y-145252438D01*
X72761904Y-145252438D02*
X72809523Y-145300057D01*
X72809523Y-145300057D02*
X72857142Y-145395295D01*
X72857142Y-145395295D02*
X72857142Y-145538152D01*
X72857142Y-145538152D02*
X72809523Y-145633390D01*
X72809523Y-145633390D02*
X72761904Y-145681009D01*
X72761904Y-145681009D02*
X72666666Y-145728628D01*
X72666666Y-145728628D02*
X72285714Y-145728628D01*
X73190476Y-145204819D02*
X73809523Y-145204819D01*
X73809523Y-145204819D02*
X73476190Y-145585771D01*
X73476190Y-145585771D02*
X73619047Y-145585771D01*
X73619047Y-145585771D02*
X73714285Y-145633390D01*
X73714285Y-145633390D02*
X73761904Y-145681009D01*
X73761904Y-145681009D02*
X73809523Y-145776247D01*
X73809523Y-145776247D02*
X73809523Y-146014342D01*
X73809523Y-146014342D02*
X73761904Y-146109580D01*
X73761904Y-146109580D02*
X73714285Y-146157200D01*
X73714285Y-146157200D02*
X73619047Y-146204819D01*
X73619047Y-146204819D02*
X73333333Y-146204819D01*
X73333333Y-146204819D02*
X73238095Y-146157200D01*
X73238095Y-146157200D02*
X73190476Y-146109580D01*
X74428571Y-145204819D02*
X74523809Y-145204819D01*
X74523809Y-145204819D02*
X74619047Y-145252438D01*
X74619047Y-145252438D02*
X74666666Y-145300057D01*
X74666666Y-145300057D02*
X74714285Y-145395295D01*
X74714285Y-145395295D02*
X74761904Y-145585771D01*
X74761904Y-145585771D02*
X74761904Y-145823866D01*
X74761904Y-145823866D02*
X74714285Y-146014342D01*
X74714285Y-146014342D02*
X74666666Y-146109580D01*
X74666666Y-146109580D02*
X74619047Y-146157200D01*
X74619047Y-146157200D02*
X74523809Y-146204819D01*
X74523809Y-146204819D02*
X74428571Y-146204819D01*
X74428571Y-146204819D02*
X74333333Y-146157200D01*
X74333333Y-146157200D02*
X74285714Y-146109580D01*
X74285714Y-146109580D02*
X74238095Y-146014342D01*
X74238095Y-146014342D02*
X74190476Y-145823866D01*
X74190476Y-145823866D02*
X74190476Y-145585771D01*
X74190476Y-145585771D02*
X74238095Y-145395295D01*
X74238095Y-145395295D02*
X74285714Y-145300057D01*
X74285714Y-145300057D02*
X74333333Y-145252438D01*
X74333333Y-145252438D02*
X74428571Y-145204819D01*
X88954819Y-105214285D02*
X87954819Y-105214285D01*
X87954819Y-105214285D02*
X87954819Y-104976190D01*
X87954819Y-104976190D02*
X88002438Y-104833333D01*
X88002438Y-104833333D02*
X88097676Y-104738095D01*
X88097676Y-104738095D02*
X88192914Y-104690476D01*
X88192914Y-104690476D02*
X88383390Y-104642857D01*
X88383390Y-104642857D02*
X88526247Y-104642857D01*
X88526247Y-104642857D02*
X88716723Y-104690476D01*
X88716723Y-104690476D02*
X88811961Y-104738095D01*
X88811961Y-104738095D02*
X88907200Y-104833333D01*
X88907200Y-104833333D02*
X88954819Y-104976190D01*
X88954819Y-104976190D02*
X88954819Y-105214285D01*
X88954819Y-103690476D02*
X88954819Y-104261904D01*
X88954819Y-103976190D02*
X87954819Y-103976190D01*
X87954819Y-103976190D02*
X88097676Y-104071428D01*
X88097676Y-104071428D02*
X88192914Y-104166666D01*
X88192914Y-104166666D02*
X88240533Y-104261904D01*
X87954819Y-103357142D02*
X87954819Y-102738095D01*
X87954819Y-102738095D02*
X88335771Y-103071428D01*
X88335771Y-103071428D02*
X88335771Y-102928571D01*
X88335771Y-102928571D02*
X88383390Y-102833333D01*
X88383390Y-102833333D02*
X88431009Y-102785714D01*
X88431009Y-102785714D02*
X88526247Y-102738095D01*
X88526247Y-102738095D02*
X88764342Y-102738095D01*
X88764342Y-102738095D02*
X88859580Y-102785714D01*
X88859580Y-102785714D02*
X88907200Y-102833333D01*
X88907200Y-102833333D02*
X88954819Y-102928571D01*
X88954819Y-102928571D02*
X88954819Y-103214285D01*
X88954819Y-103214285D02*
X88907200Y-103309523D01*
X88907200Y-103309523D02*
X88859580Y-103357142D01*
X88954819Y-142214285D02*
X87954819Y-142214285D01*
X87954819Y-142214285D02*
X87954819Y-141976190D01*
X87954819Y-141976190D02*
X88002438Y-141833333D01*
X88002438Y-141833333D02*
X88097676Y-141738095D01*
X88097676Y-141738095D02*
X88192914Y-141690476D01*
X88192914Y-141690476D02*
X88383390Y-141642857D01*
X88383390Y-141642857D02*
X88526247Y-141642857D01*
X88526247Y-141642857D02*
X88716723Y-141690476D01*
X88716723Y-141690476D02*
X88811961Y-141738095D01*
X88811961Y-141738095D02*
X88907200Y-141833333D01*
X88907200Y-141833333D02*
X88954819Y-141976190D01*
X88954819Y-141976190D02*
X88954819Y-142214285D01*
X88050057Y-141261904D02*
X88002438Y-141214285D01*
X88002438Y-141214285D02*
X87954819Y-141119047D01*
X87954819Y-141119047D02*
X87954819Y-140880952D01*
X87954819Y-140880952D02*
X88002438Y-140785714D01*
X88002438Y-140785714D02*
X88050057Y-140738095D01*
X88050057Y-140738095D02*
X88145295Y-140690476D01*
X88145295Y-140690476D02*
X88240533Y-140690476D01*
X88240533Y-140690476D02*
X88383390Y-140738095D01*
X88383390Y-140738095D02*
X88954819Y-141309523D01*
X88954819Y-141309523D02*
X88954819Y-140690476D01*
X88954819Y-139738095D02*
X88954819Y-140309523D01*
X88954819Y-140023809D02*
X87954819Y-140023809D01*
X87954819Y-140023809D02*
X88097676Y-140119047D01*
X88097676Y-140119047D02*
X88192914Y-140214285D01*
X88192914Y-140214285D02*
X88240533Y-140309523D01*
X23261905Y-82454819D02*
X23261905Y-81454819D01*
X23261905Y-81454819D02*
X23500000Y-81454819D01*
X23500000Y-81454819D02*
X23642857Y-81502438D01*
X23642857Y-81502438D02*
X23738095Y-81597676D01*
X23738095Y-81597676D02*
X23785714Y-81692914D01*
X23785714Y-81692914D02*
X23833333Y-81883390D01*
X23833333Y-81883390D02*
X23833333Y-82026247D01*
X23833333Y-82026247D02*
X23785714Y-82216723D01*
X23785714Y-82216723D02*
X23738095Y-82311961D01*
X23738095Y-82311961D02*
X23642857Y-82407200D01*
X23642857Y-82407200D02*
X23500000Y-82454819D01*
X23500000Y-82454819D02*
X23261905Y-82454819D01*
X24214286Y-81550057D02*
X24261905Y-81502438D01*
X24261905Y-81502438D02*
X24357143Y-81454819D01*
X24357143Y-81454819D02*
X24595238Y-81454819D01*
X24595238Y-81454819D02*
X24690476Y-81502438D01*
X24690476Y-81502438D02*
X24738095Y-81550057D01*
X24738095Y-81550057D02*
X24785714Y-81645295D01*
X24785714Y-81645295D02*
X24785714Y-81740533D01*
X24785714Y-81740533D02*
X24738095Y-81883390D01*
X24738095Y-81883390D02*
X24166667Y-82454819D01*
X24166667Y-82454819D02*
X24785714Y-82454819D01*
D14*
X19734203Y-84317776D02*
X18972203Y-84571776D01*
X18972203Y-84571776D02*
X19734203Y-84825776D01*
X18972203Y-85079776D02*
X19480203Y-85079776D01*
X19734203Y-85079776D02*
X19697917Y-85043490D01*
X19697917Y-85043490D02*
X19661631Y-85079776D01*
X19661631Y-85079776D02*
X19697917Y-85116062D01*
X19697917Y-85116062D02*
X19734203Y-85079776D01*
X19734203Y-85079776D02*
X19661631Y-85079776D01*
X19480203Y-85442633D02*
X18972203Y-85442633D01*
X19407631Y-85442633D02*
X19443917Y-85478919D01*
X19443917Y-85478919D02*
X19480203Y-85551490D01*
X19480203Y-85551490D02*
X19480203Y-85660347D01*
X19480203Y-85660347D02*
X19443917Y-85732919D01*
X19443917Y-85732919D02*
X19371346Y-85769205D01*
X19371346Y-85769205D02*
X18972203Y-85769205D01*
X19697917Y-87224756D02*
X19734203Y-87152185D01*
X19734203Y-87152185D02*
X19734203Y-87043327D01*
X19734203Y-87043327D02*
X19697917Y-86934470D01*
X19697917Y-86934470D02*
X19625346Y-86861899D01*
X19625346Y-86861899D02*
X19552774Y-86825613D01*
X19552774Y-86825613D02*
X19407631Y-86789327D01*
X19407631Y-86789327D02*
X19298774Y-86789327D01*
X19298774Y-86789327D02*
X19153631Y-86825613D01*
X19153631Y-86825613D02*
X19081060Y-86861899D01*
X19081060Y-86861899D02*
X19008489Y-86934470D01*
X19008489Y-86934470D02*
X18972203Y-87043327D01*
X18972203Y-87043327D02*
X18972203Y-87115899D01*
X18972203Y-87115899D02*
X19008489Y-87224756D01*
X19008489Y-87224756D02*
X19044774Y-87261042D01*
X19044774Y-87261042D02*
X19298774Y-87261042D01*
X19298774Y-87261042D02*
X19298774Y-87115899D01*
X18972203Y-87587613D02*
X19734203Y-87587613D01*
X19734203Y-87587613D02*
X18972203Y-88023042D01*
X18972203Y-88023042D02*
X19734203Y-88023042D01*
X18972203Y-88385899D02*
X19734203Y-88385899D01*
X19734203Y-88385899D02*
X19734203Y-88567328D01*
X19734203Y-88567328D02*
X19697917Y-88676185D01*
X19697917Y-88676185D02*
X19625346Y-88748756D01*
X19625346Y-88748756D02*
X19552774Y-88785042D01*
X19552774Y-88785042D02*
X19407631Y-88821328D01*
X19407631Y-88821328D02*
X19298774Y-88821328D01*
X19298774Y-88821328D02*
X19153631Y-88785042D01*
X19153631Y-88785042D02*
X19081060Y-88748756D01*
X19081060Y-88748756D02*
X19008489Y-88676185D01*
X19008489Y-88676185D02*
X18972203Y-88567328D01*
X18972203Y-88567328D02*
X18972203Y-88385899D01*
X19262489Y-89384533D02*
X19262489Y-89965105D01*
X18972203Y-89674819D02*
X19552774Y-89674819D01*
X19734203Y-90219105D02*
X18972203Y-90473105D01*
X18972203Y-90473105D02*
X19734203Y-90727105D01*
X18972203Y-91089962D02*
X19008489Y-91017391D01*
X19008489Y-91017391D02*
X19044774Y-90981105D01*
X19044774Y-90981105D02*
X19117346Y-90944819D01*
X19117346Y-90944819D02*
X19335060Y-90944819D01*
X19335060Y-90944819D02*
X19407631Y-90981105D01*
X19407631Y-90981105D02*
X19443917Y-91017391D01*
X19443917Y-91017391D02*
X19480203Y-91089962D01*
X19480203Y-91089962D02*
X19480203Y-91198819D01*
X19480203Y-91198819D02*
X19443917Y-91271391D01*
X19443917Y-91271391D02*
X19407631Y-91307677D01*
X19407631Y-91307677D02*
X19335060Y-91343962D01*
X19335060Y-91343962D02*
X19117346Y-91343962D01*
X19117346Y-91343962D02*
X19044774Y-91307677D01*
X19044774Y-91307677D02*
X19008489Y-91271391D01*
X19008489Y-91271391D02*
X18972203Y-91198819D01*
X18972203Y-91198819D02*
X18972203Y-91089962D01*
D12*
X69607142Y-146109580D02*
X69559523Y-146157200D01*
X69559523Y-146157200D02*
X69416666Y-146204819D01*
X69416666Y-146204819D02*
X69321428Y-146204819D01*
X69321428Y-146204819D02*
X69178571Y-146157200D01*
X69178571Y-146157200D02*
X69083333Y-146061961D01*
X69083333Y-146061961D02*
X69035714Y-145966723D01*
X69035714Y-145966723D02*
X68988095Y-145776247D01*
X68988095Y-145776247D02*
X68988095Y-145633390D01*
X68988095Y-145633390D02*
X69035714Y-145442914D01*
X69035714Y-145442914D02*
X69083333Y-145347676D01*
X69083333Y-145347676D02*
X69178571Y-145252438D01*
X69178571Y-145252438D02*
X69321428Y-145204819D01*
X69321428Y-145204819D02*
X69416666Y-145204819D01*
X69416666Y-145204819D02*
X69559523Y-145252438D01*
X69559523Y-145252438D02*
X69607142Y-145300057D01*
X69940476Y-145204819D02*
X70559523Y-145204819D01*
X70559523Y-145204819D02*
X70226190Y-145585771D01*
X70226190Y-145585771D02*
X70369047Y-145585771D01*
X70369047Y-145585771D02*
X70464285Y-145633390D01*
X70464285Y-145633390D02*
X70511904Y-145681009D01*
X70511904Y-145681009D02*
X70559523Y-145776247D01*
X70559523Y-145776247D02*
X70559523Y-146014342D01*
X70559523Y-146014342D02*
X70511904Y-146109580D01*
X70511904Y-146109580D02*
X70464285Y-146157200D01*
X70464285Y-146157200D02*
X70369047Y-146204819D01*
X70369047Y-146204819D02*
X70083333Y-146204819D01*
X70083333Y-146204819D02*
X69988095Y-146157200D01*
X69988095Y-146157200D02*
X69940476Y-146109580D01*
X70892857Y-145204819D02*
X71559523Y-145204819D01*
X71559523Y-145204819D02*
X71130952Y-146204819D01*
X83107142Y-106359580D02*
X83059523Y-106407200D01*
X83059523Y-106407200D02*
X82916666Y-106454819D01*
X82916666Y-106454819D02*
X82821428Y-106454819D01*
X82821428Y-106454819D02*
X82678571Y-106407200D01*
X82678571Y-106407200D02*
X82583333Y-106311961D01*
X82583333Y-106311961D02*
X82535714Y-106216723D01*
X82535714Y-106216723D02*
X82488095Y-106026247D01*
X82488095Y-106026247D02*
X82488095Y-105883390D01*
X82488095Y-105883390D02*
X82535714Y-105692914D01*
X82535714Y-105692914D02*
X82583333Y-105597676D01*
X82583333Y-105597676D02*
X82678571Y-105502438D01*
X82678571Y-105502438D02*
X82821428Y-105454819D01*
X82821428Y-105454819D02*
X82916666Y-105454819D01*
X82916666Y-105454819D02*
X83059523Y-105502438D01*
X83059523Y-105502438D02*
X83107142Y-105550057D01*
X83488095Y-105550057D02*
X83535714Y-105502438D01*
X83535714Y-105502438D02*
X83630952Y-105454819D01*
X83630952Y-105454819D02*
X83869047Y-105454819D01*
X83869047Y-105454819D02*
X83964285Y-105502438D01*
X83964285Y-105502438D02*
X84011904Y-105550057D01*
X84011904Y-105550057D02*
X84059523Y-105645295D01*
X84059523Y-105645295D02*
X84059523Y-105740533D01*
X84059523Y-105740533D02*
X84011904Y-105883390D01*
X84011904Y-105883390D02*
X83440476Y-106454819D01*
X83440476Y-106454819D02*
X84059523Y-106454819D01*
X84678571Y-105454819D02*
X84773809Y-105454819D01*
X84773809Y-105454819D02*
X84869047Y-105502438D01*
X84869047Y-105502438D02*
X84916666Y-105550057D01*
X84916666Y-105550057D02*
X84964285Y-105645295D01*
X84964285Y-105645295D02*
X85011904Y-105835771D01*
X85011904Y-105835771D02*
X85011904Y-106073866D01*
X85011904Y-106073866D02*
X84964285Y-106264342D01*
X84964285Y-106264342D02*
X84916666Y-106359580D01*
X84916666Y-106359580D02*
X84869047Y-106407200D01*
X84869047Y-106407200D02*
X84773809Y-106454819D01*
X84773809Y-106454819D02*
X84678571Y-106454819D01*
X84678571Y-106454819D02*
X84583333Y-106407200D01*
X84583333Y-106407200D02*
X84535714Y-106359580D01*
X84535714Y-106359580D02*
X84488095Y-106264342D01*
X84488095Y-106264342D02*
X84440476Y-106073866D01*
X84440476Y-106073866D02*
X84440476Y-105835771D01*
X84440476Y-105835771D02*
X84488095Y-105645295D01*
X84488095Y-105645295D02*
X84535714Y-105550057D01*
X84535714Y-105550057D02*
X84583333Y-105502438D01*
X84583333Y-105502438D02*
X84678571Y-105454819D01*
X99654761Y-132550057D02*
X99559523Y-132502438D01*
X99559523Y-132502438D02*
X99464285Y-132407200D01*
X99464285Y-132407200D02*
X99321428Y-132264342D01*
X99321428Y-132264342D02*
X99226190Y-132216723D01*
X99226190Y-132216723D02*
X99130952Y-132216723D01*
X99178571Y-132454819D02*
X99083333Y-132407200D01*
X99083333Y-132407200D02*
X98988095Y-132311961D01*
X98988095Y-132311961D02*
X98940476Y-132121485D01*
X98940476Y-132121485D02*
X98940476Y-131788152D01*
X98940476Y-131788152D02*
X98988095Y-131597676D01*
X98988095Y-131597676D02*
X99083333Y-131502438D01*
X99083333Y-131502438D02*
X99178571Y-131454819D01*
X99178571Y-131454819D02*
X99369047Y-131454819D01*
X99369047Y-131454819D02*
X99464285Y-131502438D01*
X99464285Y-131502438D02*
X99559523Y-131597676D01*
X99559523Y-131597676D02*
X99607142Y-131788152D01*
X99607142Y-131788152D02*
X99607142Y-132121485D01*
X99607142Y-132121485D02*
X99559523Y-132311961D01*
X99559523Y-132311961D02*
X99464285Y-132407200D01*
X99464285Y-132407200D02*
X99369047Y-132454819D01*
X99369047Y-132454819D02*
X99178571Y-132454819D01*
X100464285Y-131788152D02*
X100464285Y-132454819D01*
X100226190Y-131407200D02*
X99988095Y-132121485D01*
X99988095Y-132121485D02*
X100607142Y-132121485D01*
X30154761Y-113300057D02*
X30059523Y-113252438D01*
X30059523Y-113252438D02*
X29964285Y-113157200D01*
X29964285Y-113157200D02*
X29821428Y-113014342D01*
X29821428Y-113014342D02*
X29726190Y-112966723D01*
X29726190Y-112966723D02*
X29630952Y-112966723D01*
X29678571Y-113204819D02*
X29583333Y-113157200D01*
X29583333Y-113157200D02*
X29488095Y-113061961D01*
X29488095Y-113061961D02*
X29440476Y-112871485D01*
X29440476Y-112871485D02*
X29440476Y-112538152D01*
X29440476Y-112538152D02*
X29488095Y-112347676D01*
X29488095Y-112347676D02*
X29583333Y-112252438D01*
X29583333Y-112252438D02*
X29678571Y-112204819D01*
X29678571Y-112204819D02*
X29869047Y-112204819D01*
X29869047Y-112204819D02*
X29964285Y-112252438D01*
X29964285Y-112252438D02*
X30059523Y-112347676D01*
X30059523Y-112347676D02*
X30107142Y-112538152D01*
X30107142Y-112538152D02*
X30107142Y-112871485D01*
X30107142Y-112871485D02*
X30059523Y-113061961D01*
X30059523Y-113061961D02*
X29964285Y-113157200D01*
X29964285Y-113157200D02*
X29869047Y-113204819D01*
X29869047Y-113204819D02*
X29678571Y-113204819D01*
X31011904Y-112204819D02*
X30535714Y-112204819D01*
X30535714Y-112204819D02*
X30488095Y-112681009D01*
X30488095Y-112681009D02*
X30535714Y-112633390D01*
X30535714Y-112633390D02*
X30630952Y-112585771D01*
X30630952Y-112585771D02*
X30869047Y-112585771D01*
X30869047Y-112585771D02*
X30964285Y-112633390D01*
X30964285Y-112633390D02*
X31011904Y-112681009D01*
X31011904Y-112681009D02*
X31059523Y-112776247D01*
X31059523Y-112776247D02*
X31059523Y-113014342D01*
X31059523Y-113014342D02*
X31011904Y-113109580D01*
X31011904Y-113109580D02*
X30964285Y-113157200D01*
X30964285Y-113157200D02*
X30869047Y-113204819D01*
X30869047Y-113204819D02*
X30630952Y-113204819D01*
X30630952Y-113204819D02*
X30535714Y-113157200D01*
X30535714Y-113157200D02*
X30488095Y-113109580D01*
X50954819Y-139642857D02*
X50478628Y-139976190D01*
X50954819Y-140214285D02*
X49954819Y-140214285D01*
X49954819Y-140214285D02*
X49954819Y-139833333D01*
X49954819Y-139833333D02*
X50002438Y-139738095D01*
X50002438Y-139738095D02*
X50050057Y-139690476D01*
X50050057Y-139690476D02*
X50145295Y-139642857D01*
X50145295Y-139642857D02*
X50288152Y-139642857D01*
X50288152Y-139642857D02*
X50383390Y-139690476D01*
X50383390Y-139690476D02*
X50431009Y-139738095D01*
X50431009Y-139738095D02*
X50478628Y-139833333D01*
X50478628Y-139833333D02*
X50478628Y-140214285D01*
X50050057Y-139261904D02*
X50002438Y-139214285D01*
X50002438Y-139214285D02*
X49954819Y-139119047D01*
X49954819Y-139119047D02*
X49954819Y-138880952D01*
X49954819Y-138880952D02*
X50002438Y-138785714D01*
X50002438Y-138785714D02*
X50050057Y-138738095D01*
X50050057Y-138738095D02*
X50145295Y-138690476D01*
X50145295Y-138690476D02*
X50240533Y-138690476D01*
X50240533Y-138690476D02*
X50383390Y-138738095D01*
X50383390Y-138738095D02*
X50954819Y-139309523D01*
X50954819Y-139309523D02*
X50954819Y-138690476D01*
X49954819Y-137785714D02*
X49954819Y-138261904D01*
X49954819Y-138261904D02*
X50431009Y-138309523D01*
X50431009Y-138309523D02*
X50383390Y-138261904D01*
X50383390Y-138261904D02*
X50335771Y-138166666D01*
X50335771Y-138166666D02*
X50335771Y-137928571D01*
X50335771Y-137928571D02*
X50383390Y-137833333D01*
X50383390Y-137833333D02*
X50431009Y-137785714D01*
X50431009Y-137785714D02*
X50526247Y-137738095D01*
X50526247Y-137738095D02*
X50764342Y-137738095D01*
X50764342Y-137738095D02*
X50859580Y-137785714D01*
X50859580Y-137785714D02*
X50907200Y-137833333D01*
X50907200Y-137833333D02*
X50954819Y-137928571D01*
X50954819Y-137928571D02*
X50954819Y-138166666D01*
X50954819Y-138166666D02*
X50907200Y-138261904D01*
X50907200Y-138261904D02*
X50859580Y-138309523D01*
X20511905Y-121704819D02*
X20511905Y-120704819D01*
X20511905Y-120704819D02*
X20750000Y-120704819D01*
X20750000Y-120704819D02*
X20892857Y-120752438D01*
X20892857Y-120752438D02*
X20988095Y-120847676D01*
X20988095Y-120847676D02*
X21035714Y-120942914D01*
X21035714Y-120942914D02*
X21083333Y-121133390D01*
X21083333Y-121133390D02*
X21083333Y-121276247D01*
X21083333Y-121276247D02*
X21035714Y-121466723D01*
X21035714Y-121466723D02*
X20988095Y-121561961D01*
X20988095Y-121561961D02*
X20892857Y-121657200D01*
X20892857Y-121657200D02*
X20750000Y-121704819D01*
X20750000Y-121704819D02*
X20511905Y-121704819D01*
X21988095Y-120704819D02*
X21511905Y-120704819D01*
X21511905Y-120704819D02*
X21464286Y-121181009D01*
X21464286Y-121181009D02*
X21511905Y-121133390D01*
X21511905Y-121133390D02*
X21607143Y-121085771D01*
X21607143Y-121085771D02*
X21845238Y-121085771D01*
X21845238Y-121085771D02*
X21940476Y-121133390D01*
X21940476Y-121133390D02*
X21988095Y-121181009D01*
X21988095Y-121181009D02*
X22035714Y-121276247D01*
X22035714Y-121276247D02*
X22035714Y-121514342D01*
X22035714Y-121514342D02*
X21988095Y-121609580D01*
X21988095Y-121609580D02*
X21940476Y-121657200D01*
X21940476Y-121657200D02*
X21845238Y-121704819D01*
X21845238Y-121704819D02*
X21607143Y-121704819D01*
X21607143Y-121704819D02*
X21511905Y-121657200D01*
X21511905Y-121657200D02*
X21464286Y-121609580D01*
X55454819Y-83916666D02*
X54978628Y-84249999D01*
X55454819Y-84488094D02*
X54454819Y-84488094D01*
X54454819Y-84488094D02*
X54454819Y-84107142D01*
X54454819Y-84107142D02*
X54502438Y-84011904D01*
X54502438Y-84011904D02*
X54550057Y-83964285D01*
X54550057Y-83964285D02*
X54645295Y-83916666D01*
X54645295Y-83916666D02*
X54788152Y-83916666D01*
X54788152Y-83916666D02*
X54883390Y-83964285D01*
X54883390Y-83964285D02*
X54931009Y-84011904D01*
X54931009Y-84011904D02*
X54978628Y-84107142D01*
X54978628Y-84107142D02*
X54978628Y-84488094D01*
X54454819Y-83583332D02*
X54454819Y-82916666D01*
X54454819Y-82916666D02*
X55454819Y-83345237D01*
X29416666Y-74954819D02*
X29416666Y-75669104D01*
X29416666Y-75669104D02*
X29369047Y-75811961D01*
X29369047Y-75811961D02*
X29273809Y-75907200D01*
X29273809Y-75907200D02*
X29130952Y-75954819D01*
X29130952Y-75954819D02*
X29035714Y-75954819D01*
X29940476Y-75954819D02*
X30130952Y-75954819D01*
X30130952Y-75954819D02*
X30226190Y-75907200D01*
X30226190Y-75907200D02*
X30273809Y-75859580D01*
X30273809Y-75859580D02*
X30369047Y-75716723D01*
X30369047Y-75716723D02*
X30416666Y-75526247D01*
X30416666Y-75526247D02*
X30416666Y-75145295D01*
X30416666Y-75145295D02*
X30369047Y-75050057D01*
X30369047Y-75050057D02*
X30321428Y-75002438D01*
X30321428Y-75002438D02*
X30226190Y-74954819D01*
X30226190Y-74954819D02*
X30035714Y-74954819D01*
X30035714Y-74954819D02*
X29940476Y-75002438D01*
X29940476Y-75002438D02*
X29892857Y-75050057D01*
X29892857Y-75050057D02*
X29845238Y-75145295D01*
X29845238Y-75145295D02*
X29845238Y-75383390D01*
X29845238Y-75383390D02*
X29892857Y-75478628D01*
X29892857Y-75478628D02*
X29940476Y-75526247D01*
X29940476Y-75526247D02*
X30035714Y-75573866D01*
X30035714Y-75573866D02*
X30226190Y-75573866D01*
X30226190Y-75573866D02*
X30321428Y-75526247D01*
X30321428Y-75526247D02*
X30369047Y-75478628D01*
X30369047Y-75478628D02*
X30416666Y-75383390D01*
X30988095Y-84054819D02*
X30988095Y-84864342D01*
X30988095Y-84864342D02*
X31035714Y-84959580D01*
X31035714Y-84959580D02*
X31083333Y-85007200D01*
X31083333Y-85007200D02*
X31178571Y-85054819D01*
X31178571Y-85054819D02*
X31369047Y-85054819D01*
X31369047Y-85054819D02*
X31464285Y-85007200D01*
X31464285Y-85007200D02*
X31511904Y-84959580D01*
X31511904Y-84959580D02*
X31559523Y-84864342D01*
X31559523Y-84864342D02*
X31559523Y-84054819D01*
X32464285Y-84054819D02*
X32273809Y-84054819D01*
X32273809Y-84054819D02*
X32178571Y-84102438D01*
X32178571Y-84102438D02*
X32130952Y-84150057D01*
X32130952Y-84150057D02*
X32035714Y-84292914D01*
X32035714Y-84292914D02*
X31988095Y-84483390D01*
X31988095Y-84483390D02*
X31988095Y-84864342D01*
X31988095Y-84864342D02*
X32035714Y-84959580D01*
X32035714Y-84959580D02*
X32083333Y-85007200D01*
X32083333Y-85007200D02*
X32178571Y-85054819D01*
X32178571Y-85054819D02*
X32369047Y-85054819D01*
X32369047Y-85054819D02*
X32464285Y-85007200D01*
X32464285Y-85007200D02*
X32511904Y-84959580D01*
X32511904Y-84959580D02*
X32559523Y-84864342D01*
X32559523Y-84864342D02*
X32559523Y-84626247D01*
X32559523Y-84626247D02*
X32511904Y-84531009D01*
X32511904Y-84531009D02*
X32464285Y-84483390D01*
X32464285Y-84483390D02*
X32369047Y-84435771D01*
X32369047Y-84435771D02*
X32178571Y-84435771D01*
X32178571Y-84435771D02*
X32083333Y-84483390D01*
X32083333Y-84483390D02*
X32035714Y-84531009D01*
X32035714Y-84531009D02*
X31988095Y-84626247D01*
X110333333Y-107359580D02*
X110285714Y-107407200D01*
X110285714Y-107407200D02*
X110142857Y-107454819D01*
X110142857Y-107454819D02*
X110047619Y-107454819D01*
X110047619Y-107454819D02*
X109904762Y-107407200D01*
X109904762Y-107407200D02*
X109809524Y-107311961D01*
X109809524Y-107311961D02*
X109761905Y-107216723D01*
X109761905Y-107216723D02*
X109714286Y-107026247D01*
X109714286Y-107026247D02*
X109714286Y-106883390D01*
X109714286Y-106883390D02*
X109761905Y-106692914D01*
X109761905Y-106692914D02*
X109809524Y-106597676D01*
X109809524Y-106597676D02*
X109904762Y-106502438D01*
X109904762Y-106502438D02*
X110047619Y-106454819D01*
X110047619Y-106454819D02*
X110142857Y-106454819D01*
X110142857Y-106454819D02*
X110285714Y-106502438D01*
X110285714Y-106502438D02*
X110333333Y-106550057D01*
X111190476Y-106454819D02*
X111000000Y-106454819D01*
X111000000Y-106454819D02*
X110904762Y-106502438D01*
X110904762Y-106502438D02*
X110857143Y-106550057D01*
X110857143Y-106550057D02*
X110761905Y-106692914D01*
X110761905Y-106692914D02*
X110714286Y-106883390D01*
X110714286Y-106883390D02*
X110714286Y-107264342D01*
X110714286Y-107264342D02*
X110761905Y-107359580D01*
X110761905Y-107359580D02*
X110809524Y-107407200D01*
X110809524Y-107407200D02*
X110904762Y-107454819D01*
X110904762Y-107454819D02*
X111095238Y-107454819D01*
X111095238Y-107454819D02*
X111190476Y-107407200D01*
X111190476Y-107407200D02*
X111238095Y-107359580D01*
X111238095Y-107359580D02*
X111285714Y-107264342D01*
X111285714Y-107264342D02*
X111285714Y-107026247D01*
X111285714Y-107026247D02*
X111238095Y-106931009D01*
X111238095Y-106931009D02*
X111190476Y-106883390D01*
X111190476Y-106883390D02*
X111095238Y-106835771D01*
X111095238Y-106835771D02*
X110904762Y-106835771D01*
X110904762Y-106835771D02*
X110809524Y-106883390D01*
X110809524Y-106883390D02*
X110761905Y-106931009D01*
X110761905Y-106931009D02*
X110714286Y-107026247D01*
X38785714Y-90954819D02*
X38785714Y-89954819D01*
X38785714Y-89954819D02*
X39023809Y-89954819D01*
X39023809Y-89954819D02*
X39166666Y-90002438D01*
X39166666Y-90002438D02*
X39261904Y-90097676D01*
X39261904Y-90097676D02*
X39309523Y-90192914D01*
X39309523Y-90192914D02*
X39357142Y-90383390D01*
X39357142Y-90383390D02*
X39357142Y-90526247D01*
X39357142Y-90526247D02*
X39309523Y-90716723D01*
X39309523Y-90716723D02*
X39261904Y-90811961D01*
X39261904Y-90811961D02*
X39166666Y-90907200D01*
X39166666Y-90907200D02*
X39023809Y-90954819D01*
X39023809Y-90954819D02*
X38785714Y-90954819D01*
X39690476Y-89954819D02*
X40309523Y-89954819D01*
X40309523Y-89954819D02*
X39976190Y-90335771D01*
X39976190Y-90335771D02*
X40119047Y-90335771D01*
X40119047Y-90335771D02*
X40214285Y-90383390D01*
X40214285Y-90383390D02*
X40261904Y-90431009D01*
X40261904Y-90431009D02*
X40309523Y-90526247D01*
X40309523Y-90526247D02*
X40309523Y-90764342D01*
X40309523Y-90764342D02*
X40261904Y-90859580D01*
X40261904Y-90859580D02*
X40214285Y-90907200D01*
X40214285Y-90907200D02*
X40119047Y-90954819D01*
X40119047Y-90954819D02*
X39833333Y-90954819D01*
X39833333Y-90954819D02*
X39738095Y-90907200D01*
X39738095Y-90907200D02*
X39690476Y-90859580D01*
X40642857Y-89954819D02*
X41261904Y-89954819D01*
X41261904Y-89954819D02*
X40928571Y-90335771D01*
X40928571Y-90335771D02*
X41071428Y-90335771D01*
X41071428Y-90335771D02*
X41166666Y-90383390D01*
X41166666Y-90383390D02*
X41214285Y-90431009D01*
X41214285Y-90431009D02*
X41261904Y-90526247D01*
X41261904Y-90526247D02*
X41261904Y-90764342D01*
X41261904Y-90764342D02*
X41214285Y-90859580D01*
X41214285Y-90859580D02*
X41166666Y-90907200D01*
X41166666Y-90907200D02*
X41071428Y-90954819D01*
X41071428Y-90954819D02*
X40785714Y-90954819D01*
X40785714Y-90954819D02*
X40690476Y-90907200D01*
X40690476Y-90907200D02*
X40642857Y-90859580D01*
X83107142Y-143359580D02*
X83059523Y-143407200D01*
X83059523Y-143407200D02*
X82916666Y-143454819D01*
X82916666Y-143454819D02*
X82821428Y-143454819D01*
X82821428Y-143454819D02*
X82678571Y-143407200D01*
X82678571Y-143407200D02*
X82583333Y-143311961D01*
X82583333Y-143311961D02*
X82535714Y-143216723D01*
X82535714Y-143216723D02*
X82488095Y-143026247D01*
X82488095Y-143026247D02*
X82488095Y-142883390D01*
X82488095Y-142883390D02*
X82535714Y-142692914D01*
X82535714Y-142692914D02*
X82583333Y-142597676D01*
X82583333Y-142597676D02*
X82678571Y-142502438D01*
X82678571Y-142502438D02*
X82821428Y-142454819D01*
X82821428Y-142454819D02*
X82916666Y-142454819D01*
X82916666Y-142454819D02*
X83059523Y-142502438D01*
X83059523Y-142502438D02*
X83107142Y-142550057D01*
X83440476Y-142454819D02*
X84059523Y-142454819D01*
X84059523Y-142454819D02*
X83726190Y-142835771D01*
X83726190Y-142835771D02*
X83869047Y-142835771D01*
X83869047Y-142835771D02*
X83964285Y-142883390D01*
X83964285Y-142883390D02*
X84011904Y-142931009D01*
X84011904Y-142931009D02*
X84059523Y-143026247D01*
X84059523Y-143026247D02*
X84059523Y-143264342D01*
X84059523Y-143264342D02*
X84011904Y-143359580D01*
X84011904Y-143359580D02*
X83964285Y-143407200D01*
X83964285Y-143407200D02*
X83869047Y-143454819D01*
X83869047Y-143454819D02*
X83583333Y-143454819D01*
X83583333Y-143454819D02*
X83488095Y-143407200D01*
X83488095Y-143407200D02*
X83440476Y-143359580D01*
X84630952Y-142883390D02*
X84535714Y-142835771D01*
X84535714Y-142835771D02*
X84488095Y-142788152D01*
X84488095Y-142788152D02*
X84440476Y-142692914D01*
X84440476Y-142692914D02*
X84440476Y-142645295D01*
X84440476Y-142645295D02*
X84488095Y-142550057D01*
X84488095Y-142550057D02*
X84535714Y-142502438D01*
X84535714Y-142502438D02*
X84630952Y-142454819D01*
X84630952Y-142454819D02*
X84821428Y-142454819D01*
X84821428Y-142454819D02*
X84916666Y-142502438D01*
X84916666Y-142502438D02*
X84964285Y-142550057D01*
X84964285Y-142550057D02*
X85011904Y-142645295D01*
X85011904Y-142645295D02*
X85011904Y-142692914D01*
X85011904Y-142692914D02*
X84964285Y-142788152D01*
X84964285Y-142788152D02*
X84916666Y-142835771D01*
X84916666Y-142835771D02*
X84821428Y-142883390D01*
X84821428Y-142883390D02*
X84630952Y-142883390D01*
X84630952Y-142883390D02*
X84535714Y-142931009D01*
X84535714Y-142931009D02*
X84488095Y-142978628D01*
X84488095Y-142978628D02*
X84440476Y-143073866D01*
X84440476Y-143073866D02*
X84440476Y-143264342D01*
X84440476Y-143264342D02*
X84488095Y-143359580D01*
X84488095Y-143359580D02*
X84535714Y-143407200D01*
X84535714Y-143407200D02*
X84630952Y-143454819D01*
X84630952Y-143454819D02*
X84821428Y-143454819D01*
X84821428Y-143454819D02*
X84916666Y-143407200D01*
X84916666Y-143407200D02*
X84964285Y-143359580D01*
X84964285Y-143359580D02*
X85011904Y-143264342D01*
X85011904Y-143264342D02*
X85011904Y-143073866D01*
X85011904Y-143073866D02*
X84964285Y-142978628D01*
X84964285Y-142978628D02*
X84916666Y-142931009D01*
X84916666Y-142931009D02*
X84821428Y-142883390D01*
X34357142Y-127204819D02*
X34023809Y-126728628D01*
X33785714Y-127204819D02*
X33785714Y-126204819D01*
X33785714Y-126204819D02*
X34166666Y-126204819D01*
X34166666Y-126204819D02*
X34261904Y-126252438D01*
X34261904Y-126252438D02*
X34309523Y-126300057D01*
X34309523Y-126300057D02*
X34357142Y-126395295D01*
X34357142Y-126395295D02*
X34357142Y-126538152D01*
X34357142Y-126538152D02*
X34309523Y-126633390D01*
X34309523Y-126633390D02*
X34261904Y-126681009D01*
X34261904Y-126681009D02*
X34166666Y-126728628D01*
X34166666Y-126728628D02*
X33785714Y-126728628D01*
X35214285Y-126538152D02*
X35214285Y-127204819D01*
X34976190Y-126157200D02*
X34738095Y-126871485D01*
X34738095Y-126871485D02*
X35357142Y-126871485D01*
X36261904Y-127204819D02*
X35690476Y-127204819D01*
X35976190Y-127204819D02*
X35976190Y-126204819D01*
X35976190Y-126204819D02*
X35880952Y-126347676D01*
X35880952Y-126347676D02*
X35785714Y-126442914D01*
X35785714Y-126442914D02*
X35690476Y-126490533D01*
X46204819Y-84488094D02*
X45204819Y-84488094D01*
X45204819Y-84488094D02*
X45204819Y-84249999D01*
X45204819Y-84249999D02*
X45252438Y-84107142D01*
X45252438Y-84107142D02*
X45347676Y-84011904D01*
X45347676Y-84011904D02*
X45442914Y-83964285D01*
X45442914Y-83964285D02*
X45633390Y-83916666D01*
X45633390Y-83916666D02*
X45776247Y-83916666D01*
X45776247Y-83916666D02*
X45966723Y-83964285D01*
X45966723Y-83964285D02*
X46061961Y-84011904D01*
X46061961Y-84011904D02*
X46157200Y-84107142D01*
X46157200Y-84107142D02*
X46204819Y-84249999D01*
X46204819Y-84249999D02*
X46204819Y-84488094D01*
X45204819Y-83583332D02*
X45204819Y-82964285D01*
X45204819Y-82964285D02*
X45585771Y-83297618D01*
X45585771Y-83297618D02*
X45585771Y-83154761D01*
X45585771Y-83154761D02*
X45633390Y-83059523D01*
X45633390Y-83059523D02*
X45681009Y-83011904D01*
X45681009Y-83011904D02*
X45776247Y-82964285D01*
X45776247Y-82964285D02*
X46014342Y-82964285D01*
X46014342Y-82964285D02*
X46109580Y-83011904D01*
X46109580Y-83011904D02*
X46157200Y-83059523D01*
X46157200Y-83059523D02*
X46204819Y-83154761D01*
X46204819Y-83154761D02*
X46204819Y-83440475D01*
X46204819Y-83440475D02*
X46157200Y-83535713D01*
X46157200Y-83535713D02*
X46109580Y-83583332D01*
X53204819Y-83916666D02*
X52728628Y-84249999D01*
X53204819Y-84488094D02*
X52204819Y-84488094D01*
X52204819Y-84488094D02*
X52204819Y-84107142D01*
X52204819Y-84107142D02*
X52252438Y-84011904D01*
X52252438Y-84011904D02*
X52300057Y-83964285D01*
X52300057Y-83964285D02*
X52395295Y-83916666D01*
X52395295Y-83916666D02*
X52538152Y-83916666D01*
X52538152Y-83916666D02*
X52633390Y-83964285D01*
X52633390Y-83964285D02*
X52681009Y-84011904D01*
X52681009Y-84011904D02*
X52728628Y-84107142D01*
X52728628Y-84107142D02*
X52728628Y-84488094D01*
X52300057Y-83535713D02*
X52252438Y-83488094D01*
X52252438Y-83488094D02*
X52204819Y-83392856D01*
X52204819Y-83392856D02*
X52204819Y-83154761D01*
X52204819Y-83154761D02*
X52252438Y-83059523D01*
X52252438Y-83059523D02*
X52300057Y-83011904D01*
X52300057Y-83011904D02*
X52395295Y-82964285D01*
X52395295Y-82964285D02*
X52490533Y-82964285D01*
X52490533Y-82964285D02*
X52633390Y-83011904D01*
X52633390Y-83011904D02*
X53204819Y-83583332D01*
X53204819Y-83583332D02*
X53204819Y-82964285D01*
X49166666Y-111954819D02*
X49166666Y-112669104D01*
X49166666Y-112669104D02*
X49119047Y-112811961D01*
X49119047Y-112811961D02*
X49023809Y-112907200D01*
X49023809Y-112907200D02*
X48880952Y-112954819D01*
X48880952Y-112954819D02*
X48785714Y-112954819D01*
X49547619Y-111954819D02*
X50214285Y-111954819D01*
X50214285Y-111954819D02*
X49785714Y-112954819D01*
X89704819Y-79464285D02*
X88704819Y-79464285D01*
X88704819Y-79464285D02*
X88704819Y-79226190D01*
X88704819Y-79226190D02*
X88752438Y-79083333D01*
X88752438Y-79083333D02*
X88847676Y-78988095D01*
X88847676Y-78988095D02*
X88942914Y-78940476D01*
X88942914Y-78940476D02*
X89133390Y-78892857D01*
X89133390Y-78892857D02*
X89276247Y-78892857D01*
X89276247Y-78892857D02*
X89466723Y-78940476D01*
X89466723Y-78940476D02*
X89561961Y-78988095D01*
X89561961Y-78988095D02*
X89657200Y-79083333D01*
X89657200Y-79083333D02*
X89704819Y-79226190D01*
X89704819Y-79226190D02*
X89704819Y-79464285D01*
X89704819Y-77940476D02*
X89704819Y-78511904D01*
X89704819Y-78226190D02*
X88704819Y-78226190D01*
X88704819Y-78226190D02*
X88847676Y-78321428D01*
X88847676Y-78321428D02*
X88942914Y-78416666D01*
X88942914Y-78416666D02*
X88990533Y-78511904D01*
X88704819Y-77321428D02*
X88704819Y-77226190D01*
X88704819Y-77226190D02*
X88752438Y-77130952D01*
X88752438Y-77130952D02*
X88800057Y-77083333D01*
X88800057Y-77083333D02*
X88895295Y-77035714D01*
X88895295Y-77035714D02*
X89085771Y-76988095D01*
X89085771Y-76988095D02*
X89323866Y-76988095D01*
X89323866Y-76988095D02*
X89514342Y-77035714D01*
X89514342Y-77035714D02*
X89609580Y-77083333D01*
X89609580Y-77083333D02*
X89657200Y-77130952D01*
X89657200Y-77130952D02*
X89704819Y-77226190D01*
X89704819Y-77226190D02*
X89704819Y-77321428D01*
X89704819Y-77321428D02*
X89657200Y-77416666D01*
X89657200Y-77416666D02*
X89609580Y-77464285D01*
X89609580Y-77464285D02*
X89514342Y-77511904D01*
X89514342Y-77511904D02*
X89323866Y-77559523D01*
X89323866Y-77559523D02*
X89085771Y-77559523D01*
X89085771Y-77559523D02*
X88895295Y-77511904D01*
X88895295Y-77511904D02*
X88800057Y-77464285D01*
X88800057Y-77464285D02*
X88752438Y-77416666D01*
X88752438Y-77416666D02*
X88704819Y-77321428D01*
X71107142Y-80204819D02*
X70773809Y-79728628D01*
X70535714Y-80204819D02*
X70535714Y-79204819D01*
X70535714Y-79204819D02*
X70916666Y-79204819D01*
X70916666Y-79204819D02*
X71011904Y-79252438D01*
X71011904Y-79252438D02*
X71059523Y-79300057D01*
X71059523Y-79300057D02*
X71107142Y-79395295D01*
X71107142Y-79395295D02*
X71107142Y-79538152D01*
X71107142Y-79538152D02*
X71059523Y-79633390D01*
X71059523Y-79633390D02*
X71011904Y-79681009D01*
X71011904Y-79681009D02*
X70916666Y-79728628D01*
X70916666Y-79728628D02*
X70535714Y-79728628D01*
X72059523Y-80204819D02*
X71488095Y-80204819D01*
X71773809Y-80204819D02*
X71773809Y-79204819D01*
X71773809Y-79204819D02*
X71678571Y-79347676D01*
X71678571Y-79347676D02*
X71583333Y-79442914D01*
X71583333Y-79442914D02*
X71488095Y-79490533D01*
X72678571Y-79204819D02*
X72773809Y-79204819D01*
X72773809Y-79204819D02*
X72869047Y-79252438D01*
X72869047Y-79252438D02*
X72916666Y-79300057D01*
X72916666Y-79300057D02*
X72964285Y-79395295D01*
X72964285Y-79395295D02*
X73011904Y-79585771D01*
X73011904Y-79585771D02*
X73011904Y-79823866D01*
X73011904Y-79823866D02*
X72964285Y-80014342D01*
X72964285Y-80014342D02*
X72916666Y-80109580D01*
X72916666Y-80109580D02*
X72869047Y-80157200D01*
X72869047Y-80157200D02*
X72773809Y-80204819D01*
X72773809Y-80204819D02*
X72678571Y-80204819D01*
X72678571Y-80204819D02*
X72583333Y-80157200D01*
X72583333Y-80157200D02*
X72535714Y-80109580D01*
X72535714Y-80109580D02*
X72488095Y-80014342D01*
X72488095Y-80014342D02*
X72440476Y-79823866D01*
X72440476Y-79823866D02*
X72440476Y-79585771D01*
X72440476Y-79585771D02*
X72488095Y-79395295D01*
X72488095Y-79395295D02*
X72535714Y-79300057D01*
X72535714Y-79300057D02*
X72583333Y-79252438D01*
X72583333Y-79252438D02*
X72678571Y-79204819D01*
X50954819Y-102416666D02*
X50478628Y-102749999D01*
X50954819Y-102988094D02*
X49954819Y-102988094D01*
X49954819Y-102988094D02*
X49954819Y-102607142D01*
X49954819Y-102607142D02*
X50002438Y-102511904D01*
X50002438Y-102511904D02*
X50050057Y-102464285D01*
X50050057Y-102464285D02*
X50145295Y-102416666D01*
X50145295Y-102416666D02*
X50288152Y-102416666D01*
X50288152Y-102416666D02*
X50383390Y-102464285D01*
X50383390Y-102464285D02*
X50431009Y-102511904D01*
X50431009Y-102511904D02*
X50478628Y-102607142D01*
X50478628Y-102607142D02*
X50478628Y-102988094D01*
X49954819Y-102083332D02*
X49954819Y-101464285D01*
X49954819Y-101464285D02*
X50335771Y-101797618D01*
X50335771Y-101797618D02*
X50335771Y-101654761D01*
X50335771Y-101654761D02*
X50383390Y-101559523D01*
X50383390Y-101559523D02*
X50431009Y-101511904D01*
X50431009Y-101511904D02*
X50526247Y-101464285D01*
X50526247Y-101464285D02*
X50764342Y-101464285D01*
X50764342Y-101464285D02*
X50859580Y-101511904D01*
X50859580Y-101511904D02*
X50907200Y-101559523D01*
X50907200Y-101559523D02*
X50954819Y-101654761D01*
X50954819Y-101654761D02*
X50954819Y-101940475D01*
X50954819Y-101940475D02*
X50907200Y-102035713D01*
X50907200Y-102035713D02*
X50859580Y-102083332D01*
X89704819Y-97964285D02*
X88704819Y-97964285D01*
X88704819Y-97964285D02*
X88704819Y-97726190D01*
X88704819Y-97726190D02*
X88752438Y-97583333D01*
X88752438Y-97583333D02*
X88847676Y-97488095D01*
X88847676Y-97488095D02*
X88942914Y-97440476D01*
X88942914Y-97440476D02*
X89133390Y-97392857D01*
X89133390Y-97392857D02*
X89276247Y-97392857D01*
X89276247Y-97392857D02*
X89466723Y-97440476D01*
X89466723Y-97440476D02*
X89561961Y-97488095D01*
X89561961Y-97488095D02*
X89657200Y-97583333D01*
X89657200Y-97583333D02*
X89704819Y-97726190D01*
X89704819Y-97726190D02*
X89704819Y-97964285D01*
X89704819Y-96440476D02*
X89704819Y-97011904D01*
X89704819Y-96726190D02*
X88704819Y-96726190D01*
X88704819Y-96726190D02*
X88847676Y-96821428D01*
X88847676Y-96821428D02*
X88942914Y-96916666D01*
X88942914Y-96916666D02*
X88990533Y-97011904D01*
X89038152Y-95583333D02*
X89704819Y-95583333D01*
X88657200Y-95821428D02*
X89371485Y-96059523D01*
X89371485Y-96059523D02*
X89371485Y-95440476D01*
X30988095Y-128054819D02*
X30988095Y-128864342D01*
X30988095Y-128864342D02*
X31035714Y-128959580D01*
X31035714Y-128959580D02*
X31083333Y-129007200D01*
X31083333Y-129007200D02*
X31178571Y-129054819D01*
X31178571Y-129054819D02*
X31369047Y-129054819D01*
X31369047Y-129054819D02*
X31464285Y-129007200D01*
X31464285Y-129007200D02*
X31511904Y-128959580D01*
X31511904Y-128959580D02*
X31559523Y-128864342D01*
X31559523Y-128864342D02*
X31559523Y-128054819D01*
X32083333Y-129054819D02*
X32273809Y-129054819D01*
X32273809Y-129054819D02*
X32369047Y-129007200D01*
X32369047Y-129007200D02*
X32416666Y-128959580D01*
X32416666Y-128959580D02*
X32511904Y-128816723D01*
X32511904Y-128816723D02*
X32559523Y-128626247D01*
X32559523Y-128626247D02*
X32559523Y-128245295D01*
X32559523Y-128245295D02*
X32511904Y-128150057D01*
X32511904Y-128150057D02*
X32464285Y-128102438D01*
X32464285Y-128102438D02*
X32369047Y-128054819D01*
X32369047Y-128054819D02*
X32178571Y-128054819D01*
X32178571Y-128054819D02*
X32083333Y-128102438D01*
X32083333Y-128102438D02*
X32035714Y-128150057D01*
X32035714Y-128150057D02*
X31988095Y-128245295D01*
X31988095Y-128245295D02*
X31988095Y-128483390D01*
X31988095Y-128483390D02*
X32035714Y-128578628D01*
X32035714Y-128578628D02*
X32083333Y-128626247D01*
X32083333Y-128626247D02*
X32178571Y-128673866D01*
X32178571Y-128673866D02*
X32369047Y-128673866D01*
X32369047Y-128673866D02*
X32464285Y-128626247D01*
X32464285Y-128626247D02*
X32511904Y-128578628D01*
X32511904Y-128578628D02*
X32559523Y-128483390D01*
X61535714Y-95454819D02*
X61535714Y-94454819D01*
X61535714Y-94454819D02*
X61773809Y-94454819D01*
X61773809Y-94454819D02*
X61916666Y-94502438D01*
X61916666Y-94502438D02*
X62011904Y-94597676D01*
X62011904Y-94597676D02*
X62059523Y-94692914D01*
X62059523Y-94692914D02*
X62107142Y-94883390D01*
X62107142Y-94883390D02*
X62107142Y-95026247D01*
X62107142Y-95026247D02*
X62059523Y-95216723D01*
X62059523Y-95216723D02*
X62011904Y-95311961D01*
X62011904Y-95311961D02*
X61916666Y-95407200D01*
X61916666Y-95407200D02*
X61773809Y-95454819D01*
X61773809Y-95454819D02*
X61535714Y-95454819D01*
X63059523Y-95454819D02*
X62488095Y-95454819D01*
X62773809Y-95454819D02*
X62773809Y-94454819D01*
X62773809Y-94454819D02*
X62678571Y-94597676D01*
X62678571Y-94597676D02*
X62583333Y-94692914D01*
X62583333Y-94692914D02*
X62488095Y-94740533D01*
X64011904Y-95454819D02*
X63440476Y-95454819D01*
X63726190Y-95454819D02*
X63726190Y-94454819D01*
X63726190Y-94454819D02*
X63630952Y-94597676D01*
X63630952Y-94597676D02*
X63535714Y-94692914D01*
X63535714Y-94692914D02*
X63440476Y-94740533D01*
X71107142Y-135704819D02*
X70773809Y-135228628D01*
X70535714Y-135704819D02*
X70535714Y-134704819D01*
X70535714Y-134704819D02*
X70916666Y-134704819D01*
X70916666Y-134704819D02*
X71011904Y-134752438D01*
X71011904Y-134752438D02*
X71059523Y-134800057D01*
X71059523Y-134800057D02*
X71107142Y-134895295D01*
X71107142Y-134895295D02*
X71107142Y-135038152D01*
X71107142Y-135038152D02*
X71059523Y-135133390D01*
X71059523Y-135133390D02*
X71011904Y-135181009D01*
X71011904Y-135181009D02*
X70916666Y-135228628D01*
X70916666Y-135228628D02*
X70535714Y-135228628D01*
X71488095Y-134800057D02*
X71535714Y-134752438D01*
X71535714Y-134752438D02*
X71630952Y-134704819D01*
X71630952Y-134704819D02*
X71869047Y-134704819D01*
X71869047Y-134704819D02*
X71964285Y-134752438D01*
X71964285Y-134752438D02*
X72011904Y-134800057D01*
X72011904Y-134800057D02*
X72059523Y-134895295D01*
X72059523Y-134895295D02*
X72059523Y-134990533D01*
X72059523Y-134990533D02*
X72011904Y-135133390D01*
X72011904Y-135133390D02*
X71440476Y-135704819D01*
X71440476Y-135704819D02*
X72059523Y-135704819D01*
X72630952Y-135133390D02*
X72535714Y-135085771D01*
X72535714Y-135085771D02*
X72488095Y-135038152D01*
X72488095Y-135038152D02*
X72440476Y-134942914D01*
X72440476Y-134942914D02*
X72440476Y-134895295D01*
X72440476Y-134895295D02*
X72488095Y-134800057D01*
X72488095Y-134800057D02*
X72535714Y-134752438D01*
X72535714Y-134752438D02*
X72630952Y-134704819D01*
X72630952Y-134704819D02*
X72821428Y-134704819D01*
X72821428Y-134704819D02*
X72916666Y-134752438D01*
X72916666Y-134752438D02*
X72964285Y-134800057D01*
X72964285Y-134800057D02*
X73011904Y-134895295D01*
X73011904Y-134895295D02*
X73011904Y-134942914D01*
X73011904Y-134942914D02*
X72964285Y-135038152D01*
X72964285Y-135038152D02*
X72916666Y-135085771D01*
X72916666Y-135085771D02*
X72821428Y-135133390D01*
X72821428Y-135133390D02*
X72630952Y-135133390D01*
X72630952Y-135133390D02*
X72535714Y-135181009D01*
X72535714Y-135181009D02*
X72488095Y-135228628D01*
X72488095Y-135228628D02*
X72440476Y-135323866D01*
X72440476Y-135323866D02*
X72440476Y-135514342D01*
X72440476Y-135514342D02*
X72488095Y-135609580D01*
X72488095Y-135609580D02*
X72535714Y-135657200D01*
X72535714Y-135657200D02*
X72630952Y-135704819D01*
X72630952Y-135704819D02*
X72821428Y-135704819D01*
X72821428Y-135704819D02*
X72916666Y-135657200D01*
X72916666Y-135657200D02*
X72964285Y-135609580D01*
X72964285Y-135609580D02*
X73011904Y-135514342D01*
X73011904Y-135514342D02*
X73011904Y-135323866D01*
X73011904Y-135323866D02*
X72964285Y-135228628D01*
X72964285Y-135228628D02*
X72916666Y-135181009D01*
X72916666Y-135181009D02*
X72821428Y-135133390D01*
X52738095Y-117204819D02*
X52738095Y-118014342D01*
X52738095Y-118014342D02*
X52785714Y-118109580D01*
X52785714Y-118109580D02*
X52833333Y-118157200D01*
X52833333Y-118157200D02*
X52928571Y-118204819D01*
X52928571Y-118204819D02*
X53119047Y-118204819D01*
X53119047Y-118204819D02*
X53214285Y-118157200D01*
X53214285Y-118157200D02*
X53261904Y-118109580D01*
X53261904Y-118109580D02*
X53309523Y-118014342D01*
X53309523Y-118014342D02*
X53309523Y-117204819D01*
X53690476Y-117204819D02*
X54309523Y-117204819D01*
X54309523Y-117204819D02*
X53976190Y-117585771D01*
X53976190Y-117585771D02*
X54119047Y-117585771D01*
X54119047Y-117585771D02*
X54214285Y-117633390D01*
X54214285Y-117633390D02*
X54261904Y-117681009D01*
X54261904Y-117681009D02*
X54309523Y-117776247D01*
X54309523Y-117776247D02*
X54309523Y-118014342D01*
X54309523Y-118014342D02*
X54261904Y-118109580D01*
X54261904Y-118109580D02*
X54214285Y-118157200D01*
X54214285Y-118157200D02*
X54119047Y-118204819D01*
X54119047Y-118204819D02*
X53833333Y-118204819D01*
X53833333Y-118204819D02*
X53738095Y-118157200D01*
X53738095Y-118157200D02*
X53690476Y-118109580D01*
X46204819Y-121714285D02*
X45204819Y-121714285D01*
X45204819Y-121714285D02*
X45204819Y-121476190D01*
X45204819Y-121476190D02*
X45252438Y-121333333D01*
X45252438Y-121333333D02*
X45347676Y-121238095D01*
X45347676Y-121238095D02*
X45442914Y-121190476D01*
X45442914Y-121190476D02*
X45633390Y-121142857D01*
X45633390Y-121142857D02*
X45776247Y-121142857D01*
X45776247Y-121142857D02*
X45966723Y-121190476D01*
X45966723Y-121190476D02*
X46061961Y-121238095D01*
X46061961Y-121238095D02*
X46157200Y-121333333D01*
X46157200Y-121333333D02*
X46204819Y-121476190D01*
X46204819Y-121476190D02*
X46204819Y-121714285D01*
X45300057Y-120761904D02*
X45252438Y-120714285D01*
X45252438Y-120714285D02*
X45204819Y-120619047D01*
X45204819Y-120619047D02*
X45204819Y-120380952D01*
X45204819Y-120380952D02*
X45252438Y-120285714D01*
X45252438Y-120285714D02*
X45300057Y-120238095D01*
X45300057Y-120238095D02*
X45395295Y-120190476D01*
X45395295Y-120190476D02*
X45490533Y-120190476D01*
X45490533Y-120190476D02*
X45633390Y-120238095D01*
X45633390Y-120238095D02*
X46204819Y-120809523D01*
X46204819Y-120809523D02*
X46204819Y-120190476D01*
X45538152Y-119333333D02*
X46204819Y-119333333D01*
X45157200Y-119571428D02*
X45871485Y-119809523D01*
X45871485Y-119809523D02*
X45871485Y-119190476D01*
X89704819Y-116464285D02*
X88704819Y-116464285D01*
X88704819Y-116464285D02*
X88704819Y-116226190D01*
X88704819Y-116226190D02*
X88752438Y-116083333D01*
X88752438Y-116083333D02*
X88847676Y-115988095D01*
X88847676Y-115988095D02*
X88942914Y-115940476D01*
X88942914Y-115940476D02*
X89133390Y-115892857D01*
X89133390Y-115892857D02*
X89276247Y-115892857D01*
X89276247Y-115892857D02*
X89466723Y-115940476D01*
X89466723Y-115940476D02*
X89561961Y-115988095D01*
X89561961Y-115988095D02*
X89657200Y-116083333D01*
X89657200Y-116083333D02*
X89704819Y-116226190D01*
X89704819Y-116226190D02*
X89704819Y-116464285D01*
X89704819Y-114940476D02*
X89704819Y-115511904D01*
X89704819Y-115226190D02*
X88704819Y-115226190D01*
X88704819Y-115226190D02*
X88847676Y-115321428D01*
X88847676Y-115321428D02*
X88942914Y-115416666D01*
X88942914Y-115416666D02*
X88990533Y-115511904D01*
X89133390Y-114369047D02*
X89085771Y-114464285D01*
X89085771Y-114464285D02*
X89038152Y-114511904D01*
X89038152Y-114511904D02*
X88942914Y-114559523D01*
X88942914Y-114559523D02*
X88895295Y-114559523D01*
X88895295Y-114559523D02*
X88800057Y-114511904D01*
X88800057Y-114511904D02*
X88752438Y-114464285D01*
X88752438Y-114464285D02*
X88704819Y-114369047D01*
X88704819Y-114369047D02*
X88704819Y-114178571D01*
X88704819Y-114178571D02*
X88752438Y-114083333D01*
X88752438Y-114083333D02*
X88800057Y-114035714D01*
X88800057Y-114035714D02*
X88895295Y-113988095D01*
X88895295Y-113988095D02*
X88942914Y-113988095D01*
X88942914Y-113988095D02*
X89038152Y-114035714D01*
X89038152Y-114035714D02*
X89085771Y-114083333D01*
X89085771Y-114083333D02*
X89133390Y-114178571D01*
X89133390Y-114178571D02*
X89133390Y-114369047D01*
X89133390Y-114369047D02*
X89181009Y-114464285D01*
X89181009Y-114464285D02*
X89228628Y-114511904D01*
X89228628Y-114511904D02*
X89323866Y-114559523D01*
X89323866Y-114559523D02*
X89514342Y-114559523D01*
X89514342Y-114559523D02*
X89609580Y-114511904D01*
X89609580Y-114511904D02*
X89657200Y-114464285D01*
X89657200Y-114464285D02*
X89704819Y-114369047D01*
X89704819Y-114369047D02*
X89704819Y-114178571D01*
X89704819Y-114178571D02*
X89657200Y-114083333D01*
X89657200Y-114083333D02*
X89609580Y-114035714D01*
X89609580Y-114035714D02*
X89514342Y-113988095D01*
X89514342Y-113988095D02*
X89323866Y-113988095D01*
X89323866Y-113988095D02*
X89228628Y-114035714D01*
X89228628Y-114035714D02*
X89181009Y-114083333D01*
X89181009Y-114083333D02*
X89133390Y-114178571D01*
X38785714Y-127954819D02*
X38785714Y-126954819D01*
X38785714Y-126954819D02*
X39023809Y-126954819D01*
X39023809Y-126954819D02*
X39166666Y-127002438D01*
X39166666Y-127002438D02*
X39261904Y-127097676D01*
X39261904Y-127097676D02*
X39309523Y-127192914D01*
X39309523Y-127192914D02*
X39357142Y-127383390D01*
X39357142Y-127383390D02*
X39357142Y-127526247D01*
X39357142Y-127526247D02*
X39309523Y-127716723D01*
X39309523Y-127716723D02*
X39261904Y-127811961D01*
X39261904Y-127811961D02*
X39166666Y-127907200D01*
X39166666Y-127907200D02*
X39023809Y-127954819D01*
X39023809Y-127954819D02*
X38785714Y-127954819D01*
X39690476Y-126954819D02*
X40309523Y-126954819D01*
X40309523Y-126954819D02*
X39976190Y-127335771D01*
X39976190Y-127335771D02*
X40119047Y-127335771D01*
X40119047Y-127335771D02*
X40214285Y-127383390D01*
X40214285Y-127383390D02*
X40261904Y-127431009D01*
X40261904Y-127431009D02*
X40309523Y-127526247D01*
X40309523Y-127526247D02*
X40309523Y-127764342D01*
X40309523Y-127764342D02*
X40261904Y-127859580D01*
X40261904Y-127859580D02*
X40214285Y-127907200D01*
X40214285Y-127907200D02*
X40119047Y-127954819D01*
X40119047Y-127954819D02*
X39833333Y-127954819D01*
X39833333Y-127954819D02*
X39738095Y-127907200D01*
X39738095Y-127907200D02*
X39690476Y-127859580D01*
X41214285Y-126954819D02*
X40738095Y-126954819D01*
X40738095Y-126954819D02*
X40690476Y-127431009D01*
X40690476Y-127431009D02*
X40738095Y-127383390D01*
X40738095Y-127383390D02*
X40833333Y-127335771D01*
X40833333Y-127335771D02*
X41071428Y-127335771D01*
X41071428Y-127335771D02*
X41166666Y-127383390D01*
X41166666Y-127383390D02*
X41214285Y-127431009D01*
X41214285Y-127431009D02*
X41261904Y-127526247D01*
X41261904Y-127526247D02*
X41261904Y-127764342D01*
X41261904Y-127764342D02*
X41214285Y-127859580D01*
X41214285Y-127859580D02*
X41166666Y-127907200D01*
X41166666Y-127907200D02*
X41071428Y-127954819D01*
X41071428Y-127954819D02*
X40833333Y-127954819D01*
X40833333Y-127954819D02*
X40738095Y-127907200D01*
X40738095Y-127907200D02*
X40690476Y-127859580D01*
X95607142Y-87709580D02*
X95559523Y-87757200D01*
X95559523Y-87757200D02*
X95416666Y-87804819D01*
X95416666Y-87804819D02*
X95321428Y-87804819D01*
X95321428Y-87804819D02*
X95178571Y-87757200D01*
X95178571Y-87757200D02*
X95083333Y-87661961D01*
X95083333Y-87661961D02*
X95035714Y-87566723D01*
X95035714Y-87566723D02*
X94988095Y-87376247D01*
X94988095Y-87376247D02*
X94988095Y-87233390D01*
X94988095Y-87233390D02*
X95035714Y-87042914D01*
X95035714Y-87042914D02*
X95083333Y-86947676D01*
X95083333Y-86947676D02*
X95178571Y-86852438D01*
X95178571Y-86852438D02*
X95321428Y-86804819D01*
X95321428Y-86804819D02*
X95416666Y-86804819D01*
X95416666Y-86804819D02*
X95559523Y-86852438D01*
X95559523Y-86852438D02*
X95607142Y-86900057D01*
X96559523Y-87804819D02*
X95988095Y-87804819D01*
X96273809Y-87804819D02*
X96273809Y-86804819D01*
X96273809Y-86804819D02*
X96178571Y-86947676D01*
X96178571Y-86947676D02*
X96083333Y-87042914D01*
X96083333Y-87042914D02*
X95988095Y-87090533D01*
X97416666Y-87138152D02*
X97416666Y-87804819D01*
X97178571Y-86757200D02*
X96940476Y-87471485D01*
X96940476Y-87471485D02*
X97559523Y-87471485D01*
X46204819Y-102988094D02*
X45204819Y-102988094D01*
X45204819Y-102988094D02*
X45204819Y-102749999D01*
X45204819Y-102749999D02*
X45252438Y-102607142D01*
X45252438Y-102607142D02*
X45347676Y-102511904D01*
X45347676Y-102511904D02*
X45442914Y-102464285D01*
X45442914Y-102464285D02*
X45633390Y-102416666D01*
X45633390Y-102416666D02*
X45776247Y-102416666D01*
X45776247Y-102416666D02*
X45966723Y-102464285D01*
X45966723Y-102464285D02*
X46061961Y-102511904D01*
X46061961Y-102511904D02*
X46157200Y-102607142D01*
X46157200Y-102607142D02*
X46204819Y-102749999D01*
X46204819Y-102749999D02*
X46204819Y-102988094D01*
X45204819Y-101559523D02*
X45204819Y-101749999D01*
X45204819Y-101749999D02*
X45252438Y-101845237D01*
X45252438Y-101845237D02*
X45300057Y-101892856D01*
X45300057Y-101892856D02*
X45442914Y-101988094D01*
X45442914Y-101988094D02*
X45633390Y-102035713D01*
X45633390Y-102035713D02*
X46014342Y-102035713D01*
X46014342Y-102035713D02*
X46109580Y-101988094D01*
X46109580Y-101988094D02*
X46157200Y-101940475D01*
X46157200Y-101940475D02*
X46204819Y-101845237D01*
X46204819Y-101845237D02*
X46204819Y-101654761D01*
X46204819Y-101654761D02*
X46157200Y-101559523D01*
X46157200Y-101559523D02*
X46109580Y-101511904D01*
X46109580Y-101511904D02*
X46014342Y-101464285D01*
X46014342Y-101464285D02*
X45776247Y-101464285D01*
X45776247Y-101464285D02*
X45681009Y-101511904D01*
X45681009Y-101511904D02*
X45633390Y-101559523D01*
X45633390Y-101559523D02*
X45585771Y-101654761D01*
X45585771Y-101654761D02*
X45585771Y-101845237D01*
X45585771Y-101845237D02*
X45633390Y-101940475D01*
X45633390Y-101940475D02*
X45681009Y-101988094D01*
X45681009Y-101988094D02*
X45776247Y-102035713D01*
X71107142Y-96954819D02*
X70773809Y-96478628D01*
X70535714Y-96954819D02*
X70535714Y-95954819D01*
X70535714Y-95954819D02*
X70916666Y-95954819D01*
X70916666Y-95954819D02*
X71011904Y-96002438D01*
X71011904Y-96002438D02*
X71059523Y-96050057D01*
X71059523Y-96050057D02*
X71107142Y-96145295D01*
X71107142Y-96145295D02*
X71107142Y-96288152D01*
X71107142Y-96288152D02*
X71059523Y-96383390D01*
X71059523Y-96383390D02*
X71011904Y-96431009D01*
X71011904Y-96431009D02*
X70916666Y-96478628D01*
X70916666Y-96478628D02*
X70535714Y-96478628D01*
X72059523Y-96954819D02*
X71488095Y-96954819D01*
X71773809Y-96954819D02*
X71773809Y-95954819D01*
X71773809Y-95954819D02*
X71678571Y-96097676D01*
X71678571Y-96097676D02*
X71583333Y-96192914D01*
X71583333Y-96192914D02*
X71488095Y-96240533D01*
X72964285Y-95954819D02*
X72488095Y-95954819D01*
X72488095Y-95954819D02*
X72440476Y-96431009D01*
X72440476Y-96431009D02*
X72488095Y-96383390D01*
X72488095Y-96383390D02*
X72583333Y-96335771D01*
X72583333Y-96335771D02*
X72821428Y-96335771D01*
X72821428Y-96335771D02*
X72916666Y-96383390D01*
X72916666Y-96383390D02*
X72964285Y-96431009D01*
X72964285Y-96431009D02*
X73011904Y-96526247D01*
X73011904Y-96526247D02*
X73011904Y-96764342D01*
X73011904Y-96764342D02*
X72964285Y-96859580D01*
X72964285Y-96859580D02*
X72916666Y-96907200D01*
X72916666Y-96907200D02*
X72821428Y-96954819D01*
X72821428Y-96954819D02*
X72583333Y-96954819D01*
X72583333Y-96954819D02*
X72488095Y-96907200D01*
X72488095Y-96907200D02*
X72440476Y-96859580D01*
X39011905Y-102954819D02*
X39011905Y-101954819D01*
X39011905Y-101954819D02*
X39250000Y-101954819D01*
X39250000Y-101954819D02*
X39392857Y-102002438D01*
X39392857Y-102002438D02*
X39488095Y-102097676D01*
X39488095Y-102097676D02*
X39535714Y-102192914D01*
X39535714Y-102192914D02*
X39583333Y-102383390D01*
X39583333Y-102383390D02*
X39583333Y-102526247D01*
X39583333Y-102526247D02*
X39535714Y-102716723D01*
X39535714Y-102716723D02*
X39488095Y-102811961D01*
X39488095Y-102811961D02*
X39392857Y-102907200D01*
X39392857Y-102907200D02*
X39250000Y-102954819D01*
X39250000Y-102954819D02*
X39011905Y-102954819D01*
X40535714Y-102954819D02*
X39964286Y-102954819D01*
X40250000Y-102954819D02*
X40250000Y-101954819D01*
X40250000Y-101954819D02*
X40154762Y-102097676D01*
X40154762Y-102097676D02*
X40059524Y-102192914D01*
X40059524Y-102192914D02*
X39964286Y-102240533D01*
X53204819Y-102416666D02*
X52728628Y-102749999D01*
X53204819Y-102988094D02*
X52204819Y-102988094D01*
X52204819Y-102988094D02*
X52204819Y-102607142D01*
X52204819Y-102607142D02*
X52252438Y-102511904D01*
X52252438Y-102511904D02*
X52300057Y-102464285D01*
X52300057Y-102464285D02*
X52395295Y-102416666D01*
X52395295Y-102416666D02*
X52538152Y-102416666D01*
X52538152Y-102416666D02*
X52633390Y-102464285D01*
X52633390Y-102464285D02*
X52681009Y-102511904D01*
X52681009Y-102511904D02*
X52728628Y-102607142D01*
X52728628Y-102607142D02*
X52728628Y-102988094D01*
X53204819Y-101940475D02*
X53204819Y-101749999D01*
X53204819Y-101749999D02*
X53157200Y-101654761D01*
X53157200Y-101654761D02*
X53109580Y-101607142D01*
X53109580Y-101607142D02*
X52966723Y-101511904D01*
X52966723Y-101511904D02*
X52776247Y-101464285D01*
X52776247Y-101464285D02*
X52395295Y-101464285D01*
X52395295Y-101464285D02*
X52300057Y-101511904D01*
X52300057Y-101511904D02*
X52252438Y-101559523D01*
X52252438Y-101559523D02*
X52204819Y-101654761D01*
X52204819Y-101654761D02*
X52204819Y-101845237D01*
X52204819Y-101845237D02*
X52252438Y-101940475D01*
X52252438Y-101940475D02*
X52300057Y-101988094D01*
X52300057Y-101988094D02*
X52395295Y-102035713D01*
X52395295Y-102035713D02*
X52633390Y-102035713D01*
X52633390Y-102035713D02*
X52728628Y-101988094D01*
X52728628Y-101988094D02*
X52776247Y-101940475D01*
X52776247Y-101940475D02*
X52823866Y-101845237D01*
X52823866Y-101845237D02*
X52823866Y-101654761D01*
X52823866Y-101654761D02*
X52776247Y-101559523D01*
X52776247Y-101559523D02*
X52728628Y-101511904D01*
X52728628Y-101511904D02*
X52633390Y-101464285D01*
X72857142Y-127704819D02*
X72523809Y-127228628D01*
X72285714Y-127704819D02*
X72285714Y-126704819D01*
X72285714Y-126704819D02*
X72666666Y-126704819D01*
X72666666Y-126704819D02*
X72761904Y-126752438D01*
X72761904Y-126752438D02*
X72809523Y-126800057D01*
X72809523Y-126800057D02*
X72857142Y-126895295D01*
X72857142Y-126895295D02*
X72857142Y-127038152D01*
X72857142Y-127038152D02*
X72809523Y-127133390D01*
X72809523Y-127133390D02*
X72761904Y-127181009D01*
X72761904Y-127181009D02*
X72666666Y-127228628D01*
X72666666Y-127228628D02*
X72285714Y-127228628D01*
X73238095Y-126800057D02*
X73285714Y-126752438D01*
X73285714Y-126752438D02*
X73380952Y-126704819D01*
X73380952Y-126704819D02*
X73619047Y-126704819D01*
X73619047Y-126704819D02*
X73714285Y-126752438D01*
X73714285Y-126752438D02*
X73761904Y-126800057D01*
X73761904Y-126800057D02*
X73809523Y-126895295D01*
X73809523Y-126895295D02*
X73809523Y-126990533D01*
X73809523Y-126990533D02*
X73761904Y-127133390D01*
X73761904Y-127133390D02*
X73190476Y-127704819D01*
X73190476Y-127704819D02*
X73809523Y-127704819D01*
X74142857Y-126704819D02*
X74761904Y-126704819D01*
X74761904Y-126704819D02*
X74428571Y-127085771D01*
X74428571Y-127085771D02*
X74571428Y-127085771D01*
X74571428Y-127085771D02*
X74666666Y-127133390D01*
X74666666Y-127133390D02*
X74714285Y-127181009D01*
X74714285Y-127181009D02*
X74761904Y-127276247D01*
X74761904Y-127276247D02*
X74761904Y-127514342D01*
X74761904Y-127514342D02*
X74714285Y-127609580D01*
X74714285Y-127609580D02*
X74666666Y-127657200D01*
X74666666Y-127657200D02*
X74571428Y-127704819D01*
X74571428Y-127704819D02*
X74285714Y-127704819D01*
X74285714Y-127704819D02*
X74190476Y-127657200D01*
X74190476Y-127657200D02*
X74142857Y-127609580D01*
X52738095Y-80204819D02*
X52738095Y-81014342D01*
X52738095Y-81014342D02*
X52785714Y-81109580D01*
X52785714Y-81109580D02*
X52833333Y-81157200D01*
X52833333Y-81157200D02*
X52928571Y-81204819D01*
X52928571Y-81204819D02*
X53119047Y-81204819D01*
X53119047Y-81204819D02*
X53214285Y-81157200D01*
X53214285Y-81157200D02*
X53261904Y-81109580D01*
X53261904Y-81109580D02*
X53309523Y-81014342D01*
X53309523Y-81014342D02*
X53309523Y-80204819D01*
X54309523Y-81204819D02*
X53738095Y-81204819D01*
X54023809Y-81204819D02*
X54023809Y-80204819D01*
X54023809Y-80204819D02*
X53928571Y-80347676D01*
X53928571Y-80347676D02*
X53833333Y-80442914D01*
X53833333Y-80442914D02*
X53738095Y-80490533D01*
X53204819Y-139642857D02*
X52728628Y-139976190D01*
X53204819Y-140214285D02*
X52204819Y-140214285D01*
X52204819Y-140214285D02*
X52204819Y-139833333D01*
X52204819Y-139833333D02*
X52252438Y-139738095D01*
X52252438Y-139738095D02*
X52300057Y-139690476D01*
X52300057Y-139690476D02*
X52395295Y-139642857D01*
X52395295Y-139642857D02*
X52538152Y-139642857D01*
X52538152Y-139642857D02*
X52633390Y-139690476D01*
X52633390Y-139690476D02*
X52681009Y-139738095D01*
X52681009Y-139738095D02*
X52728628Y-139833333D01*
X52728628Y-139833333D02*
X52728628Y-140214285D01*
X52300057Y-139261904D02*
X52252438Y-139214285D01*
X52252438Y-139214285D02*
X52204819Y-139119047D01*
X52204819Y-139119047D02*
X52204819Y-138880952D01*
X52204819Y-138880952D02*
X52252438Y-138785714D01*
X52252438Y-138785714D02*
X52300057Y-138738095D01*
X52300057Y-138738095D02*
X52395295Y-138690476D01*
X52395295Y-138690476D02*
X52490533Y-138690476D01*
X52490533Y-138690476D02*
X52633390Y-138738095D01*
X52633390Y-138738095D02*
X53204819Y-139309523D01*
X53204819Y-139309523D02*
X53204819Y-138690476D01*
X52204819Y-137833333D02*
X52204819Y-138023809D01*
X52204819Y-138023809D02*
X52252438Y-138119047D01*
X52252438Y-138119047D02*
X52300057Y-138166666D01*
X52300057Y-138166666D02*
X52442914Y-138261904D01*
X52442914Y-138261904D02*
X52633390Y-138309523D01*
X52633390Y-138309523D02*
X53014342Y-138309523D01*
X53014342Y-138309523D02*
X53109580Y-138261904D01*
X53109580Y-138261904D02*
X53157200Y-138214285D01*
X53157200Y-138214285D02*
X53204819Y-138119047D01*
X53204819Y-138119047D02*
X53204819Y-137928571D01*
X53204819Y-137928571D02*
X53157200Y-137833333D01*
X53157200Y-137833333D02*
X53109580Y-137785714D01*
X53109580Y-137785714D02*
X53014342Y-137738095D01*
X53014342Y-137738095D02*
X52776247Y-137738095D01*
X52776247Y-137738095D02*
X52681009Y-137785714D01*
X52681009Y-137785714D02*
X52633390Y-137833333D01*
X52633390Y-137833333D02*
X52585771Y-137928571D01*
X52585771Y-137928571D02*
X52585771Y-138119047D01*
X52585771Y-138119047D02*
X52633390Y-138214285D01*
X52633390Y-138214285D02*
X52681009Y-138261904D01*
X52681009Y-138261904D02*
X52776247Y-138309523D01*
X34357142Y-97204819D02*
X34023809Y-96728628D01*
X33785714Y-97204819D02*
X33785714Y-96204819D01*
X33785714Y-96204819D02*
X34166666Y-96204819D01*
X34166666Y-96204819D02*
X34261904Y-96252438D01*
X34261904Y-96252438D02*
X34309523Y-96300057D01*
X34309523Y-96300057D02*
X34357142Y-96395295D01*
X34357142Y-96395295D02*
X34357142Y-96538152D01*
X34357142Y-96538152D02*
X34309523Y-96633390D01*
X34309523Y-96633390D02*
X34261904Y-96681009D01*
X34261904Y-96681009D02*
X34166666Y-96728628D01*
X34166666Y-96728628D02*
X33785714Y-96728628D01*
X35214285Y-96538152D02*
X35214285Y-97204819D01*
X34976190Y-96157200D02*
X34738095Y-96871485D01*
X34738095Y-96871485D02*
X35357142Y-96871485D01*
X35928571Y-96204819D02*
X36023809Y-96204819D01*
X36023809Y-96204819D02*
X36119047Y-96252438D01*
X36119047Y-96252438D02*
X36166666Y-96300057D01*
X36166666Y-96300057D02*
X36214285Y-96395295D01*
X36214285Y-96395295D02*
X36261904Y-96585771D01*
X36261904Y-96585771D02*
X36261904Y-96823866D01*
X36261904Y-96823866D02*
X36214285Y-97014342D01*
X36214285Y-97014342D02*
X36166666Y-97109580D01*
X36166666Y-97109580D02*
X36119047Y-97157200D01*
X36119047Y-97157200D02*
X36023809Y-97204819D01*
X36023809Y-97204819D02*
X35928571Y-97204819D01*
X35928571Y-97204819D02*
X35833333Y-97157200D01*
X35833333Y-97157200D02*
X35785714Y-97109580D01*
X35785714Y-97109580D02*
X35738095Y-97014342D01*
X35738095Y-97014342D02*
X35690476Y-96823866D01*
X35690476Y-96823866D02*
X35690476Y-96585771D01*
X35690476Y-96585771D02*
X35738095Y-96395295D01*
X35738095Y-96395295D02*
X35785714Y-96300057D01*
X35785714Y-96300057D02*
X35833333Y-96252438D01*
X35833333Y-96252438D02*
X35928571Y-96204819D01*
X29130952Y-105554819D02*
X28797619Y-105078628D01*
X28559524Y-105554819D02*
X28559524Y-104554819D01*
X28559524Y-104554819D02*
X28940476Y-104554819D01*
X28940476Y-104554819D02*
X29035714Y-104602438D01*
X29035714Y-104602438D02*
X29083333Y-104650057D01*
X29083333Y-104650057D02*
X29130952Y-104745295D01*
X29130952Y-104745295D02*
X29130952Y-104888152D01*
X29130952Y-104888152D02*
X29083333Y-104983390D01*
X29083333Y-104983390D02*
X29035714Y-105031009D01*
X29035714Y-105031009D02*
X28940476Y-105078628D01*
X28940476Y-105078628D02*
X28559524Y-105078628D01*
X30083333Y-105554819D02*
X29511905Y-105554819D01*
X29797619Y-105554819D02*
X29797619Y-104554819D01*
X29797619Y-104554819D02*
X29702381Y-104697676D01*
X29702381Y-104697676D02*
X29607143Y-104792914D01*
X29607143Y-104792914D02*
X29511905Y-104840533D01*
X30702381Y-104554819D02*
X30797619Y-104554819D01*
X30797619Y-104554819D02*
X30892857Y-104602438D01*
X30892857Y-104602438D02*
X30940476Y-104650057D01*
X30940476Y-104650057D02*
X30988095Y-104745295D01*
X30988095Y-104745295D02*
X31035714Y-104935771D01*
X31035714Y-104935771D02*
X31035714Y-105173866D01*
X31035714Y-105173866D02*
X30988095Y-105364342D01*
X30988095Y-105364342D02*
X30940476Y-105459580D01*
X30940476Y-105459580D02*
X30892857Y-105507200D01*
X30892857Y-105507200D02*
X30797619Y-105554819D01*
X30797619Y-105554819D02*
X30702381Y-105554819D01*
X30702381Y-105554819D02*
X30607143Y-105507200D01*
X30607143Y-105507200D02*
X30559524Y-105459580D01*
X30559524Y-105459580D02*
X30511905Y-105364342D01*
X30511905Y-105364342D02*
X30464286Y-105173866D01*
X30464286Y-105173866D02*
X30464286Y-104935771D01*
X30464286Y-104935771D02*
X30511905Y-104745295D01*
X30511905Y-104745295D02*
X30559524Y-104650057D01*
X30559524Y-104650057D02*
X30607143Y-104602438D01*
X30607143Y-104602438D02*
X30702381Y-104554819D01*
X31654762Y-104554819D02*
X31750000Y-104554819D01*
X31750000Y-104554819D02*
X31845238Y-104602438D01*
X31845238Y-104602438D02*
X31892857Y-104650057D01*
X31892857Y-104650057D02*
X31940476Y-104745295D01*
X31940476Y-104745295D02*
X31988095Y-104935771D01*
X31988095Y-104935771D02*
X31988095Y-105173866D01*
X31988095Y-105173866D02*
X31940476Y-105364342D01*
X31940476Y-105364342D02*
X31892857Y-105459580D01*
X31892857Y-105459580D02*
X31845238Y-105507200D01*
X31845238Y-105507200D02*
X31750000Y-105554819D01*
X31750000Y-105554819D02*
X31654762Y-105554819D01*
X31654762Y-105554819D02*
X31559524Y-105507200D01*
X31559524Y-105507200D02*
X31511905Y-105459580D01*
X31511905Y-105459580D02*
X31464286Y-105364342D01*
X31464286Y-105364342D02*
X31416667Y-105173866D01*
X31416667Y-105173866D02*
X31416667Y-104935771D01*
X31416667Y-104935771D02*
X31464286Y-104745295D01*
X31464286Y-104745295D02*
X31511905Y-104650057D01*
X31511905Y-104650057D02*
X31559524Y-104602438D01*
X31559524Y-104602438D02*
X31654762Y-104554819D01*
X71107142Y-133954819D02*
X70773809Y-133478628D01*
X70535714Y-133954819D02*
X70535714Y-132954819D01*
X70535714Y-132954819D02*
X70916666Y-132954819D01*
X70916666Y-132954819D02*
X71011904Y-133002438D01*
X71011904Y-133002438D02*
X71059523Y-133050057D01*
X71059523Y-133050057D02*
X71107142Y-133145295D01*
X71107142Y-133145295D02*
X71107142Y-133288152D01*
X71107142Y-133288152D02*
X71059523Y-133383390D01*
X71059523Y-133383390D02*
X71011904Y-133431009D01*
X71011904Y-133431009D02*
X70916666Y-133478628D01*
X70916666Y-133478628D02*
X70535714Y-133478628D01*
X71488095Y-133050057D02*
X71535714Y-133002438D01*
X71535714Y-133002438D02*
X71630952Y-132954819D01*
X71630952Y-132954819D02*
X71869047Y-132954819D01*
X71869047Y-132954819D02*
X71964285Y-133002438D01*
X71964285Y-133002438D02*
X72011904Y-133050057D01*
X72011904Y-133050057D02*
X72059523Y-133145295D01*
X72059523Y-133145295D02*
X72059523Y-133240533D01*
X72059523Y-133240533D02*
X72011904Y-133383390D01*
X72011904Y-133383390D02*
X71440476Y-133954819D01*
X71440476Y-133954819D02*
X72059523Y-133954819D01*
X72535714Y-133954819D02*
X72726190Y-133954819D01*
X72726190Y-133954819D02*
X72821428Y-133907200D01*
X72821428Y-133907200D02*
X72869047Y-133859580D01*
X72869047Y-133859580D02*
X72964285Y-133716723D01*
X72964285Y-133716723D02*
X73011904Y-133526247D01*
X73011904Y-133526247D02*
X73011904Y-133145295D01*
X73011904Y-133145295D02*
X72964285Y-133050057D01*
X72964285Y-133050057D02*
X72916666Y-133002438D01*
X72916666Y-133002438D02*
X72821428Y-132954819D01*
X72821428Y-132954819D02*
X72630952Y-132954819D01*
X72630952Y-132954819D02*
X72535714Y-133002438D01*
X72535714Y-133002438D02*
X72488095Y-133050057D01*
X72488095Y-133050057D02*
X72440476Y-133145295D01*
X72440476Y-133145295D02*
X72440476Y-133383390D01*
X72440476Y-133383390D02*
X72488095Y-133478628D01*
X72488095Y-133478628D02*
X72535714Y-133526247D01*
X72535714Y-133526247D02*
X72630952Y-133573866D01*
X72630952Y-133573866D02*
X72821428Y-133573866D01*
X72821428Y-133573866D02*
X72916666Y-133526247D01*
X72916666Y-133526247D02*
X72964285Y-133478628D01*
X72964285Y-133478628D02*
X73011904Y-133383390D01*
X88954819Y-86238094D02*
X87954819Y-86238094D01*
X87954819Y-86238094D02*
X87954819Y-85999999D01*
X87954819Y-85999999D02*
X88002438Y-85857142D01*
X88002438Y-85857142D02*
X88097676Y-85761904D01*
X88097676Y-85761904D02*
X88192914Y-85714285D01*
X88192914Y-85714285D02*
X88383390Y-85666666D01*
X88383390Y-85666666D02*
X88526247Y-85666666D01*
X88526247Y-85666666D02*
X88716723Y-85714285D01*
X88716723Y-85714285D02*
X88811961Y-85761904D01*
X88811961Y-85761904D02*
X88907200Y-85857142D01*
X88907200Y-85857142D02*
X88954819Y-85999999D01*
X88954819Y-85999999D02*
X88954819Y-86238094D01*
X88954819Y-85190475D02*
X88954819Y-84999999D01*
X88954819Y-84999999D02*
X88907200Y-84904761D01*
X88907200Y-84904761D02*
X88859580Y-84857142D01*
X88859580Y-84857142D02*
X88716723Y-84761904D01*
X88716723Y-84761904D02*
X88526247Y-84714285D01*
X88526247Y-84714285D02*
X88145295Y-84714285D01*
X88145295Y-84714285D02*
X88050057Y-84761904D01*
X88050057Y-84761904D02*
X88002438Y-84809523D01*
X88002438Y-84809523D02*
X87954819Y-84904761D01*
X87954819Y-84904761D02*
X87954819Y-85095237D01*
X87954819Y-85095237D02*
X88002438Y-85190475D01*
X88002438Y-85190475D02*
X88050057Y-85238094D01*
X88050057Y-85238094D02*
X88145295Y-85285713D01*
X88145295Y-85285713D02*
X88383390Y-85285713D01*
X88383390Y-85285713D02*
X88478628Y-85238094D01*
X88478628Y-85238094D02*
X88526247Y-85190475D01*
X88526247Y-85190475D02*
X88573866Y-85095237D01*
X88573866Y-85095237D02*
X88573866Y-84904761D01*
X88573866Y-84904761D02*
X88526247Y-84809523D01*
X88526247Y-84809523D02*
X88478628Y-84761904D01*
X88478628Y-84761904D02*
X88383390Y-84714285D01*
X61535714Y-132454819D02*
X61535714Y-131454819D01*
X61535714Y-131454819D02*
X61773809Y-131454819D01*
X61773809Y-131454819D02*
X61916666Y-131502438D01*
X61916666Y-131502438D02*
X62011904Y-131597676D01*
X62011904Y-131597676D02*
X62059523Y-131692914D01*
X62059523Y-131692914D02*
X62107142Y-131883390D01*
X62107142Y-131883390D02*
X62107142Y-132026247D01*
X62107142Y-132026247D02*
X62059523Y-132216723D01*
X62059523Y-132216723D02*
X62011904Y-132311961D01*
X62011904Y-132311961D02*
X61916666Y-132407200D01*
X61916666Y-132407200D02*
X61773809Y-132454819D01*
X61773809Y-132454819D02*
X61535714Y-132454819D01*
X63059523Y-132454819D02*
X62488095Y-132454819D01*
X62773809Y-132454819D02*
X62773809Y-131454819D01*
X62773809Y-131454819D02*
X62678571Y-131597676D01*
X62678571Y-131597676D02*
X62583333Y-131692914D01*
X62583333Y-131692914D02*
X62488095Y-131740533D01*
X63535714Y-132454819D02*
X63726190Y-132454819D01*
X63726190Y-132454819D02*
X63821428Y-132407200D01*
X63821428Y-132407200D02*
X63869047Y-132359580D01*
X63869047Y-132359580D02*
X63964285Y-132216723D01*
X63964285Y-132216723D02*
X64011904Y-132026247D01*
X64011904Y-132026247D02*
X64011904Y-131645295D01*
X64011904Y-131645295D02*
X63964285Y-131550057D01*
X63964285Y-131550057D02*
X63916666Y-131502438D01*
X63916666Y-131502438D02*
X63821428Y-131454819D01*
X63821428Y-131454819D02*
X63630952Y-131454819D01*
X63630952Y-131454819D02*
X63535714Y-131502438D01*
X63535714Y-131502438D02*
X63488095Y-131550057D01*
X63488095Y-131550057D02*
X63440476Y-131645295D01*
X63440476Y-131645295D02*
X63440476Y-131883390D01*
X63440476Y-131883390D02*
X63488095Y-131978628D01*
X63488095Y-131978628D02*
X63535714Y-132026247D01*
X63535714Y-132026247D02*
X63630952Y-132073866D01*
X63630952Y-132073866D02*
X63821428Y-132073866D01*
X63821428Y-132073866D02*
X63916666Y-132026247D01*
X63916666Y-132026247D02*
X63964285Y-131978628D01*
X63964285Y-131978628D02*
X64011904Y-131883390D01*
X38785714Y-120954819D02*
X38785714Y-119954819D01*
X38785714Y-119954819D02*
X39023809Y-119954819D01*
X39023809Y-119954819D02*
X39166666Y-120002438D01*
X39166666Y-120002438D02*
X39261904Y-120097676D01*
X39261904Y-120097676D02*
X39309523Y-120192914D01*
X39309523Y-120192914D02*
X39357142Y-120383390D01*
X39357142Y-120383390D02*
X39357142Y-120526247D01*
X39357142Y-120526247D02*
X39309523Y-120716723D01*
X39309523Y-120716723D02*
X39261904Y-120811961D01*
X39261904Y-120811961D02*
X39166666Y-120907200D01*
X39166666Y-120907200D02*
X39023809Y-120954819D01*
X39023809Y-120954819D02*
X38785714Y-120954819D01*
X39690476Y-119954819D02*
X40309523Y-119954819D01*
X40309523Y-119954819D02*
X39976190Y-120335771D01*
X39976190Y-120335771D02*
X40119047Y-120335771D01*
X40119047Y-120335771D02*
X40214285Y-120383390D01*
X40214285Y-120383390D02*
X40261904Y-120431009D01*
X40261904Y-120431009D02*
X40309523Y-120526247D01*
X40309523Y-120526247D02*
X40309523Y-120764342D01*
X40309523Y-120764342D02*
X40261904Y-120859580D01*
X40261904Y-120859580D02*
X40214285Y-120907200D01*
X40214285Y-120907200D02*
X40119047Y-120954819D01*
X40119047Y-120954819D02*
X39833333Y-120954819D01*
X39833333Y-120954819D02*
X39738095Y-120907200D01*
X39738095Y-120907200D02*
X39690476Y-120859580D01*
X41166666Y-120288152D02*
X41166666Y-120954819D01*
X40928571Y-119907200D02*
X40690476Y-120621485D01*
X40690476Y-120621485D02*
X41309523Y-120621485D01*
X30988095Y-121054819D02*
X30988095Y-121864342D01*
X30988095Y-121864342D02*
X31035714Y-121959580D01*
X31035714Y-121959580D02*
X31083333Y-122007200D01*
X31083333Y-122007200D02*
X31178571Y-122054819D01*
X31178571Y-122054819D02*
X31369047Y-122054819D01*
X31369047Y-122054819D02*
X31464285Y-122007200D01*
X31464285Y-122007200D02*
X31511904Y-121959580D01*
X31511904Y-121959580D02*
X31559523Y-121864342D01*
X31559523Y-121864342D02*
X31559523Y-121054819D01*
X32178571Y-121483390D02*
X32083333Y-121435771D01*
X32083333Y-121435771D02*
X32035714Y-121388152D01*
X32035714Y-121388152D02*
X31988095Y-121292914D01*
X31988095Y-121292914D02*
X31988095Y-121245295D01*
X31988095Y-121245295D02*
X32035714Y-121150057D01*
X32035714Y-121150057D02*
X32083333Y-121102438D01*
X32083333Y-121102438D02*
X32178571Y-121054819D01*
X32178571Y-121054819D02*
X32369047Y-121054819D01*
X32369047Y-121054819D02*
X32464285Y-121102438D01*
X32464285Y-121102438D02*
X32511904Y-121150057D01*
X32511904Y-121150057D02*
X32559523Y-121245295D01*
X32559523Y-121245295D02*
X32559523Y-121292914D01*
X32559523Y-121292914D02*
X32511904Y-121388152D01*
X32511904Y-121388152D02*
X32464285Y-121435771D01*
X32464285Y-121435771D02*
X32369047Y-121483390D01*
X32369047Y-121483390D02*
X32178571Y-121483390D01*
X32178571Y-121483390D02*
X32083333Y-121531009D01*
X32083333Y-121531009D02*
X32035714Y-121578628D01*
X32035714Y-121578628D02*
X31988095Y-121673866D01*
X31988095Y-121673866D02*
X31988095Y-121864342D01*
X31988095Y-121864342D02*
X32035714Y-121959580D01*
X32035714Y-121959580D02*
X32083333Y-122007200D01*
X32083333Y-122007200D02*
X32178571Y-122054819D01*
X32178571Y-122054819D02*
X32369047Y-122054819D01*
X32369047Y-122054819D02*
X32464285Y-122007200D01*
X32464285Y-122007200D02*
X32511904Y-121959580D01*
X32511904Y-121959580D02*
X32559523Y-121864342D01*
X32559523Y-121864342D02*
X32559523Y-121673866D01*
X32559523Y-121673866D02*
X32511904Y-121578628D01*
X32511904Y-121578628D02*
X32464285Y-121531009D01*
X32464285Y-121531009D02*
X32369047Y-121483390D01*
X50954819Y-83916666D02*
X50478628Y-84249999D01*
X50954819Y-84488094D02*
X49954819Y-84488094D01*
X49954819Y-84488094D02*
X49954819Y-84107142D01*
X49954819Y-84107142D02*
X50002438Y-84011904D01*
X50002438Y-84011904D02*
X50050057Y-83964285D01*
X50050057Y-83964285D02*
X50145295Y-83916666D01*
X50145295Y-83916666D02*
X50288152Y-83916666D01*
X50288152Y-83916666D02*
X50383390Y-83964285D01*
X50383390Y-83964285D02*
X50431009Y-84011904D01*
X50431009Y-84011904D02*
X50478628Y-84107142D01*
X50478628Y-84107142D02*
X50478628Y-84488094D01*
X50954819Y-82964285D02*
X50954819Y-83535713D01*
X50954819Y-83249999D02*
X49954819Y-83249999D01*
X49954819Y-83249999D02*
X50097676Y-83345237D01*
X50097676Y-83345237D02*
X50192914Y-83440475D01*
X50192914Y-83440475D02*
X50240533Y-83535713D01*
X69607142Y-109109580D02*
X69559523Y-109157200D01*
X69559523Y-109157200D02*
X69416666Y-109204819D01*
X69416666Y-109204819D02*
X69321428Y-109204819D01*
X69321428Y-109204819D02*
X69178571Y-109157200D01*
X69178571Y-109157200D02*
X69083333Y-109061961D01*
X69083333Y-109061961D02*
X69035714Y-108966723D01*
X69035714Y-108966723D02*
X68988095Y-108776247D01*
X68988095Y-108776247D02*
X68988095Y-108633390D01*
X68988095Y-108633390D02*
X69035714Y-108442914D01*
X69035714Y-108442914D02*
X69083333Y-108347676D01*
X69083333Y-108347676D02*
X69178571Y-108252438D01*
X69178571Y-108252438D02*
X69321428Y-108204819D01*
X69321428Y-108204819D02*
X69416666Y-108204819D01*
X69416666Y-108204819D02*
X69559523Y-108252438D01*
X69559523Y-108252438D02*
X69607142Y-108300057D01*
X70559523Y-109204819D02*
X69988095Y-109204819D01*
X70273809Y-109204819D02*
X70273809Y-108204819D01*
X70273809Y-108204819D02*
X70178571Y-108347676D01*
X70178571Y-108347676D02*
X70083333Y-108442914D01*
X70083333Y-108442914D02*
X69988095Y-108490533D01*
X71035714Y-109204819D02*
X71226190Y-109204819D01*
X71226190Y-109204819D02*
X71321428Y-109157200D01*
X71321428Y-109157200D02*
X71369047Y-109109580D01*
X71369047Y-109109580D02*
X71464285Y-108966723D01*
X71464285Y-108966723D02*
X71511904Y-108776247D01*
X71511904Y-108776247D02*
X71511904Y-108395295D01*
X71511904Y-108395295D02*
X71464285Y-108300057D01*
X71464285Y-108300057D02*
X71416666Y-108252438D01*
X71416666Y-108252438D02*
X71321428Y-108204819D01*
X71321428Y-108204819D02*
X71130952Y-108204819D01*
X71130952Y-108204819D02*
X71035714Y-108252438D01*
X71035714Y-108252438D02*
X70988095Y-108300057D01*
X70988095Y-108300057D02*
X70940476Y-108395295D01*
X70940476Y-108395295D02*
X70940476Y-108633390D01*
X70940476Y-108633390D02*
X70988095Y-108728628D01*
X70988095Y-108728628D02*
X71035714Y-108776247D01*
X71035714Y-108776247D02*
X71130952Y-108823866D01*
X71130952Y-108823866D02*
X71321428Y-108823866D01*
X71321428Y-108823866D02*
X71416666Y-108776247D01*
X71416666Y-108776247D02*
X71464285Y-108728628D01*
X71464285Y-108728628D02*
X71511904Y-108633390D01*
X48454819Y-84488094D02*
X47454819Y-84488094D01*
X47454819Y-84488094D02*
X47454819Y-84249999D01*
X47454819Y-84249999D02*
X47502438Y-84107142D01*
X47502438Y-84107142D02*
X47597676Y-84011904D01*
X47597676Y-84011904D02*
X47692914Y-83964285D01*
X47692914Y-83964285D02*
X47883390Y-83916666D01*
X47883390Y-83916666D02*
X48026247Y-83916666D01*
X48026247Y-83916666D02*
X48216723Y-83964285D01*
X48216723Y-83964285D02*
X48311961Y-84011904D01*
X48311961Y-84011904D02*
X48407200Y-84107142D01*
X48407200Y-84107142D02*
X48454819Y-84249999D01*
X48454819Y-84249999D02*
X48454819Y-84488094D01*
X47788152Y-83059523D02*
X48454819Y-83059523D01*
X47407200Y-83297618D02*
X48121485Y-83535713D01*
X48121485Y-83535713D02*
X48121485Y-82916666D01*
X99654761Y-77050057D02*
X99559523Y-77002438D01*
X99559523Y-77002438D02*
X99464285Y-76907200D01*
X99464285Y-76907200D02*
X99321428Y-76764342D01*
X99321428Y-76764342D02*
X99226190Y-76716723D01*
X99226190Y-76716723D02*
X99130952Y-76716723D01*
X99178571Y-76954819D02*
X99083333Y-76907200D01*
X99083333Y-76907200D02*
X98988095Y-76811961D01*
X98988095Y-76811961D02*
X98940476Y-76621485D01*
X98940476Y-76621485D02*
X98940476Y-76288152D01*
X98940476Y-76288152D02*
X98988095Y-76097676D01*
X98988095Y-76097676D02*
X99083333Y-76002438D01*
X99083333Y-76002438D02*
X99178571Y-75954819D01*
X99178571Y-75954819D02*
X99369047Y-75954819D01*
X99369047Y-75954819D02*
X99464285Y-76002438D01*
X99464285Y-76002438D02*
X99559523Y-76097676D01*
X99559523Y-76097676D02*
X99607142Y-76288152D01*
X99607142Y-76288152D02*
X99607142Y-76621485D01*
X99607142Y-76621485D02*
X99559523Y-76811961D01*
X99559523Y-76811961D02*
X99464285Y-76907200D01*
X99464285Y-76907200D02*
X99369047Y-76954819D01*
X99369047Y-76954819D02*
X99178571Y-76954819D01*
X100559523Y-76954819D02*
X99988095Y-76954819D01*
X100273809Y-76954819D02*
X100273809Y-75954819D01*
X100273809Y-75954819D02*
X100178571Y-76097676D01*
X100178571Y-76097676D02*
X100083333Y-76192914D01*
X100083333Y-76192914D02*
X99988095Y-76240533D01*
X72857142Y-109204819D02*
X72523809Y-108728628D01*
X72285714Y-109204819D02*
X72285714Y-108204819D01*
X72285714Y-108204819D02*
X72666666Y-108204819D01*
X72666666Y-108204819D02*
X72761904Y-108252438D01*
X72761904Y-108252438D02*
X72809523Y-108300057D01*
X72809523Y-108300057D02*
X72857142Y-108395295D01*
X72857142Y-108395295D02*
X72857142Y-108538152D01*
X72857142Y-108538152D02*
X72809523Y-108633390D01*
X72809523Y-108633390D02*
X72761904Y-108681009D01*
X72761904Y-108681009D02*
X72666666Y-108728628D01*
X72666666Y-108728628D02*
X72285714Y-108728628D01*
X73809523Y-109204819D02*
X73238095Y-109204819D01*
X73523809Y-109204819D02*
X73523809Y-108204819D01*
X73523809Y-108204819D02*
X73428571Y-108347676D01*
X73428571Y-108347676D02*
X73333333Y-108442914D01*
X73333333Y-108442914D02*
X73238095Y-108490533D01*
X74666666Y-108204819D02*
X74476190Y-108204819D01*
X74476190Y-108204819D02*
X74380952Y-108252438D01*
X74380952Y-108252438D02*
X74333333Y-108300057D01*
X74333333Y-108300057D02*
X74238095Y-108442914D01*
X74238095Y-108442914D02*
X74190476Y-108633390D01*
X74190476Y-108633390D02*
X74190476Y-109014342D01*
X74190476Y-109014342D02*
X74238095Y-109109580D01*
X74238095Y-109109580D02*
X74285714Y-109157200D01*
X74285714Y-109157200D02*
X74380952Y-109204819D01*
X74380952Y-109204819D02*
X74571428Y-109204819D01*
X74571428Y-109204819D02*
X74666666Y-109157200D01*
X74666666Y-109157200D02*
X74714285Y-109109580D01*
X74714285Y-109109580D02*
X74761904Y-109014342D01*
X74761904Y-109014342D02*
X74761904Y-108776247D01*
X74761904Y-108776247D02*
X74714285Y-108681009D01*
X74714285Y-108681009D02*
X74666666Y-108633390D01*
X74666666Y-108633390D02*
X74571428Y-108585771D01*
X74571428Y-108585771D02*
X74380952Y-108585771D01*
X74380952Y-108585771D02*
X74285714Y-108633390D01*
X74285714Y-108633390D02*
X74238095Y-108681009D01*
X74238095Y-108681009D02*
X74190476Y-108776247D01*
X46204819Y-140214285D02*
X45204819Y-140214285D01*
X45204819Y-140214285D02*
X45204819Y-139976190D01*
X45204819Y-139976190D02*
X45252438Y-139833333D01*
X45252438Y-139833333D02*
X45347676Y-139738095D01*
X45347676Y-139738095D02*
X45442914Y-139690476D01*
X45442914Y-139690476D02*
X45633390Y-139642857D01*
X45633390Y-139642857D02*
X45776247Y-139642857D01*
X45776247Y-139642857D02*
X45966723Y-139690476D01*
X45966723Y-139690476D02*
X46061961Y-139738095D01*
X46061961Y-139738095D02*
X46157200Y-139833333D01*
X46157200Y-139833333D02*
X46204819Y-139976190D01*
X46204819Y-139976190D02*
X46204819Y-140214285D01*
X45300057Y-139261904D02*
X45252438Y-139214285D01*
X45252438Y-139214285D02*
X45204819Y-139119047D01*
X45204819Y-139119047D02*
X45204819Y-138880952D01*
X45204819Y-138880952D02*
X45252438Y-138785714D01*
X45252438Y-138785714D02*
X45300057Y-138738095D01*
X45300057Y-138738095D02*
X45395295Y-138690476D01*
X45395295Y-138690476D02*
X45490533Y-138690476D01*
X45490533Y-138690476D02*
X45633390Y-138738095D01*
X45633390Y-138738095D02*
X46204819Y-139309523D01*
X46204819Y-139309523D02*
X46204819Y-138690476D01*
X45204819Y-137833333D02*
X45204819Y-138023809D01*
X45204819Y-138023809D02*
X45252438Y-138119047D01*
X45252438Y-138119047D02*
X45300057Y-138166666D01*
X45300057Y-138166666D02*
X45442914Y-138261904D01*
X45442914Y-138261904D02*
X45633390Y-138309523D01*
X45633390Y-138309523D02*
X46014342Y-138309523D01*
X46014342Y-138309523D02*
X46109580Y-138261904D01*
X46109580Y-138261904D02*
X46157200Y-138214285D01*
X46157200Y-138214285D02*
X46204819Y-138119047D01*
X46204819Y-138119047D02*
X46204819Y-137928571D01*
X46204819Y-137928571D02*
X46157200Y-137833333D01*
X46157200Y-137833333D02*
X46109580Y-137785714D01*
X46109580Y-137785714D02*
X46014342Y-137738095D01*
X46014342Y-137738095D02*
X45776247Y-137738095D01*
X45776247Y-137738095D02*
X45681009Y-137785714D01*
X45681009Y-137785714D02*
X45633390Y-137833333D01*
X45633390Y-137833333D02*
X45585771Y-137928571D01*
X45585771Y-137928571D02*
X45585771Y-138119047D01*
X45585771Y-138119047D02*
X45633390Y-138214285D01*
X45633390Y-138214285D02*
X45681009Y-138261904D01*
X45681009Y-138261904D02*
X45776247Y-138309523D01*
X95607142Y-124709580D02*
X95559523Y-124757200D01*
X95559523Y-124757200D02*
X95416666Y-124804819D01*
X95416666Y-124804819D02*
X95321428Y-124804819D01*
X95321428Y-124804819D02*
X95178571Y-124757200D01*
X95178571Y-124757200D02*
X95083333Y-124661961D01*
X95083333Y-124661961D02*
X95035714Y-124566723D01*
X95035714Y-124566723D02*
X94988095Y-124376247D01*
X94988095Y-124376247D02*
X94988095Y-124233390D01*
X94988095Y-124233390D02*
X95035714Y-124042914D01*
X95035714Y-124042914D02*
X95083333Y-123947676D01*
X95083333Y-123947676D02*
X95178571Y-123852438D01*
X95178571Y-123852438D02*
X95321428Y-123804819D01*
X95321428Y-123804819D02*
X95416666Y-123804819D01*
X95416666Y-123804819D02*
X95559523Y-123852438D01*
X95559523Y-123852438D02*
X95607142Y-123900057D01*
X95940476Y-123804819D02*
X96559523Y-123804819D01*
X96559523Y-123804819D02*
X96226190Y-124185771D01*
X96226190Y-124185771D02*
X96369047Y-124185771D01*
X96369047Y-124185771D02*
X96464285Y-124233390D01*
X96464285Y-124233390D02*
X96511904Y-124281009D01*
X96511904Y-124281009D02*
X96559523Y-124376247D01*
X96559523Y-124376247D02*
X96559523Y-124614342D01*
X96559523Y-124614342D02*
X96511904Y-124709580D01*
X96511904Y-124709580D02*
X96464285Y-124757200D01*
X96464285Y-124757200D02*
X96369047Y-124804819D01*
X96369047Y-124804819D02*
X96083333Y-124804819D01*
X96083333Y-124804819D02*
X95988095Y-124757200D01*
X95988095Y-124757200D02*
X95940476Y-124709580D01*
X97178571Y-123804819D02*
X97273809Y-123804819D01*
X97273809Y-123804819D02*
X97369047Y-123852438D01*
X97369047Y-123852438D02*
X97416666Y-123900057D01*
X97416666Y-123900057D02*
X97464285Y-123995295D01*
X97464285Y-123995295D02*
X97511904Y-124185771D01*
X97511904Y-124185771D02*
X97511904Y-124423866D01*
X97511904Y-124423866D02*
X97464285Y-124614342D01*
X97464285Y-124614342D02*
X97416666Y-124709580D01*
X97416666Y-124709580D02*
X97369047Y-124757200D01*
X97369047Y-124757200D02*
X97273809Y-124804819D01*
X97273809Y-124804819D02*
X97178571Y-124804819D01*
X97178571Y-124804819D02*
X97083333Y-124757200D01*
X97083333Y-124757200D02*
X97035714Y-124709580D01*
X97035714Y-124709580D02*
X96988095Y-124614342D01*
X96988095Y-124614342D02*
X96940476Y-124423866D01*
X96940476Y-124423866D02*
X96940476Y-124185771D01*
X96940476Y-124185771D02*
X96988095Y-123995295D01*
X96988095Y-123995295D02*
X97035714Y-123900057D01*
X97035714Y-123900057D02*
X97083333Y-123852438D01*
X97083333Y-123852438D02*
X97178571Y-123804819D01*
X52738095Y-135704819D02*
X52738095Y-136514342D01*
X52738095Y-136514342D02*
X52785714Y-136609580D01*
X52785714Y-136609580D02*
X52833333Y-136657200D01*
X52833333Y-136657200D02*
X52928571Y-136704819D01*
X52928571Y-136704819D02*
X53119047Y-136704819D01*
X53119047Y-136704819D02*
X53214285Y-136657200D01*
X53214285Y-136657200D02*
X53261904Y-136609580D01*
X53261904Y-136609580D02*
X53309523Y-136514342D01*
X53309523Y-136514342D02*
X53309523Y-135704819D01*
X54214285Y-136038152D02*
X54214285Y-136704819D01*
X53976190Y-135657200D02*
X53738095Y-136371485D01*
X53738095Y-136371485D02*
X54357142Y-136371485D01*
X48454819Y-140214285D02*
X47454819Y-140214285D01*
X47454819Y-140214285D02*
X47454819Y-139976190D01*
X47454819Y-139976190D02*
X47502438Y-139833333D01*
X47502438Y-139833333D02*
X47597676Y-139738095D01*
X47597676Y-139738095D02*
X47692914Y-139690476D01*
X47692914Y-139690476D02*
X47883390Y-139642857D01*
X47883390Y-139642857D02*
X48026247Y-139642857D01*
X48026247Y-139642857D02*
X48216723Y-139690476D01*
X48216723Y-139690476D02*
X48311961Y-139738095D01*
X48311961Y-139738095D02*
X48407200Y-139833333D01*
X48407200Y-139833333D02*
X48454819Y-139976190D01*
X48454819Y-139976190D02*
X48454819Y-140214285D01*
X47550057Y-139261904D02*
X47502438Y-139214285D01*
X47502438Y-139214285D02*
X47454819Y-139119047D01*
X47454819Y-139119047D02*
X47454819Y-138880952D01*
X47454819Y-138880952D02*
X47502438Y-138785714D01*
X47502438Y-138785714D02*
X47550057Y-138738095D01*
X47550057Y-138738095D02*
X47645295Y-138690476D01*
X47645295Y-138690476D02*
X47740533Y-138690476D01*
X47740533Y-138690476D02*
X47883390Y-138738095D01*
X47883390Y-138738095D02*
X48454819Y-139309523D01*
X48454819Y-139309523D02*
X48454819Y-138690476D01*
X47454819Y-138357142D02*
X47454819Y-137690476D01*
X47454819Y-137690476D02*
X48454819Y-138119047D01*
X48454819Y-121714285D02*
X47454819Y-121714285D01*
X47454819Y-121714285D02*
X47454819Y-121476190D01*
X47454819Y-121476190D02*
X47502438Y-121333333D01*
X47502438Y-121333333D02*
X47597676Y-121238095D01*
X47597676Y-121238095D02*
X47692914Y-121190476D01*
X47692914Y-121190476D02*
X47883390Y-121142857D01*
X47883390Y-121142857D02*
X48026247Y-121142857D01*
X48026247Y-121142857D02*
X48216723Y-121190476D01*
X48216723Y-121190476D02*
X48311961Y-121238095D01*
X48311961Y-121238095D02*
X48407200Y-121333333D01*
X48407200Y-121333333D02*
X48454819Y-121476190D01*
X48454819Y-121476190D02*
X48454819Y-121714285D01*
X47550057Y-120761904D02*
X47502438Y-120714285D01*
X47502438Y-120714285D02*
X47454819Y-120619047D01*
X47454819Y-120619047D02*
X47454819Y-120380952D01*
X47454819Y-120380952D02*
X47502438Y-120285714D01*
X47502438Y-120285714D02*
X47550057Y-120238095D01*
X47550057Y-120238095D02*
X47645295Y-120190476D01*
X47645295Y-120190476D02*
X47740533Y-120190476D01*
X47740533Y-120190476D02*
X47883390Y-120238095D01*
X47883390Y-120238095D02*
X48454819Y-120809523D01*
X48454819Y-120809523D02*
X48454819Y-120190476D01*
X47454819Y-119285714D02*
X47454819Y-119761904D01*
X47454819Y-119761904D02*
X47931009Y-119809523D01*
X47931009Y-119809523D02*
X47883390Y-119761904D01*
X47883390Y-119761904D02*
X47835771Y-119666666D01*
X47835771Y-119666666D02*
X47835771Y-119428571D01*
X47835771Y-119428571D02*
X47883390Y-119333333D01*
X47883390Y-119333333D02*
X47931009Y-119285714D01*
X47931009Y-119285714D02*
X48026247Y-119238095D01*
X48026247Y-119238095D02*
X48264342Y-119238095D01*
X48264342Y-119238095D02*
X48359580Y-119285714D01*
X48359580Y-119285714D02*
X48407200Y-119333333D01*
X48407200Y-119333333D02*
X48454819Y-119428571D01*
X48454819Y-119428571D02*
X48454819Y-119666666D01*
X48454819Y-119666666D02*
X48407200Y-119761904D01*
X48407200Y-119761904D02*
X48359580Y-119809523D01*
X71107142Y-98704819D02*
X70773809Y-98228628D01*
X70535714Y-98704819D02*
X70535714Y-97704819D01*
X70535714Y-97704819D02*
X70916666Y-97704819D01*
X70916666Y-97704819D02*
X71011904Y-97752438D01*
X71011904Y-97752438D02*
X71059523Y-97800057D01*
X71059523Y-97800057D02*
X71107142Y-97895295D01*
X71107142Y-97895295D02*
X71107142Y-98038152D01*
X71107142Y-98038152D02*
X71059523Y-98133390D01*
X71059523Y-98133390D02*
X71011904Y-98181009D01*
X71011904Y-98181009D02*
X70916666Y-98228628D01*
X70916666Y-98228628D02*
X70535714Y-98228628D01*
X72059523Y-98704819D02*
X71488095Y-98704819D01*
X71773809Y-98704819D02*
X71773809Y-97704819D01*
X71773809Y-97704819D02*
X71678571Y-97847676D01*
X71678571Y-97847676D02*
X71583333Y-97942914D01*
X71583333Y-97942914D02*
X71488095Y-97990533D01*
X72916666Y-98038152D02*
X72916666Y-98704819D01*
X72678571Y-97657200D02*
X72440476Y-98371485D01*
X72440476Y-98371485D02*
X73059523Y-98371485D01*
X20535714Y-124704819D02*
X20535714Y-123704819D01*
X20535714Y-123704819D02*
X20773809Y-123704819D01*
X20773809Y-123704819D02*
X20916666Y-123752438D01*
X20916666Y-123752438D02*
X21011904Y-123847676D01*
X21011904Y-123847676D02*
X21059523Y-123942914D01*
X21059523Y-123942914D02*
X21107142Y-124133390D01*
X21107142Y-124133390D02*
X21107142Y-124276247D01*
X21107142Y-124276247D02*
X21059523Y-124466723D01*
X21059523Y-124466723D02*
X21011904Y-124561961D01*
X21011904Y-124561961D02*
X20916666Y-124657200D01*
X20916666Y-124657200D02*
X20773809Y-124704819D01*
X20773809Y-124704819D02*
X20535714Y-124704819D01*
X21488095Y-123800057D02*
X21535714Y-123752438D01*
X21535714Y-123752438D02*
X21630952Y-123704819D01*
X21630952Y-123704819D02*
X21869047Y-123704819D01*
X21869047Y-123704819D02*
X21964285Y-123752438D01*
X21964285Y-123752438D02*
X22011904Y-123800057D01*
X22011904Y-123800057D02*
X22059523Y-123895295D01*
X22059523Y-123895295D02*
X22059523Y-123990533D01*
X22059523Y-123990533D02*
X22011904Y-124133390D01*
X22011904Y-124133390D02*
X21440476Y-124704819D01*
X21440476Y-124704819D02*
X22059523Y-124704819D01*
X22630952Y-124133390D02*
X22535714Y-124085771D01*
X22535714Y-124085771D02*
X22488095Y-124038152D01*
X22488095Y-124038152D02*
X22440476Y-123942914D01*
X22440476Y-123942914D02*
X22440476Y-123895295D01*
X22440476Y-123895295D02*
X22488095Y-123800057D01*
X22488095Y-123800057D02*
X22535714Y-123752438D01*
X22535714Y-123752438D02*
X22630952Y-123704819D01*
X22630952Y-123704819D02*
X22821428Y-123704819D01*
X22821428Y-123704819D02*
X22916666Y-123752438D01*
X22916666Y-123752438D02*
X22964285Y-123800057D01*
X22964285Y-123800057D02*
X23011904Y-123895295D01*
X23011904Y-123895295D02*
X23011904Y-123942914D01*
X23011904Y-123942914D02*
X22964285Y-124038152D01*
X22964285Y-124038152D02*
X22916666Y-124085771D01*
X22916666Y-124085771D02*
X22821428Y-124133390D01*
X22821428Y-124133390D02*
X22630952Y-124133390D01*
X22630952Y-124133390D02*
X22535714Y-124181009D01*
X22535714Y-124181009D02*
X22488095Y-124228628D01*
X22488095Y-124228628D02*
X22440476Y-124323866D01*
X22440476Y-124323866D02*
X22440476Y-124514342D01*
X22440476Y-124514342D02*
X22488095Y-124609580D01*
X22488095Y-124609580D02*
X22535714Y-124657200D01*
X22535714Y-124657200D02*
X22630952Y-124704819D01*
X22630952Y-124704819D02*
X22821428Y-124704819D01*
X22821428Y-124704819D02*
X22916666Y-124657200D01*
X22916666Y-124657200D02*
X22964285Y-124609580D01*
X22964285Y-124609580D02*
X23011904Y-124514342D01*
X23011904Y-124514342D02*
X23011904Y-124323866D01*
X23011904Y-124323866D02*
X22964285Y-124228628D01*
X22964285Y-124228628D02*
X22916666Y-124181009D01*
X22916666Y-124181009D02*
X22821428Y-124133390D01*
X89704819Y-134964285D02*
X88704819Y-134964285D01*
X88704819Y-134964285D02*
X88704819Y-134726190D01*
X88704819Y-134726190D02*
X88752438Y-134583333D01*
X88752438Y-134583333D02*
X88847676Y-134488095D01*
X88847676Y-134488095D02*
X88942914Y-134440476D01*
X88942914Y-134440476D02*
X89133390Y-134392857D01*
X89133390Y-134392857D02*
X89276247Y-134392857D01*
X89276247Y-134392857D02*
X89466723Y-134440476D01*
X89466723Y-134440476D02*
X89561961Y-134488095D01*
X89561961Y-134488095D02*
X89657200Y-134583333D01*
X89657200Y-134583333D02*
X89704819Y-134726190D01*
X89704819Y-134726190D02*
X89704819Y-134964285D01*
X88800057Y-134011904D02*
X88752438Y-133964285D01*
X88752438Y-133964285D02*
X88704819Y-133869047D01*
X88704819Y-133869047D02*
X88704819Y-133630952D01*
X88704819Y-133630952D02*
X88752438Y-133535714D01*
X88752438Y-133535714D02*
X88800057Y-133488095D01*
X88800057Y-133488095D02*
X88895295Y-133440476D01*
X88895295Y-133440476D02*
X88990533Y-133440476D01*
X88990533Y-133440476D02*
X89133390Y-133488095D01*
X89133390Y-133488095D02*
X89704819Y-134059523D01*
X89704819Y-134059523D02*
X89704819Y-133440476D01*
X88800057Y-133059523D02*
X88752438Y-133011904D01*
X88752438Y-133011904D02*
X88704819Y-132916666D01*
X88704819Y-132916666D02*
X88704819Y-132678571D01*
X88704819Y-132678571D02*
X88752438Y-132583333D01*
X88752438Y-132583333D02*
X88800057Y-132535714D01*
X88800057Y-132535714D02*
X88895295Y-132488095D01*
X88895295Y-132488095D02*
X88990533Y-132488095D01*
X88990533Y-132488095D02*
X89133390Y-132535714D01*
X89133390Y-132535714D02*
X89704819Y-133107142D01*
X89704819Y-133107142D02*
X89704819Y-132488095D01*
X69607142Y-90609580D02*
X69559523Y-90657200D01*
X69559523Y-90657200D02*
X69416666Y-90704819D01*
X69416666Y-90704819D02*
X69321428Y-90704819D01*
X69321428Y-90704819D02*
X69178571Y-90657200D01*
X69178571Y-90657200D02*
X69083333Y-90561961D01*
X69083333Y-90561961D02*
X69035714Y-90466723D01*
X69035714Y-90466723D02*
X68988095Y-90276247D01*
X68988095Y-90276247D02*
X68988095Y-90133390D01*
X68988095Y-90133390D02*
X69035714Y-89942914D01*
X69035714Y-89942914D02*
X69083333Y-89847676D01*
X69083333Y-89847676D02*
X69178571Y-89752438D01*
X69178571Y-89752438D02*
X69321428Y-89704819D01*
X69321428Y-89704819D02*
X69416666Y-89704819D01*
X69416666Y-89704819D02*
X69559523Y-89752438D01*
X69559523Y-89752438D02*
X69607142Y-89800057D01*
X70559523Y-90704819D02*
X69988095Y-90704819D01*
X70273809Y-90704819D02*
X70273809Y-89704819D01*
X70273809Y-89704819D02*
X70178571Y-89847676D01*
X70178571Y-89847676D02*
X70083333Y-89942914D01*
X70083333Y-89942914D02*
X69988095Y-89990533D01*
X70940476Y-89800057D02*
X70988095Y-89752438D01*
X70988095Y-89752438D02*
X71083333Y-89704819D01*
X71083333Y-89704819D02*
X71321428Y-89704819D01*
X71321428Y-89704819D02*
X71416666Y-89752438D01*
X71416666Y-89752438D02*
X71464285Y-89800057D01*
X71464285Y-89800057D02*
X71511904Y-89895295D01*
X71511904Y-89895295D02*
X71511904Y-89990533D01*
X71511904Y-89990533D02*
X71464285Y-90133390D01*
X71464285Y-90133390D02*
X70892857Y-90704819D01*
X70892857Y-90704819D02*
X71511904Y-90704819D01*
X55454819Y-121142857D02*
X54978628Y-121476190D01*
X55454819Y-121714285D02*
X54454819Y-121714285D01*
X54454819Y-121714285D02*
X54454819Y-121333333D01*
X54454819Y-121333333D02*
X54502438Y-121238095D01*
X54502438Y-121238095D02*
X54550057Y-121190476D01*
X54550057Y-121190476D02*
X54645295Y-121142857D01*
X54645295Y-121142857D02*
X54788152Y-121142857D01*
X54788152Y-121142857D02*
X54883390Y-121190476D01*
X54883390Y-121190476D02*
X54931009Y-121238095D01*
X54931009Y-121238095D02*
X54978628Y-121333333D01*
X54978628Y-121333333D02*
X54978628Y-121714285D01*
X54550057Y-120761904D02*
X54502438Y-120714285D01*
X54502438Y-120714285D02*
X54454819Y-120619047D01*
X54454819Y-120619047D02*
X54454819Y-120380952D01*
X54454819Y-120380952D02*
X54502438Y-120285714D01*
X54502438Y-120285714D02*
X54550057Y-120238095D01*
X54550057Y-120238095D02*
X54645295Y-120190476D01*
X54645295Y-120190476D02*
X54740533Y-120190476D01*
X54740533Y-120190476D02*
X54883390Y-120238095D01*
X54883390Y-120238095D02*
X55454819Y-120809523D01*
X55454819Y-120809523D02*
X55454819Y-120190476D01*
X54454819Y-119571428D02*
X54454819Y-119476190D01*
X54454819Y-119476190D02*
X54502438Y-119380952D01*
X54502438Y-119380952D02*
X54550057Y-119333333D01*
X54550057Y-119333333D02*
X54645295Y-119285714D01*
X54645295Y-119285714D02*
X54835771Y-119238095D01*
X54835771Y-119238095D02*
X55073866Y-119238095D01*
X55073866Y-119238095D02*
X55264342Y-119285714D01*
X55264342Y-119285714D02*
X55359580Y-119333333D01*
X55359580Y-119333333D02*
X55407200Y-119380952D01*
X55407200Y-119380952D02*
X55454819Y-119476190D01*
X55454819Y-119476190D02*
X55454819Y-119571428D01*
X55454819Y-119571428D02*
X55407200Y-119666666D01*
X55407200Y-119666666D02*
X55359580Y-119714285D01*
X55359580Y-119714285D02*
X55264342Y-119761904D01*
X55264342Y-119761904D02*
X55073866Y-119809523D01*
X55073866Y-119809523D02*
X54835771Y-119809523D01*
X54835771Y-119809523D02*
X54645295Y-119761904D01*
X54645295Y-119761904D02*
X54550057Y-119714285D01*
X54550057Y-119714285D02*
X54502438Y-119666666D01*
X54502438Y-119666666D02*
X54454819Y-119571428D01*
X34357142Y-134204819D02*
X34023809Y-133728628D01*
X33785714Y-134204819D02*
X33785714Y-133204819D01*
X33785714Y-133204819D02*
X34166666Y-133204819D01*
X34166666Y-133204819D02*
X34261904Y-133252438D01*
X34261904Y-133252438D02*
X34309523Y-133300057D01*
X34309523Y-133300057D02*
X34357142Y-133395295D01*
X34357142Y-133395295D02*
X34357142Y-133538152D01*
X34357142Y-133538152D02*
X34309523Y-133633390D01*
X34309523Y-133633390D02*
X34261904Y-133681009D01*
X34261904Y-133681009D02*
X34166666Y-133728628D01*
X34166666Y-133728628D02*
X33785714Y-133728628D01*
X35214285Y-133538152D02*
X35214285Y-134204819D01*
X34976190Y-133157200D02*
X34738095Y-133871485D01*
X34738095Y-133871485D02*
X35357142Y-133871485D01*
X35690476Y-133300057D02*
X35738095Y-133252438D01*
X35738095Y-133252438D02*
X35833333Y-133204819D01*
X35833333Y-133204819D02*
X36071428Y-133204819D01*
X36071428Y-133204819D02*
X36166666Y-133252438D01*
X36166666Y-133252438D02*
X36214285Y-133300057D01*
X36214285Y-133300057D02*
X36261904Y-133395295D01*
X36261904Y-133395295D02*
X36261904Y-133490533D01*
X36261904Y-133490533D02*
X36214285Y-133633390D01*
X36214285Y-133633390D02*
X35642857Y-134204819D01*
X35642857Y-134204819D02*
X36261904Y-134204819D01*
X99654761Y-114050057D02*
X99559523Y-114002438D01*
X99559523Y-114002438D02*
X99464285Y-113907200D01*
X99464285Y-113907200D02*
X99321428Y-113764342D01*
X99321428Y-113764342D02*
X99226190Y-113716723D01*
X99226190Y-113716723D02*
X99130952Y-113716723D01*
X99178571Y-113954819D02*
X99083333Y-113907200D01*
X99083333Y-113907200D02*
X98988095Y-113811961D01*
X98988095Y-113811961D02*
X98940476Y-113621485D01*
X98940476Y-113621485D02*
X98940476Y-113288152D01*
X98940476Y-113288152D02*
X98988095Y-113097676D01*
X98988095Y-113097676D02*
X99083333Y-113002438D01*
X99083333Y-113002438D02*
X99178571Y-112954819D01*
X99178571Y-112954819D02*
X99369047Y-112954819D01*
X99369047Y-112954819D02*
X99464285Y-113002438D01*
X99464285Y-113002438D02*
X99559523Y-113097676D01*
X99559523Y-113097676D02*
X99607142Y-113288152D01*
X99607142Y-113288152D02*
X99607142Y-113621485D01*
X99607142Y-113621485D02*
X99559523Y-113811961D01*
X99559523Y-113811961D02*
X99464285Y-113907200D01*
X99464285Y-113907200D02*
X99369047Y-113954819D01*
X99369047Y-113954819D02*
X99178571Y-113954819D01*
X99940476Y-112954819D02*
X100559523Y-112954819D01*
X100559523Y-112954819D02*
X100226190Y-113335771D01*
X100226190Y-113335771D02*
X100369047Y-113335771D01*
X100369047Y-113335771D02*
X100464285Y-113383390D01*
X100464285Y-113383390D02*
X100511904Y-113431009D01*
X100511904Y-113431009D02*
X100559523Y-113526247D01*
X100559523Y-113526247D02*
X100559523Y-113764342D01*
X100559523Y-113764342D02*
X100511904Y-113859580D01*
X100511904Y-113859580D02*
X100464285Y-113907200D01*
X100464285Y-113907200D02*
X100369047Y-113954819D01*
X100369047Y-113954819D02*
X100083333Y-113954819D01*
X100083333Y-113954819D02*
X99988095Y-113907200D01*
X99988095Y-113907200D02*
X99940476Y-113859580D01*
X61535714Y-113954819D02*
X61535714Y-112954819D01*
X61535714Y-112954819D02*
X61773809Y-112954819D01*
X61773809Y-112954819D02*
X61916666Y-113002438D01*
X61916666Y-113002438D02*
X62011904Y-113097676D01*
X62011904Y-113097676D02*
X62059523Y-113192914D01*
X62059523Y-113192914D02*
X62107142Y-113383390D01*
X62107142Y-113383390D02*
X62107142Y-113526247D01*
X62107142Y-113526247D02*
X62059523Y-113716723D01*
X62059523Y-113716723D02*
X62011904Y-113811961D01*
X62011904Y-113811961D02*
X61916666Y-113907200D01*
X61916666Y-113907200D02*
X61773809Y-113954819D01*
X61773809Y-113954819D02*
X61535714Y-113954819D01*
X63059523Y-113954819D02*
X62488095Y-113954819D01*
X62773809Y-113954819D02*
X62773809Y-112954819D01*
X62773809Y-112954819D02*
X62678571Y-113097676D01*
X62678571Y-113097676D02*
X62583333Y-113192914D01*
X62583333Y-113192914D02*
X62488095Y-113240533D01*
X63964285Y-112954819D02*
X63488095Y-112954819D01*
X63488095Y-112954819D02*
X63440476Y-113431009D01*
X63440476Y-113431009D02*
X63488095Y-113383390D01*
X63488095Y-113383390D02*
X63583333Y-113335771D01*
X63583333Y-113335771D02*
X63821428Y-113335771D01*
X63821428Y-113335771D02*
X63916666Y-113383390D01*
X63916666Y-113383390D02*
X63964285Y-113431009D01*
X63964285Y-113431009D02*
X64011904Y-113526247D01*
X64011904Y-113526247D02*
X64011904Y-113764342D01*
X64011904Y-113764342D02*
X63964285Y-113859580D01*
X63964285Y-113859580D02*
X63916666Y-113907200D01*
X63916666Y-113907200D02*
X63821428Y-113954819D01*
X63821428Y-113954819D02*
X63583333Y-113954819D01*
X63583333Y-113954819D02*
X63488095Y-113907200D01*
X63488095Y-113907200D02*
X63440476Y-113859580D01*
X33704819Y-107119047D02*
X33228628Y-107452380D01*
X33704819Y-107690475D02*
X32704819Y-107690475D01*
X32704819Y-107690475D02*
X32704819Y-107309523D01*
X32704819Y-107309523D02*
X32752438Y-107214285D01*
X32752438Y-107214285D02*
X32800057Y-107166666D01*
X32800057Y-107166666D02*
X32895295Y-107119047D01*
X32895295Y-107119047D02*
X33038152Y-107119047D01*
X33038152Y-107119047D02*
X33133390Y-107166666D01*
X33133390Y-107166666D02*
X33181009Y-107214285D01*
X33181009Y-107214285D02*
X33228628Y-107309523D01*
X33228628Y-107309523D02*
X33228628Y-107690475D01*
X33704819Y-106166666D02*
X33704819Y-106738094D01*
X33704819Y-106452380D02*
X32704819Y-106452380D01*
X32704819Y-106452380D02*
X32847676Y-106547618D01*
X32847676Y-106547618D02*
X32942914Y-106642856D01*
X32942914Y-106642856D02*
X32990533Y-106738094D01*
X32704819Y-105547618D02*
X32704819Y-105452380D01*
X32704819Y-105452380D02*
X32752438Y-105357142D01*
X32752438Y-105357142D02*
X32800057Y-105309523D01*
X32800057Y-105309523D02*
X32895295Y-105261904D01*
X32895295Y-105261904D02*
X33085771Y-105214285D01*
X33085771Y-105214285D02*
X33323866Y-105214285D01*
X33323866Y-105214285D02*
X33514342Y-105261904D01*
X33514342Y-105261904D02*
X33609580Y-105309523D01*
X33609580Y-105309523D02*
X33657200Y-105357142D01*
X33657200Y-105357142D02*
X33704819Y-105452380D01*
X33704819Y-105452380D02*
X33704819Y-105547618D01*
X33704819Y-105547618D02*
X33657200Y-105642856D01*
X33657200Y-105642856D02*
X33609580Y-105690475D01*
X33609580Y-105690475D02*
X33514342Y-105738094D01*
X33514342Y-105738094D02*
X33323866Y-105785713D01*
X33323866Y-105785713D02*
X33085771Y-105785713D01*
X33085771Y-105785713D02*
X32895295Y-105738094D01*
X32895295Y-105738094D02*
X32800057Y-105690475D01*
X32800057Y-105690475D02*
X32752438Y-105642856D01*
X32752438Y-105642856D02*
X32704819Y-105547618D01*
X33704819Y-104261904D02*
X33704819Y-104833332D01*
X33704819Y-104547618D02*
X32704819Y-104547618D01*
X32704819Y-104547618D02*
X32847676Y-104642856D01*
X32847676Y-104642856D02*
X32942914Y-104738094D01*
X32942914Y-104738094D02*
X32990533Y-104833332D01*
X50954819Y-121142857D02*
X50478628Y-121476190D01*
X50954819Y-121714285D02*
X49954819Y-121714285D01*
X49954819Y-121714285D02*
X49954819Y-121333333D01*
X49954819Y-121333333D02*
X50002438Y-121238095D01*
X50002438Y-121238095D02*
X50050057Y-121190476D01*
X50050057Y-121190476D02*
X50145295Y-121142857D01*
X50145295Y-121142857D02*
X50288152Y-121142857D01*
X50288152Y-121142857D02*
X50383390Y-121190476D01*
X50383390Y-121190476D02*
X50431009Y-121238095D01*
X50431009Y-121238095D02*
X50478628Y-121333333D01*
X50478628Y-121333333D02*
X50478628Y-121714285D01*
X50954819Y-120190476D02*
X50954819Y-120761904D01*
X50954819Y-120476190D02*
X49954819Y-120476190D01*
X49954819Y-120476190D02*
X50097676Y-120571428D01*
X50097676Y-120571428D02*
X50192914Y-120666666D01*
X50192914Y-120666666D02*
X50240533Y-120761904D01*
X50383390Y-119619047D02*
X50335771Y-119714285D01*
X50335771Y-119714285D02*
X50288152Y-119761904D01*
X50288152Y-119761904D02*
X50192914Y-119809523D01*
X50192914Y-119809523D02*
X50145295Y-119809523D01*
X50145295Y-119809523D02*
X50050057Y-119761904D01*
X50050057Y-119761904D02*
X50002438Y-119714285D01*
X50002438Y-119714285D02*
X49954819Y-119619047D01*
X49954819Y-119619047D02*
X49954819Y-119428571D01*
X49954819Y-119428571D02*
X50002438Y-119333333D01*
X50002438Y-119333333D02*
X50050057Y-119285714D01*
X50050057Y-119285714D02*
X50145295Y-119238095D01*
X50145295Y-119238095D02*
X50192914Y-119238095D01*
X50192914Y-119238095D02*
X50288152Y-119285714D01*
X50288152Y-119285714D02*
X50335771Y-119333333D01*
X50335771Y-119333333D02*
X50383390Y-119428571D01*
X50383390Y-119428571D02*
X50383390Y-119619047D01*
X50383390Y-119619047D02*
X50431009Y-119714285D01*
X50431009Y-119714285D02*
X50478628Y-119761904D01*
X50478628Y-119761904D02*
X50573866Y-119809523D01*
X50573866Y-119809523D02*
X50764342Y-119809523D01*
X50764342Y-119809523D02*
X50859580Y-119761904D01*
X50859580Y-119761904D02*
X50907200Y-119714285D01*
X50907200Y-119714285D02*
X50954819Y-119619047D01*
X50954819Y-119619047D02*
X50954819Y-119428571D01*
X50954819Y-119428571D02*
X50907200Y-119333333D01*
X50907200Y-119333333D02*
X50859580Y-119285714D01*
X50859580Y-119285714D02*
X50764342Y-119238095D01*
X50764342Y-119238095D02*
X50573866Y-119238095D01*
X50573866Y-119238095D02*
X50478628Y-119285714D01*
X50478628Y-119285714D02*
X50431009Y-119333333D01*
X50431009Y-119333333D02*
X50383390Y-119428571D01*
X49166666Y-93454819D02*
X49166666Y-94169104D01*
X49166666Y-94169104D02*
X49119047Y-94311961D01*
X49119047Y-94311961D02*
X49023809Y-94407200D01*
X49023809Y-94407200D02*
X48880952Y-94454819D01*
X48880952Y-94454819D02*
X48785714Y-94454819D01*
X50071428Y-93454819D02*
X49880952Y-93454819D01*
X49880952Y-93454819D02*
X49785714Y-93502438D01*
X49785714Y-93502438D02*
X49738095Y-93550057D01*
X49738095Y-93550057D02*
X49642857Y-93692914D01*
X49642857Y-93692914D02*
X49595238Y-93883390D01*
X49595238Y-93883390D02*
X49595238Y-94264342D01*
X49595238Y-94264342D02*
X49642857Y-94359580D01*
X49642857Y-94359580D02*
X49690476Y-94407200D01*
X49690476Y-94407200D02*
X49785714Y-94454819D01*
X49785714Y-94454819D02*
X49976190Y-94454819D01*
X49976190Y-94454819D02*
X50071428Y-94407200D01*
X50071428Y-94407200D02*
X50119047Y-94359580D01*
X50119047Y-94359580D02*
X50166666Y-94264342D01*
X50166666Y-94264342D02*
X50166666Y-94026247D01*
X50166666Y-94026247D02*
X50119047Y-93931009D01*
X50119047Y-93931009D02*
X50071428Y-93883390D01*
X50071428Y-93883390D02*
X49976190Y-93835771D01*
X49976190Y-93835771D02*
X49785714Y-93835771D01*
X49785714Y-93835771D02*
X49690476Y-93883390D01*
X49690476Y-93883390D02*
X49642857Y-93931009D01*
X49642857Y-93931009D02*
X49595238Y-94026247D01*
X49166666Y-130454819D02*
X49166666Y-131169104D01*
X49166666Y-131169104D02*
X49119047Y-131311961D01*
X49119047Y-131311961D02*
X49023809Y-131407200D01*
X49023809Y-131407200D02*
X48880952Y-131454819D01*
X48880952Y-131454819D02*
X48785714Y-131454819D01*
X49785714Y-130883390D02*
X49690476Y-130835771D01*
X49690476Y-130835771D02*
X49642857Y-130788152D01*
X49642857Y-130788152D02*
X49595238Y-130692914D01*
X49595238Y-130692914D02*
X49595238Y-130645295D01*
X49595238Y-130645295D02*
X49642857Y-130550057D01*
X49642857Y-130550057D02*
X49690476Y-130502438D01*
X49690476Y-130502438D02*
X49785714Y-130454819D01*
X49785714Y-130454819D02*
X49976190Y-130454819D01*
X49976190Y-130454819D02*
X50071428Y-130502438D01*
X50071428Y-130502438D02*
X50119047Y-130550057D01*
X50119047Y-130550057D02*
X50166666Y-130645295D01*
X50166666Y-130645295D02*
X50166666Y-130692914D01*
X50166666Y-130692914D02*
X50119047Y-130788152D01*
X50119047Y-130788152D02*
X50071428Y-130835771D01*
X50071428Y-130835771D02*
X49976190Y-130883390D01*
X49976190Y-130883390D02*
X49785714Y-130883390D01*
X49785714Y-130883390D02*
X49690476Y-130931009D01*
X49690476Y-130931009D02*
X49642857Y-130978628D01*
X49642857Y-130978628D02*
X49595238Y-131073866D01*
X49595238Y-131073866D02*
X49595238Y-131264342D01*
X49595238Y-131264342D02*
X49642857Y-131359580D01*
X49642857Y-131359580D02*
X49690476Y-131407200D01*
X49690476Y-131407200D02*
X49785714Y-131454819D01*
X49785714Y-131454819D02*
X49976190Y-131454819D01*
X49976190Y-131454819D02*
X50071428Y-131407200D01*
X50071428Y-131407200D02*
X50119047Y-131359580D01*
X50119047Y-131359580D02*
X50166666Y-131264342D01*
X50166666Y-131264342D02*
X50166666Y-131073866D01*
X50166666Y-131073866D02*
X50119047Y-130978628D01*
X50119047Y-130978628D02*
X50071428Y-130931009D01*
X50071428Y-130931009D02*
X49976190Y-130883390D01*
X72857142Y-90704819D02*
X72523809Y-90228628D01*
X72285714Y-90704819D02*
X72285714Y-89704819D01*
X72285714Y-89704819D02*
X72666666Y-89704819D01*
X72666666Y-89704819D02*
X72761904Y-89752438D01*
X72761904Y-89752438D02*
X72809523Y-89800057D01*
X72809523Y-89800057D02*
X72857142Y-89895295D01*
X72857142Y-89895295D02*
X72857142Y-90038152D01*
X72857142Y-90038152D02*
X72809523Y-90133390D01*
X72809523Y-90133390D02*
X72761904Y-90181009D01*
X72761904Y-90181009D02*
X72666666Y-90228628D01*
X72666666Y-90228628D02*
X72285714Y-90228628D01*
X73809523Y-90704819D02*
X73238095Y-90704819D01*
X73523809Y-90704819D02*
X73523809Y-89704819D01*
X73523809Y-89704819D02*
X73428571Y-89847676D01*
X73428571Y-89847676D02*
X73333333Y-89942914D01*
X73333333Y-89942914D02*
X73238095Y-89990533D01*
X74142857Y-89704819D02*
X74761904Y-89704819D01*
X74761904Y-89704819D02*
X74428571Y-90085771D01*
X74428571Y-90085771D02*
X74571428Y-90085771D01*
X74571428Y-90085771D02*
X74666666Y-90133390D01*
X74666666Y-90133390D02*
X74714285Y-90181009D01*
X74714285Y-90181009D02*
X74761904Y-90276247D01*
X74761904Y-90276247D02*
X74761904Y-90514342D01*
X74761904Y-90514342D02*
X74714285Y-90609580D01*
X74714285Y-90609580D02*
X74666666Y-90657200D01*
X74666666Y-90657200D02*
X74571428Y-90704819D01*
X74571428Y-90704819D02*
X74285714Y-90704819D01*
X74285714Y-90704819D02*
X74190476Y-90657200D01*
X74190476Y-90657200D02*
X74142857Y-90609580D01*
X22104819Y-108809523D02*
X22819104Y-108809523D01*
X22819104Y-108809523D02*
X22961961Y-108857142D01*
X22961961Y-108857142D02*
X23057200Y-108952380D01*
X23057200Y-108952380D02*
X23104819Y-109095237D01*
X23104819Y-109095237D02*
X23104819Y-109190475D01*
X23104819Y-107809523D02*
X23104819Y-108380951D01*
X23104819Y-108095237D02*
X22104819Y-108095237D01*
X22104819Y-108095237D02*
X22247676Y-108190475D01*
X22247676Y-108190475D02*
X22342914Y-108285713D01*
X22342914Y-108285713D02*
X22390533Y-108380951D01*
X22104819Y-107190475D02*
X22104819Y-107095237D01*
X22104819Y-107095237D02*
X22152438Y-106999999D01*
X22152438Y-106999999D02*
X22200057Y-106952380D01*
X22200057Y-106952380D02*
X22295295Y-106904761D01*
X22295295Y-106904761D02*
X22485771Y-106857142D01*
X22485771Y-106857142D02*
X22723866Y-106857142D01*
X22723866Y-106857142D02*
X22914342Y-106904761D01*
X22914342Y-106904761D02*
X23009580Y-106952380D01*
X23009580Y-106952380D02*
X23057200Y-106999999D01*
X23057200Y-106999999D02*
X23104819Y-107095237D01*
X23104819Y-107095237D02*
X23104819Y-107190475D01*
X23104819Y-107190475D02*
X23057200Y-107285713D01*
X23057200Y-107285713D02*
X23009580Y-107333332D01*
X23009580Y-107333332D02*
X22914342Y-107380951D01*
X22914342Y-107380951D02*
X22723866Y-107428570D01*
X22723866Y-107428570D02*
X22485771Y-107428570D01*
X22485771Y-107428570D02*
X22295295Y-107380951D01*
X22295295Y-107380951D02*
X22200057Y-107333332D01*
X22200057Y-107333332D02*
X22152438Y-107285713D01*
X22152438Y-107285713D02*
X22104819Y-107190475D01*
X25014098Y-126414819D02*
X25014098Y-127129104D01*
X25014098Y-127129104D02*
X24966479Y-127271961D01*
X24966479Y-127271961D02*
X24871241Y-127367200D01*
X24871241Y-127367200D02*
X24728384Y-127414819D01*
X24728384Y-127414819D02*
X24633146Y-127414819D01*
X26014098Y-127414819D02*
X25442670Y-127414819D01*
X25728384Y-127414819D02*
X25728384Y-126414819D01*
X25728384Y-126414819D02*
X25633146Y-126557676D01*
X25633146Y-126557676D02*
X25537908Y-126652914D01*
X25537908Y-126652914D02*
X25442670Y-126700533D01*
X26395051Y-126510057D02*
X26442670Y-126462438D01*
X26442670Y-126462438D02*
X26537908Y-126414819D01*
X26537908Y-126414819D02*
X26776003Y-126414819D01*
X26776003Y-126414819D02*
X26871241Y-126462438D01*
X26871241Y-126462438D02*
X26918860Y-126510057D01*
X26918860Y-126510057D02*
X26966479Y-126605295D01*
X26966479Y-126605295D02*
X26966479Y-126700533D01*
X26966479Y-126700533D02*
X26918860Y-126843390D01*
X26918860Y-126843390D02*
X26347432Y-127414819D01*
X26347432Y-127414819D02*
X26966479Y-127414819D01*
X110333333Y-144359580D02*
X110285714Y-144407200D01*
X110285714Y-144407200D02*
X110142857Y-144454819D01*
X110142857Y-144454819D02*
X110047619Y-144454819D01*
X110047619Y-144454819D02*
X109904762Y-144407200D01*
X109904762Y-144407200D02*
X109809524Y-144311961D01*
X109809524Y-144311961D02*
X109761905Y-144216723D01*
X109761905Y-144216723D02*
X109714286Y-144026247D01*
X109714286Y-144026247D02*
X109714286Y-143883390D01*
X109714286Y-143883390D02*
X109761905Y-143692914D01*
X109761905Y-143692914D02*
X109809524Y-143597676D01*
X109809524Y-143597676D02*
X109904762Y-143502438D01*
X109904762Y-143502438D02*
X110047619Y-143454819D01*
X110047619Y-143454819D02*
X110142857Y-143454819D01*
X110142857Y-143454819D02*
X110285714Y-143502438D01*
X110285714Y-143502438D02*
X110333333Y-143550057D01*
X110904762Y-143883390D02*
X110809524Y-143835771D01*
X110809524Y-143835771D02*
X110761905Y-143788152D01*
X110761905Y-143788152D02*
X110714286Y-143692914D01*
X110714286Y-143692914D02*
X110714286Y-143645295D01*
X110714286Y-143645295D02*
X110761905Y-143550057D01*
X110761905Y-143550057D02*
X110809524Y-143502438D01*
X110809524Y-143502438D02*
X110904762Y-143454819D01*
X110904762Y-143454819D02*
X111095238Y-143454819D01*
X111095238Y-143454819D02*
X111190476Y-143502438D01*
X111190476Y-143502438D02*
X111238095Y-143550057D01*
X111238095Y-143550057D02*
X111285714Y-143645295D01*
X111285714Y-143645295D02*
X111285714Y-143692914D01*
X111285714Y-143692914D02*
X111238095Y-143788152D01*
X111238095Y-143788152D02*
X111190476Y-143835771D01*
X111190476Y-143835771D02*
X111095238Y-143883390D01*
X111095238Y-143883390D02*
X110904762Y-143883390D01*
X110904762Y-143883390D02*
X110809524Y-143931009D01*
X110809524Y-143931009D02*
X110761905Y-143978628D01*
X110761905Y-143978628D02*
X110714286Y-144073866D01*
X110714286Y-144073866D02*
X110714286Y-144264342D01*
X110714286Y-144264342D02*
X110761905Y-144359580D01*
X110761905Y-144359580D02*
X110809524Y-144407200D01*
X110809524Y-144407200D02*
X110904762Y-144454819D01*
X110904762Y-144454819D02*
X111095238Y-144454819D01*
X111095238Y-144454819D02*
X111190476Y-144407200D01*
X111190476Y-144407200D02*
X111238095Y-144359580D01*
X111238095Y-144359580D02*
X111285714Y-144264342D01*
X111285714Y-144264342D02*
X111285714Y-144073866D01*
X111285714Y-144073866D02*
X111238095Y-143978628D01*
X111238095Y-143978628D02*
X111190476Y-143931009D01*
X111190476Y-143931009D02*
X111095238Y-143883390D01*
X62011905Y-76954819D02*
X62011905Y-75954819D01*
X62011905Y-75954819D02*
X62250000Y-75954819D01*
X62250000Y-75954819D02*
X62392857Y-76002438D01*
X62392857Y-76002438D02*
X62488095Y-76097676D01*
X62488095Y-76097676D02*
X62535714Y-76192914D01*
X62535714Y-76192914D02*
X62583333Y-76383390D01*
X62583333Y-76383390D02*
X62583333Y-76526247D01*
X62583333Y-76526247D02*
X62535714Y-76716723D01*
X62535714Y-76716723D02*
X62488095Y-76811961D01*
X62488095Y-76811961D02*
X62392857Y-76907200D01*
X62392857Y-76907200D02*
X62250000Y-76954819D01*
X62250000Y-76954819D02*
X62011905Y-76954819D01*
X62916667Y-75954819D02*
X63583333Y-75954819D01*
X63583333Y-75954819D02*
X63154762Y-76954819D01*
X30988095Y-91054819D02*
X30988095Y-91864342D01*
X30988095Y-91864342D02*
X31035714Y-91959580D01*
X31035714Y-91959580D02*
X31083333Y-92007200D01*
X31083333Y-92007200D02*
X31178571Y-92054819D01*
X31178571Y-92054819D02*
X31369047Y-92054819D01*
X31369047Y-92054819D02*
X31464285Y-92007200D01*
X31464285Y-92007200D02*
X31511904Y-91959580D01*
X31511904Y-91959580D02*
X31559523Y-91864342D01*
X31559523Y-91864342D02*
X31559523Y-91054819D01*
X31940476Y-91054819D02*
X32607142Y-91054819D01*
X32607142Y-91054819D02*
X32178571Y-92054819D01*
X55454819Y-139642857D02*
X54978628Y-139976190D01*
X55454819Y-140214285D02*
X54454819Y-140214285D01*
X54454819Y-140214285D02*
X54454819Y-139833333D01*
X54454819Y-139833333D02*
X54502438Y-139738095D01*
X54502438Y-139738095D02*
X54550057Y-139690476D01*
X54550057Y-139690476D02*
X54645295Y-139642857D01*
X54645295Y-139642857D02*
X54788152Y-139642857D01*
X54788152Y-139642857D02*
X54883390Y-139690476D01*
X54883390Y-139690476D02*
X54931009Y-139738095D01*
X54931009Y-139738095D02*
X54978628Y-139833333D01*
X54978628Y-139833333D02*
X54978628Y-140214285D01*
X54550057Y-139261904D02*
X54502438Y-139214285D01*
X54502438Y-139214285D02*
X54454819Y-139119047D01*
X54454819Y-139119047D02*
X54454819Y-138880952D01*
X54454819Y-138880952D02*
X54502438Y-138785714D01*
X54502438Y-138785714D02*
X54550057Y-138738095D01*
X54550057Y-138738095D02*
X54645295Y-138690476D01*
X54645295Y-138690476D02*
X54740533Y-138690476D01*
X54740533Y-138690476D02*
X54883390Y-138738095D01*
X54883390Y-138738095D02*
X55454819Y-139309523D01*
X55454819Y-139309523D02*
X55454819Y-138690476D01*
X54454819Y-138357142D02*
X54454819Y-137690476D01*
X54454819Y-137690476D02*
X55454819Y-138119047D01*
X38785714Y-83954819D02*
X38785714Y-82954819D01*
X38785714Y-82954819D02*
X39023809Y-82954819D01*
X39023809Y-82954819D02*
X39166666Y-83002438D01*
X39166666Y-83002438D02*
X39261904Y-83097676D01*
X39261904Y-83097676D02*
X39309523Y-83192914D01*
X39309523Y-83192914D02*
X39357142Y-83383390D01*
X39357142Y-83383390D02*
X39357142Y-83526247D01*
X39357142Y-83526247D02*
X39309523Y-83716723D01*
X39309523Y-83716723D02*
X39261904Y-83811961D01*
X39261904Y-83811961D02*
X39166666Y-83907200D01*
X39166666Y-83907200D02*
X39023809Y-83954819D01*
X39023809Y-83954819D02*
X38785714Y-83954819D01*
X39690476Y-82954819D02*
X40309523Y-82954819D01*
X40309523Y-82954819D02*
X39976190Y-83335771D01*
X39976190Y-83335771D02*
X40119047Y-83335771D01*
X40119047Y-83335771D02*
X40214285Y-83383390D01*
X40214285Y-83383390D02*
X40261904Y-83431009D01*
X40261904Y-83431009D02*
X40309523Y-83526247D01*
X40309523Y-83526247D02*
X40309523Y-83764342D01*
X40309523Y-83764342D02*
X40261904Y-83859580D01*
X40261904Y-83859580D02*
X40214285Y-83907200D01*
X40214285Y-83907200D02*
X40119047Y-83954819D01*
X40119047Y-83954819D02*
X39833333Y-83954819D01*
X39833333Y-83954819D02*
X39738095Y-83907200D01*
X39738095Y-83907200D02*
X39690476Y-83859580D01*
X40690476Y-83050057D02*
X40738095Y-83002438D01*
X40738095Y-83002438D02*
X40833333Y-82954819D01*
X40833333Y-82954819D02*
X41071428Y-82954819D01*
X41071428Y-82954819D02*
X41166666Y-83002438D01*
X41166666Y-83002438D02*
X41214285Y-83050057D01*
X41214285Y-83050057D02*
X41261904Y-83145295D01*
X41261904Y-83145295D02*
X41261904Y-83240533D01*
X41261904Y-83240533D02*
X41214285Y-83383390D01*
X41214285Y-83383390D02*
X40642857Y-83954819D01*
X40642857Y-83954819D02*
X41261904Y-83954819D01*
X71107142Y-117204819D02*
X70773809Y-116728628D01*
X70535714Y-117204819D02*
X70535714Y-116204819D01*
X70535714Y-116204819D02*
X70916666Y-116204819D01*
X70916666Y-116204819D02*
X71011904Y-116252438D01*
X71011904Y-116252438D02*
X71059523Y-116300057D01*
X71059523Y-116300057D02*
X71107142Y-116395295D01*
X71107142Y-116395295D02*
X71107142Y-116538152D01*
X71107142Y-116538152D02*
X71059523Y-116633390D01*
X71059523Y-116633390D02*
X71011904Y-116681009D01*
X71011904Y-116681009D02*
X70916666Y-116728628D01*
X70916666Y-116728628D02*
X70535714Y-116728628D01*
X71488095Y-116300057D02*
X71535714Y-116252438D01*
X71535714Y-116252438D02*
X71630952Y-116204819D01*
X71630952Y-116204819D02*
X71869047Y-116204819D01*
X71869047Y-116204819D02*
X71964285Y-116252438D01*
X71964285Y-116252438D02*
X72011904Y-116300057D01*
X72011904Y-116300057D02*
X72059523Y-116395295D01*
X72059523Y-116395295D02*
X72059523Y-116490533D01*
X72059523Y-116490533D02*
X72011904Y-116633390D01*
X72011904Y-116633390D02*
X71440476Y-117204819D01*
X71440476Y-117204819D02*
X72059523Y-117204819D01*
X73011904Y-117204819D02*
X72440476Y-117204819D01*
X72726190Y-117204819D02*
X72726190Y-116204819D01*
X72726190Y-116204819D02*
X72630952Y-116347676D01*
X72630952Y-116347676D02*
X72535714Y-116442914D01*
X72535714Y-116442914D02*
X72440476Y-116490533D01*
X88954819Y-123714285D02*
X87954819Y-123714285D01*
X87954819Y-123714285D02*
X87954819Y-123476190D01*
X87954819Y-123476190D02*
X88002438Y-123333333D01*
X88002438Y-123333333D02*
X88097676Y-123238095D01*
X88097676Y-123238095D02*
X88192914Y-123190476D01*
X88192914Y-123190476D02*
X88383390Y-123142857D01*
X88383390Y-123142857D02*
X88526247Y-123142857D01*
X88526247Y-123142857D02*
X88716723Y-123190476D01*
X88716723Y-123190476D02*
X88811961Y-123238095D01*
X88811961Y-123238095D02*
X88907200Y-123333333D01*
X88907200Y-123333333D02*
X88954819Y-123476190D01*
X88954819Y-123476190D02*
X88954819Y-123714285D01*
X88954819Y-122190476D02*
X88954819Y-122761904D01*
X88954819Y-122476190D02*
X87954819Y-122476190D01*
X87954819Y-122476190D02*
X88097676Y-122571428D01*
X88097676Y-122571428D02*
X88192914Y-122666666D01*
X88192914Y-122666666D02*
X88240533Y-122761904D01*
X87954819Y-121857142D02*
X87954819Y-121190476D01*
X87954819Y-121190476D02*
X88954819Y-121619047D01*
X53204819Y-121142857D02*
X52728628Y-121476190D01*
X53204819Y-121714285D02*
X52204819Y-121714285D01*
X52204819Y-121714285D02*
X52204819Y-121333333D01*
X52204819Y-121333333D02*
X52252438Y-121238095D01*
X52252438Y-121238095D02*
X52300057Y-121190476D01*
X52300057Y-121190476D02*
X52395295Y-121142857D01*
X52395295Y-121142857D02*
X52538152Y-121142857D01*
X52538152Y-121142857D02*
X52633390Y-121190476D01*
X52633390Y-121190476D02*
X52681009Y-121238095D01*
X52681009Y-121238095D02*
X52728628Y-121333333D01*
X52728628Y-121333333D02*
X52728628Y-121714285D01*
X53204819Y-120190476D02*
X53204819Y-120761904D01*
X53204819Y-120476190D02*
X52204819Y-120476190D01*
X52204819Y-120476190D02*
X52347676Y-120571428D01*
X52347676Y-120571428D02*
X52442914Y-120666666D01*
X52442914Y-120666666D02*
X52490533Y-120761904D01*
X53204819Y-119714285D02*
X53204819Y-119523809D01*
X53204819Y-119523809D02*
X53157200Y-119428571D01*
X53157200Y-119428571D02*
X53109580Y-119380952D01*
X53109580Y-119380952D02*
X52966723Y-119285714D01*
X52966723Y-119285714D02*
X52776247Y-119238095D01*
X52776247Y-119238095D02*
X52395295Y-119238095D01*
X52395295Y-119238095D02*
X52300057Y-119285714D01*
X52300057Y-119285714D02*
X52252438Y-119333333D01*
X52252438Y-119333333D02*
X52204819Y-119428571D01*
X52204819Y-119428571D02*
X52204819Y-119619047D01*
X52204819Y-119619047D02*
X52252438Y-119714285D01*
X52252438Y-119714285D02*
X52300057Y-119761904D01*
X52300057Y-119761904D02*
X52395295Y-119809523D01*
X52395295Y-119809523D02*
X52633390Y-119809523D01*
X52633390Y-119809523D02*
X52728628Y-119761904D01*
X52728628Y-119761904D02*
X52776247Y-119714285D01*
X52776247Y-119714285D02*
X52823866Y-119619047D01*
X52823866Y-119619047D02*
X52823866Y-119428571D01*
X52823866Y-119428571D02*
X52776247Y-119333333D01*
X52776247Y-119333333D02*
X52728628Y-119285714D01*
X52728628Y-119285714D02*
X52633390Y-119238095D01*
%TO.C,J5*%
D15*
X50900000Y-72900000D02*
X50900000Y-78100000D01*
X53500000Y-75500000D02*
X53500000Y-78100000D01*
X53500000Y-78100000D02*
X50900000Y-78100000D01*
X56100000Y-72900000D02*
X50900000Y-72900000D01*
X56100000Y-72900000D02*
X56100000Y-75500000D01*
X56100000Y-75500000D02*
X53500000Y-75500000D01*
X56100000Y-76770000D02*
X56100000Y-78100000D01*
X56100000Y-78100000D02*
X54770000Y-78100000D01*
%TO.C,C28*%
X70015000Y-124238748D02*
X70015000Y-124761252D01*
X71485000Y-124238748D02*
X71485000Y-124761252D01*
%TO.C,R39*%
X34265000Y-87227064D02*
X34265000Y-86772936D01*
X35735000Y-87227064D02*
X35735000Y-86772936D01*
%TO.C,C29*%
X83015000Y-121238748D02*
X83015000Y-121761252D01*
X84485000Y-121238748D02*
X84485000Y-121761252D01*
%TO.C,R12*%
X54265000Y-105477064D02*
X54265000Y-105022936D01*
X55735000Y-105477064D02*
X55735000Y-105022936D01*
%TO.C,D23*%
X47040000Y-103390000D02*
X47040000Y-106250000D01*
X48960000Y-103390000D02*
X47040000Y-103390000D01*
X48960000Y-106250000D02*
X48960000Y-103390000D01*
%TO.C,R11*%
X72522936Y-80840000D02*
X73977064Y-80840000D01*
X72522936Y-82660000D02*
X73977064Y-82660000D01*
%TO.C,R22*%
X72522936Y-117840000D02*
X73977064Y-117840000D01*
X72522936Y-119660000D02*
X73977064Y-119660000D01*
%TO.C,C11*%
X83015000Y-84238748D02*
X83015000Y-84761252D01*
X84485000Y-84238748D02*
X84485000Y-84761252D01*
%TO.C,U2*%
X50265000Y-98140000D02*
X51735000Y-98140000D01*
X50265000Y-98165000D02*
X50265000Y-98140000D01*
X50265000Y-99465000D02*
X50265000Y-99035000D01*
X50265000Y-100360000D02*
X50265000Y-100335000D01*
X51735000Y-98140000D02*
X51735000Y-98165000D01*
X51735000Y-100335000D02*
X51735000Y-100360000D01*
X51735000Y-100360000D02*
X50265000Y-100360000D01*
X52320000Y-100530000D02*
X52040000Y-100530000D01*
X52180000Y-100340000D01*
X52320000Y-100530000D01*
G36*
X52320000Y-100530000D02*
G01*
X52040000Y-100530000D01*
X52180000Y-100340000D01*
X52320000Y-100530000D01*
G37*
%TO.C,R30*%
X72265000Y-143227064D02*
X72265000Y-142772936D01*
X73735000Y-143227064D02*
X73735000Y-142772936D01*
%TO.C,D13*%
X85900000Y-106010000D02*
X85900000Y-102750000D01*
X85900000Y-106010000D02*
X87600000Y-106010000D01*
X87600000Y-106010000D02*
X87600000Y-102750000D01*
%TO.C,D21*%
X85900000Y-143010000D02*
X85900000Y-139750000D01*
X85900000Y-143010000D02*
X87600000Y-143010000D01*
X87600000Y-143010000D02*
X87600000Y-139750000D01*
%TO.C,D2*%
D16*
X14750000Y-81450000D02*
X14750000Y-93550000D01*
X14750000Y-81450000D02*
X22750000Y-81450000D01*
X14750000Y-93550000D02*
X22750000Y-93550000D01*
X22750000Y-81450000D02*
X22750000Y-93550000D01*
%TO.C,C37*%
D15*
X70015000Y-142738748D02*
X70015000Y-143261252D01*
X71485000Y-142738748D02*
X71485000Y-143261252D01*
%TO.C,C20*%
X83015000Y-102738748D02*
X83015000Y-103261252D01*
X84485000Y-102738748D02*
X84485000Y-103261252D01*
%TO.C,Q5*%
X28690000Y-109240000D02*
X28740000Y-109240000D01*
X28690000Y-110760000D02*
X28690000Y-109240000D01*
X29690000Y-110760000D02*
X28690000Y-110760000D01*
X29860000Y-109240000D02*
X30640000Y-109240000D01*
X31760000Y-109240000D02*
X31810000Y-109240000D01*
X31810000Y-109240000D02*
X31810000Y-110760000D01*
X31810000Y-110760000D02*
X30810000Y-110760000D01*
X30630000Y-108700000D02*
X30300000Y-108940000D01*
X30300000Y-108460000D01*
X30630000Y-108700000D01*
G36*
X30630000Y-108700000D02*
G01*
X30300000Y-108940000D01*
X30300000Y-108460000D01*
X30630000Y-108700000D01*
G37*
%TO.C,R25*%
X49765000Y-142022936D02*
X49765000Y-142477064D01*
X51235000Y-142022936D02*
X51235000Y-142477064D01*
%TO.C,D5*%
X17000000Y-122210000D02*
X19860000Y-122210000D01*
X19860000Y-120290000D02*
X17000000Y-120290000D01*
X19860000Y-122210000D02*
X19860000Y-120290000D01*
%TO.C,R7*%
X54265000Y-86977064D02*
X54265000Y-86522936D01*
X55735000Y-86977064D02*
X55735000Y-86522936D01*
%TO.C,J9*%
X23223622Y-72900000D02*
X23223622Y-78100000D01*
X23223622Y-72900000D02*
X25823622Y-72900000D01*
X23223622Y-78100000D02*
X28423622Y-78100000D01*
X25823622Y-72900000D02*
X25823622Y-75500000D01*
X25823622Y-75500000D02*
X28423622Y-75500000D01*
X27093622Y-72900000D02*
X28423622Y-72900000D01*
X28423622Y-72900000D02*
X28423622Y-74230000D01*
X28423622Y-75500000D02*
X28423622Y-78100000D01*
%TO.C,U6*%
X30840000Y-85440000D02*
X32660000Y-85440000D01*
X30840000Y-85490000D02*
X30840000Y-85440000D01*
X30840000Y-88560000D02*
X30840000Y-88510000D01*
X32660000Y-85440000D02*
X32660000Y-85490000D01*
X32660000Y-88510000D02*
X32660000Y-88560000D01*
X32660000Y-88560000D02*
X30840000Y-88560000D01*
X30300000Y-85490000D02*
X30060000Y-85160000D01*
X30540000Y-85160000D01*
X30300000Y-85490000D01*
G36*
X30300000Y-85490000D02*
G01*
X30060000Y-85160000D01*
X30540000Y-85160000D01*
X30300000Y-85490000D01*
G37*
%TO.C,C6*%
X102880000Y-74130000D02*
X118120000Y-74130000D01*
X102880000Y-105870000D02*
X102880000Y-74130000D01*
X118120000Y-74130000D02*
X118120000Y-105870000D01*
X118120000Y-105870000D02*
X102880000Y-105870000D01*
%TO.C,D33*%
X37940000Y-91440000D02*
X42060000Y-91440000D01*
X37940000Y-91535000D02*
X37940000Y-91440000D01*
X37940000Y-96560000D02*
X37940000Y-96465000D01*
X42060000Y-91440000D02*
X42060000Y-91535000D01*
X42060000Y-96465000D02*
X42060000Y-96560000D01*
X42060000Y-96560000D02*
X37940000Y-96560000D01*
X42840000Y-96800000D02*
X42360000Y-96800000D01*
X42600000Y-96470000D01*
X42840000Y-96800000D01*
G36*
X42840000Y-96800000D02*
G01*
X42360000Y-96800000D01*
X42600000Y-96470000D01*
X42840000Y-96800000D01*
G37*
%TO.C,C38*%
X83015000Y-139738748D02*
X83015000Y-140261252D01*
X84485000Y-139738748D02*
X84485000Y-140261252D01*
%TO.C,R41*%
X34265000Y-124227064D02*
X34265000Y-123772936D01*
X35735000Y-124227064D02*
X35735000Y-123772936D01*
%TO.C,D3*%
X44790000Y-84890000D02*
X44790000Y-87750000D01*
X46710000Y-84890000D02*
X44790000Y-84890000D01*
X46710000Y-87750000D02*
X46710000Y-84890000D01*
%TO.C,R2*%
X52015000Y-86522936D02*
X52015000Y-86977064D01*
X53485000Y-86522936D02*
X53485000Y-86977064D01*
%TO.C,J7*%
X50900000Y-109900000D02*
X50900000Y-115100000D01*
X53500000Y-112500000D02*
X53500000Y-115100000D01*
X53500000Y-115100000D02*
X50900000Y-115100000D01*
X56100000Y-109900000D02*
X50900000Y-109900000D01*
X56100000Y-109900000D02*
X56100000Y-112500000D01*
X56100000Y-112500000D02*
X53500000Y-112500000D01*
X56100000Y-113770000D02*
X56100000Y-115100000D01*
X56100000Y-115100000D02*
X54770000Y-115100000D01*
%TO.C,D10*%
X85100000Y-73740000D02*
X85100000Y-80750000D01*
X88400000Y-73740000D02*
X85100000Y-73740000D01*
X88400000Y-73740000D02*
X88400000Y-80750000D01*
%TO.C,R10*%
X73977064Y-83340000D02*
X72522936Y-83340000D01*
X73977064Y-85160000D02*
X72522936Y-85160000D01*
%TO.C,R3*%
X49765000Y-105022936D02*
X49765000Y-105477064D01*
X51235000Y-105022936D02*
X51235000Y-105477064D01*
%TO.C,D14*%
X85100000Y-92240000D02*
X85100000Y-99250000D01*
X88400000Y-92240000D02*
X85100000Y-92240000D01*
X88400000Y-92240000D02*
X88400000Y-99250000D01*
%TO.C,U9*%
X30840000Y-129440000D02*
X32660000Y-129440000D01*
X30840000Y-129490000D02*
X30840000Y-129440000D01*
X30840000Y-132560000D02*
X30840000Y-132510000D01*
X32660000Y-129440000D02*
X32660000Y-129490000D01*
X32660000Y-132510000D02*
X32660000Y-132560000D01*
X32660000Y-132560000D02*
X30840000Y-132560000D01*
X30300000Y-129490000D02*
X30060000Y-129160000D01*
X30540000Y-129160000D01*
X30300000Y-129490000D01*
G36*
X30300000Y-129490000D02*
G01*
X30060000Y-129160000D01*
X30540000Y-129160000D01*
X30300000Y-129490000D01*
G37*
%TO.C,D11*%
X58890000Y-96740000D02*
X66610000Y-96740000D01*
X58890000Y-96995000D02*
X58890000Y-96740000D01*
X58890000Y-107260000D02*
X58890000Y-107005000D01*
X66610000Y-96740000D02*
X66610000Y-96995000D01*
X66610000Y-107005000D02*
X66610000Y-107260000D01*
X66610000Y-107260000D02*
X58890000Y-107260000D01*
X67740000Y-107480000D02*
X67060000Y-107480000D01*
X67400000Y-107010000D01*
X67740000Y-107480000D01*
G36*
X67740000Y-107480000D02*
G01*
X67060000Y-107480000D01*
X67400000Y-107010000D01*
X67740000Y-107480000D01*
G37*
%TO.C,R28*%
X73977064Y-138840000D02*
X72522936Y-138840000D01*
X73977064Y-140660000D02*
X72522936Y-140660000D01*
%TO.C,U3*%
X50265000Y-116640000D02*
X51735000Y-116640000D01*
X50265000Y-116665000D02*
X50265000Y-116640000D01*
X50265000Y-117965000D02*
X50265000Y-117535000D01*
X50265000Y-118860000D02*
X50265000Y-118835000D01*
X51735000Y-116640000D02*
X51735000Y-116665000D01*
X51735000Y-118835000D02*
X51735000Y-118860000D01*
X51735000Y-118860000D02*
X50265000Y-118860000D01*
X52320000Y-119030000D02*
X52040000Y-119030000D01*
X52180000Y-118840000D01*
X52320000Y-119030000D01*
G36*
X52320000Y-119030000D02*
G01*
X52040000Y-119030000D01*
X52180000Y-118840000D01*
X52320000Y-119030000D01*
G37*
%TO.C,D24*%
X44790000Y-121890000D02*
X44790000Y-124750000D01*
X46710000Y-121890000D02*
X44790000Y-121890000D01*
X46710000Y-124750000D02*
X46710000Y-121890000D01*
%TO.C,D18*%
X85100000Y-110740000D02*
X85100000Y-117750000D01*
X88400000Y-110740000D02*
X85100000Y-110740000D01*
X88400000Y-110740000D02*
X88400000Y-117750000D01*
%TO.C,D35*%
X37940000Y-128440000D02*
X42060000Y-128440000D01*
X37940000Y-128535000D02*
X37940000Y-128440000D01*
X37940000Y-133560000D02*
X37940000Y-133465000D01*
X42060000Y-128440000D02*
X42060000Y-128535000D01*
X42060000Y-133465000D02*
X42060000Y-133560000D01*
X42060000Y-133560000D02*
X37940000Y-133560000D01*
X42840000Y-133800000D02*
X42360000Y-133800000D01*
X42600000Y-133470000D01*
X42840000Y-133800000D01*
G36*
X42840000Y-133800000D02*
G01*
X42360000Y-133800000D01*
X42600000Y-133470000D01*
X42840000Y-133800000D01*
G37*
%TO.C,C14*%
X95088748Y-88290000D02*
X97411252Y-88290000D01*
X95088748Y-91710000D02*
X97411252Y-91710000D01*
%TO.C,D6*%
X44790000Y-103390000D02*
X44790000Y-106250000D01*
X46710000Y-103390000D02*
X44790000Y-103390000D01*
X46710000Y-106250000D02*
X46710000Y-103390000D01*
%TO.C,R15*%
X72522936Y-99340000D02*
X73977064Y-99340000D01*
X72522936Y-101160000D02*
X73977064Y-101160000D01*
%TO.C,D1*%
X37690000Y-103565000D02*
X41810000Y-103565000D01*
X37690000Y-103630000D02*
X37690000Y-103565000D01*
X37690000Y-112435000D02*
X37690000Y-112370000D01*
X41810000Y-103565000D02*
X41810000Y-103630000D01*
X41810000Y-112370000D02*
X41810000Y-112435000D01*
X41810000Y-112435000D02*
X37690000Y-112435000D01*
X42590000Y-112700000D02*
X42110000Y-112700000D01*
X42350000Y-112370000D01*
X42590000Y-112700000D01*
G36*
X42590000Y-112700000D02*
G01*
X42110000Y-112700000D01*
X42350000Y-112370000D01*
X42590000Y-112700000D01*
G37*
%TO.C,R9*%
X52015000Y-105022936D02*
X52015000Y-105477064D01*
X53485000Y-105022936D02*
X53485000Y-105477064D01*
%TO.C,R23*%
X72265000Y-124727064D02*
X72265000Y-124272936D01*
X73735000Y-124727064D02*
X73735000Y-124272936D01*
%TO.C,U1*%
X50265000Y-79640000D02*
X51735000Y-79640000D01*
X50265000Y-79665000D02*
X50265000Y-79640000D01*
X50265000Y-80965000D02*
X50265000Y-80535000D01*
X50265000Y-81860000D02*
X50265000Y-81835000D01*
X51735000Y-79640000D02*
X51735000Y-79665000D01*
X51735000Y-81835000D02*
X51735000Y-81860000D01*
X51735000Y-81860000D02*
X50265000Y-81860000D01*
X52320000Y-82030000D02*
X52040000Y-82030000D01*
X52180000Y-81840000D01*
X52320000Y-82030000D01*
G36*
X52320000Y-82030000D02*
G01*
X52040000Y-82030000D01*
X52180000Y-81840000D01*
X52320000Y-82030000D01*
G37*
%TO.C,R26*%
X52015000Y-142022936D02*
X52015000Y-142477064D01*
X53485000Y-142022936D02*
X53485000Y-142477064D01*
%TO.C,R40*%
X34265000Y-94227064D02*
X34265000Y-93772936D01*
X35735000Y-94227064D02*
X35735000Y-93772936D01*
%TO.C,R100*%
X30022936Y-106015000D02*
X30477064Y-106015000D01*
X30022936Y-107485000D02*
X30477064Y-107485000D01*
%TO.C,R29*%
X72522936Y-136340000D02*
X73977064Y-136340000D01*
X72522936Y-138160000D02*
X73977064Y-138160000D01*
%TO.C,D9*%
X85900000Y-87510000D02*
X85900000Y-84250000D01*
X85900000Y-87510000D02*
X87600000Y-87510000D01*
X87600000Y-87510000D02*
X87600000Y-84250000D01*
%TO.C,D19*%
X58890000Y-133740000D02*
X66610000Y-133740000D01*
X58890000Y-133995000D02*
X58890000Y-133740000D01*
X58890000Y-144260000D02*
X58890000Y-144005000D01*
X66610000Y-133740000D02*
X66610000Y-133995000D01*
X66610000Y-144005000D02*
X66610000Y-144260000D01*
X66610000Y-144260000D02*
X58890000Y-144260000D01*
X67740000Y-144480000D02*
X67060000Y-144480000D01*
X67400000Y-144010000D01*
X67740000Y-144480000D01*
G36*
X67740000Y-144480000D02*
G01*
X67060000Y-144480000D01*
X67400000Y-144010000D01*
X67740000Y-144480000D01*
G37*
%TO.C,D34*%
X37940000Y-121440000D02*
X42060000Y-121440000D01*
X37940000Y-121535000D02*
X37940000Y-121440000D01*
X37940000Y-126560000D02*
X37940000Y-126465000D01*
X42060000Y-121440000D02*
X42060000Y-121535000D01*
X42060000Y-126465000D02*
X42060000Y-126560000D01*
X42060000Y-126560000D02*
X37940000Y-126560000D01*
X42840000Y-126800000D02*
X42360000Y-126800000D01*
X42600000Y-126470000D01*
X42840000Y-126800000D01*
G36*
X42840000Y-126800000D02*
G01*
X42360000Y-126800000D01*
X42600000Y-126470000D01*
X42840000Y-126800000D01*
G37*
%TO.C,U8*%
X30840000Y-122440000D02*
X32660000Y-122440000D01*
X30840000Y-122490000D02*
X30840000Y-122440000D01*
X30840000Y-125560000D02*
X30840000Y-125510000D01*
X32660000Y-122440000D02*
X32660000Y-122490000D01*
X32660000Y-125510000D02*
X32660000Y-125560000D01*
X32660000Y-125560000D02*
X30840000Y-125560000D01*
X30300000Y-122490000D02*
X30060000Y-122160000D01*
X30540000Y-122160000D01*
X30300000Y-122490000D01*
G36*
X30300000Y-122490000D02*
G01*
X30060000Y-122160000D01*
X30540000Y-122160000D01*
X30300000Y-122490000D01*
G37*
%TO.C,R1*%
X49765000Y-86522936D02*
X49765000Y-86977064D01*
X51235000Y-86522936D02*
X51235000Y-86977064D01*
%TO.C,C19*%
X70015000Y-105738748D02*
X70015000Y-106261252D01*
X71485000Y-105738748D02*
X71485000Y-106261252D01*
%TO.C,D4*%
X47040000Y-84890000D02*
X47040000Y-87750000D01*
X48960000Y-84890000D02*
X47040000Y-84890000D01*
X48960000Y-87750000D02*
X48960000Y-84890000D01*
%TO.C,R16*%
X72265000Y-106227064D02*
X72265000Y-105772936D01*
X73735000Y-106227064D02*
X73735000Y-105772936D01*
%TO.C,D26*%
X44790000Y-140390000D02*
X44790000Y-143250000D01*
X46710000Y-140390000D02*
X44790000Y-140390000D01*
X46710000Y-143250000D02*
X46710000Y-140390000D01*
%TO.C,C30*%
X95088748Y-125290000D02*
X97411252Y-125290000D01*
X95088748Y-128710000D02*
X97411252Y-128710000D01*
%TO.C,U4*%
X50265000Y-135140000D02*
X51735000Y-135140000D01*
X50265000Y-135165000D02*
X50265000Y-135140000D01*
X50265000Y-136465000D02*
X50265000Y-136035000D01*
X50265000Y-137360000D02*
X50265000Y-137335000D01*
X51735000Y-135140000D02*
X51735000Y-135165000D01*
X51735000Y-137335000D02*
X51735000Y-137360000D01*
X51735000Y-137360000D02*
X50265000Y-137360000D01*
X52320000Y-137530000D02*
X52040000Y-137530000D01*
X52180000Y-137340000D01*
X52320000Y-137530000D01*
G36*
X52320000Y-137530000D02*
G01*
X52040000Y-137530000D01*
X52180000Y-137340000D01*
X52320000Y-137530000D01*
G37*
%TO.C,D27*%
X47040000Y-140390000D02*
X47040000Y-143250000D01*
X48960000Y-140390000D02*
X47040000Y-140390000D01*
X48960000Y-143250000D02*
X48960000Y-140390000D01*
%TO.C,D25*%
X47040000Y-121890000D02*
X47040000Y-124750000D01*
X48960000Y-121890000D02*
X47040000Y-121890000D01*
X48960000Y-124750000D02*
X48960000Y-121890000D01*
%TO.C,R14*%
X73977064Y-101840000D02*
X72522936Y-101840000D01*
X73977064Y-103660000D02*
X72522936Y-103660000D01*
%TO.C,D28*%
X17000000Y-125210000D02*
X19860000Y-125210000D01*
X19860000Y-123290000D02*
X17000000Y-123290000D01*
X19860000Y-125210000D02*
X19860000Y-123290000D01*
%TO.C,D22*%
X85100000Y-129240000D02*
X85100000Y-136250000D01*
X88400000Y-129240000D02*
X85100000Y-129240000D01*
X88400000Y-129240000D02*
X88400000Y-136250000D01*
%TO.C,C12*%
X70015000Y-87238748D02*
X70015000Y-87761252D01*
X71485000Y-87238748D02*
X71485000Y-87761252D01*
%TO.C,R20*%
X54265000Y-123977064D02*
X54265000Y-123522936D01*
X55735000Y-123977064D02*
X55735000Y-123522936D01*
%TO.C,R42*%
X34265000Y-131227064D02*
X34265000Y-130772936D01*
X35735000Y-131227064D02*
X35735000Y-130772936D01*
%TO.C,D15*%
X58890000Y-115240000D02*
X66610000Y-115240000D01*
X58890000Y-115495000D02*
X58890000Y-115240000D01*
X58890000Y-125760000D02*
X58890000Y-125505000D01*
X66610000Y-115240000D02*
X66610000Y-115495000D01*
X66610000Y-125505000D02*
X66610000Y-125760000D01*
X66610000Y-125760000D02*
X58890000Y-125760000D01*
X67740000Y-125980000D02*
X67060000Y-125980000D01*
X67400000Y-125510000D01*
X67740000Y-125980000D01*
G36*
X67740000Y-125980000D02*
G01*
X67060000Y-125980000D01*
X67400000Y-125510000D01*
X67740000Y-125980000D01*
G37*
%TO.C,R101*%
X32515000Y-110227064D02*
X32515000Y-109772936D01*
X33985000Y-110227064D02*
X33985000Y-109772936D01*
%TO.C,R18*%
X49765000Y-123522936D02*
X49765000Y-123977064D01*
X51235000Y-123522936D02*
X51235000Y-123977064D01*
%TO.C,J6*%
X50900000Y-91400000D02*
X50900000Y-96600000D01*
X53500000Y-94000000D02*
X53500000Y-96600000D01*
X53500000Y-96600000D02*
X50900000Y-96600000D01*
X56100000Y-91400000D02*
X50900000Y-91400000D01*
X56100000Y-91400000D02*
X56100000Y-94000000D01*
X56100000Y-94000000D02*
X53500000Y-94000000D01*
X56100000Y-95270000D02*
X56100000Y-96600000D01*
X56100000Y-96600000D02*
X54770000Y-96600000D01*
%TO.C,J8*%
X50900000Y-128400000D02*
X50900000Y-133600000D01*
X53500000Y-131000000D02*
X53500000Y-133600000D01*
X53500000Y-133600000D02*
X50900000Y-133600000D01*
X56100000Y-128400000D02*
X50900000Y-128400000D01*
X56100000Y-128400000D02*
X56100000Y-131000000D01*
X56100000Y-131000000D02*
X53500000Y-131000000D01*
X56100000Y-132270000D02*
X56100000Y-133600000D01*
X56100000Y-133600000D02*
X54770000Y-133600000D01*
%TO.C,R13*%
X72265000Y-87727064D02*
X72265000Y-87272936D01*
X73735000Y-87727064D02*
X73735000Y-87272936D01*
%TO.C,J10*%
X14450000Y-101350000D02*
X14450000Y-114650000D01*
X14450000Y-114650000D02*
X16190000Y-114650000D01*
X16190000Y-101350000D02*
X14450000Y-101350000D01*
X20250000Y-101350000D02*
X18910000Y-101350000D01*
X20250000Y-102840000D02*
X20250000Y-101350000D01*
X20250000Y-102840000D02*
X21450000Y-102840000D01*
X20250000Y-113160000D02*
X20250000Y-114650000D01*
X20250000Y-114650000D02*
X18910000Y-114650000D01*
%TO.C,J12*%
X23223622Y-128400000D02*
X23223622Y-133600000D01*
X23223622Y-128400000D02*
X25823622Y-128400000D01*
X23223622Y-133600000D02*
X28423622Y-133600000D01*
X25823622Y-128400000D02*
X25823622Y-131000000D01*
X25823622Y-131000000D02*
X28423622Y-131000000D01*
X27093622Y-128400000D02*
X28423622Y-128400000D01*
X28423622Y-128400000D02*
X28423622Y-129730000D01*
X28423622Y-131000000D02*
X28423622Y-133600000D01*
%TO.C,C8*%
X102880000Y-111130000D02*
X118120000Y-111130000D01*
X102880000Y-142870000D02*
X102880000Y-111130000D01*
X118120000Y-111130000D02*
X118120000Y-142870000D01*
X118120000Y-142870000D02*
X102880000Y-142870000D01*
%TO.C,D7*%
X58890000Y-78240000D02*
X66610000Y-78240000D01*
X58890000Y-78495000D02*
X58890000Y-78240000D01*
X58890000Y-88760000D02*
X58890000Y-88505000D01*
X66610000Y-78240000D02*
X66610000Y-78495000D01*
X66610000Y-88505000D02*
X66610000Y-88760000D01*
X66610000Y-88760000D02*
X58890000Y-88760000D01*
X67740000Y-88980000D02*
X67060000Y-88980000D01*
X67400000Y-88510000D01*
X67740000Y-88980000D01*
G36*
X67740000Y-88980000D02*
G01*
X67060000Y-88980000D01*
X67400000Y-88510000D01*
X67740000Y-88980000D01*
G37*
%TO.C,U7*%
X30840000Y-92440000D02*
X32660000Y-92440000D01*
X30840000Y-92490000D02*
X30840000Y-92440000D01*
X30840000Y-95560000D02*
X30840000Y-95510000D01*
X32660000Y-92440000D02*
X32660000Y-92490000D01*
X32660000Y-95510000D02*
X32660000Y-95560000D01*
X32660000Y-95560000D02*
X30840000Y-95560000D01*
X30300000Y-92490000D02*
X30060000Y-92160000D01*
X30540000Y-92160000D01*
X30300000Y-92490000D01*
G36*
X30300000Y-92490000D02*
G01*
X30060000Y-92160000D01*
X30540000Y-92160000D01*
X30300000Y-92490000D01*
G37*
%TO.C,R27*%
X54265000Y-142477064D02*
X54265000Y-142022936D01*
X55735000Y-142477064D02*
X55735000Y-142022936D01*
%TO.C,D32*%
X37940000Y-84440000D02*
X42060000Y-84440000D01*
X37940000Y-84535000D02*
X37940000Y-84440000D01*
X37940000Y-89560000D02*
X37940000Y-89465000D01*
X42060000Y-84440000D02*
X42060000Y-84535000D01*
X42060000Y-89465000D02*
X42060000Y-89560000D01*
X42060000Y-89560000D02*
X37940000Y-89560000D01*
X42840000Y-89800000D02*
X42360000Y-89800000D01*
X42600000Y-89470000D01*
X42840000Y-89800000D01*
G36*
X42840000Y-89800000D02*
G01*
X42360000Y-89800000D01*
X42600000Y-89470000D01*
X42840000Y-89800000D01*
G37*
%TO.C,R21*%
X73977064Y-120340000D02*
X72522936Y-120340000D01*
X73977064Y-122160000D02*
X72522936Y-122160000D01*
%TO.C,D17*%
X85900000Y-124510000D02*
X85900000Y-121250000D01*
X85900000Y-124510000D02*
X87600000Y-124510000D01*
X87600000Y-124510000D02*
X87600000Y-121250000D01*
%TO.C,R19*%
X52015000Y-123522936D02*
X52015000Y-123977064D01*
X53485000Y-123522936D02*
X53485000Y-123977064D01*
%TD*%
M02*
