M48
; DRILL file KiCad 10.0.1 date 2026-06-08T18:18:19
; FORMAT={-:-/ absolute / metric / decimal}
; #@! TF.CreationDate,2026-06-08T18:18:19+03:00
; #@! TF.GenerationSoftware,Kicad,Pcbnew,10.0.1
; #@! TF.FileFunction,Plated,1,4,PTH
FMAT,2
METRIC
; #@! TA.AperFunction,Plated,PTH,ViaDrill
T1C0.300
; #@! TA.AperFunction,Plated,PTH,ComponentDrill
T2C1.000
; #@! TA.AperFunction,Plated,PTH,ComponentDrill
T3C1.200
; #@! TA.AperFunction,Plated,PTH,ComponentDrill
T4C1.500
%
G90
G05
T1
X16.0Y-121.25
X16.0Y-124.25
X19.0Y-122.75
X19.75Y-103.25
X19.75Y-104.75
X19.75Y-106.25
X19.75Y-107.25
X19.75Y-108.75
X19.75Y-110.25
X19.75Y-111.75
X20.1Y-121.252
X20.1Y-124.25
X21.775Y-103.72
X21.807Y-106.75
X22.0Y-85.75
X22.0Y-86.75
X22.0Y-88.0
X22.0Y-88.75
X22.0Y-89.5
X22.0Y-90.5
X22.25Y-105.25
X23.25Y-92.0
X23.5Y-85.75
X23.5Y-86.75
X24.25Y-85.75
X24.25Y-86.75
X25.0Y-85.75
X25.0Y-86.75
X25.25Y-90.5
X25.25Y-91.25
X25.25Y-92.0
X25.25Y-92.75
X25.75Y-85.75
X26.0Y-90.5
X26.0Y-91.25
X26.0Y-92.0
X26.0Y-92.75
X26.5Y-85.75
X26.75Y-90.5
X26.75Y-91.25
X26.75Y-92.0
X27.25Y-85.75
X27.5Y-88.0
X27.5Y-88.75
X27.5Y-89.5
X27.5Y-90.5
X27.5Y-91.25
X28.0Y-85.75
X28.25Y-88.0
X28.25Y-88.75
X28.25Y-89.5
X28.25Y-90.5
X28.25Y-106.75
X29.3Y-108.05
X30.25Y-112.0
X31.5Y-87.0
X31.5Y-94.0
X31.5Y-124.0
X31.5Y-131.0
X33.25Y-108.25
X33.75Y-87.0
X33.75Y-94.0
X33.75Y-124.0
X33.75Y-131.0
X38.345Y-88.905
X38.345Y-95.905
X38.345Y-125.905
X38.345Y-132.905
X38.405Y-85.095
X38.405Y-92.095
X38.405Y-122.095
X38.405Y-129.095
X38.44Y-111.81
X40.79Y-105.46
X41.06Y-104.19
X41.595Y-85.095
X41.595Y-92.095
X41.655Y-122.095
X41.655Y-129.095
X42.75Y-116.5
X43.44Y-111.81
X43.46Y-110.54
X43.48Y-106.73
X43.5Y-108.0
X43.5Y-142.25
X43.655Y-88.905
X43.655Y-125.905
X45.75Y-84.5
X45.75Y-88.75
X45.75Y-103.0
X45.75Y-107.25
X45.75Y-121.5
X45.75Y-125.75
X45.75Y-140.0
X45.75Y-144.25
X46.75Y-84.75
X46.75Y-103.25
X46.75Y-121.75
X46.75Y-140.25
X48.0Y-84.5
X48.0Y-88.75
X48.0Y-103.0
X48.0Y-107.25
X48.0Y-121.5
X48.0Y-125.75
X48.0Y-140.0
X48.0Y-144.25
X49.35Y-80.1
X49.35Y-81.4
X49.35Y-98.6
X49.35Y-99.9
X49.35Y-117.1
X49.35Y-118.4
X49.35Y-135.6
X49.35Y-136.9
X50.5Y-84.0
X50.5Y-102.5
X50.5Y-121.0
X50.5Y-139.5
X52.65Y-80.1
X52.65Y-98.6
X52.65Y-117.1
X52.65Y-135.6
X52.75Y-88.875
X52.75Y-107.375
X52.75Y-125.875
X52.75Y-144.375
X53.365Y-84.135
X53.365Y-102.635
X53.365Y-121.135
X53.365Y-139.635
X55.0Y-88.875
X55.0Y-107.375
X55.0Y-125.875
X55.0Y-144.375
X56.25Y-85.405
X56.25Y-103.905
X56.25Y-122.405
X56.25Y-140.905
X56.5Y-100.095
X56.5Y-137.095
X56.555Y-79.055
X56.555Y-97.555
X56.555Y-116.055
X56.555Y-134.555
X56.575Y-80.325
X56.575Y-117.325
X56.805Y-87.945
X56.805Y-106.445
X56.805Y-124.945
X56.805Y-143.445
X56.825Y-86.675
X56.825Y-105.175
X56.825Y-123.675
X56.825Y-142.175
X68.75Y-88.25
X68.75Y-106.75
X68.75Y-125.25
X68.75Y-143.75
X68.885Y-82.865
X68.885Y-101.365
X68.885Y-119.865
X68.885Y-138.365
X68.905Y-85.405
X68.905Y-103.905
X68.905Y-122.405
X68.905Y-140.905
X69.0Y-79.0
X69.0Y-86.675
X69.0Y-97.5
X69.0Y-105.175
X69.0Y-116.0
X69.0Y-123.675
X69.0Y-134.5
X69.0Y-142.175
X71.579Y-88.551
X71.579Y-107.051
X71.579Y-125.551
X71.579Y-144.051
X72.5Y-76.5
X72.5Y-95.0
X72.5Y-113.5
X72.5Y-132.0
X73.75Y-76.5
X73.75Y-95.0
X73.75Y-113.5
X73.75Y-132.0
X93.0Y-92.25
X93.0Y-129.25
X93.75Y-92.25
X93.75Y-129.25
X94.5Y-92.25
X94.5Y-129.25
X98.0Y-92.25
X98.0Y-129.25
X98.75Y-92.25
X98.75Y-129.25
X99.5Y-92.25
X99.5Y-129.25
T2
X17.125Y-84.96
X17.125Y-87.5
X17.125Y-90.04
X24.554Y-74.23
X24.554Y-76.77
X24.554Y-129.73
X24.554Y-132.27
X27.094Y-74.23
X27.094Y-76.77
X27.094Y-129.73
X27.094Y-132.27
X52.23Y-74.23
X52.23Y-76.77
X52.23Y-92.73
X52.23Y-95.27
X52.23Y-111.23
X52.23Y-113.77
X52.23Y-129.73
X52.23Y-132.27
X54.77Y-74.23
X54.77Y-76.77
X54.77Y-92.73
X54.77Y-95.27
X54.77Y-111.23
X54.77Y-113.77
X54.77Y-129.73
X54.77Y-132.27
X123.25Y-88.75
X134.75Y-101.25
X134.75Y-115.75
X134.75Y-131.5
T3
X110.5Y-76.25
X110.5Y-103.75
X110.5Y-113.25
X110.5Y-140.75
T4
X79.86Y-75.67
X79.86Y-80.75
X79.86Y-83.29
X79.86Y-85.83
X79.86Y-94.17
X79.86Y-99.25
X79.86Y-101.79
X79.86Y-104.33
X79.86Y-112.67
X79.86Y-117.75
X79.86Y-120.29
X79.86Y-122.83
X79.86Y-131.17
X79.86Y-136.25
X79.86Y-138.79
X79.86Y-141.33
M30
